<?xml version="1.0" encoding="utf-8" standalone="no"?>
<!DOCTYPE svg PUBLIC "-//W3C//DTD SVG 1.1//EN"
  "http://www.w3.org/Graphics/SVG/1.1/DTD/svg11.dtd">
<!-- Created with matplotlib (https://matplotlib.org/) -->
<svg height="432pt" version="1.1" viewBox="0 0 720 432" width="720pt" xmlns="http://www.w3.org/2000/svg" xmlns:xlink="http://www.w3.org/1999/xlink">
 <defs>
  <style type="text/css">
*{stroke-linecap:butt;stroke-linejoin:round;}
  </style>
 </defs>
 <g id="figure_1">
  <g id="patch_1">
   <path d="M 0 432 
L 720 432 
L 720 0 
L 0 0 
z
" style="fill:#ffffff;"/>
  </g>
  <g id="axes_1">
   <g id="patch_2">
    <path d="M 90 378 
L 648 378 
L 648 51.84 
L 90 51.84 
z
" style="fill:#ffffff;"/>
   </g>
   <g id="matplotlib.axis_1">
    <g id="xtick_1">
     <g id="line2d_1">
      <defs>
       <path d="M 0 0 
L 0 3.5 
" id="m6c731cedd6" style="stroke:#000000;stroke-width:0.8;"/>
      </defs>
      <g>
       <use style="stroke:#000000;stroke-width:0.8;" x="90" xlink:href="#m6c731cedd6" y="378"/>
      </g>
     </g>
     <g id="text_1">
      <!-- 0 -->
      <defs>
       <path d="M 31.78125 66.40625 
Q 24.171875 66.40625 20.328125 58.90625 
Q 16.5 51.421875 16.5 36.375 
Q 16.5 21.390625 20.328125 13.890625 
Q 24.171875 6.390625 31.78125 6.390625 
Q 39.453125 6.390625 43.28125 13.890625 
Q 47.125 21.390625 47.125 36.375 
Q 47.125 51.421875 43.28125 58.90625 
Q 39.453125 66.40625 31.78125 66.40625 
z
M 31.78125 74.21875 
Q 44.046875 74.21875 50.515625 64.515625 
Q 56.984375 54.828125 56.984375 36.375 
Q 56.984375 17.96875 50.515625 8.265625 
Q 44.046875 -1.421875 31.78125 -1.421875 
Q 19.53125 -1.421875 13.0625 8.265625 
Q 6.59375 17.96875 6.59375 36.375 
Q 6.59375 54.828125 13.0625 64.515625 
Q 19.53125 74.21875 31.78125 74.21875 
z
" id="DejaVuSans-48"/>
      </defs>
      <g transform="translate(86.81875 392.598437)scale(0.1 -0.1)">
       <use xlink:href="#DejaVuSans-48"/>
      </g>
     </g>
    </g>
    <g id="xtick_2">
     <g id="line2d_2">
      <g>
       <use style="stroke:#000000;stroke-width:0.8;" x="201.6" xlink:href="#m6c731cedd6" y="378"/>
      </g>
     </g>
     <g id="text_2">
      <!-- 200 -->
      <defs>
       <path d="M 19.1875 8.296875 
L 53.609375 8.296875 
L 53.609375 0 
L 7.328125 0 
L 7.328125 8.296875 
Q 12.9375 14.109375 22.625 23.890625 
Q 32.328125 33.6875 34.8125 36.53125 
Q 39.546875 41.84375 41.421875 45.53125 
Q 43.3125 49.21875 43.3125 52.78125 
Q 43.3125 58.59375 39.234375 62.25 
Q 35.15625 65.921875 28.609375 65.921875 
Q 23.96875 65.921875 18.8125 64.3125 
Q 13.671875 62.703125 7.8125 59.421875 
L 7.8125 69.390625 
Q 13.765625 71.78125 18.9375 73 
Q 24.125 74.21875 28.421875 74.21875 
Q 39.75 74.21875 46.484375 68.546875 
Q 53.21875 62.890625 53.21875 53.421875 
Q 53.21875 48.921875 51.53125 44.890625 
Q 49.859375 40.875 45.40625 35.40625 
Q 44.1875 33.984375 37.640625 27.21875 
Q 31.109375 20.453125 19.1875 8.296875 
z
" id="DejaVuSans-50"/>
      </defs>
      <g transform="translate(192.05625 392.598437)scale(0.1 -0.1)">
       <use xlink:href="#DejaVuSans-50"/>
       <use x="63.623047" xlink:href="#DejaVuSans-48"/>
       <use x="127.246094" xlink:href="#DejaVuSans-48"/>
      </g>
     </g>
    </g>
    <g id="xtick_3">
     <g id="line2d_3">
      <g>
       <use style="stroke:#000000;stroke-width:0.8;" x="313.2" xlink:href="#m6c731cedd6" y="378"/>
      </g>
     </g>
     <g id="text_3">
      <!-- 400 -->
      <defs>
       <path d="M 37.796875 64.3125 
L 12.890625 25.390625 
L 37.796875 25.390625 
z
M 35.203125 72.90625 
L 47.609375 72.90625 
L 47.609375 25.390625 
L 58.015625 25.390625 
L 58.015625 17.1875 
L 47.609375 17.1875 
L 47.609375 0 
L 37.796875 0 
L 37.796875 17.1875 
L 4.890625 17.1875 
L 4.890625 26.703125 
z
" id="DejaVuSans-52"/>
      </defs>
      <g transform="translate(303.65625 392.598437)scale(0.1 -0.1)">
       <use xlink:href="#DejaVuSans-52"/>
       <use x="63.623047" xlink:href="#DejaVuSans-48"/>
       <use x="127.246094" xlink:href="#DejaVuSans-48"/>
      </g>
     </g>
    </g>
    <g id="xtick_4">
     <g id="line2d_4">
      <g>
       <use style="stroke:#000000;stroke-width:0.8;" x="424.8" xlink:href="#m6c731cedd6" y="378"/>
      </g>
     </g>
     <g id="text_4">
      <!-- 600 -->
      <defs>
       <path d="M 33.015625 40.375 
Q 26.375 40.375 22.484375 35.828125 
Q 18.609375 31.296875 18.609375 23.390625 
Q 18.609375 15.53125 22.484375 10.953125 
Q 26.375 6.390625 33.015625 6.390625 
Q 39.65625 6.390625 43.53125 10.953125 
Q 47.40625 15.53125 47.40625 23.390625 
Q 47.40625 31.296875 43.53125 35.828125 
Q 39.65625 40.375 33.015625 40.375 
z
M 52.59375 71.296875 
L 52.59375 62.3125 
Q 48.875 64.0625 45.09375 64.984375 
Q 41.3125 65.921875 37.59375 65.921875 
Q 27.828125 65.921875 22.671875 59.328125 
Q 17.53125 52.734375 16.796875 39.40625 
Q 19.671875 43.65625 24.015625 45.921875 
Q 28.375 48.1875 33.59375 48.1875 
Q 44.578125 48.1875 50.953125 41.515625 
Q 57.328125 34.859375 57.328125 23.390625 
Q 57.328125 12.15625 50.6875 5.359375 
Q 44.046875 -1.421875 33.015625 -1.421875 
Q 20.359375 -1.421875 13.671875 8.265625 
Q 6.984375 17.96875 6.984375 36.375 
Q 6.984375 53.65625 15.1875 63.9375 
Q 23.390625 74.21875 37.203125 74.21875 
Q 40.921875 74.21875 44.703125 73.484375 
Q 48.484375 72.75 52.59375 71.296875 
z
" id="DejaVuSans-54"/>
      </defs>
      <g transform="translate(415.25625 392.598437)scale(0.1 -0.1)">
       <use xlink:href="#DejaVuSans-54"/>
       <use x="63.623047" xlink:href="#DejaVuSans-48"/>
       <use x="127.246094" xlink:href="#DejaVuSans-48"/>
      </g>
     </g>
    </g>
    <g id="xtick_5">
     <g id="line2d_5">
      <g>
       <use style="stroke:#000000;stroke-width:0.8;" x="536.4" xlink:href="#m6c731cedd6" y="378"/>
      </g>
     </g>
     <g id="text_5">
      <!-- 800 -->
      <defs>
       <path d="M 31.78125 34.625 
Q 24.75 34.625 20.71875 30.859375 
Q 16.703125 27.09375 16.703125 20.515625 
Q 16.703125 13.921875 20.71875 10.15625 
Q 24.75 6.390625 31.78125 6.390625 
Q 38.8125 6.390625 42.859375 10.171875 
Q 46.921875 13.96875 46.921875 20.515625 
Q 46.921875 27.09375 42.890625 30.859375 
Q 38.875 34.625 31.78125 34.625 
z
M 21.921875 38.8125 
Q 15.578125 40.375 12.03125 44.71875 
Q 8.5 49.078125 8.5 55.328125 
Q 8.5 64.0625 14.71875 69.140625 
Q 20.953125 74.21875 31.78125 74.21875 
Q 42.671875 74.21875 48.875 69.140625 
Q 55.078125 64.0625 55.078125 55.328125 
Q 55.078125 49.078125 51.53125 44.71875 
Q 48 40.375 41.703125 38.8125 
Q 48.828125 37.15625 52.796875 32.3125 
Q 56.78125 27.484375 56.78125 20.515625 
Q 56.78125 9.90625 50.3125 4.234375 
Q 43.84375 -1.421875 31.78125 -1.421875 
Q 19.734375 -1.421875 13.25 4.234375 
Q 6.78125 9.90625 6.78125 20.515625 
Q 6.78125 27.484375 10.78125 32.3125 
Q 14.796875 37.15625 21.921875 38.8125 
z
M 18.3125 54.390625 
Q 18.3125 48.734375 21.84375 45.5625 
Q 25.390625 42.390625 31.78125 42.390625 
Q 38.140625 42.390625 41.71875 45.5625 
Q 45.3125 48.734375 45.3125 54.390625 
Q 45.3125 60.0625 41.71875 63.234375 
Q 38.140625 66.40625 31.78125 66.40625 
Q 25.390625 66.40625 21.84375 63.234375 
Q 18.3125 60.0625 18.3125 54.390625 
z
" id="DejaVuSans-56"/>
      </defs>
      <g transform="translate(526.85625 392.598437)scale(0.1 -0.1)">
       <use xlink:href="#DejaVuSans-56"/>
       <use x="63.623047" xlink:href="#DejaVuSans-48"/>
       <use x="127.246094" xlink:href="#DejaVuSans-48"/>
      </g>
     </g>
    </g>
    <g id="xtick_6">
     <g id="line2d_6">
      <g>
       <use style="stroke:#000000;stroke-width:0.8;" x="648" xlink:href="#m6c731cedd6" y="378"/>
      </g>
     </g>
     <g id="text_6">
      <!-- 1000 -->
      <defs>
       <path d="M 12.40625 8.296875 
L 28.515625 8.296875 
L 28.515625 63.921875 
L 10.984375 60.40625 
L 10.984375 69.390625 
L 28.421875 72.90625 
L 38.28125 72.90625 
L 38.28125 8.296875 
L 54.390625 8.296875 
L 54.390625 0 
L 12.40625 0 
z
" id="DejaVuSans-49"/>
      </defs>
      <g transform="translate(635.275 392.598437)scale(0.1 -0.1)">
       <use xlink:href="#DejaVuSans-49"/>
       <use x="63.623047" xlink:href="#DejaVuSans-48"/>
       <use x="127.246094" xlink:href="#DejaVuSans-48"/>
       <use x="190.869141" xlink:href="#DejaVuSans-48"/>
      </g>
     </g>
    </g>
    <g id="text_7">
     <!-- distance along straightened profile [m] -->
     <defs>
      <path d="M 45.40625 46.390625 
L 45.40625 75.984375 
L 54.390625 75.984375 
L 54.390625 0 
L 45.40625 0 
L 45.40625 8.203125 
Q 42.578125 3.328125 38.25 0.953125 
Q 33.9375 -1.421875 27.875 -1.421875 
Q 17.96875 -1.421875 11.734375 6.484375 
Q 5.515625 14.40625 5.515625 27.296875 
Q 5.515625 40.1875 11.734375 48.09375 
Q 17.96875 56 27.875 56 
Q 33.9375 56 38.25 53.625 
Q 42.578125 51.265625 45.40625 46.390625 
z
M 14.796875 27.296875 
Q 14.796875 17.390625 18.875 11.75 
Q 22.953125 6.109375 30.078125 6.109375 
Q 37.203125 6.109375 41.296875 11.75 
Q 45.40625 17.390625 45.40625 27.296875 
Q 45.40625 37.203125 41.296875 42.84375 
Q 37.203125 48.484375 30.078125 48.484375 
Q 22.953125 48.484375 18.875 42.84375 
Q 14.796875 37.203125 14.796875 27.296875 
z
" id="DejaVuSans-100"/>
      <path d="M 9.421875 54.6875 
L 18.40625 54.6875 
L 18.40625 0 
L 9.421875 0 
z
M 9.421875 75.984375 
L 18.40625 75.984375 
L 18.40625 64.59375 
L 9.421875 64.59375 
z
" id="DejaVuSans-105"/>
      <path d="M 44.28125 53.078125 
L 44.28125 44.578125 
Q 40.484375 46.53125 36.375 47.5 
Q 32.28125 48.484375 27.875 48.484375 
Q 21.1875 48.484375 17.84375 46.4375 
Q 14.5 44.390625 14.5 40.28125 
Q 14.5 37.15625 16.890625 35.375 
Q 19.28125 33.59375 26.515625 31.984375 
L 29.59375 31.296875 
Q 39.15625 29.25 43.1875 25.515625 
Q 47.21875 21.78125 47.21875 15.09375 
Q 47.21875 7.46875 41.1875 3.015625 
Q 35.15625 -1.421875 24.609375 -1.421875 
Q 20.21875 -1.421875 15.453125 -0.5625 
Q 10.6875 0.296875 5.421875 2 
L 5.421875 11.28125 
Q 10.40625 8.6875 15.234375 7.390625 
Q 20.0625 6.109375 24.8125 6.109375 
Q 31.15625 6.109375 34.5625 8.28125 
Q 37.984375 10.453125 37.984375 14.40625 
Q 37.984375 18.0625 35.515625 20.015625 
Q 33.0625 21.96875 24.703125 23.78125 
L 21.578125 24.515625 
Q 13.234375 26.265625 9.515625 29.90625 
Q 5.8125 33.546875 5.8125 39.890625 
Q 5.8125 47.609375 11.28125 51.796875 
Q 16.75 56 26.8125 56 
Q 31.78125 56 36.171875 55.265625 
Q 40.578125 54.546875 44.28125 53.078125 
z
" id="DejaVuSans-115"/>
      <path d="M 18.3125 70.21875 
L 18.3125 54.6875 
L 36.8125 54.6875 
L 36.8125 47.703125 
L 18.3125 47.703125 
L 18.3125 18.015625 
Q 18.3125 11.328125 20.140625 9.421875 
Q 21.96875 7.515625 27.59375 7.515625 
L 36.8125 7.515625 
L 36.8125 0 
L 27.59375 0 
Q 17.1875 0 13.234375 3.875 
Q 9.28125 7.765625 9.28125 18.015625 
L 9.28125 47.703125 
L 2.6875 47.703125 
L 2.6875 54.6875 
L 9.28125 54.6875 
L 9.28125 70.21875 
z
" id="DejaVuSans-116"/>
      <path d="M 34.28125 27.484375 
Q 23.390625 27.484375 19.1875 25 
Q 14.984375 22.515625 14.984375 16.5 
Q 14.984375 11.71875 18.140625 8.90625 
Q 21.296875 6.109375 26.703125 6.109375 
Q 34.1875 6.109375 38.703125 11.40625 
Q 43.21875 16.703125 43.21875 25.484375 
L 43.21875 27.484375 
z
M 52.203125 31.203125 
L 52.203125 0 
L 43.21875 0 
L 43.21875 8.296875 
Q 40.140625 3.328125 35.546875 0.953125 
Q 30.953125 -1.421875 24.3125 -1.421875 
Q 15.921875 -1.421875 10.953125 3.296875 
Q 6 8.015625 6 15.921875 
Q 6 25.140625 12.171875 29.828125 
Q 18.359375 34.515625 30.609375 34.515625 
L 43.21875 34.515625 
L 43.21875 35.40625 
Q 43.21875 41.609375 39.140625 45 
Q 35.0625 48.390625 27.6875 48.390625 
Q 23 48.390625 18.546875 47.265625 
Q 14.109375 46.140625 10.015625 43.890625 
L 10.015625 52.203125 
Q 14.9375 54.109375 19.578125 55.046875 
Q 24.21875 56 28.609375 56 
Q 40.484375 56 46.34375 49.84375 
Q 52.203125 43.703125 52.203125 31.203125 
z
" id="DejaVuSans-97"/>
      <path d="M 54.890625 33.015625 
L 54.890625 0 
L 45.90625 0 
L 45.90625 32.71875 
Q 45.90625 40.484375 42.875 44.328125 
Q 39.84375 48.1875 33.796875 48.1875 
Q 26.515625 48.1875 22.3125 43.546875 
Q 18.109375 38.921875 18.109375 30.90625 
L 18.109375 0 
L 9.078125 0 
L 9.078125 54.6875 
L 18.109375 54.6875 
L 18.109375 46.1875 
Q 21.34375 51.125 25.703125 53.5625 
Q 30.078125 56 35.796875 56 
Q 45.21875 56 50.046875 50.171875 
Q 54.890625 44.34375 54.890625 33.015625 
z
" id="DejaVuSans-110"/>
      <path d="M 48.78125 52.59375 
L 48.78125 44.1875 
Q 44.96875 46.296875 41.140625 47.34375 
Q 37.3125 48.390625 33.40625 48.390625 
Q 24.65625 48.390625 19.8125 42.84375 
Q 14.984375 37.3125 14.984375 27.296875 
Q 14.984375 17.28125 19.8125 11.734375 
Q 24.65625 6.203125 33.40625 6.203125 
Q 37.3125 6.203125 41.140625 7.25 
Q 44.96875 8.296875 48.78125 10.40625 
L 48.78125 2.09375 
Q 45.015625 0.34375 40.984375 -0.53125 
Q 36.96875 -1.421875 32.421875 -1.421875 
Q 20.0625 -1.421875 12.78125 6.34375 
Q 5.515625 14.109375 5.515625 27.296875 
Q 5.515625 40.671875 12.859375 48.328125 
Q 20.21875 56 33.015625 56 
Q 37.15625 56 41.109375 55.140625 
Q 45.0625 54.296875 48.78125 52.59375 
z
" id="DejaVuSans-99"/>
      <path d="M 56.203125 29.59375 
L 56.203125 25.203125 
L 14.890625 25.203125 
Q 15.484375 15.921875 20.484375 11.0625 
Q 25.484375 6.203125 34.421875 6.203125 
Q 39.59375 6.203125 44.453125 7.46875 
Q 49.3125 8.734375 54.109375 11.28125 
L 54.109375 2.78125 
Q 49.265625 0.734375 44.1875 -0.34375 
Q 39.109375 -1.421875 33.890625 -1.421875 
Q 20.796875 -1.421875 13.15625 6.1875 
Q 5.515625 13.8125 5.515625 26.8125 
Q 5.515625 40.234375 12.765625 48.109375 
Q 20.015625 56 32.328125 56 
Q 43.359375 56 49.78125 48.890625 
Q 56.203125 41.796875 56.203125 29.59375 
z
M 47.21875 32.234375 
Q 47.125 39.59375 43.09375 43.984375 
Q 39.0625 48.390625 32.421875 48.390625 
Q 24.90625 48.390625 20.390625 44.140625 
Q 15.875 39.890625 15.1875 32.171875 
z
" id="DejaVuSans-101"/>
      <path id="DejaVuSans-32"/>
      <path d="M 9.421875 75.984375 
L 18.40625 75.984375 
L 18.40625 0 
L 9.421875 0 
z
" id="DejaVuSans-108"/>
      <path d="M 30.609375 48.390625 
Q 23.390625 48.390625 19.1875 42.75 
Q 14.984375 37.109375 14.984375 27.296875 
Q 14.984375 17.484375 19.15625 11.84375 
Q 23.34375 6.203125 30.609375 6.203125 
Q 37.796875 6.203125 41.984375 11.859375 
Q 46.1875 17.53125 46.1875 27.296875 
Q 46.1875 37.015625 41.984375 42.703125 
Q 37.796875 48.390625 30.609375 48.390625 
z
M 30.609375 56 
Q 42.328125 56 49.015625 48.375 
Q 55.71875 40.765625 55.71875 27.296875 
Q 55.71875 13.875 49.015625 6.21875 
Q 42.328125 -1.421875 30.609375 -1.421875 
Q 18.84375 -1.421875 12.171875 6.21875 
Q 5.515625 13.875 5.515625 27.296875 
Q 5.515625 40.765625 12.171875 48.375 
Q 18.84375 56 30.609375 56 
z
" id="DejaVuSans-111"/>
      <path d="M 45.40625 27.984375 
Q 45.40625 37.75 41.375 43.109375 
Q 37.359375 48.484375 30.078125 48.484375 
Q 22.859375 48.484375 18.828125 43.109375 
Q 14.796875 37.75 14.796875 27.984375 
Q 14.796875 18.265625 18.828125 12.890625 
Q 22.859375 7.515625 30.078125 7.515625 
Q 37.359375 7.515625 41.375 12.890625 
Q 45.40625 18.265625 45.40625 27.984375 
z
M 54.390625 6.78125 
Q 54.390625 -7.171875 48.1875 -13.984375 
Q 42 -20.796875 29.203125 -20.796875 
Q 24.46875 -20.796875 20.265625 -20.09375 
Q 16.0625 -19.390625 12.109375 -17.921875 
L 12.109375 -9.1875 
Q 16.0625 -11.328125 19.921875 -12.34375 
Q 23.78125 -13.375 27.78125 -13.375 
Q 36.625 -13.375 41.015625 -8.765625 
Q 45.40625 -4.15625 45.40625 5.171875 
L 45.40625 9.625 
Q 42.625 4.78125 38.28125 2.390625 
Q 33.9375 0 27.875 0 
Q 17.828125 0 11.671875 7.65625 
Q 5.515625 15.328125 5.515625 27.984375 
Q 5.515625 40.671875 11.671875 48.328125 
Q 17.828125 56 27.875 56 
Q 33.9375 56 38.28125 53.609375 
Q 42.625 51.21875 45.40625 46.390625 
L 45.40625 54.6875 
L 54.390625 54.6875 
z
" id="DejaVuSans-103"/>
      <path d="M 41.109375 46.296875 
Q 39.59375 47.171875 37.8125 47.578125 
Q 36.03125 48 33.890625 48 
Q 26.265625 48 22.1875 43.046875 
Q 18.109375 38.09375 18.109375 28.8125 
L 18.109375 0 
L 9.078125 0 
L 9.078125 54.6875 
L 18.109375 54.6875 
L 18.109375 46.1875 
Q 20.953125 51.171875 25.484375 53.578125 
Q 30.03125 56 36.53125 56 
Q 37.453125 56 38.578125 55.875 
Q 39.703125 55.765625 41.0625 55.515625 
z
" id="DejaVuSans-114"/>
      <path d="M 54.890625 33.015625 
L 54.890625 0 
L 45.90625 0 
L 45.90625 32.71875 
Q 45.90625 40.484375 42.875 44.328125 
Q 39.84375 48.1875 33.796875 48.1875 
Q 26.515625 48.1875 22.3125 43.546875 
Q 18.109375 38.921875 18.109375 30.90625 
L 18.109375 0 
L 9.078125 0 
L 9.078125 75.984375 
L 18.109375 75.984375 
L 18.109375 46.1875 
Q 21.34375 51.125 25.703125 53.5625 
Q 30.078125 56 35.796875 56 
Q 45.21875 56 50.046875 50.171875 
Q 54.890625 44.34375 54.890625 33.015625 
z
" id="DejaVuSans-104"/>
      <path d="M 18.109375 8.203125 
L 18.109375 -20.796875 
L 9.078125 -20.796875 
L 9.078125 54.6875 
L 18.109375 54.6875 
L 18.109375 46.390625 
Q 20.953125 51.265625 25.265625 53.625 
Q 29.59375 56 35.59375 56 
Q 45.5625 56 51.78125 48.09375 
Q 58.015625 40.1875 58.015625 27.296875 
Q 58.015625 14.40625 51.78125 6.484375 
Q 45.5625 -1.421875 35.59375 -1.421875 
Q 29.59375 -1.421875 25.265625 0.953125 
Q 20.953125 3.328125 18.109375 8.203125 
z
M 48.6875 27.296875 
Q 48.6875 37.203125 44.609375 42.84375 
Q 40.53125 48.484375 33.40625 48.484375 
Q 26.265625 48.484375 22.1875 42.84375 
Q 18.109375 37.203125 18.109375 27.296875 
Q 18.109375 17.390625 22.1875 11.75 
Q 26.265625 6.109375 33.40625 6.109375 
Q 40.53125 6.109375 44.609375 11.75 
Q 48.6875 17.390625 48.6875 27.296875 
z
" id="DejaVuSans-112"/>
      <path d="M 37.109375 75.984375 
L 37.109375 68.5 
L 28.515625 68.5 
Q 23.6875 68.5 21.796875 66.546875 
Q 19.921875 64.59375 19.921875 59.515625 
L 19.921875 54.6875 
L 34.71875 54.6875 
L 34.71875 47.703125 
L 19.921875 47.703125 
L 19.921875 0 
L 10.890625 0 
L 10.890625 47.703125 
L 2.296875 47.703125 
L 2.296875 54.6875 
L 10.890625 54.6875 
L 10.890625 58.5 
Q 10.890625 67.625 15.140625 71.796875 
Q 19.390625 75.984375 28.609375 75.984375 
z
" id="DejaVuSans-102"/>
      <path d="M 8.59375 75.984375 
L 29.296875 75.984375 
L 29.296875 69 
L 17.578125 69 
L 17.578125 -6.203125 
L 29.296875 -6.203125 
L 29.296875 -13.1875 
L 8.59375 -13.1875 
z
" id="DejaVuSans-91"/>
      <path d="M 52 44.1875 
Q 55.375 50.25 60.0625 53.125 
Q 64.75 56 71.09375 56 
Q 79.640625 56 84.28125 50.015625 
Q 88.921875 44.046875 88.921875 33.015625 
L 88.921875 0 
L 79.890625 0 
L 79.890625 32.71875 
Q 79.890625 40.578125 77.09375 44.375 
Q 74.3125 48.1875 68.609375 48.1875 
Q 61.625 48.1875 57.5625 43.546875 
Q 53.515625 38.921875 53.515625 30.90625 
L 53.515625 0 
L 44.484375 0 
L 44.484375 32.71875 
Q 44.484375 40.625 41.703125 44.40625 
Q 38.921875 48.1875 33.109375 48.1875 
Q 26.21875 48.1875 22.15625 43.53125 
Q 18.109375 38.875 18.109375 30.90625 
L 18.109375 0 
L 9.078125 0 
L 9.078125 54.6875 
L 18.109375 54.6875 
L 18.109375 46.1875 
Q 21.1875 51.21875 25.484375 53.609375 
Q 29.78125 56 35.6875 56 
Q 41.65625 56 45.828125 52.96875 
Q 50 49.953125 52 44.1875 
z
" id="DejaVuSans-109"/>
      <path d="M 30.421875 75.984375 
L 30.421875 -13.1875 
L 9.71875 -13.1875 
L 9.71875 -6.203125 
L 21.390625 -6.203125 
L 21.390625 69 
L 9.71875 69 
L 9.71875 75.984375 
z
" id="DejaVuSans-93"/>
     </defs>
     <g transform="translate(251.465625 407.79625)scale(0.12 -0.12)">
      <use xlink:href="#DejaVuSans-100"/>
      <use x="63.476562" xlink:href="#DejaVuSans-105"/>
      <use x="91.259766" xlink:href="#DejaVuSans-115"/>
      <use x="143.359375" xlink:href="#DejaVuSans-116"/>
      <use x="182.568359" xlink:href="#DejaVuSans-97"/>
      <use x="243.847656" xlink:href="#DejaVuSans-110"/>
      <use x="307.226562" xlink:href="#DejaVuSans-99"/>
      <use x="362.207031" xlink:href="#DejaVuSans-101"/>
      <use x="423.730469" xlink:href="#DejaVuSans-32"/>
      <use x="455.517578" xlink:href="#DejaVuSans-97"/>
      <use x="516.796875" xlink:href="#DejaVuSans-108"/>
      <use x="544.580078" xlink:href="#DejaVuSans-111"/>
      <use x="605.761719" xlink:href="#DejaVuSans-110"/>
      <use x="669.140625" xlink:href="#DejaVuSans-103"/>
      <use x="732.617188" xlink:href="#DejaVuSans-32"/>
      <use x="764.404297" xlink:href="#DejaVuSans-115"/>
      <use x="816.503906" xlink:href="#DejaVuSans-116"/>
      <use x="855.712891" xlink:href="#DejaVuSans-114"/>
      <use x="896.826172" xlink:href="#DejaVuSans-97"/>
      <use x="958.105469" xlink:href="#DejaVuSans-105"/>
      <use x="985.888672" xlink:href="#DejaVuSans-103"/>
      <use x="1049.365234" xlink:href="#DejaVuSans-104"/>
      <use x="1112.744141" xlink:href="#DejaVuSans-116"/>
      <use x="1151.953125" xlink:href="#DejaVuSans-101"/>
      <use x="1213.476562" xlink:href="#DejaVuSans-110"/>
      <use x="1276.855469" xlink:href="#DejaVuSans-101"/>
      <use x="1338.378906" xlink:href="#DejaVuSans-100"/>
      <use x="1401.855469" xlink:href="#DejaVuSans-32"/>
      <use x="1433.642578" xlink:href="#DejaVuSans-112"/>
      <use x="1497.119141" xlink:href="#DejaVuSans-114"/>
      <use x="1538.201172" xlink:href="#DejaVuSans-111"/>
      <use x="1599.382812" xlink:href="#DejaVuSans-102"/>
      <use x="1634.587891" xlink:href="#DejaVuSans-105"/>
      <use x="1662.371094" xlink:href="#DejaVuSans-108"/>
      <use x="1690.154297" xlink:href="#DejaVuSans-101"/>
      <use x="1751.677734" xlink:href="#DejaVuSans-32"/>
      <use x="1783.464844" xlink:href="#DejaVuSans-91"/>
      <use x="1822.478516" xlink:href="#DejaVuSans-109"/>
      <use x="1919.890625" xlink:href="#DejaVuSans-93"/>
     </g>
    </g>
   </g>
   <g id="matplotlib.axis_2">
    <g id="ytick_1">
     <g id="line2d_7">
      <defs>
       <path d="M 0 0 
L -3.5 0 
" id="m4c18c7e577" style="stroke:#000000;stroke-width:0.8;"/>
      </defs>
      <g>
       <use style="stroke:#000000;stroke-width:0.8;" x="90" xlink:href="#m4c18c7e577" y="378"/>
      </g>
     </g>
     <g id="text_8">
      <!-- 1.0 -->
      <defs>
       <path d="M 10.6875 12.40625 
L 21 12.40625 
L 21 0 
L 10.6875 0 
z
" id="DejaVuSans-46"/>
      </defs>
      <g transform="translate(67.096875 381.799219)scale(0.1 -0.1)">
       <use xlink:href="#DejaVuSans-49"/>
       <use x="63.623047" xlink:href="#DejaVuSans-46"/>
       <use x="95.410156" xlink:href="#DejaVuSans-48"/>
      </g>
     </g>
    </g>
    <g id="ytick_2">
     <g id="line2d_8">
      <g>
       <use style="stroke:#000000;stroke-width:0.8;" x="90" xlink:href="#m4c18c7e577" y="323.64"/>
      </g>
     </g>
     <g id="text_9">
      <!-- 1.2 -->
      <g transform="translate(67.096875 327.439219)scale(0.1 -0.1)">
       <use xlink:href="#DejaVuSans-49"/>
       <use x="63.623047" xlink:href="#DejaVuSans-46"/>
       <use x="95.410156" xlink:href="#DejaVuSans-50"/>
      </g>
     </g>
    </g>
    <g id="ytick_3">
     <g id="line2d_9">
      <g>
       <use style="stroke:#000000;stroke-width:0.8;" x="90" xlink:href="#m4c18c7e577" y="269.28"/>
      </g>
     </g>
     <g id="text_10">
      <!-- 1.4 -->
      <g transform="translate(67.096875 273.079219)scale(0.1 -0.1)">
       <use xlink:href="#DejaVuSans-49"/>
       <use x="63.623047" xlink:href="#DejaVuSans-46"/>
       <use x="95.410156" xlink:href="#DejaVuSans-52"/>
      </g>
     </g>
    </g>
    <g id="ytick_4">
     <g id="line2d_10">
      <g>
       <use style="stroke:#000000;stroke-width:0.8;" x="90" xlink:href="#m4c18c7e577" y="214.92"/>
      </g>
     </g>
     <g id="text_11">
      <!-- 1.6 -->
      <g transform="translate(67.096875 218.719219)scale(0.1 -0.1)">
       <use xlink:href="#DejaVuSans-49"/>
       <use x="63.623047" xlink:href="#DejaVuSans-46"/>
       <use x="95.410156" xlink:href="#DejaVuSans-54"/>
      </g>
     </g>
    </g>
    <g id="ytick_5">
     <g id="line2d_11">
      <g>
       <use style="stroke:#000000;stroke-width:0.8;" x="90" xlink:href="#m4c18c7e577" y="160.56"/>
      </g>
     </g>
     <g id="text_12">
      <!-- 1.8 -->
      <g transform="translate(67.096875 164.359219)scale(0.1 -0.1)">
       <use xlink:href="#DejaVuSans-49"/>
       <use x="63.623047" xlink:href="#DejaVuSans-46"/>
       <use x="95.410156" xlink:href="#DejaVuSans-56"/>
      </g>
     </g>
    </g>
    <g id="ytick_6">
     <g id="line2d_12">
      <g>
       <use style="stroke:#000000;stroke-width:0.8;" x="90" xlink:href="#m4c18c7e577" y="106.2"/>
      </g>
     </g>
     <g id="text_13">
      <!-- 2.0 -->
      <g transform="translate(67.096875 109.999219)scale(0.1 -0.1)">
       <use xlink:href="#DejaVuSans-50"/>
       <use x="63.623047" xlink:href="#DejaVuSans-46"/>
       <use x="95.410156" xlink:href="#DejaVuSans-48"/>
      </g>
     </g>
    </g>
    <g id="ytick_7">
     <g id="line2d_13">
      <g>
       <use style="stroke:#000000;stroke-width:0.8;" x="90" xlink:href="#m4c18c7e577" y="51.84"/>
      </g>
     </g>
     <g id="text_14">
      <!-- 2.2 -->
      <g transform="translate(67.096875 55.639219)scale(0.1 -0.1)">
       <use xlink:href="#DejaVuSans-50"/>
       <use x="63.623047" xlink:href="#DejaVuSans-46"/>
       <use x="95.410156" xlink:href="#DejaVuSans-50"/>
      </g>
     </g>
    </g>
    <g id="text_15">
     <!-- sinuosity -->
     <defs>
      <path d="M 8.5 21.578125 
L 8.5 54.6875 
L 17.484375 54.6875 
L 17.484375 21.921875 
Q 17.484375 14.15625 20.5 10.265625 
Q 23.53125 6.390625 29.59375 6.390625 
Q 36.859375 6.390625 41.078125 11.03125 
Q 45.3125 15.671875 45.3125 23.6875 
L 45.3125 54.6875 
L 54.296875 54.6875 
L 54.296875 0 
L 45.3125 0 
L 45.3125 8.40625 
Q 42.046875 3.421875 37.71875 1 
Q 33.40625 -1.421875 27.6875 -1.421875 
Q 18.265625 -1.421875 13.375 4.4375 
Q 8.5 10.296875 8.5 21.578125 
z
M 31.109375 56 
z
" id="DejaVuSans-117"/>
      <path d="M 32.171875 -5.078125 
Q 28.375 -14.84375 24.75 -17.8125 
Q 21.140625 -20.796875 15.09375 -20.796875 
L 7.90625 -20.796875 
L 7.90625 -13.28125 
L 13.1875 -13.28125 
Q 16.890625 -13.28125 18.9375 -11.515625 
Q 21 -9.765625 23.484375 -3.21875 
L 25.09375 0.875 
L 2.984375 54.6875 
L 12.5 54.6875 
L 29.59375 11.921875 
L 46.6875 54.6875 
L 56.203125 54.6875 
z
" id="DejaVuSans-121"/>
     </defs>
     <g transform="translate(60.60125 241.684687)rotate(-90)scale(0.12 -0.12)">
      <use xlink:href="#DejaVuSans-115"/>
      <use x="52.099609" xlink:href="#DejaVuSans-105"/>
      <use x="79.882812" xlink:href="#DejaVuSans-110"/>
      <use x="143.261719" xlink:href="#DejaVuSans-117"/>
      <use x="206.640625" xlink:href="#DejaVuSans-111"/>
      <use x="267.822266" xlink:href="#DejaVuSans-115"/>
      <use x="319.921875" xlink:href="#DejaVuSans-105"/>
      <use x="347.705078" xlink:href="#DejaVuSans-116"/>
      <use x="386.914062" xlink:href="#DejaVuSans-121"/>
     </g>
    </g>
   </g>
   <g id="line2d_14">
    <path clip-path="url(#pb051008e61)" d="M 93.906 265.419319 
L 97.812 273.110012 
L 102.834 283.531159 
L 113.994 306.934021 
L 117.342 313.424531 
L 120.69 319.416096 
L 123.48 323.942381 
L 126.27 327.989241 
L 128.502 330.859596 
L 130.734 333.395995 
L 132.966 335.60068 
L 135.198 337.484135 
L 137.43 339.064126 
L 139.662 340.364344 
L 141.894 341.412804 
L 144.126 342.240126 
L 146.916 343.011346 
L 149.706 343.546371 
L 153.054 343.953776 
L 156.96 344.20637 
L 162.54 344.32952 
L 173.142 344.285026 
L 173.142 344.285026 
" style="fill:none;stroke:#1f77b4;stroke-linecap:square;stroke-width:1.5;"/>
   </g>
   <g id="line2d_15">
    <path clip-path="url(#pb051008e61)" d="M 93.906 291.041045 
L 96.696 293.312002 
L 99.486 295.877346 
L 102.834 299.30365 
L 106.74 303.689473 
L 112.32 310.380805 
L 118.458 317.686736 
L 121.806 321.347209 
L 124.596 324.094698 
L 127.386 326.495381 
L 129.618 328.131513 
L 131.85 329.495788 
L 134.082 330.58007 
L 136.314 331.385546 
L 138.546 331.922623 
L 140.778 332.210338 
L 143.01 332.275341 
L 145.8 332.094035 
L 149.148 331.590464 
L 154.17 330.542428 
L 159.192 329.55787 
L 162.54 329.142116 
L 165.33 329.02778 
L 168.12 329.171584 
L 170.352 329.494191 
L 172.584 330.01314 
L 174.816 330.734032 
L 177.048 331.657483 
L 179.838 333.089663 
L 182.628 334.812584 
L 185.418 336.796821 
L 188.766 339.467606 
L 192.672 342.879151 
L 201.6 351.116728 
L 206.622 355.535928 
L 210.528 358.678888 
L 213.876 361.113891 
L 217.224 363.288556 
L 220.572 365.19876 
L 223.92 366.852484 
L 227.268 368.266301 
L 230.616 369.462054 
L 234.522 370.613996 
L 236.196 371.036713 
L 236.196 371.036713 
" style="fill:none;stroke:#ff7f0e;stroke-linecap:square;stroke-width:1.5;"/>
   </g>
   <g id="line2d_16">
    <path clip-path="url(#pb051008e61)" d="M 93.906 319.381513 
L 96.696 319.863197 
L 99.486 320.548401 
L 102.834 321.62075 
L 106.182 322.93001 
L 110.646 324.94549 
L 120.69 329.629242 
L 124.038 330.868982 
L 126.828 331.649478 
L 129.06 332.071278 
L 131.292 332.290405 
L 133.524 332.292353 
L 135.756 332.069345 
L 137.988 331.620665 
L 140.22 330.952591 
L 142.452 330.077955 
L 145.242 328.723051 
L 148.032 327.121638 
L 151.38 324.953008 
L 156.96 321.018717 
L 162.54 317.139156 
L 165.888 315.058886 
L 168.678 313.568085 
L 170.91 312.579459 
L 173.142 311.804281 
L 175.374 311.268595 
L 177.606 310.993623 
L 179.838 310.994275 
L 182.07 311.277732 
L 184.302 311.842243 
L 186.534 312.676329 
L 188.766 313.758518 
L 191.556 315.411967 
L 194.904 317.730467 
L 200.484 321.970534 
L 204.948 325.237675 
L 208.296 327.383057 
L 211.086 328.89055 
L 213.876 330.114597 
L 216.666 331.056885 
L 219.456 331.744074 
L 222.804 332.299278 
L 227.268 332.761049 
L 234.522 333.485846 
L 237.87 334.034539 
L 241.218 334.797791 
L 244.566 335.792291 
L 247.914 337.007022 
L 251.82 338.658792 
L 256.842 341.038503 
L 268.002 346.545383 
L 268.002 346.545383 
" style="fill:none;stroke:#2ca02c;stroke-linecap:square;stroke-width:1.5;"/>
   </g>
   <g id="line2d_17">
    <path clip-path="url(#pb051008e61)" d="M 93.906 329.647684 
L 100.044 331.210387 
L 103.95 331.994676 
L 107.298 332.449006 
L 110.088 332.622828 
L 112.878 332.568362 
L 115.11 332.33481 
L 117.342 331.913028 
L 119.574 331.287665 
L 121.806 330.446621 
L 124.038 329.381838 
L 126.27 328.089964 
L 128.502 326.572827 
L 131.292 324.371164 
L 134.082 321.854973 
L 137.43 318.473736 
L 141.336 314.134986 
L 146.358 308.162147 
L 157.518 294.740728 
L 161.982 289.78839 
L 165.33 286.374396 
L 168.12 283.78581 
L 170.91 281.485492 
L 173.142 279.893274 
L 175.374 278.558748 
L 177.606 277.518415 
L 179.28 276.953435 
L 180.954 276.589685 
L 182.628 276.441012 
L 184.302 276.519498 
L 185.976 276.834826 
L 187.65 277.393679 
L 189.324 278.199179 
L 190.998 279.25043 
L 192.672 280.542161 
L 194.346 282.064527 
L 196.578 284.427438 
L 198.81 287.127448 
L 201.6 290.884787 
L 205.506 296.604672 
L 212.202 306.507089 
L 214.992 310.25351 
L 217.224 312.960087 
L 219.456 315.356142 
L 221.688 317.40792 
L 223.92 319.09576 
L 225.594 320.118747 
L 227.268 320.935673 
L 228.942 321.552461 
L 230.616 321.978281 
L 232.29 322.22507 
L 234.522 322.300453 
L 236.754 322.121361 
L 238.986 321.729668 
L 241.776 321.007394 
L 245.682 319.71259 
L 256.284 316.014309 
L 259.632 315.134975 
L 262.98 314.486183 
L 266.328 314.082983 
L 269.676 313.91926 
L 273.024 313.972616 
L 276.93 314.265535 
L 281.394 314.835005 
L 286.974 315.795562 
L 293.112 317.091768 
L 298.692 318.489484 
L 303.714 319.958329 
L 308.736 321.642385 
L 314.874 323.956981 
L 332.73 331.038953 
L 332.73 331.038953 
" style="fill:none;stroke:#d62728;stroke-linecap:square;stroke-width:1.5;"/>
   </g>
   <g id="line2d_18">
    <path clip-path="url(#pb051008e61)" d="M 93.906 354.992791 
L 97.254 352.486926 
L 100.602 349.692846 
L 103.95 346.589625 
L 107.298 343.161878 
L 110.646 339.402548 
L 113.994 335.315948 
L 117.9 330.160321 
L 122.364 323.830372 
L 127.944 315.467172 
L 139.104 298.592795 
L 144.126 291.454846 
L 149.148 284.698421 
L 166.446 261.86327 
L 171.468 254.583632 
L 177.606 245.237219 
L 192.114 222.894531 
L 196.578 216.4877 
L 199.926 212.005394 
L 203.274 207.905353 
L 206.064 204.859973 
L 208.296 202.715323 
L 210.528 200.867095 
L 212.76 199.347447 
L 214.434 198.440674 
L 216.108 197.74513 
L 217.782 197.269251 
L 219.456 197.01948 
L 221.13 197.000162 
L 222.804 197.21351 
L 224.478 197.659643 
L 226.152 198.336666 
L 227.826 199.240807 
L 229.5 200.366568 
L 231.174 201.706905 
L 233.406 203.813087 
L 235.638 206.262459 
L 237.87 209.028712 
L 240.66 212.887946 
L 243.45 217.136111 
L 246.798 222.655581 
L 250.704 229.526533 
L 257.4 241.845036 
L 263.538 253.01502 
L 267.444 259.725989 
L 270.792 265.089654 
L 274.14 270.013476 
L 276.93 273.74179 
L 279.72 277.111387 
L 282.51 280.120809 
L 285.3 282.784264 
L 288.09 285.13203 
L 290.88 287.210092 
L 294.228 289.433502 
L 300.366 293.154217 
L 304.83 295.974083 
L 308.178 298.34386 
L 311.526 301.005007 
L 314.874 303.949905 
L 324.918 313.083492 
L 327.15 314.665382 
L 328.824 315.598984 
L 330.498 316.259666 
L 332.172 316.597166 
L 333.288 316.618639 
L 334.404 316.461429 
L 335.52 316.112938 
L 336.636 315.561672 
L 337.752 314.797438 
L 338.868 313.811519 
L 339.984 312.596839 
L 341.658 310.334829 
L 343.332 307.536895 
L 345.006 304.203533 
L 346.68 300.345803 
L 348.354 295.985282 
L 350.586 289.445263 
L 352.818 282.169254 
L 355.608 272.231647 
L 359.514 257.260716 
L 368.442 222.529824 
L 371.79 210.654576 
L 374.58 201.599471 
L 377.37 193.408033 
L 379.602 187.502502 
L 381.834 182.16982 
L 384.066 177.389781 
L 386.298 173.128992 
L 388.53 169.344134 
L 390.762 165.985054 
L 392.994 162.997555 
L 393.552 162.302202 
L 393.552 162.302202 
" style="fill:none;stroke:#9467bd;stroke-linecap:square;stroke-width:1.5;"/>
   </g>
   <g id="line2d_19">
    <path clip-path="url(#pb051008e61)" d="M 93.906 331.541718 
L 101.718 334.278417 
L 108.414 336.560302 
L 112.32 337.688447 
L 115.668 338.44908 
L 118.458 338.893413 
L 121.248 339.132881 
L 124.038 339.141837 
L 126.828 338.901434 
L 129.618 338.401543 
L 132.408 337.642292 
L 135.198 336.634941 
L 137.988 335.401876 
L 141.336 333.670523 
L 145.242 331.393981 
L 152.496 326.839877 
L 159.192 322.733232 
L 165.33 319.234517 
L 177.048 312.653654 
L 181.512 309.858414 
L 185.976 306.805167 
L 190.998 303.094605 
L 203.832 293.420718 
L 207.738 290.866019 
L 211.086 288.961953 
L 213.876 287.604339 
L 216.666 286.460891 
L 220.014 285.356414 
L 223.362 284.501678 
L 227.826 283.634849 
L 245.682 280.504276 
L 251.262 279.535081 
L 255.168 279.09485 
L 258.516 278.957865 
L 261.864 279.074504 
L 265.212 279.437437 
L 269.118 280.111026 
L 281.952 282.585415 
L 285.3 282.889532 
L 288.648 282.968942 
L 292.554 282.810584 
L 304.272 282.063772 
L 307.062 282.250354 
L 309.294 282.617592 
L 311.526 283.218457 
L 313.758 284.083128 
L 315.99 285.233209 
L 318.222 286.679502 
L 320.454 288.419897 
L 322.686 290.437505 
L 325.476 293.29727 
L 328.824 297.083867 
L 335.52 304.75831 
L 337.752 306.964834 
L 339.426 308.383541 
L 341.1 309.54467 
L 342.774 310.400747 
L 343.89 310.780114 
L 345.006 310.992445 
L 346.122 311.027085 
L 347.238 310.874731 
L 348.354 310.527596 
L 349.47 309.979551 
L 350.586 309.226256 
L 351.702 308.265255 
L 353.376 306.433785 
L 355.05 304.141199 
L 356.724 301.404587 
L 358.398 298.251003 
L 360.63 293.461735 
L 362.862 288.105741 
L 365.652 280.813013 
L 370.674 266.879009 
L 375.138 254.770138 
L 377.928 247.81848 
L 380.16 242.757707 
L 382.392 238.217079 
L 384.624 234.240319 
L 386.298 231.640979 
L 387.972 229.371646 
L 389.646 227.427211 
L 391.32 225.797438 
L 392.994 224.467826 
L 394.668 223.420478 
L 396.342 222.634956 
L 398.016 222.089078 
L 399.69 221.759653 
L 401.364 221.62313 
L 403.596 221.700877 
L 405.828 222.026716 
L 406.386 222.141002 
L 406.386 222.141002 
" style="fill:none;stroke:#8c564b;stroke-linecap:square;stroke-width:1.5;"/>
   </g>
   <g id="line2d_20">
    <path clip-path="url(#pb051008e61)" d="M 93.906 367.14217 
L 100.602 364.140164 
L 106.74 361.161179 
L 112.32 358.209892 
L 117.342 355.285959 
L 121.806 352.401 
L 125.712 349.596496 
L 129.618 346.483049 
L 132.966 343.546752 
L 136.872 339.810854 
L 141.336 335.190847 
L 155.286 320.38628 
L 158.634 317.360279 
L 161.424 315.146002 
L 164.214 313.243564 
L 167.004 311.661517 
L 169.794 310.386098 
L 172.584 309.381745 
L 175.932 308.455876 
L 180.954 307.375385 
L 185.976 306.24275 
L 189.324 305.239972 
L 192.114 304.168548 
L 194.904 302.847474 
L 197.694 301.267551 
L 200.484 299.442179 
L 203.832 296.975545 
L 208.296 293.359451 
L 222.804 281.310309 
L 230.058 275.738562 
L 237.87 269.978386 
L 242.334 266.926948 
L 245.682 264.896815 
L 248.472 263.458367 
L 250.704 262.514995 
L 252.936 261.781864 
L 255.168 261.27477 
L 257.4 261.000007 
L 259.632 260.953465 
L 261.864 261.120706 
L 264.654 261.593519 
L 267.444 262.300952 
L 271.35 263.548918 
L 285.3 268.256944 
L 291.996 270.448856 
L 295.344 271.785858 
L 298.134 273.13316 
L 300.924 274.756769 
L 303.156 276.288081 
L 305.388 278.046619 
L 307.62 280.044387 
L 310.41 282.884741 
L 313.2 286.099137 
L 315.99 289.662032 
L 319.338 294.333099 
L 323.802 301.035407 
L 331.614 312.904655 
L 334.404 316.749934 
L 336.636 319.519974 
L 338.868 321.939644 
L 340.542 323.483988 
L 342.216 324.768297 
L 343.89 325.770795 
L 345.564 326.473798 
L 347.238 326.864272 
L 348.912 326.934263 
L 350.586 326.681156 
L 352.26 326.107779 
L 353.934 325.222312 
L 355.608 324.038034 
L 357.282 322.572902 
L 358.956 320.848995 
L 361.188 318.192459 
L 363.42 315.189275 
L 366.21 311.059194 
L 370.116 304.836313 
L 378.486 291.348618 
L 381.834 286.393081 
L 384.624 282.593502 
L 387.414 279.13779 
L 390.204 276.048449 
L 390.204 276.048449 
" style="fill:none;stroke:#e377c2;stroke-linecap:square;stroke-width:1.5;"/>
   </g>
   <g id="patch_3">
    <path d="M 90 378 
L 90 51.84 
" style="fill:none;stroke:#000000;stroke-linecap:square;stroke-linejoin:miter;stroke-width:0.8;"/>
   </g>
   <g id="patch_4">
    <path d="M 648 378 
L 648 51.84 
" style="fill:none;stroke:#000000;stroke-linecap:square;stroke-linejoin:miter;stroke-width:0.8;"/>
   </g>
   <g id="patch_5">
    <path d="M 90 378 
L 648 378 
" style="fill:none;stroke:#000000;stroke-linecap:square;stroke-linejoin:miter;stroke-width:0.8;"/>
   </g>
   <g id="patch_6">
    <path d="M 90 51.84 
L 648 51.84 
" style="fill:none;stroke:#000000;stroke-linecap:square;stroke-linejoin:miter;stroke-width:0.8;"/>
   </g>
   <g id="text_16">
    <!-- Windowed sinuosity along channel CM1, window length = 50m -->
    <defs>
     <path d="M 3.328125 72.90625 
L 13.28125 72.90625 
L 28.609375 11.28125 
L 43.890625 72.90625 
L 54.984375 72.90625 
L 70.3125 11.28125 
L 85.59375 72.90625 
L 95.609375 72.90625 
L 77.296875 0 
L 64.890625 0 
L 49.515625 63.28125 
L 33.984375 0 
L 21.578125 0 
z
" id="DejaVuSans-87"/>
     <path d="M 4.203125 54.6875 
L 13.1875 54.6875 
L 24.421875 12.015625 
L 35.59375 54.6875 
L 46.1875 54.6875 
L 57.421875 12.015625 
L 68.609375 54.6875 
L 77.59375 54.6875 
L 63.28125 0 
L 52.6875 0 
L 40.921875 44.828125 
L 29.109375 0 
L 18.5 0 
z
" id="DejaVuSans-119"/>
     <path d="M 64.40625 67.28125 
L 64.40625 56.890625 
Q 59.421875 61.53125 53.78125 63.8125 
Q 48.140625 66.109375 41.796875 66.109375 
Q 29.296875 66.109375 22.65625 58.46875 
Q 16.015625 50.828125 16.015625 36.375 
Q 16.015625 21.96875 22.65625 14.328125 
Q 29.296875 6.6875 41.796875 6.6875 
Q 48.140625 6.6875 53.78125 8.984375 
Q 59.421875 11.28125 64.40625 15.921875 
L 64.40625 5.609375 
Q 59.234375 2.09375 53.4375 0.328125 
Q 47.65625 -1.421875 41.21875 -1.421875 
Q 24.65625 -1.421875 15.125 8.703125 
Q 5.609375 18.84375 5.609375 36.375 
Q 5.609375 53.953125 15.125 64.078125 
Q 24.65625 74.21875 41.21875 74.21875 
Q 47.75 74.21875 53.53125 72.484375 
Q 59.328125 70.75 64.40625 67.28125 
z
" id="DejaVuSans-67"/>
     <path d="M 9.8125 72.90625 
L 24.515625 72.90625 
L 43.109375 23.296875 
L 61.8125 72.90625 
L 76.515625 72.90625 
L 76.515625 0 
L 66.890625 0 
L 66.890625 64.015625 
L 48.09375 14.015625 
L 38.1875 14.015625 
L 19.390625 64.015625 
L 19.390625 0 
L 9.8125 0 
z
" id="DejaVuSans-77"/>
     <path d="M 11.71875 12.40625 
L 22.015625 12.40625 
L 22.015625 4 
L 14.015625 -11.625 
L 7.71875 -11.625 
L 11.71875 4 
z
" id="DejaVuSans-44"/>
     <path d="M 10.59375 45.40625 
L 73.1875 45.40625 
L 73.1875 37.203125 
L 10.59375 37.203125 
z
M 10.59375 25.484375 
L 73.1875 25.484375 
L 73.1875 17.1875 
L 10.59375 17.1875 
z
" id="DejaVuSans-61"/>
     <path d="M 10.796875 72.90625 
L 49.515625 72.90625 
L 49.515625 64.59375 
L 19.828125 64.59375 
L 19.828125 46.734375 
Q 21.96875 47.46875 24.109375 47.828125 
Q 26.265625 48.1875 28.421875 48.1875 
Q 40.625 48.1875 47.75 41.5 
Q 54.890625 34.8125 54.890625 23.390625 
Q 54.890625 11.625 47.5625 5.09375 
Q 40.234375 -1.421875 26.90625 -1.421875 
Q 22.3125 -1.421875 17.546875 -0.640625 
Q 12.796875 0.140625 7.71875 1.703125 
L 7.71875 11.625 
Q 12.109375 9.234375 16.796875 8.0625 
Q 21.484375 6.890625 26.703125 6.890625 
Q 35.15625 6.890625 40.078125 11.328125 
Q 45.015625 15.765625 45.015625 23.390625 
Q 45.015625 31 40.078125 35.4375 
Q 35.15625 39.890625 26.703125 39.890625 
Q 22.75 39.890625 18.8125 39.015625 
Q 14.890625 38.140625 10.796875 36.28125 
z
" id="DejaVuSans-53"/>
    </defs>
    <g transform="translate(148.309687 45.84)scale(0.14 -0.14)">
     <use xlink:href="#DejaVuSans-87"/>
     <use x="98.845703" xlink:href="#DejaVuSans-105"/>
     <use x="126.628906" xlink:href="#DejaVuSans-110"/>
     <use x="190.007812" xlink:href="#DejaVuSans-100"/>
     <use x="253.484375" xlink:href="#DejaVuSans-111"/>
     <use x="314.666016" xlink:href="#DejaVuSans-119"/>
     <use x="396.453125" xlink:href="#DejaVuSans-101"/>
     <use x="457.976562" xlink:href="#DejaVuSans-100"/>
     <use x="521.453125" xlink:href="#DejaVuSans-32"/>
     <use x="553.240234" xlink:href="#DejaVuSans-115"/>
     <use x="605.339844" xlink:href="#DejaVuSans-105"/>
     <use x="633.123047" xlink:href="#DejaVuSans-110"/>
     <use x="696.501953" xlink:href="#DejaVuSans-117"/>
     <use x="759.880859" xlink:href="#DejaVuSans-111"/>
     <use x="821.0625" xlink:href="#DejaVuSans-115"/>
     <use x="873.162109" xlink:href="#DejaVuSans-105"/>
     <use x="900.945312" xlink:href="#DejaVuSans-116"/>
     <use x="940.154297" xlink:href="#DejaVuSans-121"/>
     <use x="999.333984" xlink:href="#DejaVuSans-32"/>
     <use x="1031.121094" xlink:href="#DejaVuSans-97"/>
     <use x="1092.400391" xlink:href="#DejaVuSans-108"/>
     <use x="1120.183594" xlink:href="#DejaVuSans-111"/>
     <use x="1181.365234" xlink:href="#DejaVuSans-110"/>
     <use x="1244.744141" xlink:href="#DejaVuSans-103"/>
     <use x="1308.220703" xlink:href="#DejaVuSans-32"/>
     <use x="1340.007812" xlink:href="#DejaVuSans-99"/>
     <use x="1394.988281" xlink:href="#DejaVuSans-104"/>
     <use x="1458.367188" xlink:href="#DejaVuSans-97"/>
     <use x="1519.646484" xlink:href="#DejaVuSans-110"/>
     <use x="1583.025391" xlink:href="#DejaVuSans-110"/>
     <use x="1646.404297" xlink:href="#DejaVuSans-101"/>
     <use x="1707.927734" xlink:href="#DejaVuSans-108"/>
     <use x="1735.710938" xlink:href="#DejaVuSans-32"/>
     <use x="1767.498047" xlink:href="#DejaVuSans-67"/>
     <use x="1837.322266" xlink:href="#DejaVuSans-77"/>
     <use x="1923.601562" xlink:href="#DejaVuSans-49"/>
     <use x="1987.224609" xlink:href="#DejaVuSans-44"/>
     <use x="2019.011719" xlink:href="#DejaVuSans-32"/>
     <use x="2050.798828" xlink:href="#DejaVuSans-119"/>
     <use x="2132.585938" xlink:href="#DejaVuSans-105"/>
     <use x="2160.369141" xlink:href="#DejaVuSans-110"/>
     <use x="2223.748047" xlink:href="#DejaVuSans-100"/>
     <use x="2287.224609" xlink:href="#DejaVuSans-111"/>
     <use x="2348.40625" xlink:href="#DejaVuSans-119"/>
     <use x="2430.193359" xlink:href="#DejaVuSans-32"/>
     <use x="2461.980469" xlink:href="#DejaVuSans-108"/>
     <use x="2489.763672" xlink:href="#DejaVuSans-101"/>
     <use x="2551.287109" xlink:href="#DejaVuSans-110"/>
     <use x="2614.666016" xlink:href="#DejaVuSans-103"/>
     <use x="2678.142578" xlink:href="#DejaVuSans-116"/>
     <use x="2717.351562" xlink:href="#DejaVuSans-104"/>
     <use x="2780.730469" xlink:href="#DejaVuSans-32"/>
     <use x="2812.517578" xlink:href="#DejaVuSans-61"/>
     <use x="2896.306641" xlink:href="#DejaVuSans-32"/>
     <use x="2928.09375" xlink:href="#DejaVuSans-53"/>
     <use x="2991.716797" xlink:href="#DejaVuSans-48"/>
     <use x="3055.339844" xlink:href="#DejaVuSans-109"/>
    </g>
   </g>
   <g id="legend_1">
    <g id="patch_7">
     <path d="M 577.46 165.996 
L 634.91 165.996 
Q 636.91 165.996 636.91 163.996 
L 636.91 62.249125 
Q 636.91 60.249125 634.91 60.249125 
L 577.46 60.249125 
Q 575.46 60.249125 575.46 62.249125 
L 575.46 163.996 
Q 575.46 165.996 577.46 165.996 
z
" style="fill:#ffffff;opacity:0.8;stroke:#cccccc;stroke-linejoin:miter;"/>
    </g>
    <g id="line2d_21">
     <path d="M 579.46 68.347562 
L 599.46 68.347562 
" style="fill:none;stroke:#1f77b4;stroke-linecap:square;stroke-width:1.5;"/>
    </g>
    <g id="line2d_22"/>
    <g id="text_17">
     <!-- 2000 -->
     <g transform="translate(607.46 71.847562)scale(0.1 -0.1)">
      <use xlink:href="#DejaVuSans-50"/>
      <use x="63.623047" xlink:href="#DejaVuSans-48"/>
      <use x="127.246094" xlink:href="#DejaVuSans-48"/>
      <use x="190.869141" xlink:href="#DejaVuSans-48"/>
     </g>
    </g>
    <g id="line2d_23">
     <path d="M 579.46 83.025688 
L 599.46 83.025688 
" style="fill:none;stroke:#ff7f0e;stroke-linecap:square;stroke-width:1.5;"/>
    </g>
    <g id="line2d_24"/>
    <g id="text_18">
     <!-- 2004 -->
     <g transform="translate(607.46 86.525688)scale(0.1 -0.1)">
      <use xlink:href="#DejaVuSans-50"/>
      <use x="63.623047" xlink:href="#DejaVuSans-48"/>
      <use x="127.246094" xlink:href="#DejaVuSans-48"/>
      <use x="190.869141" xlink:href="#DejaVuSans-52"/>
     </g>
    </g>
    <g id="line2d_25">
     <path d="M 579.46 97.703812 
L 599.46 97.703812 
" style="fill:none;stroke:#2ca02c;stroke-linecap:square;stroke-width:1.5;"/>
    </g>
    <g id="line2d_26"/>
    <g id="text_19">
     <!-- 2006 -->
     <g transform="translate(607.46 101.203812)scale(0.1 -0.1)">
      <use xlink:href="#DejaVuSans-50"/>
      <use x="63.623047" xlink:href="#DejaVuSans-48"/>
      <use x="127.246094" xlink:href="#DejaVuSans-48"/>
      <use x="190.869141" xlink:href="#DejaVuSans-54"/>
     </g>
    </g>
    <g id="line2d_27">
     <path d="M 579.46 112.381937 
L 599.46 112.381937 
" style="fill:none;stroke:#d62728;stroke-linecap:square;stroke-width:1.5;"/>
    </g>
    <g id="line2d_28"/>
    <g id="text_20">
     <!-- 2009 -->
     <defs>
      <path d="M 10.984375 1.515625 
L 10.984375 10.5 
Q 14.703125 8.734375 18.5 7.8125 
Q 22.3125 6.890625 25.984375 6.890625 
Q 35.75 6.890625 40.890625 13.453125 
Q 46.046875 20.015625 46.78125 33.40625 
Q 43.953125 29.203125 39.59375 26.953125 
Q 35.25 24.703125 29.984375 24.703125 
Q 19.046875 24.703125 12.671875 31.3125 
Q 6.296875 37.9375 6.296875 49.421875 
Q 6.296875 60.640625 12.9375 67.421875 
Q 19.578125 74.21875 30.609375 74.21875 
Q 43.265625 74.21875 49.921875 64.515625 
Q 56.59375 54.828125 56.59375 36.375 
Q 56.59375 19.140625 48.40625 8.859375 
Q 40.234375 -1.421875 26.421875 -1.421875 
Q 22.703125 -1.421875 18.890625 -0.6875 
Q 15.09375 0.046875 10.984375 1.515625 
z
M 30.609375 32.421875 
Q 37.25 32.421875 41.125 36.953125 
Q 45.015625 41.5 45.015625 49.421875 
Q 45.015625 57.28125 41.125 61.84375 
Q 37.25 66.40625 30.609375 66.40625 
Q 23.96875 66.40625 20.09375 61.84375 
Q 16.21875 57.28125 16.21875 49.421875 
Q 16.21875 41.5 20.09375 36.953125 
Q 23.96875 32.421875 30.609375 32.421875 
z
" id="DejaVuSans-57"/>
     </defs>
     <g transform="translate(607.46 115.881937)scale(0.1 -0.1)">
      <use xlink:href="#DejaVuSans-50"/>
      <use x="63.623047" xlink:href="#DejaVuSans-48"/>
      <use x="127.246094" xlink:href="#DejaVuSans-48"/>
      <use x="190.869141" xlink:href="#DejaVuSans-57"/>
     </g>
    </g>
    <g id="line2d_29">
     <path d="M 579.46 127.060062 
L 599.46 127.060062 
" style="fill:none;stroke:#9467bd;stroke-linecap:square;stroke-width:1.5;"/>
    </g>
    <g id="line2d_30"/>
    <g id="text_21">
     <!-- 2012 -->
     <g transform="translate(607.46 130.560062)scale(0.1 -0.1)">
      <use xlink:href="#DejaVuSans-50"/>
      <use x="63.623047" xlink:href="#DejaVuSans-48"/>
      <use x="127.246094" xlink:href="#DejaVuSans-49"/>
      <use x="190.869141" xlink:href="#DejaVuSans-50"/>
     </g>
    </g>
    <g id="line2d_31">
     <path d="M 579.46 141.738187 
L 599.46 141.738187 
" style="fill:none;stroke:#8c564b;stroke-linecap:square;stroke-width:1.5;"/>
    </g>
    <g id="line2d_32"/>
    <g id="text_22">
     <!-- 2014 -->
     <g transform="translate(607.46 145.238187)scale(0.1 -0.1)">
      <use xlink:href="#DejaVuSans-50"/>
      <use x="63.623047" xlink:href="#DejaVuSans-48"/>
      <use x="127.246094" xlink:href="#DejaVuSans-49"/>
      <use x="190.869141" xlink:href="#DejaVuSans-52"/>
     </g>
    </g>
    <g id="line2d_33">
     <path d="M 579.46 156.416313 
L 599.46 156.416313 
" style="fill:none;stroke:#e377c2;stroke-linecap:square;stroke-width:1.5;"/>
    </g>
    <g id="line2d_34"/>
    <g id="text_23">
     <!-- 2017 -->
     <defs>
      <path d="M 8.203125 72.90625 
L 55.078125 72.90625 
L 55.078125 68.703125 
L 28.609375 0 
L 18.3125 0 
L 43.21875 64.59375 
L 8.203125 64.59375 
z
" id="DejaVuSans-55"/>
     </defs>
     <g transform="translate(607.46 159.916313)scale(0.1 -0.1)">
      <use xlink:href="#DejaVuSans-50"/>
      <use x="63.623047" xlink:href="#DejaVuSans-48"/>
      <use x="127.246094" xlink:href="#DejaVuSans-49"/>
      <use x="190.869141" xlink:href="#DejaVuSans-55"/>
     </g>
    </g>
   </g>
  </g>
  <g id="axes_2">
   <g id="matplotlib.axis_3">
    <g id="ytick_8">
     <g id="line2d_35">
      <defs>
       <path d="M 0 0 
L 3.5 0 
" id="m9f4ff7024c" style="stroke:#000000;stroke-width:0.8;"/>
      </defs>
      <g>
       <use style="stroke:#000000;stroke-width:0.8;" x="648" xlink:href="#m9f4ff7024c" y="378"/>
      </g>
     </g>
     <g id="text_24">
      <!-- 430 -->
      <defs>
       <path d="M 10.59375 35.5 
L 73.1875 35.5 
L 73.1875 27.203125 
L 10.59375 27.203125 
z
" id="DejaVuSans-8722"/>
       <path d="M 40.578125 39.3125 
Q 47.65625 37.796875 51.625 33 
Q 55.609375 28.21875 55.609375 21.1875 
Q 55.609375 10.40625 48.1875 4.484375 
Q 40.765625 -1.421875 27.09375 -1.421875 
Q 22.515625 -1.421875 17.65625 -0.515625 
Q 12.796875 0.390625 7.625 2.203125 
L 7.625 11.71875 
Q 11.71875 9.328125 16.59375 8.109375 
Q 21.484375 6.890625 26.8125 6.890625 
Q 36.078125 6.890625 40.9375 10.546875 
Q 45.796875 14.203125 45.796875 21.1875 
Q 45.796875 27.640625 41.28125 31.265625 
Q 36.765625 34.90625 28.71875 34.90625 
L 20.21875 34.90625 
L 20.21875 43.015625 
L 29.109375 43.015625 
Q 36.375 43.015625 40.234375 45.921875 
Q 44.09375 48.828125 44.09375 54.296875 
Q 44.09375 59.90625 40.109375 62.90625 
Q 36.140625 65.921875 28.71875 65.921875 
Q 24.65625 65.921875 20.015625 65.03125 
Q 15.375 64.15625 9.8125 62.3125 
L 9.8125 71.09375 
Q 15.4375 72.65625 20.34375 73.4375 
Q 25.25 74.21875 29.59375 74.21875 
Q 40.828125 74.21875 47.359375 69.109375 
Q 53.90625 64.015625 53.90625 55.328125 
Q 53.90625 49.265625 50.4375 45.09375 
Q 46.96875 40.921875 40.578125 39.3125 
z
" id="DejaVuSans-51"/>
      </defs>
      <g transform="translate(655 381.799219)scale(0.1 -0.1)">
       <use xlink:href="#DejaVuSans-8722"/>
       <use x="83.789062" xlink:href="#DejaVuSans-52"/>
       <use x="147.412109" xlink:href="#DejaVuSans-51"/>
       <use x="211.035156" xlink:href="#DejaVuSans-48"/>
      </g>
     </g>
    </g>
    <g id="ytick_9">
     <g id="line2d_36">
      <g>
       <use style="stroke:#000000;stroke-width:0.8;" x="648" xlink:href="#m9f4ff7024c" y="312.768"/>
      </g>
     </g>
     <g id="text_25">
      <!-- 425 -->
      <g transform="translate(655 316.567219)scale(0.1 -0.1)">
       <use xlink:href="#DejaVuSans-8722"/>
       <use x="83.789062" xlink:href="#DejaVuSans-52"/>
       <use x="147.412109" xlink:href="#DejaVuSans-50"/>
       <use x="211.035156" xlink:href="#DejaVuSans-53"/>
      </g>
     </g>
    </g>
    <g id="ytick_10">
     <g id="line2d_37">
      <g>
       <use style="stroke:#000000;stroke-width:0.8;" x="648" xlink:href="#m9f4ff7024c" y="247.536"/>
      </g>
     </g>
     <g id="text_26">
      <!-- 420 -->
      <g transform="translate(655 251.335219)scale(0.1 -0.1)">
       <use xlink:href="#DejaVuSans-8722"/>
       <use x="83.789062" xlink:href="#DejaVuSans-52"/>
       <use x="147.412109" xlink:href="#DejaVuSans-50"/>
       <use x="211.035156" xlink:href="#DejaVuSans-48"/>
      </g>
     </g>
    </g>
    <g id="ytick_11">
     <g id="line2d_38">
      <g>
       <use style="stroke:#000000;stroke-width:0.8;" x="648" xlink:href="#m9f4ff7024c" y="182.304"/>
      </g>
     </g>
     <g id="text_27">
      <!-- 415 -->
      <g transform="translate(655 186.103219)scale(0.1 -0.1)">
       <use xlink:href="#DejaVuSans-8722"/>
       <use x="83.789062" xlink:href="#DejaVuSans-52"/>
       <use x="147.412109" xlink:href="#DejaVuSans-49"/>
       <use x="211.035156" xlink:href="#DejaVuSans-53"/>
      </g>
     </g>
    </g>
    <g id="ytick_12">
     <g id="line2d_39">
      <g>
       <use style="stroke:#000000;stroke-width:0.8;" x="648" xlink:href="#m9f4ff7024c" y="117.072"/>
      </g>
     </g>
     <g id="text_28">
      <!-- 410 -->
      <g transform="translate(655 120.871219)scale(0.1 -0.1)">
       <use xlink:href="#DejaVuSans-8722"/>
       <use x="83.789062" xlink:href="#DejaVuSans-52"/>
       <use x="147.412109" xlink:href="#DejaVuSans-49"/>
       <use x="211.035156" xlink:href="#DejaVuSans-48"/>
      </g>
     </g>
    </g>
    <g id="ytick_13">
     <g id="line2d_40">
      <g>
       <use style="stroke:#000000;stroke-width:0.8;" x="648" xlink:href="#m9f4ff7024c" y="51.84"/>
      </g>
     </g>
     <g id="text_29">
      <!-- 405 -->
      <g transform="translate(655 55.639219)scale(0.1 -0.1)">
       <use xlink:href="#DejaVuSans-8722"/>
       <use x="83.789062" xlink:href="#DejaVuSans-52"/>
       <use x="147.412109" xlink:href="#DejaVuSans-48"/>
       <use x="211.035156" xlink:href="#DejaVuSans-53"/>
      </g>
     </g>
    </g>
    <g id="text_30">
     <!-- meander belt axis profile elevation [m] -->
     <defs>
      <path d="M 48.6875 27.296875 
Q 48.6875 37.203125 44.609375 42.84375 
Q 40.53125 48.484375 33.40625 48.484375 
Q 26.265625 48.484375 22.1875 42.84375 
Q 18.109375 37.203125 18.109375 27.296875 
Q 18.109375 17.390625 22.1875 11.75 
Q 26.265625 6.109375 33.40625 6.109375 
Q 40.53125 6.109375 44.609375 11.75 
Q 48.6875 17.390625 48.6875 27.296875 
z
M 18.109375 46.390625 
Q 20.953125 51.265625 25.265625 53.625 
Q 29.59375 56 35.59375 56 
Q 45.5625 56 51.78125 48.09375 
Q 58.015625 40.1875 58.015625 27.296875 
Q 58.015625 14.40625 51.78125 6.484375 
Q 45.5625 -1.421875 35.59375 -1.421875 
Q 29.59375 -1.421875 25.265625 0.953125 
Q 20.953125 3.328125 18.109375 8.203125 
L 18.109375 0 
L 9.078125 0 
L 9.078125 75.984375 
L 18.109375 75.984375 
z
" id="DejaVuSans-98"/>
      <path d="M 54.890625 54.6875 
L 35.109375 28.078125 
L 55.90625 0 
L 45.3125 0 
L 29.390625 21.484375 
L 13.484375 0 
L 2.875 0 
L 24.125 28.609375 
L 4.6875 54.6875 
L 15.28125 54.6875 
L 29.78125 35.203125 
L 44.28125 54.6875 
z
" id="DejaVuSans-120"/>
      <path d="M 2.984375 54.6875 
L 12.5 54.6875 
L 29.59375 8.796875 
L 46.6875 54.6875 
L 56.203125 54.6875 
L 35.6875 0 
L 23.484375 0 
z
" id="DejaVuSans-118"/>
     </defs>
     <g transform="translate(695.585312 332.35875)rotate(-90)scale(0.12 -0.12)">
      <use xlink:href="#DejaVuSans-109"/>
      <use x="97.412109" xlink:href="#DejaVuSans-101"/>
      <use x="158.935547" xlink:href="#DejaVuSans-97"/>
      <use x="220.214844" xlink:href="#DejaVuSans-110"/>
      <use x="283.59375" xlink:href="#DejaVuSans-100"/>
      <use x="347.070312" xlink:href="#DejaVuSans-101"/>
      <use x="408.59375" xlink:href="#DejaVuSans-114"/>
      <use x="449.707031" xlink:href="#DejaVuSans-32"/>
      <use x="481.494141" xlink:href="#DejaVuSans-98"/>
      <use x="544.970703" xlink:href="#DejaVuSans-101"/>
      <use x="606.494141" xlink:href="#DejaVuSans-108"/>
      <use x="634.277344" xlink:href="#DejaVuSans-116"/>
      <use x="673.486328" xlink:href="#DejaVuSans-32"/>
      <use x="705.273438" xlink:href="#DejaVuSans-97"/>
      <use x="766.552734" xlink:href="#DejaVuSans-120"/>
      <use x="825.732422" xlink:href="#DejaVuSans-105"/>
      <use x="853.515625" xlink:href="#DejaVuSans-115"/>
      <use x="905.615234" xlink:href="#DejaVuSans-32"/>
      <use x="937.402344" xlink:href="#DejaVuSans-112"/>
      <use x="1000.878906" xlink:href="#DejaVuSans-114"/>
      <use x="1041.960938" xlink:href="#DejaVuSans-111"/>
      <use x="1103.142578" xlink:href="#DejaVuSans-102"/>
      <use x="1138.347656" xlink:href="#DejaVuSans-105"/>
      <use x="1166.130859" xlink:href="#DejaVuSans-108"/>
      <use x="1193.914062" xlink:href="#DejaVuSans-101"/>
      <use x="1255.4375" xlink:href="#DejaVuSans-32"/>
      <use x="1287.224609" xlink:href="#DejaVuSans-101"/>
      <use x="1348.748047" xlink:href="#DejaVuSans-108"/>
      <use x="1376.53125" xlink:href="#DejaVuSans-101"/>
      <use x="1438.054688" xlink:href="#DejaVuSans-118"/>
      <use x="1497.234375" xlink:href="#DejaVuSans-97"/>
      <use x="1558.513672" xlink:href="#DejaVuSans-116"/>
      <use x="1597.722656" xlink:href="#DejaVuSans-105"/>
      <use x="1625.505859" xlink:href="#DejaVuSans-111"/>
      <use x="1686.6875" xlink:href="#DejaVuSans-110"/>
      <use x="1750.066406" xlink:href="#DejaVuSans-32"/>
      <use x="1781.853516" xlink:href="#DejaVuSans-91"/>
      <use x="1820.867188" xlink:href="#DejaVuSans-109"/>
      <use x="1918.279297" xlink:href="#DejaVuSans-93"/>
     </g>
    </g>
   </g>
   <g id="line2d_41">
    <path clip-path="url(#pb051008e61)" d="M 90 91.73882 
L 102.834 98.654294 
L 115.668 108.911933 
L 116.04489 109.24798 
L 128.87889 121.047772 
L 141.71289 132.791611 
L 154.54689 143.593488 
L 167.38089 152.605309 
L 180.21489 157.565873 
L 193.04889 161.467807 
L 205.88289 171.119514 
L 218.71689 183.979057 
L 231.55089 198.167526 
L 241.197209 208.711358 
L 254.031209 219.369814 
L 266.865209 232.939129 
L 279.699209 242.910353 
L 287.312673 246.551723 
L 300.146673 253.392996 
L 312.980673 261.102004 
L 325.814673 268.887282 
L 338.648673 274.638447 
L 351.482673 276.661955 
L 364.316673 286.821226 
L 375.856469 296.180005 
L 388.690469 303.378833 
L 401.524469 314.465993 
L 413.386201 324.869769 
" style="fill:none;stroke:#000000;stroke-dasharray:9.6,2.4,1.5,2.4;stroke-dashoffset:0;stroke-width:1.5;"/>
   </g>
   <g id="line2d_42">
    <path clip-path="url(#pb051008e61)" d="M 90 109.789864 
L 102.834 139.169831 
L 115.668 156.032982 
L 116.04489 156.398541 
L 128.87889 162.965098 
L 141.71289 171.558442 
L 154.54689 181.946242 
L 167.38089 194.235192 
L 180.21489 203.92451 
L 193.04889 214.844228 
L 205.88289 220.355044 
L 218.71689 230.99964 
L 231.55089 238.7455 
L 241.197209 244.735307 
L 254.031209 252.733005 
L 266.865209 260.617993 
L 279.699209 268.041358 
L 287.312673 272.774353 
L 300.146673 280.180898 
L 312.980673 288.645406 
L 325.814673 297.893047 
L 338.648673 306.65008 
L 351.482673 313.865371 
L 364.316673 319.809522 
L 375.856469 324.797179 
L 388.690469 330.148284 
L 401.524469 334.724143 
L 413.386201 340.172308 
" style="fill:none;stroke:#000000;stroke-dasharray:5.55,2.4;stroke-dashoffset:0;stroke-width:1.5;"/>
   </g>
   <g id="patch_8">
    <path d="M 90 378 
L 90 51.84 
" style="fill:none;stroke:#000000;stroke-linecap:square;stroke-linejoin:miter;stroke-width:0.8;"/>
   </g>
   <g id="patch_9">
    <path d="M 648 378 
L 648 51.84 
" style="fill:none;stroke:#000000;stroke-linecap:square;stroke-linejoin:miter;stroke-width:0.8;"/>
   </g>
   <g id="patch_10">
    <path d="M 90 378 
L 648 378 
" style="fill:none;stroke:#000000;stroke-linecap:square;stroke-linejoin:miter;stroke-width:0.8;"/>
   </g>
   <g id="patch_11">
    <path d="M 90 51.84 
L 648 51.84 
" style="fill:none;stroke:#000000;stroke-linecap:square;stroke-linejoin:miter;stroke-width:0.8;"/>
   </g>
   <g id="legend_2">
    <g id="patch_12">
     <path d="M 97 89.19625 
L 282.253125 89.19625 
Q 284.253125 89.19625 284.253125 87.19625 
L 284.253125 58.84 
Q 284.253125 56.84 282.253125 56.84 
L 97 56.84 
Q 95 56.84 95 58.84 
L 95 87.19625 
Q 95 89.19625 97 89.19625 
z
" style="fill:#ffffff;opacity:0.8;stroke:#cccccc;stroke-linejoin:miter;"/>
    </g>
    <g id="line2d_43">
     <path d="M 99 64.938437 
L 119 64.938437 
" style="fill:none;stroke:#000000;stroke-dasharray:9.6,2.4,1.5,2.4;stroke-dashoffset:0;stroke-width:1.5;"/>
    </g>
    <g id="line2d_44"/>
    <g id="text_31">
     <!-- meander belt axis profile, unc. -->
     <g transform="translate(127 68.438437)scale(0.1 -0.1)">
      <use xlink:href="#DejaVuSans-109"/>
      <use x="97.412109" xlink:href="#DejaVuSans-101"/>
      <use x="158.935547" xlink:href="#DejaVuSans-97"/>
      <use x="220.214844" xlink:href="#DejaVuSans-110"/>
      <use x="283.59375" xlink:href="#DejaVuSans-100"/>
      <use x="347.070312" xlink:href="#DejaVuSans-101"/>
      <use x="408.59375" xlink:href="#DejaVuSans-114"/>
      <use x="449.707031" xlink:href="#DejaVuSans-32"/>
      <use x="481.494141" xlink:href="#DejaVuSans-98"/>
      <use x="544.970703" xlink:href="#DejaVuSans-101"/>
      <use x="606.494141" xlink:href="#DejaVuSans-108"/>
      <use x="634.277344" xlink:href="#DejaVuSans-116"/>
      <use x="673.486328" xlink:href="#DejaVuSans-32"/>
      <use x="705.273438" xlink:href="#DejaVuSans-97"/>
      <use x="766.552734" xlink:href="#DejaVuSans-120"/>
      <use x="825.732422" xlink:href="#DejaVuSans-105"/>
      <use x="853.515625" xlink:href="#DejaVuSans-115"/>
      <use x="905.615234" xlink:href="#DejaVuSans-32"/>
      <use x="937.402344" xlink:href="#DejaVuSans-112"/>
      <use x="1000.878906" xlink:href="#DejaVuSans-114"/>
      <use x="1041.960938" xlink:href="#DejaVuSans-111"/>
      <use x="1103.142578" xlink:href="#DejaVuSans-102"/>
      <use x="1138.347656" xlink:href="#DejaVuSans-105"/>
      <use x="1166.130859" xlink:href="#DejaVuSans-108"/>
      <use x="1193.914062" xlink:href="#DejaVuSans-101"/>
      <use x="1255.4375" xlink:href="#DejaVuSans-44"/>
      <use x="1287.224609" xlink:href="#DejaVuSans-32"/>
      <use x="1319.011719" xlink:href="#DejaVuSans-117"/>
      <use x="1382.390625" xlink:href="#DejaVuSans-110"/>
      <use x="1445.769531" xlink:href="#DejaVuSans-99"/>
      <use x="1500.75" xlink:href="#DejaVuSans-46"/>
     </g>
    </g>
    <g id="line2d_45">
     <path d="M 99 79.616562 
L 119 79.616562 
" style="fill:none;stroke:#000000;stroke-dasharray:5.55,2.4;stroke-dashoffset:0;stroke-width:1.5;"/>
    </g>
    <g id="line2d_46"/>
    <g id="text_32">
     <!-- meander belt axis profile, c. -->
     <g transform="translate(127 83.116562)scale(0.1 -0.1)">
      <use xlink:href="#DejaVuSans-109"/>
      <use x="97.412109" xlink:href="#DejaVuSans-101"/>
      <use x="158.935547" xlink:href="#DejaVuSans-97"/>
      <use x="220.214844" xlink:href="#DejaVuSans-110"/>
      <use x="283.59375" xlink:href="#DejaVuSans-100"/>
      <use x="347.070312" xlink:href="#DejaVuSans-101"/>
      <use x="408.59375" xlink:href="#DejaVuSans-114"/>
      <use x="449.707031" xlink:href="#DejaVuSans-32"/>
      <use x="481.494141" xlink:href="#DejaVuSans-98"/>
      <use x="544.970703" xlink:href="#DejaVuSans-101"/>
      <use x="606.494141" xlink:href="#DejaVuSans-108"/>
      <use x="634.277344" xlink:href="#DejaVuSans-116"/>
      <use x="673.486328" xlink:href="#DejaVuSans-32"/>
      <use x="705.273438" xlink:href="#DejaVuSans-97"/>
      <use x="766.552734" xlink:href="#DejaVuSans-120"/>
      <use x="825.732422" xlink:href="#DejaVuSans-105"/>
      <use x="853.515625" xlink:href="#DejaVuSans-115"/>
      <use x="905.615234" xlink:href="#DejaVuSans-32"/>
      <use x="937.402344" xlink:href="#DejaVuSans-112"/>
      <use x="1000.878906" xlink:href="#DejaVuSans-114"/>
      <use x="1041.960938" xlink:href="#DejaVuSans-111"/>
      <use x="1103.142578" xlink:href="#DejaVuSans-102"/>
      <use x="1138.347656" xlink:href="#DejaVuSans-105"/>
      <use x="1166.130859" xlink:href="#DejaVuSans-108"/>
      <use x="1193.914062" xlink:href="#DejaVuSans-101"/>
      <use x="1255.4375" xlink:href="#DejaVuSans-44"/>
      <use x="1287.224609" xlink:href="#DejaVuSans-32"/>
      <use x="1319.011719" xlink:href="#DejaVuSans-99"/>
      <use x="1373.992188" xlink:href="#DejaVuSans-46"/>
     </g>
    </g>
   </g>
  </g>
 </g>
 <defs>
  <clipPath id="pb051008e61">
   <rect height="326.16" width="558" x="90" y="51.84"/>
  </clipPath>
 </defs>
</svg>
