<?xml version="1.0" encoding="utf-8" standalone="no"?>
<!DOCTYPE svg PUBLIC "-//W3C//DTD SVG 1.1//EN"
  "http://www.w3.org/Graphics/SVG/1.1/DTD/svg11.dtd">
<!-- Created with matplotlib (https://matplotlib.org/) -->
<svg height="432pt" version="1.1" viewBox="0 0 720 432" width="720pt" xmlns="http://www.w3.org/2000/svg" xmlns:xlink="http://www.w3.org/1999/xlink">
 <defs>
  <style type="text/css">
*{stroke-linecap:butt;stroke-linejoin:round;}
  </style>
 </defs>
 <g id="figure_1">
  <g id="patch_1">
   <path d="M 0 432 
L 720 432 
L 720 0 
L 0 0 
z
" style="fill:#ffffff;"/>
  </g>
  <g id="axes_1">
   <g id="patch_2">
    <path d="M 90 378 
L 648 378 
L 648 51.84 
L 90 51.84 
z
" style="fill:#ffffff;"/>
   </g>
   <g id="matplotlib.axis_1">
    <g id="xtick_1">
     <g id="line2d_1">
      <defs>
       <path d="M 0 0 
L 0 3.5 
" id="m20374778d6" style="stroke:#000000;stroke-width:0.8;"/>
      </defs>
      <g>
       <use style="stroke:#000000;stroke-width:0.8;" x="90" xlink:href="#m20374778d6" y="378"/>
      </g>
     </g>
     <g id="text_1">
      <!-- 0 -->
      <defs>
       <path d="M 31.78125 66.40625 
Q 24.171875 66.40625 20.328125 58.90625 
Q 16.5 51.421875 16.5 36.375 
Q 16.5 21.390625 20.328125 13.890625 
Q 24.171875 6.390625 31.78125 6.390625 
Q 39.453125 6.390625 43.28125 13.890625 
Q 47.125 21.390625 47.125 36.375 
Q 47.125 51.421875 43.28125 58.90625 
Q 39.453125 66.40625 31.78125 66.40625 
z
M 31.78125 74.21875 
Q 44.046875 74.21875 50.515625 64.515625 
Q 56.984375 54.828125 56.984375 36.375 
Q 56.984375 17.96875 50.515625 8.265625 
Q 44.046875 -1.421875 31.78125 -1.421875 
Q 19.53125 -1.421875 13.0625 8.265625 
Q 6.59375 17.96875 6.59375 36.375 
Q 6.59375 54.828125 13.0625 64.515625 
Q 19.53125 74.21875 31.78125 74.21875 
z
" id="DejaVuSans-48"/>
      </defs>
      <g transform="translate(86.81875 392.598437)scale(0.1 -0.1)">
       <use xlink:href="#DejaVuSans-48"/>
      </g>
     </g>
    </g>
    <g id="xtick_2">
     <g id="line2d_2">
      <g>
       <use style="stroke:#000000;stroke-width:0.8;" x="201.6" xlink:href="#m20374778d6" y="378"/>
      </g>
     </g>
     <g id="text_2">
      <!-- 200 -->
      <defs>
       <path d="M 19.1875 8.296875 
L 53.609375 8.296875 
L 53.609375 0 
L 7.328125 0 
L 7.328125 8.296875 
Q 12.9375 14.109375 22.625 23.890625 
Q 32.328125 33.6875 34.8125 36.53125 
Q 39.546875 41.84375 41.421875 45.53125 
Q 43.3125 49.21875 43.3125 52.78125 
Q 43.3125 58.59375 39.234375 62.25 
Q 35.15625 65.921875 28.609375 65.921875 
Q 23.96875 65.921875 18.8125 64.3125 
Q 13.671875 62.703125 7.8125 59.421875 
L 7.8125 69.390625 
Q 13.765625 71.78125 18.9375 73 
Q 24.125 74.21875 28.421875 74.21875 
Q 39.75 74.21875 46.484375 68.546875 
Q 53.21875 62.890625 53.21875 53.421875 
Q 53.21875 48.921875 51.53125 44.890625 
Q 49.859375 40.875 45.40625 35.40625 
Q 44.1875 33.984375 37.640625 27.21875 
Q 31.109375 20.453125 19.1875 8.296875 
z
" id="DejaVuSans-50"/>
      </defs>
      <g transform="translate(192.05625 392.598437)scale(0.1 -0.1)">
       <use xlink:href="#DejaVuSans-50"/>
       <use x="63.623047" xlink:href="#DejaVuSans-48"/>
       <use x="127.246094" xlink:href="#DejaVuSans-48"/>
      </g>
     </g>
    </g>
    <g id="xtick_3">
     <g id="line2d_3">
      <g>
       <use style="stroke:#000000;stroke-width:0.8;" x="313.2" xlink:href="#m20374778d6" y="378"/>
      </g>
     </g>
     <g id="text_3">
      <!-- 400 -->
      <defs>
       <path d="M 37.796875 64.3125 
L 12.890625 25.390625 
L 37.796875 25.390625 
z
M 35.203125 72.90625 
L 47.609375 72.90625 
L 47.609375 25.390625 
L 58.015625 25.390625 
L 58.015625 17.1875 
L 47.609375 17.1875 
L 47.609375 0 
L 37.796875 0 
L 37.796875 17.1875 
L 4.890625 17.1875 
L 4.890625 26.703125 
z
" id="DejaVuSans-52"/>
      </defs>
      <g transform="translate(303.65625 392.598437)scale(0.1 -0.1)">
       <use xlink:href="#DejaVuSans-52"/>
       <use x="63.623047" xlink:href="#DejaVuSans-48"/>
       <use x="127.246094" xlink:href="#DejaVuSans-48"/>
      </g>
     </g>
    </g>
    <g id="xtick_4">
     <g id="line2d_4">
      <g>
       <use style="stroke:#000000;stroke-width:0.8;" x="424.8" xlink:href="#m20374778d6" y="378"/>
      </g>
     </g>
     <g id="text_4">
      <!-- 600 -->
      <defs>
       <path d="M 33.015625 40.375 
Q 26.375 40.375 22.484375 35.828125 
Q 18.609375 31.296875 18.609375 23.390625 
Q 18.609375 15.53125 22.484375 10.953125 
Q 26.375 6.390625 33.015625 6.390625 
Q 39.65625 6.390625 43.53125 10.953125 
Q 47.40625 15.53125 47.40625 23.390625 
Q 47.40625 31.296875 43.53125 35.828125 
Q 39.65625 40.375 33.015625 40.375 
z
M 52.59375 71.296875 
L 52.59375 62.3125 
Q 48.875 64.0625 45.09375 64.984375 
Q 41.3125 65.921875 37.59375 65.921875 
Q 27.828125 65.921875 22.671875 59.328125 
Q 17.53125 52.734375 16.796875 39.40625 
Q 19.671875 43.65625 24.015625 45.921875 
Q 28.375 48.1875 33.59375 48.1875 
Q 44.578125 48.1875 50.953125 41.515625 
Q 57.328125 34.859375 57.328125 23.390625 
Q 57.328125 12.15625 50.6875 5.359375 
Q 44.046875 -1.421875 33.015625 -1.421875 
Q 20.359375 -1.421875 13.671875 8.265625 
Q 6.984375 17.96875 6.984375 36.375 
Q 6.984375 53.65625 15.1875 63.9375 
Q 23.390625 74.21875 37.203125 74.21875 
Q 40.921875 74.21875 44.703125 73.484375 
Q 48.484375 72.75 52.59375 71.296875 
z
" id="DejaVuSans-54"/>
      </defs>
      <g transform="translate(415.25625 392.598437)scale(0.1 -0.1)">
       <use xlink:href="#DejaVuSans-54"/>
       <use x="63.623047" xlink:href="#DejaVuSans-48"/>
       <use x="127.246094" xlink:href="#DejaVuSans-48"/>
      </g>
     </g>
    </g>
    <g id="xtick_5">
     <g id="line2d_5">
      <g>
       <use style="stroke:#000000;stroke-width:0.8;" x="536.4" xlink:href="#m20374778d6" y="378"/>
      </g>
     </g>
     <g id="text_5">
      <!-- 800 -->
      <defs>
       <path d="M 31.78125 34.625 
Q 24.75 34.625 20.71875 30.859375 
Q 16.703125 27.09375 16.703125 20.515625 
Q 16.703125 13.921875 20.71875 10.15625 
Q 24.75 6.390625 31.78125 6.390625 
Q 38.8125 6.390625 42.859375 10.171875 
Q 46.921875 13.96875 46.921875 20.515625 
Q 46.921875 27.09375 42.890625 30.859375 
Q 38.875 34.625 31.78125 34.625 
z
M 21.921875 38.8125 
Q 15.578125 40.375 12.03125 44.71875 
Q 8.5 49.078125 8.5 55.328125 
Q 8.5 64.0625 14.71875 69.140625 
Q 20.953125 74.21875 31.78125 74.21875 
Q 42.671875 74.21875 48.875 69.140625 
Q 55.078125 64.0625 55.078125 55.328125 
Q 55.078125 49.078125 51.53125 44.71875 
Q 48 40.375 41.703125 38.8125 
Q 48.828125 37.15625 52.796875 32.3125 
Q 56.78125 27.484375 56.78125 20.515625 
Q 56.78125 9.90625 50.3125 4.234375 
Q 43.84375 -1.421875 31.78125 -1.421875 
Q 19.734375 -1.421875 13.25 4.234375 
Q 6.78125 9.90625 6.78125 20.515625 
Q 6.78125 27.484375 10.78125 32.3125 
Q 14.796875 37.15625 21.921875 38.8125 
z
M 18.3125 54.390625 
Q 18.3125 48.734375 21.84375 45.5625 
Q 25.390625 42.390625 31.78125 42.390625 
Q 38.140625 42.390625 41.71875 45.5625 
Q 45.3125 48.734375 45.3125 54.390625 
Q 45.3125 60.0625 41.71875 63.234375 
Q 38.140625 66.40625 31.78125 66.40625 
Q 25.390625 66.40625 21.84375 63.234375 
Q 18.3125 60.0625 18.3125 54.390625 
z
" id="DejaVuSans-56"/>
      </defs>
      <g transform="translate(526.85625 392.598437)scale(0.1 -0.1)">
       <use xlink:href="#DejaVuSans-56"/>
       <use x="63.623047" xlink:href="#DejaVuSans-48"/>
       <use x="127.246094" xlink:href="#DejaVuSans-48"/>
      </g>
     </g>
    </g>
    <g id="xtick_6">
     <g id="line2d_6">
      <g>
       <use style="stroke:#000000;stroke-width:0.8;" x="648" xlink:href="#m20374778d6" y="378"/>
      </g>
     </g>
     <g id="text_6">
      <!-- 1000 -->
      <defs>
       <path d="M 12.40625 8.296875 
L 28.515625 8.296875 
L 28.515625 63.921875 
L 10.984375 60.40625 
L 10.984375 69.390625 
L 28.421875 72.90625 
L 38.28125 72.90625 
L 38.28125 8.296875 
L 54.390625 8.296875 
L 54.390625 0 
L 12.40625 0 
z
" id="DejaVuSans-49"/>
      </defs>
      <g transform="translate(635.275 392.598437)scale(0.1 -0.1)">
       <use xlink:href="#DejaVuSans-49"/>
       <use x="63.623047" xlink:href="#DejaVuSans-48"/>
       <use x="127.246094" xlink:href="#DejaVuSans-48"/>
       <use x="190.869141" xlink:href="#DejaVuSans-48"/>
      </g>
     </g>
    </g>
    <g id="text_7">
     <!-- distance along straightened profile [m] -->
     <defs>
      <path d="M 45.40625 46.390625 
L 45.40625 75.984375 
L 54.390625 75.984375 
L 54.390625 0 
L 45.40625 0 
L 45.40625 8.203125 
Q 42.578125 3.328125 38.25 0.953125 
Q 33.9375 -1.421875 27.875 -1.421875 
Q 17.96875 -1.421875 11.734375 6.484375 
Q 5.515625 14.40625 5.515625 27.296875 
Q 5.515625 40.1875 11.734375 48.09375 
Q 17.96875 56 27.875 56 
Q 33.9375 56 38.25 53.625 
Q 42.578125 51.265625 45.40625 46.390625 
z
M 14.796875 27.296875 
Q 14.796875 17.390625 18.875 11.75 
Q 22.953125 6.109375 30.078125 6.109375 
Q 37.203125 6.109375 41.296875 11.75 
Q 45.40625 17.390625 45.40625 27.296875 
Q 45.40625 37.203125 41.296875 42.84375 
Q 37.203125 48.484375 30.078125 48.484375 
Q 22.953125 48.484375 18.875 42.84375 
Q 14.796875 37.203125 14.796875 27.296875 
z
" id="DejaVuSans-100"/>
      <path d="M 9.421875 54.6875 
L 18.40625 54.6875 
L 18.40625 0 
L 9.421875 0 
z
M 9.421875 75.984375 
L 18.40625 75.984375 
L 18.40625 64.59375 
L 9.421875 64.59375 
z
" id="DejaVuSans-105"/>
      <path d="M 44.28125 53.078125 
L 44.28125 44.578125 
Q 40.484375 46.53125 36.375 47.5 
Q 32.28125 48.484375 27.875 48.484375 
Q 21.1875 48.484375 17.84375 46.4375 
Q 14.5 44.390625 14.5 40.28125 
Q 14.5 37.15625 16.890625 35.375 
Q 19.28125 33.59375 26.515625 31.984375 
L 29.59375 31.296875 
Q 39.15625 29.25 43.1875 25.515625 
Q 47.21875 21.78125 47.21875 15.09375 
Q 47.21875 7.46875 41.1875 3.015625 
Q 35.15625 -1.421875 24.609375 -1.421875 
Q 20.21875 -1.421875 15.453125 -0.5625 
Q 10.6875 0.296875 5.421875 2 
L 5.421875 11.28125 
Q 10.40625 8.6875 15.234375 7.390625 
Q 20.0625 6.109375 24.8125 6.109375 
Q 31.15625 6.109375 34.5625 8.28125 
Q 37.984375 10.453125 37.984375 14.40625 
Q 37.984375 18.0625 35.515625 20.015625 
Q 33.0625 21.96875 24.703125 23.78125 
L 21.578125 24.515625 
Q 13.234375 26.265625 9.515625 29.90625 
Q 5.8125 33.546875 5.8125 39.890625 
Q 5.8125 47.609375 11.28125 51.796875 
Q 16.75 56 26.8125 56 
Q 31.78125 56 36.171875 55.265625 
Q 40.578125 54.546875 44.28125 53.078125 
z
" id="DejaVuSans-115"/>
      <path d="M 18.3125 70.21875 
L 18.3125 54.6875 
L 36.8125 54.6875 
L 36.8125 47.703125 
L 18.3125 47.703125 
L 18.3125 18.015625 
Q 18.3125 11.328125 20.140625 9.421875 
Q 21.96875 7.515625 27.59375 7.515625 
L 36.8125 7.515625 
L 36.8125 0 
L 27.59375 0 
Q 17.1875 0 13.234375 3.875 
Q 9.28125 7.765625 9.28125 18.015625 
L 9.28125 47.703125 
L 2.6875 47.703125 
L 2.6875 54.6875 
L 9.28125 54.6875 
L 9.28125 70.21875 
z
" id="DejaVuSans-116"/>
      <path d="M 34.28125 27.484375 
Q 23.390625 27.484375 19.1875 25 
Q 14.984375 22.515625 14.984375 16.5 
Q 14.984375 11.71875 18.140625 8.90625 
Q 21.296875 6.109375 26.703125 6.109375 
Q 34.1875 6.109375 38.703125 11.40625 
Q 43.21875 16.703125 43.21875 25.484375 
L 43.21875 27.484375 
z
M 52.203125 31.203125 
L 52.203125 0 
L 43.21875 0 
L 43.21875 8.296875 
Q 40.140625 3.328125 35.546875 0.953125 
Q 30.953125 -1.421875 24.3125 -1.421875 
Q 15.921875 -1.421875 10.953125 3.296875 
Q 6 8.015625 6 15.921875 
Q 6 25.140625 12.171875 29.828125 
Q 18.359375 34.515625 30.609375 34.515625 
L 43.21875 34.515625 
L 43.21875 35.40625 
Q 43.21875 41.609375 39.140625 45 
Q 35.0625 48.390625 27.6875 48.390625 
Q 23 48.390625 18.546875 47.265625 
Q 14.109375 46.140625 10.015625 43.890625 
L 10.015625 52.203125 
Q 14.9375 54.109375 19.578125 55.046875 
Q 24.21875 56 28.609375 56 
Q 40.484375 56 46.34375 49.84375 
Q 52.203125 43.703125 52.203125 31.203125 
z
" id="DejaVuSans-97"/>
      <path d="M 54.890625 33.015625 
L 54.890625 0 
L 45.90625 0 
L 45.90625 32.71875 
Q 45.90625 40.484375 42.875 44.328125 
Q 39.84375 48.1875 33.796875 48.1875 
Q 26.515625 48.1875 22.3125 43.546875 
Q 18.109375 38.921875 18.109375 30.90625 
L 18.109375 0 
L 9.078125 0 
L 9.078125 54.6875 
L 18.109375 54.6875 
L 18.109375 46.1875 
Q 21.34375 51.125 25.703125 53.5625 
Q 30.078125 56 35.796875 56 
Q 45.21875 56 50.046875 50.171875 
Q 54.890625 44.34375 54.890625 33.015625 
z
" id="DejaVuSans-110"/>
      <path d="M 48.78125 52.59375 
L 48.78125 44.1875 
Q 44.96875 46.296875 41.140625 47.34375 
Q 37.3125 48.390625 33.40625 48.390625 
Q 24.65625 48.390625 19.8125 42.84375 
Q 14.984375 37.3125 14.984375 27.296875 
Q 14.984375 17.28125 19.8125 11.734375 
Q 24.65625 6.203125 33.40625 6.203125 
Q 37.3125 6.203125 41.140625 7.25 
Q 44.96875 8.296875 48.78125 10.40625 
L 48.78125 2.09375 
Q 45.015625 0.34375 40.984375 -0.53125 
Q 36.96875 -1.421875 32.421875 -1.421875 
Q 20.0625 -1.421875 12.78125 6.34375 
Q 5.515625 14.109375 5.515625 27.296875 
Q 5.515625 40.671875 12.859375 48.328125 
Q 20.21875 56 33.015625 56 
Q 37.15625 56 41.109375 55.140625 
Q 45.0625 54.296875 48.78125 52.59375 
z
" id="DejaVuSans-99"/>
      <path d="M 56.203125 29.59375 
L 56.203125 25.203125 
L 14.890625 25.203125 
Q 15.484375 15.921875 20.484375 11.0625 
Q 25.484375 6.203125 34.421875 6.203125 
Q 39.59375 6.203125 44.453125 7.46875 
Q 49.3125 8.734375 54.109375 11.28125 
L 54.109375 2.78125 
Q 49.265625 0.734375 44.1875 -0.34375 
Q 39.109375 -1.421875 33.890625 -1.421875 
Q 20.796875 -1.421875 13.15625 6.1875 
Q 5.515625 13.8125 5.515625 26.8125 
Q 5.515625 40.234375 12.765625 48.109375 
Q 20.015625 56 32.328125 56 
Q 43.359375 56 49.78125 48.890625 
Q 56.203125 41.796875 56.203125 29.59375 
z
M 47.21875 32.234375 
Q 47.125 39.59375 43.09375 43.984375 
Q 39.0625 48.390625 32.421875 48.390625 
Q 24.90625 48.390625 20.390625 44.140625 
Q 15.875 39.890625 15.1875 32.171875 
z
" id="DejaVuSans-101"/>
      <path id="DejaVuSans-32"/>
      <path d="M 9.421875 75.984375 
L 18.40625 75.984375 
L 18.40625 0 
L 9.421875 0 
z
" id="DejaVuSans-108"/>
      <path d="M 30.609375 48.390625 
Q 23.390625 48.390625 19.1875 42.75 
Q 14.984375 37.109375 14.984375 27.296875 
Q 14.984375 17.484375 19.15625 11.84375 
Q 23.34375 6.203125 30.609375 6.203125 
Q 37.796875 6.203125 41.984375 11.859375 
Q 46.1875 17.53125 46.1875 27.296875 
Q 46.1875 37.015625 41.984375 42.703125 
Q 37.796875 48.390625 30.609375 48.390625 
z
M 30.609375 56 
Q 42.328125 56 49.015625 48.375 
Q 55.71875 40.765625 55.71875 27.296875 
Q 55.71875 13.875 49.015625 6.21875 
Q 42.328125 -1.421875 30.609375 -1.421875 
Q 18.84375 -1.421875 12.171875 6.21875 
Q 5.515625 13.875 5.515625 27.296875 
Q 5.515625 40.765625 12.171875 48.375 
Q 18.84375 56 30.609375 56 
z
" id="DejaVuSans-111"/>
      <path d="M 45.40625 27.984375 
Q 45.40625 37.75 41.375 43.109375 
Q 37.359375 48.484375 30.078125 48.484375 
Q 22.859375 48.484375 18.828125 43.109375 
Q 14.796875 37.75 14.796875 27.984375 
Q 14.796875 18.265625 18.828125 12.890625 
Q 22.859375 7.515625 30.078125 7.515625 
Q 37.359375 7.515625 41.375 12.890625 
Q 45.40625 18.265625 45.40625 27.984375 
z
M 54.390625 6.78125 
Q 54.390625 -7.171875 48.1875 -13.984375 
Q 42 -20.796875 29.203125 -20.796875 
Q 24.46875 -20.796875 20.265625 -20.09375 
Q 16.0625 -19.390625 12.109375 -17.921875 
L 12.109375 -9.1875 
Q 16.0625 -11.328125 19.921875 -12.34375 
Q 23.78125 -13.375 27.78125 -13.375 
Q 36.625 -13.375 41.015625 -8.765625 
Q 45.40625 -4.15625 45.40625 5.171875 
L 45.40625 9.625 
Q 42.625 4.78125 38.28125 2.390625 
Q 33.9375 0 27.875 0 
Q 17.828125 0 11.671875 7.65625 
Q 5.515625 15.328125 5.515625 27.984375 
Q 5.515625 40.671875 11.671875 48.328125 
Q 17.828125 56 27.875 56 
Q 33.9375 56 38.28125 53.609375 
Q 42.625 51.21875 45.40625 46.390625 
L 45.40625 54.6875 
L 54.390625 54.6875 
z
" id="DejaVuSans-103"/>
      <path d="M 41.109375 46.296875 
Q 39.59375 47.171875 37.8125 47.578125 
Q 36.03125 48 33.890625 48 
Q 26.265625 48 22.1875 43.046875 
Q 18.109375 38.09375 18.109375 28.8125 
L 18.109375 0 
L 9.078125 0 
L 9.078125 54.6875 
L 18.109375 54.6875 
L 18.109375 46.1875 
Q 20.953125 51.171875 25.484375 53.578125 
Q 30.03125 56 36.53125 56 
Q 37.453125 56 38.578125 55.875 
Q 39.703125 55.765625 41.0625 55.515625 
z
" id="DejaVuSans-114"/>
      <path d="M 54.890625 33.015625 
L 54.890625 0 
L 45.90625 0 
L 45.90625 32.71875 
Q 45.90625 40.484375 42.875 44.328125 
Q 39.84375 48.1875 33.796875 48.1875 
Q 26.515625 48.1875 22.3125 43.546875 
Q 18.109375 38.921875 18.109375 30.90625 
L 18.109375 0 
L 9.078125 0 
L 9.078125 75.984375 
L 18.109375 75.984375 
L 18.109375 46.1875 
Q 21.34375 51.125 25.703125 53.5625 
Q 30.078125 56 35.796875 56 
Q 45.21875 56 50.046875 50.171875 
Q 54.890625 44.34375 54.890625 33.015625 
z
" id="DejaVuSans-104"/>
      <path d="M 18.109375 8.203125 
L 18.109375 -20.796875 
L 9.078125 -20.796875 
L 9.078125 54.6875 
L 18.109375 54.6875 
L 18.109375 46.390625 
Q 20.953125 51.265625 25.265625 53.625 
Q 29.59375 56 35.59375 56 
Q 45.5625 56 51.78125 48.09375 
Q 58.015625 40.1875 58.015625 27.296875 
Q 58.015625 14.40625 51.78125 6.484375 
Q 45.5625 -1.421875 35.59375 -1.421875 
Q 29.59375 -1.421875 25.265625 0.953125 
Q 20.953125 3.328125 18.109375 8.203125 
z
M 48.6875 27.296875 
Q 48.6875 37.203125 44.609375 42.84375 
Q 40.53125 48.484375 33.40625 48.484375 
Q 26.265625 48.484375 22.1875 42.84375 
Q 18.109375 37.203125 18.109375 27.296875 
Q 18.109375 17.390625 22.1875 11.75 
Q 26.265625 6.109375 33.40625 6.109375 
Q 40.53125 6.109375 44.609375 11.75 
Q 48.6875 17.390625 48.6875 27.296875 
z
" id="DejaVuSans-112"/>
      <path d="M 37.109375 75.984375 
L 37.109375 68.5 
L 28.515625 68.5 
Q 23.6875 68.5 21.796875 66.546875 
Q 19.921875 64.59375 19.921875 59.515625 
L 19.921875 54.6875 
L 34.71875 54.6875 
L 34.71875 47.703125 
L 19.921875 47.703125 
L 19.921875 0 
L 10.890625 0 
L 10.890625 47.703125 
L 2.296875 47.703125 
L 2.296875 54.6875 
L 10.890625 54.6875 
L 10.890625 58.5 
Q 10.890625 67.625 15.140625 71.796875 
Q 19.390625 75.984375 28.609375 75.984375 
z
" id="DejaVuSans-102"/>
      <path d="M 8.59375 75.984375 
L 29.296875 75.984375 
L 29.296875 69 
L 17.578125 69 
L 17.578125 -6.203125 
L 29.296875 -6.203125 
L 29.296875 -13.1875 
L 8.59375 -13.1875 
z
" id="DejaVuSans-91"/>
      <path d="M 52 44.1875 
Q 55.375 50.25 60.0625 53.125 
Q 64.75 56 71.09375 56 
Q 79.640625 56 84.28125 50.015625 
Q 88.921875 44.046875 88.921875 33.015625 
L 88.921875 0 
L 79.890625 0 
L 79.890625 32.71875 
Q 79.890625 40.578125 77.09375 44.375 
Q 74.3125 48.1875 68.609375 48.1875 
Q 61.625 48.1875 57.5625 43.546875 
Q 53.515625 38.921875 53.515625 30.90625 
L 53.515625 0 
L 44.484375 0 
L 44.484375 32.71875 
Q 44.484375 40.625 41.703125 44.40625 
Q 38.921875 48.1875 33.109375 48.1875 
Q 26.21875 48.1875 22.15625 43.53125 
Q 18.109375 38.875 18.109375 30.90625 
L 18.109375 0 
L 9.078125 0 
L 9.078125 54.6875 
L 18.109375 54.6875 
L 18.109375 46.1875 
Q 21.1875 51.21875 25.484375 53.609375 
Q 29.78125 56 35.6875 56 
Q 41.65625 56 45.828125 52.96875 
Q 50 49.953125 52 44.1875 
z
" id="DejaVuSans-109"/>
      <path d="M 30.421875 75.984375 
L 30.421875 -13.1875 
L 9.71875 -13.1875 
L 9.71875 -6.203125 
L 21.390625 -6.203125 
L 21.390625 69 
L 9.71875 69 
L 9.71875 75.984375 
z
" id="DejaVuSans-93"/>
     </defs>
     <g transform="translate(251.465625 407.79625)scale(0.12 -0.12)">
      <use xlink:href="#DejaVuSans-100"/>
      <use x="63.476562" xlink:href="#DejaVuSans-105"/>
      <use x="91.259766" xlink:href="#DejaVuSans-115"/>
      <use x="143.359375" xlink:href="#DejaVuSans-116"/>
      <use x="182.568359" xlink:href="#DejaVuSans-97"/>
      <use x="243.847656" xlink:href="#DejaVuSans-110"/>
      <use x="307.226562" xlink:href="#DejaVuSans-99"/>
      <use x="362.207031" xlink:href="#DejaVuSans-101"/>
      <use x="423.730469" xlink:href="#DejaVuSans-32"/>
      <use x="455.517578" xlink:href="#DejaVuSans-97"/>
      <use x="516.796875" xlink:href="#DejaVuSans-108"/>
      <use x="544.580078" xlink:href="#DejaVuSans-111"/>
      <use x="605.761719" xlink:href="#DejaVuSans-110"/>
      <use x="669.140625" xlink:href="#DejaVuSans-103"/>
      <use x="732.617188" xlink:href="#DejaVuSans-32"/>
      <use x="764.404297" xlink:href="#DejaVuSans-115"/>
      <use x="816.503906" xlink:href="#DejaVuSans-116"/>
      <use x="855.712891" xlink:href="#DejaVuSans-114"/>
      <use x="896.826172" xlink:href="#DejaVuSans-97"/>
      <use x="958.105469" xlink:href="#DejaVuSans-105"/>
      <use x="985.888672" xlink:href="#DejaVuSans-103"/>
      <use x="1049.365234" xlink:href="#DejaVuSans-104"/>
      <use x="1112.744141" xlink:href="#DejaVuSans-116"/>
      <use x="1151.953125" xlink:href="#DejaVuSans-101"/>
      <use x="1213.476562" xlink:href="#DejaVuSans-110"/>
      <use x="1276.855469" xlink:href="#DejaVuSans-101"/>
      <use x="1338.378906" xlink:href="#DejaVuSans-100"/>
      <use x="1401.855469" xlink:href="#DejaVuSans-32"/>
      <use x="1433.642578" xlink:href="#DejaVuSans-112"/>
      <use x="1497.119141" xlink:href="#DejaVuSans-114"/>
      <use x="1538.201172" xlink:href="#DejaVuSans-111"/>
      <use x="1599.382812" xlink:href="#DejaVuSans-102"/>
      <use x="1634.587891" xlink:href="#DejaVuSans-105"/>
      <use x="1662.371094" xlink:href="#DejaVuSans-108"/>
      <use x="1690.154297" xlink:href="#DejaVuSans-101"/>
      <use x="1751.677734" xlink:href="#DejaVuSans-32"/>
      <use x="1783.464844" xlink:href="#DejaVuSans-91"/>
      <use x="1822.478516" xlink:href="#DejaVuSans-109"/>
      <use x="1919.890625" xlink:href="#DejaVuSans-93"/>
     </g>
    </g>
   </g>
   <g id="matplotlib.axis_2">
    <g id="ytick_1">
     <g id="line2d_7">
      <defs>
       <path d="M 0 0 
L -3.5 0 
" id="m2538b9e8b3" style="stroke:#000000;stroke-width:0.8;"/>
      </defs>
      <g>
       <use style="stroke:#000000;stroke-width:0.8;" x="90" xlink:href="#m2538b9e8b3" y="378"/>
      </g>
     </g>
     <g id="text_8">
      <!-- 1.0 -->
      <defs>
       <path d="M 10.6875 12.40625 
L 21 12.40625 
L 21 0 
L 10.6875 0 
z
" id="DejaVuSans-46"/>
      </defs>
      <g transform="translate(67.096875 381.799219)scale(0.1 -0.1)">
       <use xlink:href="#DejaVuSans-49"/>
       <use x="63.623047" xlink:href="#DejaVuSans-46"/>
       <use x="95.410156" xlink:href="#DejaVuSans-48"/>
      </g>
     </g>
    </g>
    <g id="ytick_2">
     <g id="line2d_8">
      <g>
       <use style="stroke:#000000;stroke-width:0.8;" x="90" xlink:href="#m2538b9e8b3" y="323.64"/>
      </g>
     </g>
     <g id="text_9">
      <!-- 1.2 -->
      <g transform="translate(67.096875 327.439219)scale(0.1 -0.1)">
       <use xlink:href="#DejaVuSans-49"/>
       <use x="63.623047" xlink:href="#DejaVuSans-46"/>
       <use x="95.410156" xlink:href="#DejaVuSans-50"/>
      </g>
     </g>
    </g>
    <g id="ytick_3">
     <g id="line2d_9">
      <g>
       <use style="stroke:#000000;stroke-width:0.8;" x="90" xlink:href="#m2538b9e8b3" y="269.28"/>
      </g>
     </g>
     <g id="text_10">
      <!-- 1.4 -->
      <g transform="translate(67.096875 273.079219)scale(0.1 -0.1)">
       <use xlink:href="#DejaVuSans-49"/>
       <use x="63.623047" xlink:href="#DejaVuSans-46"/>
       <use x="95.410156" xlink:href="#DejaVuSans-52"/>
      </g>
     </g>
    </g>
    <g id="ytick_4">
     <g id="line2d_10">
      <g>
       <use style="stroke:#000000;stroke-width:0.8;" x="90" xlink:href="#m2538b9e8b3" y="214.92"/>
      </g>
     </g>
     <g id="text_11">
      <!-- 1.6 -->
      <g transform="translate(67.096875 218.719219)scale(0.1 -0.1)">
       <use xlink:href="#DejaVuSans-49"/>
       <use x="63.623047" xlink:href="#DejaVuSans-46"/>
       <use x="95.410156" xlink:href="#DejaVuSans-54"/>
      </g>
     </g>
    </g>
    <g id="ytick_5">
     <g id="line2d_11">
      <g>
       <use style="stroke:#000000;stroke-width:0.8;" x="90" xlink:href="#m2538b9e8b3" y="160.56"/>
      </g>
     </g>
     <g id="text_12">
      <!-- 1.8 -->
      <g transform="translate(67.096875 164.359219)scale(0.1 -0.1)">
       <use xlink:href="#DejaVuSans-49"/>
       <use x="63.623047" xlink:href="#DejaVuSans-46"/>
       <use x="95.410156" xlink:href="#DejaVuSans-56"/>
      </g>
     </g>
    </g>
    <g id="ytick_6">
     <g id="line2d_12">
      <g>
       <use style="stroke:#000000;stroke-width:0.8;" x="90" xlink:href="#m2538b9e8b3" y="106.2"/>
      </g>
     </g>
     <g id="text_13">
      <!-- 2.0 -->
      <g transform="translate(67.096875 109.999219)scale(0.1 -0.1)">
       <use xlink:href="#DejaVuSans-50"/>
       <use x="63.623047" xlink:href="#DejaVuSans-46"/>
       <use x="95.410156" xlink:href="#DejaVuSans-48"/>
      </g>
     </g>
    </g>
    <g id="ytick_7">
     <g id="line2d_13">
      <g>
       <use style="stroke:#000000;stroke-width:0.8;" x="90" xlink:href="#m2538b9e8b3" y="51.84"/>
      </g>
     </g>
     <g id="text_14">
      <!-- 2.2 -->
      <g transform="translate(67.096875 55.639219)scale(0.1 -0.1)">
       <use xlink:href="#DejaVuSans-50"/>
       <use x="63.623047" xlink:href="#DejaVuSans-46"/>
       <use x="95.410156" xlink:href="#DejaVuSans-50"/>
      </g>
     </g>
    </g>
    <g id="text_15">
     <!-- sinuosity -->
     <defs>
      <path d="M 8.5 21.578125 
L 8.5 54.6875 
L 17.484375 54.6875 
L 17.484375 21.921875 
Q 17.484375 14.15625 20.5 10.265625 
Q 23.53125 6.390625 29.59375 6.390625 
Q 36.859375 6.390625 41.078125 11.03125 
Q 45.3125 15.671875 45.3125 23.6875 
L 45.3125 54.6875 
L 54.296875 54.6875 
L 54.296875 0 
L 45.3125 0 
L 45.3125 8.40625 
Q 42.046875 3.421875 37.71875 1 
Q 33.40625 -1.421875 27.6875 -1.421875 
Q 18.265625 -1.421875 13.375 4.4375 
Q 8.5 10.296875 8.5 21.578125 
z
M 31.109375 56 
z
" id="DejaVuSans-117"/>
      <path d="M 32.171875 -5.078125 
Q 28.375 -14.84375 24.75 -17.8125 
Q 21.140625 -20.796875 15.09375 -20.796875 
L 7.90625 -20.796875 
L 7.90625 -13.28125 
L 13.1875 -13.28125 
Q 16.890625 -13.28125 18.9375 -11.515625 
Q 21 -9.765625 23.484375 -3.21875 
L 25.09375 0.875 
L 2.984375 54.6875 
L 12.5 54.6875 
L 29.59375 11.921875 
L 46.6875 54.6875 
L 56.203125 54.6875 
z
" id="DejaVuSans-121"/>
     </defs>
     <g transform="translate(60.60125 241.684687)rotate(-90)scale(0.12 -0.12)">
      <use xlink:href="#DejaVuSans-115"/>
      <use x="52.099609" xlink:href="#DejaVuSans-105"/>
      <use x="79.882812" xlink:href="#DejaVuSans-110"/>
      <use x="143.261719" xlink:href="#DejaVuSans-117"/>
      <use x="206.640625" xlink:href="#DejaVuSans-111"/>
      <use x="267.822266" xlink:href="#DejaVuSans-115"/>
      <use x="319.921875" xlink:href="#DejaVuSans-105"/>
      <use x="347.705078" xlink:href="#DejaVuSans-116"/>
      <use x="386.914062" xlink:href="#DejaVuSans-121"/>
     </g>
    </g>
   </g>
   <g id="line2d_14">
    <path clip-path="url(#pdd8137c118)" d="M 95.58 306.635414 
L 103.392 306.080865 
L 120.69 304.975223 
L 126.27 304.324867 
L 131.292 303.513499 
L 137.43 302.268555 
L 145.8 300.553227 
L 149.148 300.078459 
L 151.938 299.866169 
L 154.728 299.868055 
L 157.518 300.12068 
L 159.75 300.521154 
L 161.982 301.106563 
L 164.214 301.879227 
L 167.004 303.103584 
L 169.794 304.59985 
L 172.584 306.342488 
L 175.932 308.712347 
L 179.838 311.778541 
L 184.302 315.54669 
L 184.302 315.54669 
" style="fill:none;stroke:#1f77b4;stroke-linecap:square;stroke-width:1.5;"/>
   </g>
   <g id="line2d_15">
    <path clip-path="url(#pdd8137c118)" d="M 95.58 352.838654 
L 100.044 348.738983 
L 105.066 343.793704 
L 115.668 333.20336 
L 119.016 330.247103 
L 121.806 328.09935 
L 124.038 326.645536 
L 126.27 325.466522 
L 128.502 324.592261 
L 130.176 324.149665 
L 131.85 323.895602 
L 133.524 323.831244 
L 135.198 323.953668 
L 136.872 324.255713 
L 139.104 324.917559 
L 141.336 325.839811 
L 144.126 327.282153 
L 148.032 329.627249 
L 153.054 332.661145 
L 155.844 334.094661 
L 158.076 335.009895 
L 160.308 335.667282 
L 161.982 335.969355 
L 163.656 336.096263 
L 165.33 336.042554 
L 167.004 335.807411 
L 168.678 335.394655 
L 170.91 334.583083 
L 173.142 333.502657 
L 175.932 331.84161 
L 179.28 329.536803 
L 187.092 324.024883 
L 189.882 322.413151 
L 192.114 321.378911 
L 194.346 320.614547 
L 196.578 320.147059 
L 198.252 320.000351 
L 199.926 320.030316 
L 201.6 320.234533 
L 203.832 320.767186 
L 206.064 321.576312 
L 208.296 322.631661 
L 211.086 324.242039 
L 214.434 326.499119 
L 218.898 329.836316 
L 227.826 336.585545 
L 231.732 339.23711 
L 231.732 339.23711 
" style="fill:none;stroke:#ff7f0e;stroke-linecap:square;stroke-width:1.5;"/>
   </g>
   <g id="line2d_16">
    <path clip-path="url(#pdd8137c118)" d="M 95.58 361.785606 
L 110.088 354.0758 
L 114.552 351.998985 
L 118.458 350.445011 
L 121.806 349.370137 
L 124.596 348.688242 
L 127.386 348.220101 
L 130.176 347.975047 
L 132.966 347.951692 
L 135.756 348.136144 
L 139.104 348.592042 
L 143.568 349.470516 
L 150.264 350.833561 
L 153.054 351.194575 
L 155.286 351.309556 
L 157.518 351.223267 
L 159.75 350.895531 
L 161.982 350.290885 
L 163.656 349.637996 
L 165.33 348.803736 
L 167.562 347.399144 
L 169.794 345.656651 
L 172.026 343.58328 
L 174.258 341.198831 
L 177.048 337.832072 
L 180.396 333.350546 
L 192.114 317.139952 
L 194.346 314.586774 
L 196.578 312.377408 
L 198.252 310.97787 
L 199.926 309.818018 
L 201.6 308.909515 
L 203.274 308.258732 
L 204.948 307.866654 
L 206.622 307.728957 
L 208.296 307.83625 
L 209.97 308.174481 
L 211.644 308.72547 
L 213.876 309.753261 
L 216.108 311.06203 
L 218.898 312.995923 
L 222.804 316.03218 
L 229.5 321.299246 
L 232.848 323.649546 
L 235.638 325.373761 
L 238.428 326.860753 
L 241.218 328.107216 
L 244.008 329.124084 
L 246.798 329.932227 
L 250.146 330.664397 
L 254.052 331.254926 
L 258.516 331.676375 
L 261.864 331.872076 
L 261.864 331.872076 
" style="fill:none;stroke:#2ca02c;stroke-linecap:square;stroke-width:1.5;"/>
   </g>
   <g id="line2d_17">
    <path clip-path="url(#pdd8137c118)" d="M 95.58 335.420065 
L 114.552 328.131502 
L 120.69 325.488529 
L 135.198 319.047494 
L 137.988 318.127372 
L 140.778 317.466412 
L 143.01 317.169903 
L 145.242 317.111093 
L 147.474 317.309626 
L 149.706 317.773604 
L 151.938 318.497485 
L 154.17 319.46087 
L 156.96 320.946606 
L 160.308 323.007191 
L 166.446 326.844098 
L 169.236 328.274584 
L 171.468 329.149176 
L 173.142 329.611661 
L 174.816 329.888807 
L 176.49 329.968735 
L 178.164 329.845242 
L 179.838 329.517988 
L 181.512 328.992477 
L 183.186 328.279831 
L 185.418 327.067446 
L 187.65 325.603123 
L 190.44 323.514638 
L 200.484 315.714693 
L 202.716 314.337419 
L 204.948 313.199278 
L 207.18 312.326271 
L 209.412 311.72889 
L 211.644 311.402041 
L 213.876 311.325763 
L 216.108 311.466683 
L 218.898 311.879298 
L 223.362 312.829861 
L 227.826 313.709488 
L 230.616 314.011359 
L 232.848 314.033383 
L 235.08 313.816542 
L 237.312 313.331706 
L 239.544 312.561494 
L 241.776 311.500812 
L 244.008 310.156876 
L 246.24 308.54875 
L 249.03 306.213727 
L 252.378 303.042671 
L 257.958 297.318761 
L 262.422 292.863246 
L 265.212 290.351285 
L 268.002 288.158651 
L 270.234 286.680337 
L 272.466 285.47202 
L 274.698 284.544134 
L 276.93 283.895013 
L 279.162 283.511288 
L 281.394 283.368961 
L 283.626 283.435109 
L 286.416 283.750158 
L 290.322 284.470259 
L 298.692 286.137843 
L 302.04 286.566181 
L 305.388 286.782584 
L 308.736 286.792107 
L 313.2 286.551465 
L 326.034 285.613118 
L 329.382 285.646574 
L 329.382 285.646574 
" style="fill:none;stroke:#d62728;stroke-linecap:square;stroke-width:1.5;"/>
   </g>
   <g id="line2d_18">
    <path clip-path="url(#pdd8137c118)" d="M 95.58 333.553253 
L 110.088 329.755486 
L 113.994 328.412485 
L 117.342 327.006112 
L 120.132 325.599412 
L 122.922 323.936693 
L 125.712 321.983097 
L 128.502 319.712685 
L 131.292 317.112739 
L 134.082 314.188004 
L 136.872 310.964323 
L 140.22 306.772392 
L 146.358 298.619509 
L 150.822 292.863482 
L 153.612 289.594354 
L 155.844 287.256085 
L 158.076 285.218675 
L 160.308 283.520773 
L 161.982 282.485693 
L 163.656 281.660726 
L 165.33 281.045532 
L 167.004 280.634572 
L 168.678 280.417251 
L 170.352 280.378256 
L 172.584 280.569384 
L 174.816 280.986683 
L 177.606 281.729216 
L 186.534 284.318342 
L 189.324 284.799774 
L 191.556 284.989445 
L 193.788 284.993947 
L 196.578 284.747467 
L 199.368 284.256757 
L 202.716 283.433646 
L 213.318 280.633087 
L 216.666 280.094188 
L 220.014 279.804779 
L 223.92 279.730363 
L 233.406 279.723721 
L 236.196 279.426877 
L 238.428 278.996237 
L 240.66 278.361688 
L 242.892 277.502576 
L 245.124 276.407998 
L 247.356 275.077389 
L 249.588 273.520596 
L 252.378 271.287641 
L 255.726 268.267125 
L 260.19 263.88943 
L 266.328 257.884026 
L 269.676 254.951397 
L 272.466 252.836995 
L 274.698 251.4134 
L 276.93 250.259018 
L 279.162 249.394041 
L 281.394 248.830467 
L 283.068 248.608315 
L 284.742 248.557161 
L 286.974 248.749487 
L 289.206 249.228535 
L 291.438 249.97875 
L 293.67 250.982429 
L 295.902 252.221424 
L 298.134 253.6787 
L 300.924 255.785272 
L 303.714 258.189161 
L 306.504 260.878465 
L 309.294 263.849899 
L 312.084 267.106455 
L 315.432 271.398474 
L 318.78 276.114211 
L 322.128 281.243716 
L 326.034 287.703743 
L 330.498 295.580083 
L 344.448 320.683285 
L 347.796 326.10395 
L 351.144 331.076907 
L 353.934 334.838536 
L 356.724 338.236454 
L 359.514 341.271422 
L 362.304 343.957077 
L 365.094 346.317083 
L 367.884 348.381803 
L 370.674 350.184831 
L 374.022 352.04998 
L 377.37 353.637833 
L 380.718 354.987699 
L 384.066 356.122858 
L 387.414 357.048954 
L 390.762 357.754592 
L 394.11 358.213988 
L 396.9 358.383059 
L 399.69 358.333014 
L 402.48 358.040935 
L 405.27 357.486884 
L 408.06 356.656284 
L 410.85 355.541903 
L 413.64 354.145222 
L 416.43 352.477082 
L 419.22 350.557531 
L 422.568 347.962647 
L 426.474 344.61252 
L 431.496 339.969841 
L 443.772 328.470394 
L 447.678 325.124555 
L 447.678 325.124555 
" style="fill:none;stroke:#9467bd;stroke-linecap:square;stroke-width:1.5;"/>
   </g>
   <g id="line2d_19">
    <path clip-path="url(#pdd8137c118)" d="M 95.58 333.877816 
L 112.878 333.899607 
L 116.226 333.609828 
L 119.574 333.087817 
L 122.364 332.433322 
L 125.154 331.550706 
L 127.944 330.424703 
L 130.734 329.05545 
L 134.082 327.119438 
L 137.988 324.552697 
L 146.916 318.494237 
L 149.706 316.896514 
L 152.496 315.582234 
L 154.728 314.771912 
L 156.96 314.191952 
L 159.192 313.842684 
L 161.424 313.710248 
L 164.214 313.806537 
L 167.562 314.197702 
L 175.374 315.290545 
L 178.164 315.399686 
L 180.396 315.283071 
L 182.628 314.955579 
L 184.86 314.404182 
L 187.092 313.629863 
L 189.324 312.647129 
L 192.114 311.167257 
L 195.462 309.122259 
L 205.506 302.770154 
L 208.296 301.332566 
L 211.086 300.149304 
L 213.876 299.241806 
L 216.666 298.60533 
L 219.456 298.210342 
L 222.804 297.982005 
L 234.522 297.482086 
L 237.312 296.9969 
L 239.544 296.415806 
L 241.776 295.643637 
L 244.008 294.671987 
L 246.798 293.179707 
L 249.588 291.401935 
L 252.936 288.957285 
L 257.4 285.361948 
L 264.096 279.940872 
L 267.444 277.529565 
L 270.234 275.788367 
L 273.024 274.339446 
L 275.256 273.407941 
L 277.488 272.68321 
L 279.72 272.16183 
L 281.952 271.834809 
L 284.742 271.679879 
L 287.532 271.78124 
L 290.322 272.114323 
L 293.112 272.663443 
L 295.902 273.426185 
L 298.692 274.415594 
L 301.482 275.659791 
L 303.714 276.865352 
L 305.946 278.283688 
L 308.178 279.939571 
L 310.41 281.856019 
L 312.642 284.051821 
L 314.874 286.539254 
L 317.106 289.322163 
L 319.896 293.206218 
L 322.686 297.507012 
L 326.034 303.131719 
L 330.498 311.171479 
L 339.426 327.456494 
L 342.774 333.072878 
L 345.564 337.378223 
L 348.354 341.282863 
L 351.144 344.7531 
L 353.376 347.206882 
L 355.608 349.37518 
L 357.84 351.265582 
L 360.072 352.890487 
L 362.304 354.265741 
L 364.536 355.409318 
L 366.768 356.340136 
L 369.558 357.233133 
L 372.348 357.857979 
L 375.138 358.246037 
L 377.928 358.424462 
L 381.276 358.393936 
L 384.624 358.127384 
L 387.972 357.652459 
L 391.878 356.868046 
L 396.342 355.71504 
L 401.364 354.16426 
L 408.618 351.642734 
L 418.662 348.146245 
L 423.684 346.620417 
L 428.148 345.475392 
L 432.612 344.565927 
L 437.076 343.909671 
L 441.54 343.508506 
L 442.656 343.447007 
L 442.656 343.447007 
" style="fill:none;stroke:#8c564b;stroke-linecap:square;stroke-width:1.5;"/>
   </g>
   <g id="line2d_20">
    <path clip-path="url(#pdd8137c118)" d="M 95.58 321.632917 
L 103.392 320.322693 
L 107.856 319.353711 
L 111.204 318.428558 
L 114.552 317.267125 
L 117.342 316.078242 
L 120.132 314.661732 
L 122.922 313.005632 
L 125.712 311.115987 
L 129.06 308.582174 
L 134.64 303.994975 
L 139.104 300.439646 
L 141.894 298.501775 
L 144.126 297.204888 
L 146.358 296.18984 
L 148.032 295.638271 
L 149.706 295.27981 
L 151.38 295.120694 
L 153.054 295.161371 
L 154.728 295.396316 
L 156.402 295.814106 
L 158.634 296.625466 
L 160.866 297.677282 
L 164.214 299.5588 
L 170.91 303.47991 
L 173.7 304.811088 
L 175.932 305.636966 
L 178.164 306.213107 
L 180.396 306.522543 
L 182.628 306.564634 
L 184.86 306.353821 
L 187.092 305.917435 
L 189.882 305.112261 
L 193.23 303.88067 
L 204.39 299.523159 
L 207.738 298.542615 
L 211.086 297.780803 
L 214.992 297.130868 
L 220.572 296.46797 
L 227.268 295.652614 
L 231.174 294.977638 
L 235.08 294.081182 
L 238.986 292.949795 
L 243.45 291.400134 
L 249.03 289.193902 
L 266.886 281.929695 
L 275.256 278.863381 
L 280.278 277.216288 
L 284.184 276.166086 
L 286.974 275.627965 
L 289.206 275.376994 
L 291.438 275.328102 
L 293.67 275.52203 
L 295.902 275.998736 
L 297.576 276.5642 
L 299.25 277.323237 
L 300.924 278.287262 
L 302.598 279.464959 
L 304.272 280.861862 
L 306.504 283.068405 
L 308.736 285.662414 
L 310.968 288.626325 
L 313.2 291.930724 
L 315.99 296.477665 
L 319.338 302.411782 
L 324.36 311.866172 
L 330.498 323.388205 
L 333.846 329.270572 
L 337.194 334.688176 
L 339.984 338.784262 
L 342.774 342.471814 
L 345.564 345.745854 
L 348.354 348.61799 
L 351.144 351.11205 
L 353.934 353.259458 
L 356.724 355.094873 
L 359.514 356.652453 
L 362.304 357.963029 
L 365.094 359.052268 
L 368.442 360.094455 
L 371.79 360.868658 
L 375.138 361.387141 
L 378.486 361.654748 
L 381.834 361.672456 
L 385.182 361.440847 
L 388.53 360.963084 
L 391.878 360.247171 
L 395.226 359.307384 
L 399.132 357.956553 
L 403.038 356.374681 
L 408.06 354.089642 
L 416.988 349.707855 
L 424.242 346.245829 
L 429.822 343.837556 
L 434.844 341.933469 
L 434.844 341.933469 
" style="fill:none;stroke:#e377c2;stroke-linecap:square;stroke-width:1.5;"/>
   </g>
   <g id="patch_3">
    <path d="M 90 378 
L 90 51.84 
" style="fill:none;stroke:#000000;stroke-linecap:square;stroke-linejoin:miter;stroke-width:0.8;"/>
   </g>
   <g id="patch_4">
    <path d="M 648 378 
L 648 51.84 
" style="fill:none;stroke:#000000;stroke-linecap:square;stroke-linejoin:miter;stroke-width:0.8;"/>
   </g>
   <g id="patch_5">
    <path d="M 90 378 
L 648 378 
" style="fill:none;stroke:#000000;stroke-linecap:square;stroke-linejoin:miter;stroke-width:0.8;"/>
   </g>
   <g id="patch_6">
    <path d="M 90 51.84 
L 648 51.84 
" style="fill:none;stroke:#000000;stroke-linecap:square;stroke-linejoin:miter;stroke-width:0.8;"/>
   </g>
   <g id="text_16">
    <!-- Windowed sinuosity along channel CM3, window length = 50m -->
    <defs>
     <path d="M 3.328125 72.90625 
L 13.28125 72.90625 
L 28.609375 11.28125 
L 43.890625 72.90625 
L 54.984375 72.90625 
L 70.3125 11.28125 
L 85.59375 72.90625 
L 95.609375 72.90625 
L 77.296875 0 
L 64.890625 0 
L 49.515625 63.28125 
L 33.984375 0 
L 21.578125 0 
z
" id="DejaVuSans-87"/>
     <path d="M 4.203125 54.6875 
L 13.1875 54.6875 
L 24.421875 12.015625 
L 35.59375 54.6875 
L 46.1875 54.6875 
L 57.421875 12.015625 
L 68.609375 54.6875 
L 77.59375 54.6875 
L 63.28125 0 
L 52.6875 0 
L 40.921875 44.828125 
L 29.109375 0 
L 18.5 0 
z
" id="DejaVuSans-119"/>
     <path d="M 64.40625 67.28125 
L 64.40625 56.890625 
Q 59.421875 61.53125 53.78125 63.8125 
Q 48.140625 66.109375 41.796875 66.109375 
Q 29.296875 66.109375 22.65625 58.46875 
Q 16.015625 50.828125 16.015625 36.375 
Q 16.015625 21.96875 22.65625 14.328125 
Q 29.296875 6.6875 41.796875 6.6875 
Q 48.140625 6.6875 53.78125 8.984375 
Q 59.421875 11.28125 64.40625 15.921875 
L 64.40625 5.609375 
Q 59.234375 2.09375 53.4375 0.328125 
Q 47.65625 -1.421875 41.21875 -1.421875 
Q 24.65625 -1.421875 15.125 8.703125 
Q 5.609375 18.84375 5.609375 36.375 
Q 5.609375 53.953125 15.125 64.078125 
Q 24.65625 74.21875 41.21875 74.21875 
Q 47.75 74.21875 53.53125 72.484375 
Q 59.328125 70.75 64.40625 67.28125 
z
" id="DejaVuSans-67"/>
     <path d="M 9.8125 72.90625 
L 24.515625 72.90625 
L 43.109375 23.296875 
L 61.8125 72.90625 
L 76.515625 72.90625 
L 76.515625 0 
L 66.890625 0 
L 66.890625 64.015625 
L 48.09375 14.015625 
L 38.1875 14.015625 
L 19.390625 64.015625 
L 19.390625 0 
L 9.8125 0 
z
" id="DejaVuSans-77"/>
     <path d="M 40.578125 39.3125 
Q 47.65625 37.796875 51.625 33 
Q 55.609375 28.21875 55.609375 21.1875 
Q 55.609375 10.40625 48.1875 4.484375 
Q 40.765625 -1.421875 27.09375 -1.421875 
Q 22.515625 -1.421875 17.65625 -0.515625 
Q 12.796875 0.390625 7.625 2.203125 
L 7.625 11.71875 
Q 11.71875 9.328125 16.59375 8.109375 
Q 21.484375 6.890625 26.8125 6.890625 
Q 36.078125 6.890625 40.9375 10.546875 
Q 45.796875 14.203125 45.796875 21.1875 
Q 45.796875 27.640625 41.28125 31.265625 
Q 36.765625 34.90625 28.71875 34.90625 
L 20.21875 34.90625 
L 20.21875 43.015625 
L 29.109375 43.015625 
Q 36.375 43.015625 40.234375 45.921875 
Q 44.09375 48.828125 44.09375 54.296875 
Q 44.09375 59.90625 40.109375 62.90625 
Q 36.140625 65.921875 28.71875 65.921875 
Q 24.65625 65.921875 20.015625 65.03125 
Q 15.375 64.15625 9.8125 62.3125 
L 9.8125 71.09375 
Q 15.4375 72.65625 20.34375 73.4375 
Q 25.25 74.21875 29.59375 74.21875 
Q 40.828125 74.21875 47.359375 69.109375 
Q 53.90625 64.015625 53.90625 55.328125 
Q 53.90625 49.265625 50.4375 45.09375 
Q 46.96875 40.921875 40.578125 39.3125 
z
" id="DejaVuSans-51"/>
     <path d="M 11.71875 12.40625 
L 22.015625 12.40625 
L 22.015625 4 
L 14.015625 -11.625 
L 7.71875 -11.625 
L 11.71875 4 
z
" id="DejaVuSans-44"/>
     <path d="M 10.59375 45.40625 
L 73.1875 45.40625 
L 73.1875 37.203125 
L 10.59375 37.203125 
z
M 10.59375 25.484375 
L 73.1875 25.484375 
L 73.1875 17.1875 
L 10.59375 17.1875 
z
" id="DejaVuSans-61"/>
     <path d="M 10.796875 72.90625 
L 49.515625 72.90625 
L 49.515625 64.59375 
L 19.828125 64.59375 
L 19.828125 46.734375 
Q 21.96875 47.46875 24.109375 47.828125 
Q 26.265625 48.1875 28.421875 48.1875 
Q 40.625 48.1875 47.75 41.5 
Q 54.890625 34.8125 54.890625 23.390625 
Q 54.890625 11.625 47.5625 5.09375 
Q 40.234375 -1.421875 26.90625 -1.421875 
Q 22.3125 -1.421875 17.546875 -0.640625 
Q 12.796875 0.140625 7.71875 1.703125 
L 7.71875 11.625 
Q 12.109375 9.234375 16.796875 8.0625 
Q 21.484375 6.890625 26.703125 6.890625 
Q 35.15625 6.890625 40.078125 11.328125 
Q 45.015625 15.765625 45.015625 23.390625 
Q 45.015625 31 40.078125 35.4375 
Q 35.15625 39.890625 26.703125 39.890625 
Q 22.75 39.890625 18.8125 39.015625 
Q 14.890625 38.140625 10.796875 36.28125 
z
" id="DejaVuSans-53"/>
    </defs>
    <g transform="translate(148.309687 45.84)scale(0.14 -0.14)">
     <use xlink:href="#DejaVuSans-87"/>
     <use x="98.845703" xlink:href="#DejaVuSans-105"/>
     <use x="126.628906" xlink:href="#DejaVuSans-110"/>
     <use x="190.007812" xlink:href="#DejaVuSans-100"/>
     <use x="253.484375" xlink:href="#DejaVuSans-111"/>
     <use x="314.666016" xlink:href="#DejaVuSans-119"/>
     <use x="396.453125" xlink:href="#DejaVuSans-101"/>
     <use x="457.976562" xlink:href="#DejaVuSans-100"/>
     <use x="521.453125" xlink:href="#DejaVuSans-32"/>
     <use x="553.240234" xlink:href="#DejaVuSans-115"/>
     <use x="605.339844" xlink:href="#DejaVuSans-105"/>
     <use x="633.123047" xlink:href="#DejaVuSans-110"/>
     <use x="696.501953" xlink:href="#DejaVuSans-117"/>
     <use x="759.880859" xlink:href="#DejaVuSans-111"/>
     <use x="821.0625" xlink:href="#DejaVuSans-115"/>
     <use x="873.162109" xlink:href="#DejaVuSans-105"/>
     <use x="900.945312" xlink:href="#DejaVuSans-116"/>
     <use x="940.154297" xlink:href="#DejaVuSans-121"/>
     <use x="999.333984" xlink:href="#DejaVuSans-32"/>
     <use x="1031.121094" xlink:href="#DejaVuSans-97"/>
     <use x="1092.400391" xlink:href="#DejaVuSans-108"/>
     <use x="1120.183594" xlink:href="#DejaVuSans-111"/>
     <use x="1181.365234" xlink:href="#DejaVuSans-110"/>
     <use x="1244.744141" xlink:href="#DejaVuSans-103"/>
     <use x="1308.220703" xlink:href="#DejaVuSans-32"/>
     <use x="1340.007812" xlink:href="#DejaVuSans-99"/>
     <use x="1394.988281" xlink:href="#DejaVuSans-104"/>
     <use x="1458.367188" xlink:href="#DejaVuSans-97"/>
     <use x="1519.646484" xlink:href="#DejaVuSans-110"/>
     <use x="1583.025391" xlink:href="#DejaVuSans-110"/>
     <use x="1646.404297" xlink:href="#DejaVuSans-101"/>
     <use x="1707.927734" xlink:href="#DejaVuSans-108"/>
     <use x="1735.710938" xlink:href="#DejaVuSans-32"/>
     <use x="1767.498047" xlink:href="#DejaVuSans-67"/>
     <use x="1837.322266" xlink:href="#DejaVuSans-77"/>
     <use x="1923.601562" xlink:href="#DejaVuSans-51"/>
     <use x="1987.224609" xlink:href="#DejaVuSans-44"/>
     <use x="2019.011719" xlink:href="#DejaVuSans-32"/>
     <use x="2050.798828" xlink:href="#DejaVuSans-119"/>
     <use x="2132.585938" xlink:href="#DejaVuSans-105"/>
     <use x="2160.369141" xlink:href="#DejaVuSans-110"/>
     <use x="2223.748047" xlink:href="#DejaVuSans-100"/>
     <use x="2287.224609" xlink:href="#DejaVuSans-111"/>
     <use x="2348.40625" xlink:href="#DejaVuSans-119"/>
     <use x="2430.193359" xlink:href="#DejaVuSans-32"/>
     <use x="2461.980469" xlink:href="#DejaVuSans-108"/>
     <use x="2489.763672" xlink:href="#DejaVuSans-101"/>
     <use x="2551.287109" xlink:href="#DejaVuSans-110"/>
     <use x="2614.666016" xlink:href="#DejaVuSans-103"/>
     <use x="2678.142578" xlink:href="#DejaVuSans-116"/>
     <use x="2717.351562" xlink:href="#DejaVuSans-104"/>
     <use x="2780.730469" xlink:href="#DejaVuSans-32"/>
     <use x="2812.517578" xlink:href="#DejaVuSans-61"/>
     <use x="2896.306641" xlink:href="#DejaVuSans-32"/>
     <use x="2928.09375" xlink:href="#DejaVuSans-53"/>
     <use x="2991.716797" xlink:href="#DejaVuSans-48"/>
     <use x="3055.339844" xlink:href="#DejaVuSans-109"/>
    </g>
   </g>
   <g id="legend_1">
    <g id="patch_7">
     <path d="M 577.46 165.996 
L 634.91 165.996 
Q 636.91 165.996 636.91 163.996 
L 636.91 62.249125 
Q 636.91 60.249125 634.91 60.249125 
L 577.46 60.249125 
Q 575.46 60.249125 575.46 62.249125 
L 575.46 163.996 
Q 575.46 165.996 577.46 165.996 
z
" style="fill:#ffffff;opacity:0.8;stroke:#cccccc;stroke-linejoin:miter;"/>
    </g>
    <g id="line2d_21">
     <path d="M 579.46 68.347562 
L 599.46 68.347562 
" style="fill:none;stroke:#1f77b4;stroke-linecap:square;stroke-width:1.5;"/>
    </g>
    <g id="line2d_22"/>
    <g id="text_17">
     <!-- 2000 -->
     <g transform="translate(607.46 71.847562)scale(0.1 -0.1)">
      <use xlink:href="#DejaVuSans-50"/>
      <use x="63.623047" xlink:href="#DejaVuSans-48"/>
      <use x="127.246094" xlink:href="#DejaVuSans-48"/>
      <use x="190.869141" xlink:href="#DejaVuSans-48"/>
     </g>
    </g>
    <g id="line2d_23">
     <path d="M 579.46 83.025688 
L 599.46 83.025688 
" style="fill:none;stroke:#ff7f0e;stroke-linecap:square;stroke-width:1.5;"/>
    </g>
    <g id="line2d_24"/>
    <g id="text_18">
     <!-- 2004 -->
     <g transform="translate(607.46 86.525688)scale(0.1 -0.1)">
      <use xlink:href="#DejaVuSans-50"/>
      <use x="63.623047" xlink:href="#DejaVuSans-48"/>
      <use x="127.246094" xlink:href="#DejaVuSans-48"/>
      <use x="190.869141" xlink:href="#DejaVuSans-52"/>
     </g>
    </g>
    <g id="line2d_25">
     <path d="M 579.46 97.703812 
L 599.46 97.703812 
" style="fill:none;stroke:#2ca02c;stroke-linecap:square;stroke-width:1.5;"/>
    </g>
    <g id="line2d_26"/>
    <g id="text_19">
     <!-- 2006 -->
     <g transform="translate(607.46 101.203812)scale(0.1 -0.1)">
      <use xlink:href="#DejaVuSans-50"/>
      <use x="63.623047" xlink:href="#DejaVuSans-48"/>
      <use x="127.246094" xlink:href="#DejaVuSans-48"/>
      <use x="190.869141" xlink:href="#DejaVuSans-54"/>
     </g>
    </g>
    <g id="line2d_27">
     <path d="M 579.46 112.381937 
L 599.46 112.381937 
" style="fill:none;stroke:#d62728;stroke-linecap:square;stroke-width:1.5;"/>
    </g>
    <g id="line2d_28"/>
    <g id="text_20">
     <!-- 2009 -->
     <defs>
      <path d="M 10.984375 1.515625 
L 10.984375 10.5 
Q 14.703125 8.734375 18.5 7.8125 
Q 22.3125 6.890625 25.984375 6.890625 
Q 35.75 6.890625 40.890625 13.453125 
Q 46.046875 20.015625 46.78125 33.40625 
Q 43.953125 29.203125 39.59375 26.953125 
Q 35.25 24.703125 29.984375 24.703125 
Q 19.046875 24.703125 12.671875 31.3125 
Q 6.296875 37.9375 6.296875 49.421875 
Q 6.296875 60.640625 12.9375 67.421875 
Q 19.578125 74.21875 30.609375 74.21875 
Q 43.265625 74.21875 49.921875 64.515625 
Q 56.59375 54.828125 56.59375 36.375 
Q 56.59375 19.140625 48.40625 8.859375 
Q 40.234375 -1.421875 26.421875 -1.421875 
Q 22.703125 -1.421875 18.890625 -0.6875 
Q 15.09375 0.046875 10.984375 1.515625 
z
M 30.609375 32.421875 
Q 37.25 32.421875 41.125 36.953125 
Q 45.015625 41.5 45.015625 49.421875 
Q 45.015625 57.28125 41.125 61.84375 
Q 37.25 66.40625 30.609375 66.40625 
Q 23.96875 66.40625 20.09375 61.84375 
Q 16.21875 57.28125 16.21875 49.421875 
Q 16.21875 41.5 20.09375 36.953125 
Q 23.96875 32.421875 30.609375 32.421875 
z
" id="DejaVuSans-57"/>
     </defs>
     <g transform="translate(607.46 115.881937)scale(0.1 -0.1)">
      <use xlink:href="#DejaVuSans-50"/>
      <use x="63.623047" xlink:href="#DejaVuSans-48"/>
      <use x="127.246094" xlink:href="#DejaVuSans-48"/>
      <use x="190.869141" xlink:href="#DejaVuSans-57"/>
     </g>
    </g>
    <g id="line2d_29">
     <path d="M 579.46 127.060062 
L 599.46 127.060062 
" style="fill:none;stroke:#9467bd;stroke-linecap:square;stroke-width:1.5;"/>
    </g>
    <g id="line2d_30"/>
    <g id="text_21">
     <!-- 2012 -->
     <g transform="translate(607.46 130.560062)scale(0.1 -0.1)">
      <use xlink:href="#DejaVuSans-50"/>
      <use x="63.623047" xlink:href="#DejaVuSans-48"/>
      <use x="127.246094" xlink:href="#DejaVuSans-49"/>
      <use x="190.869141" xlink:href="#DejaVuSans-50"/>
     </g>
    </g>
    <g id="line2d_31">
     <path d="M 579.46 141.738187 
L 599.46 141.738187 
" style="fill:none;stroke:#8c564b;stroke-linecap:square;stroke-width:1.5;"/>
    </g>
    <g id="line2d_32"/>
    <g id="text_22">
     <!-- 2014 -->
     <g transform="translate(607.46 145.238187)scale(0.1 -0.1)">
      <use xlink:href="#DejaVuSans-50"/>
      <use x="63.623047" xlink:href="#DejaVuSans-48"/>
      <use x="127.246094" xlink:href="#DejaVuSans-49"/>
      <use x="190.869141" xlink:href="#DejaVuSans-52"/>
     </g>
    </g>
    <g id="line2d_33">
     <path d="M 579.46 156.416313 
L 599.46 156.416313 
" style="fill:none;stroke:#e377c2;stroke-linecap:square;stroke-width:1.5;"/>
    </g>
    <g id="line2d_34"/>
    <g id="text_23">
     <!-- 2017 -->
     <defs>
      <path d="M 8.203125 72.90625 
L 55.078125 72.90625 
L 55.078125 68.703125 
L 28.609375 0 
L 18.3125 0 
L 43.21875 64.59375 
L 8.203125 64.59375 
z
" id="DejaVuSans-55"/>
     </defs>
     <g transform="translate(607.46 159.916313)scale(0.1 -0.1)">
      <use xlink:href="#DejaVuSans-50"/>
      <use x="63.623047" xlink:href="#DejaVuSans-48"/>
      <use x="127.246094" xlink:href="#DejaVuSans-49"/>
      <use x="190.869141" xlink:href="#DejaVuSans-55"/>
     </g>
    </g>
   </g>
  </g>
  <g id="axes_2">
   <g id="matplotlib.axis_3">
    <g id="ytick_8">
     <g id="line2d_35">
      <defs>
       <path d="M 0 0 
L 3.5 0 
" id="m90fc3c2462" style="stroke:#000000;stroke-width:0.8;"/>
      </defs>
      <g>
       <use style="stroke:#000000;stroke-width:0.8;" x="648" xlink:href="#m90fc3c2462" y="378"/>
      </g>
     </g>
     <g id="text_24">
      <!-- 430 -->
      <defs>
       <path d="M 10.59375 35.5 
L 73.1875 35.5 
L 73.1875 27.203125 
L 10.59375 27.203125 
z
" id="DejaVuSans-8722"/>
      </defs>
      <g transform="translate(655 381.799219)scale(0.1 -0.1)">
       <use xlink:href="#DejaVuSans-8722"/>
       <use x="83.789062" xlink:href="#DejaVuSans-52"/>
       <use x="147.412109" xlink:href="#DejaVuSans-51"/>
       <use x="211.035156" xlink:href="#DejaVuSans-48"/>
      </g>
     </g>
    </g>
    <g id="ytick_9">
     <g id="line2d_36">
      <g>
       <use style="stroke:#000000;stroke-width:0.8;" x="648" xlink:href="#m90fc3c2462" y="312.768"/>
      </g>
     </g>
     <g id="text_25">
      <!-- 425 -->
      <g transform="translate(655 316.567219)scale(0.1 -0.1)">
       <use xlink:href="#DejaVuSans-8722"/>
       <use x="83.789062" xlink:href="#DejaVuSans-52"/>
       <use x="147.412109" xlink:href="#DejaVuSans-50"/>
       <use x="211.035156" xlink:href="#DejaVuSans-53"/>
      </g>
     </g>
    </g>
    <g id="ytick_10">
     <g id="line2d_37">
      <g>
       <use style="stroke:#000000;stroke-width:0.8;" x="648" xlink:href="#m90fc3c2462" y="247.536"/>
      </g>
     </g>
     <g id="text_26">
      <!-- 420 -->
      <g transform="translate(655 251.335219)scale(0.1 -0.1)">
       <use xlink:href="#DejaVuSans-8722"/>
       <use x="83.789062" xlink:href="#DejaVuSans-52"/>
       <use x="147.412109" xlink:href="#DejaVuSans-50"/>
       <use x="211.035156" xlink:href="#DejaVuSans-48"/>
      </g>
     </g>
    </g>
    <g id="ytick_11">
     <g id="line2d_38">
      <g>
       <use style="stroke:#000000;stroke-width:0.8;" x="648" xlink:href="#m90fc3c2462" y="182.304"/>
      </g>
     </g>
     <g id="text_27">
      <!-- 415 -->
      <g transform="translate(655 186.103219)scale(0.1 -0.1)">
       <use xlink:href="#DejaVuSans-8722"/>
       <use x="83.789062" xlink:href="#DejaVuSans-52"/>
       <use x="147.412109" xlink:href="#DejaVuSans-49"/>
       <use x="211.035156" xlink:href="#DejaVuSans-53"/>
      </g>
     </g>
    </g>
    <g id="ytick_12">
     <g id="line2d_39">
      <g>
       <use style="stroke:#000000;stroke-width:0.8;" x="648" xlink:href="#m90fc3c2462" y="117.072"/>
      </g>
     </g>
     <g id="text_28">
      <!-- 410 -->
      <g transform="translate(655 120.871219)scale(0.1 -0.1)">
       <use xlink:href="#DejaVuSans-8722"/>
       <use x="83.789062" xlink:href="#DejaVuSans-52"/>
       <use x="147.412109" xlink:href="#DejaVuSans-49"/>
       <use x="211.035156" xlink:href="#DejaVuSans-48"/>
      </g>
     </g>
    </g>
    <g id="ytick_13">
     <g id="line2d_40">
      <g>
       <use style="stroke:#000000;stroke-width:0.8;" x="648" xlink:href="#m90fc3c2462" y="51.84"/>
      </g>
     </g>
     <g id="text_29">
      <!-- 405 -->
      <g transform="translate(655 55.639219)scale(0.1 -0.1)">
       <use xlink:href="#DejaVuSans-8722"/>
       <use x="83.789062" xlink:href="#DejaVuSans-52"/>
       <use x="147.412109" xlink:href="#DejaVuSans-48"/>
       <use x="211.035156" xlink:href="#DejaVuSans-53"/>
      </g>
     </g>
    </g>
    <g id="text_30">
     <!-- meander belt axis profile elevation [m] -->
     <defs>
      <path d="M 48.6875 27.296875 
Q 48.6875 37.203125 44.609375 42.84375 
Q 40.53125 48.484375 33.40625 48.484375 
Q 26.265625 48.484375 22.1875 42.84375 
Q 18.109375 37.203125 18.109375 27.296875 
Q 18.109375 17.390625 22.1875 11.75 
Q 26.265625 6.109375 33.40625 6.109375 
Q 40.53125 6.109375 44.609375 11.75 
Q 48.6875 17.390625 48.6875 27.296875 
z
M 18.109375 46.390625 
Q 20.953125 51.265625 25.265625 53.625 
Q 29.59375 56 35.59375 56 
Q 45.5625 56 51.78125 48.09375 
Q 58.015625 40.1875 58.015625 27.296875 
Q 58.015625 14.40625 51.78125 6.484375 
Q 45.5625 -1.421875 35.59375 -1.421875 
Q 29.59375 -1.421875 25.265625 0.953125 
Q 20.953125 3.328125 18.109375 8.203125 
L 18.109375 0 
L 9.078125 0 
L 9.078125 75.984375 
L 18.109375 75.984375 
z
" id="DejaVuSans-98"/>
      <path d="M 54.890625 54.6875 
L 35.109375 28.078125 
L 55.90625 0 
L 45.3125 0 
L 29.390625 21.484375 
L 13.484375 0 
L 2.875 0 
L 24.125 28.609375 
L 4.6875 54.6875 
L 15.28125 54.6875 
L 29.78125 35.203125 
L 44.28125 54.6875 
z
" id="DejaVuSans-120"/>
      <path d="M 2.984375 54.6875 
L 12.5 54.6875 
L 29.59375 8.796875 
L 46.6875 54.6875 
L 56.203125 54.6875 
L 35.6875 0 
L 23.484375 0 
z
" id="DejaVuSans-118"/>
     </defs>
     <g transform="translate(695.585312 332.35875)rotate(-90)scale(0.12 -0.12)">
      <use xlink:href="#DejaVuSans-109"/>
      <use x="97.412109" xlink:href="#DejaVuSans-101"/>
      <use x="158.935547" xlink:href="#DejaVuSans-97"/>
      <use x="220.214844" xlink:href="#DejaVuSans-110"/>
      <use x="283.59375" xlink:href="#DejaVuSans-100"/>
      <use x="347.070312" xlink:href="#DejaVuSans-101"/>
      <use x="408.59375" xlink:href="#DejaVuSans-114"/>
      <use x="449.707031" xlink:href="#DejaVuSans-32"/>
      <use x="481.494141" xlink:href="#DejaVuSans-98"/>
      <use x="544.970703" xlink:href="#DejaVuSans-101"/>
      <use x="606.494141" xlink:href="#DejaVuSans-108"/>
      <use x="634.277344" xlink:href="#DejaVuSans-116"/>
      <use x="673.486328" xlink:href="#DejaVuSans-32"/>
      <use x="705.273438" xlink:href="#DejaVuSans-97"/>
      <use x="766.552734" xlink:href="#DejaVuSans-120"/>
      <use x="825.732422" xlink:href="#DejaVuSans-105"/>
      <use x="853.515625" xlink:href="#DejaVuSans-115"/>
      <use x="905.615234" xlink:href="#DejaVuSans-32"/>
      <use x="937.402344" xlink:href="#DejaVuSans-112"/>
      <use x="1000.878906" xlink:href="#DejaVuSans-114"/>
      <use x="1041.960938" xlink:href="#DejaVuSans-111"/>
      <use x="1103.142578" xlink:href="#DejaVuSans-102"/>
      <use x="1138.347656" xlink:href="#DejaVuSans-105"/>
      <use x="1166.130859" xlink:href="#DejaVuSans-108"/>
      <use x="1193.914062" xlink:href="#DejaVuSans-101"/>
      <use x="1255.4375" xlink:href="#DejaVuSans-32"/>
      <use x="1287.224609" xlink:href="#DejaVuSans-101"/>
      <use x="1348.748047" xlink:href="#DejaVuSans-108"/>
      <use x="1376.53125" xlink:href="#DejaVuSans-101"/>
      <use x="1438.054688" xlink:href="#DejaVuSans-118"/>
      <use x="1497.234375" xlink:href="#DejaVuSans-97"/>
      <use x="1558.513672" xlink:href="#DejaVuSans-116"/>
      <use x="1597.722656" xlink:href="#DejaVuSans-105"/>
      <use x="1625.505859" xlink:href="#DejaVuSans-111"/>
      <use x="1686.6875" xlink:href="#DejaVuSans-110"/>
      <use x="1750.066406" xlink:href="#DejaVuSans-32"/>
      <use x="1781.853516" xlink:href="#DejaVuSans-91"/>
      <use x="1820.867188" xlink:href="#DejaVuSans-109"/>
      <use x="1918.279297" xlink:href="#DejaVuSans-93"/>
     </g>
    </g>
   </g>
   <g id="line2d_41">
    <path clip-path="url(#pdd8137c118)" d="M 90 103.736433 
L 102.834 114.493704 
L 115.668 124.447056 
L 128.502 133.217086 
L 141.336 140.993659 
L 154.17 147.079212 
L 154.495767 147.225196 
L 167.329767 152.117518 
L 180.163767 155.814025 
L 192.997767 158.083571 
L 205.831767 164.118879 
L 218.665767 176.842616 
L 228.403308 187.900736 
L 241.237308 202.388004 
L 254.071308 216.005939 
L 266.905308 232.796177 
L 279.739308 241.180454 
L 292.573308 246.867385 
L 305.407308 255.614769 
L 308.250233 257.975001 
L 321.084233 267.983444 
L 333.918233 273.818479 
L 346.752233 275.555674 
L 359.586233 277.78567 
L 372.420233 281.235399 
L 385.254233 285.697744 
L 398.088233 290.914519 
L 410.922233 295.077572 
L 423.756233 298.4636 
L 436.590233 303.701211 
L 449.424233 312.231182 
L 452.23032 314.437338 
" style="fill:none;stroke:#000000;stroke-dasharray:9.6,2.4,1.5,2.4;stroke-dashoffset:0;stroke-width:1.5;"/>
   </g>
   <g id="line2d_42">
    <path clip-path="url(#pdd8137c118)" d="M 90 185.061426 
L 102.834 170.012019 
L 115.668 167.774205 
L 128.502 173.6305 
L 141.336 180.420449 
L 154.17 185.566872 
L 154.495767 185.740037 
L 167.329767 196.082547 
L 180.163767 208.115183 
L 192.997767 221.187651 
L 205.831767 231.920169 
L 218.665767 239.731615 
L 228.403308 244.364311 
L 241.237308 246.858686 
L 254.071308 249.115625 
L 266.905308 253.661334 
L 279.739308 261.259883 
L 292.573308 269.009765 
L 305.407308 276.44106 
L 308.250233 278.038334 
L 321.084233 284.967823 
L 333.918233 292.914692 
L 346.752233 301.396603 
L 359.586233 308.398547 
L 372.420233 313.547315 
L 385.254233 317.299139 
L 398.088233 320.404068 
L 410.922233 324.116174 
L 423.756233 329.474316 
L 436.590233 335.233734 
L 449.424233 340.900029 
L 452.23032 342.139989 
" style="fill:none;stroke:#000000;stroke-dasharray:5.55,2.4;stroke-dashoffset:0;stroke-width:1.5;"/>
   </g>
   <g id="patch_8">
    <path d="M 90 378 
L 90 51.84 
" style="fill:none;stroke:#000000;stroke-linecap:square;stroke-linejoin:miter;stroke-width:0.8;"/>
   </g>
   <g id="patch_9">
    <path d="M 648 378 
L 648 51.84 
" style="fill:none;stroke:#000000;stroke-linecap:square;stroke-linejoin:miter;stroke-width:0.8;"/>
   </g>
   <g id="patch_10">
    <path d="M 90 378 
L 648 378 
" style="fill:none;stroke:#000000;stroke-linecap:square;stroke-linejoin:miter;stroke-width:0.8;"/>
   </g>
   <g id="patch_11">
    <path d="M 90 51.84 
L 648 51.84 
" style="fill:none;stroke:#000000;stroke-linecap:square;stroke-linejoin:miter;stroke-width:0.8;"/>
   </g>
   <g id="legend_2">
    <g id="patch_12">
     <path d="M 97 89.19625 
L 282.253125 89.19625 
Q 284.253125 89.19625 284.253125 87.19625 
L 284.253125 58.84 
Q 284.253125 56.84 282.253125 56.84 
L 97 56.84 
Q 95 56.84 95 58.84 
L 95 87.19625 
Q 95 89.19625 97 89.19625 
z
" style="fill:#ffffff;opacity:0.8;stroke:#cccccc;stroke-linejoin:miter;"/>
    </g>
    <g id="line2d_43">
     <path d="M 99 64.938437 
L 119 64.938437 
" style="fill:none;stroke:#000000;stroke-dasharray:9.6,2.4,1.5,2.4;stroke-dashoffset:0;stroke-width:1.5;"/>
    </g>
    <g id="line2d_44"/>
    <g id="text_31">
     <!-- meander belt axis profile, unc. -->
     <g transform="translate(127 68.438437)scale(0.1 -0.1)">
      <use xlink:href="#DejaVuSans-109"/>
      <use x="97.412109" xlink:href="#DejaVuSans-101"/>
      <use x="158.935547" xlink:href="#DejaVuSans-97"/>
      <use x="220.214844" xlink:href="#DejaVuSans-110"/>
      <use x="283.59375" xlink:href="#DejaVuSans-100"/>
      <use x="347.070312" xlink:href="#DejaVuSans-101"/>
      <use x="408.59375" xlink:href="#DejaVuSans-114"/>
      <use x="449.707031" xlink:href="#DejaVuSans-32"/>
      <use x="481.494141" xlink:href="#DejaVuSans-98"/>
      <use x="544.970703" xlink:href="#DejaVuSans-101"/>
      <use x="606.494141" xlink:href="#DejaVuSans-108"/>
      <use x="634.277344" xlink:href="#DejaVuSans-116"/>
      <use x="673.486328" xlink:href="#DejaVuSans-32"/>
      <use x="705.273438" xlink:href="#DejaVuSans-97"/>
      <use x="766.552734" xlink:href="#DejaVuSans-120"/>
      <use x="825.732422" xlink:href="#DejaVuSans-105"/>
      <use x="853.515625" xlink:href="#DejaVuSans-115"/>
      <use x="905.615234" xlink:href="#DejaVuSans-32"/>
      <use x="937.402344" xlink:href="#DejaVuSans-112"/>
      <use x="1000.878906" xlink:href="#DejaVuSans-114"/>
      <use x="1041.960938" xlink:href="#DejaVuSans-111"/>
      <use x="1103.142578" xlink:href="#DejaVuSans-102"/>
      <use x="1138.347656" xlink:href="#DejaVuSans-105"/>
      <use x="1166.130859" xlink:href="#DejaVuSans-108"/>
      <use x="1193.914062" xlink:href="#DejaVuSans-101"/>
      <use x="1255.4375" xlink:href="#DejaVuSans-44"/>
      <use x="1287.224609" xlink:href="#DejaVuSans-32"/>
      <use x="1319.011719" xlink:href="#DejaVuSans-117"/>
      <use x="1382.390625" xlink:href="#DejaVuSans-110"/>
      <use x="1445.769531" xlink:href="#DejaVuSans-99"/>
      <use x="1500.75" xlink:href="#DejaVuSans-46"/>
     </g>
    </g>
    <g id="line2d_45">
     <path d="M 99 79.616562 
L 119 79.616562 
" style="fill:none;stroke:#000000;stroke-dasharray:5.55,2.4;stroke-dashoffset:0;stroke-width:1.5;"/>
    </g>
    <g id="line2d_46"/>
    <g id="text_32">
     <!-- meander belt axis profile, c. -->
     <g transform="translate(127 83.116562)scale(0.1 -0.1)">
      <use xlink:href="#DejaVuSans-109"/>
      <use x="97.412109" xlink:href="#DejaVuSans-101"/>
      <use x="158.935547" xlink:href="#DejaVuSans-97"/>
      <use x="220.214844" xlink:href="#DejaVuSans-110"/>
      <use x="283.59375" xlink:href="#DejaVuSans-100"/>
      <use x="347.070312" xlink:href="#DejaVuSans-101"/>
      <use x="408.59375" xlink:href="#DejaVuSans-114"/>
      <use x="449.707031" xlink:href="#DejaVuSans-32"/>
      <use x="481.494141" xlink:href="#DejaVuSans-98"/>
      <use x="544.970703" xlink:href="#DejaVuSans-101"/>
      <use x="606.494141" xlink:href="#DejaVuSans-108"/>
      <use x="634.277344" xlink:href="#DejaVuSans-116"/>
      <use x="673.486328" xlink:href="#DejaVuSans-32"/>
      <use x="705.273438" xlink:href="#DejaVuSans-97"/>
      <use x="766.552734" xlink:href="#DejaVuSans-120"/>
      <use x="825.732422" xlink:href="#DejaVuSans-105"/>
      <use x="853.515625" xlink:href="#DejaVuSans-115"/>
      <use x="905.615234" xlink:href="#DejaVuSans-32"/>
      <use x="937.402344" xlink:href="#DejaVuSans-112"/>
      <use x="1000.878906" xlink:href="#DejaVuSans-114"/>
      <use x="1041.960938" xlink:href="#DejaVuSans-111"/>
      <use x="1103.142578" xlink:href="#DejaVuSans-102"/>
      <use x="1138.347656" xlink:href="#DejaVuSans-105"/>
      <use x="1166.130859" xlink:href="#DejaVuSans-108"/>
      <use x="1193.914062" xlink:href="#DejaVuSans-101"/>
      <use x="1255.4375" xlink:href="#DejaVuSans-44"/>
      <use x="1287.224609" xlink:href="#DejaVuSans-32"/>
      <use x="1319.011719" xlink:href="#DejaVuSans-99"/>
      <use x="1373.992188" xlink:href="#DejaVuSans-46"/>
     </g>
    </g>
   </g>
  </g>
 </g>
 <defs>
  <clipPath id="pdd8137c118">
   <rect height="326.16" width="558" x="90" y="51.84"/>
  </clipPath>
 </defs>
</svg>
