<?xml version="1.0" encoding="utf-8" standalone="no"?>
<!DOCTYPE svg PUBLIC "-//W3C//DTD SVG 1.1//EN"
  "http://www.w3.org/Graphics/SVG/1.1/DTD/svg11.dtd">
<!-- Created with matplotlib (https://matplotlib.org/) -->
<svg height="432pt" version="1.1" viewBox="0 0 720 432" width="720pt" xmlns="http://www.w3.org/2000/svg" xmlns:xlink="http://www.w3.org/1999/xlink">
 <defs>
  <style type="text/css">
*{stroke-linecap:butt;stroke-linejoin:round;}
  </style>
 </defs>
 <g id="figure_1">
  <g id="patch_1">
   <path d="M 0 432 
L 720 432 
L 720 0 
L 0 0 
z
" style="fill:#ffffff;"/>
  </g>
  <g id="axes_1">
   <g id="patch_2">
    <path d="M 90 378 
L 648 378 
L 648 51.84 
L 90 51.84 
z
" style="fill:#ffffff;"/>
   </g>
   <g id="matplotlib.axis_1">
    <g id="xtick_1">
     <g id="line2d_1">
      <defs>
       <path d="M 0 0 
L 0 3.5 
" id="ma716c32b54" style="stroke:#000000;stroke-width:0.8;"/>
      </defs>
      <g>
       <use style="stroke:#000000;stroke-width:0.8;" x="90" xlink:href="#ma716c32b54" y="378"/>
      </g>
     </g>
     <g id="text_1">
      <!-- 0 -->
      <defs>
       <path d="M 31.78125 66.40625 
Q 24.171875 66.40625 20.328125 58.90625 
Q 16.5 51.421875 16.5 36.375 
Q 16.5 21.390625 20.328125 13.890625 
Q 24.171875 6.390625 31.78125 6.390625 
Q 39.453125 6.390625 43.28125 13.890625 
Q 47.125 21.390625 47.125 36.375 
Q 47.125 51.421875 43.28125 58.90625 
Q 39.453125 66.40625 31.78125 66.40625 
z
M 31.78125 74.21875 
Q 44.046875 74.21875 50.515625 64.515625 
Q 56.984375 54.828125 56.984375 36.375 
Q 56.984375 17.96875 50.515625 8.265625 
Q 44.046875 -1.421875 31.78125 -1.421875 
Q 19.53125 -1.421875 13.0625 8.265625 
Q 6.59375 17.96875 6.59375 36.375 
Q 6.59375 54.828125 13.0625 64.515625 
Q 19.53125 74.21875 31.78125 74.21875 
z
" id="DejaVuSans-48"/>
      </defs>
      <g transform="translate(86.81875 392.598437)scale(0.1 -0.1)">
       <use xlink:href="#DejaVuSans-48"/>
      </g>
     </g>
    </g>
    <g id="xtick_2">
     <g id="line2d_2">
      <g>
       <use style="stroke:#000000;stroke-width:0.8;" x="201.6" xlink:href="#ma716c32b54" y="378"/>
      </g>
     </g>
     <g id="text_2">
      <!-- 200 -->
      <defs>
       <path d="M 19.1875 8.296875 
L 53.609375 8.296875 
L 53.609375 0 
L 7.328125 0 
L 7.328125 8.296875 
Q 12.9375 14.109375 22.625 23.890625 
Q 32.328125 33.6875 34.8125 36.53125 
Q 39.546875 41.84375 41.421875 45.53125 
Q 43.3125 49.21875 43.3125 52.78125 
Q 43.3125 58.59375 39.234375 62.25 
Q 35.15625 65.921875 28.609375 65.921875 
Q 23.96875 65.921875 18.8125 64.3125 
Q 13.671875 62.703125 7.8125 59.421875 
L 7.8125 69.390625 
Q 13.765625 71.78125 18.9375 73 
Q 24.125 74.21875 28.421875 74.21875 
Q 39.75 74.21875 46.484375 68.546875 
Q 53.21875 62.890625 53.21875 53.421875 
Q 53.21875 48.921875 51.53125 44.890625 
Q 49.859375 40.875 45.40625 35.40625 
Q 44.1875 33.984375 37.640625 27.21875 
Q 31.109375 20.453125 19.1875 8.296875 
z
" id="DejaVuSans-50"/>
      </defs>
      <g transform="translate(192.05625 392.598437)scale(0.1 -0.1)">
       <use xlink:href="#DejaVuSans-50"/>
       <use x="63.623047" xlink:href="#DejaVuSans-48"/>
       <use x="127.246094" xlink:href="#DejaVuSans-48"/>
      </g>
     </g>
    </g>
    <g id="xtick_3">
     <g id="line2d_3">
      <g>
       <use style="stroke:#000000;stroke-width:0.8;" x="313.2" xlink:href="#ma716c32b54" y="378"/>
      </g>
     </g>
     <g id="text_3">
      <!-- 400 -->
      <defs>
       <path d="M 37.796875 64.3125 
L 12.890625 25.390625 
L 37.796875 25.390625 
z
M 35.203125 72.90625 
L 47.609375 72.90625 
L 47.609375 25.390625 
L 58.015625 25.390625 
L 58.015625 17.1875 
L 47.609375 17.1875 
L 47.609375 0 
L 37.796875 0 
L 37.796875 17.1875 
L 4.890625 17.1875 
L 4.890625 26.703125 
z
" id="DejaVuSans-52"/>
      </defs>
      <g transform="translate(303.65625 392.598437)scale(0.1 -0.1)">
       <use xlink:href="#DejaVuSans-52"/>
       <use x="63.623047" xlink:href="#DejaVuSans-48"/>
       <use x="127.246094" xlink:href="#DejaVuSans-48"/>
      </g>
     </g>
    </g>
    <g id="xtick_4">
     <g id="line2d_4">
      <g>
       <use style="stroke:#000000;stroke-width:0.8;" x="424.8" xlink:href="#ma716c32b54" y="378"/>
      </g>
     </g>
     <g id="text_4">
      <!-- 600 -->
      <defs>
       <path d="M 33.015625 40.375 
Q 26.375 40.375 22.484375 35.828125 
Q 18.609375 31.296875 18.609375 23.390625 
Q 18.609375 15.53125 22.484375 10.953125 
Q 26.375 6.390625 33.015625 6.390625 
Q 39.65625 6.390625 43.53125 10.953125 
Q 47.40625 15.53125 47.40625 23.390625 
Q 47.40625 31.296875 43.53125 35.828125 
Q 39.65625 40.375 33.015625 40.375 
z
M 52.59375 71.296875 
L 52.59375 62.3125 
Q 48.875 64.0625 45.09375 64.984375 
Q 41.3125 65.921875 37.59375 65.921875 
Q 27.828125 65.921875 22.671875 59.328125 
Q 17.53125 52.734375 16.796875 39.40625 
Q 19.671875 43.65625 24.015625 45.921875 
Q 28.375 48.1875 33.59375 48.1875 
Q 44.578125 48.1875 50.953125 41.515625 
Q 57.328125 34.859375 57.328125 23.390625 
Q 57.328125 12.15625 50.6875 5.359375 
Q 44.046875 -1.421875 33.015625 -1.421875 
Q 20.359375 -1.421875 13.671875 8.265625 
Q 6.984375 17.96875 6.984375 36.375 
Q 6.984375 53.65625 15.1875 63.9375 
Q 23.390625 74.21875 37.203125 74.21875 
Q 40.921875 74.21875 44.703125 73.484375 
Q 48.484375 72.75 52.59375 71.296875 
z
" id="DejaVuSans-54"/>
      </defs>
      <g transform="translate(415.25625 392.598437)scale(0.1 -0.1)">
       <use xlink:href="#DejaVuSans-54"/>
       <use x="63.623047" xlink:href="#DejaVuSans-48"/>
       <use x="127.246094" xlink:href="#DejaVuSans-48"/>
      </g>
     </g>
    </g>
    <g id="xtick_5">
     <g id="line2d_5">
      <g>
       <use style="stroke:#000000;stroke-width:0.8;" x="536.4" xlink:href="#ma716c32b54" y="378"/>
      </g>
     </g>
     <g id="text_5">
      <!-- 800 -->
      <defs>
       <path d="M 31.78125 34.625 
Q 24.75 34.625 20.71875 30.859375 
Q 16.703125 27.09375 16.703125 20.515625 
Q 16.703125 13.921875 20.71875 10.15625 
Q 24.75 6.390625 31.78125 6.390625 
Q 38.8125 6.390625 42.859375 10.171875 
Q 46.921875 13.96875 46.921875 20.515625 
Q 46.921875 27.09375 42.890625 30.859375 
Q 38.875 34.625 31.78125 34.625 
z
M 21.921875 38.8125 
Q 15.578125 40.375 12.03125 44.71875 
Q 8.5 49.078125 8.5 55.328125 
Q 8.5 64.0625 14.71875 69.140625 
Q 20.953125 74.21875 31.78125 74.21875 
Q 42.671875 74.21875 48.875 69.140625 
Q 55.078125 64.0625 55.078125 55.328125 
Q 55.078125 49.078125 51.53125 44.71875 
Q 48 40.375 41.703125 38.8125 
Q 48.828125 37.15625 52.796875 32.3125 
Q 56.78125 27.484375 56.78125 20.515625 
Q 56.78125 9.90625 50.3125 4.234375 
Q 43.84375 -1.421875 31.78125 -1.421875 
Q 19.734375 -1.421875 13.25 4.234375 
Q 6.78125 9.90625 6.78125 20.515625 
Q 6.78125 27.484375 10.78125 32.3125 
Q 14.796875 37.15625 21.921875 38.8125 
z
M 18.3125 54.390625 
Q 18.3125 48.734375 21.84375 45.5625 
Q 25.390625 42.390625 31.78125 42.390625 
Q 38.140625 42.390625 41.71875 45.5625 
Q 45.3125 48.734375 45.3125 54.390625 
Q 45.3125 60.0625 41.71875 63.234375 
Q 38.140625 66.40625 31.78125 66.40625 
Q 25.390625 66.40625 21.84375 63.234375 
Q 18.3125 60.0625 18.3125 54.390625 
z
" id="DejaVuSans-56"/>
      </defs>
      <g transform="translate(526.85625 392.598437)scale(0.1 -0.1)">
       <use xlink:href="#DejaVuSans-56"/>
       <use x="63.623047" xlink:href="#DejaVuSans-48"/>
       <use x="127.246094" xlink:href="#DejaVuSans-48"/>
      </g>
     </g>
    </g>
    <g id="xtick_6">
     <g id="line2d_6">
      <g>
       <use style="stroke:#000000;stroke-width:0.8;" x="648" xlink:href="#ma716c32b54" y="378"/>
      </g>
     </g>
     <g id="text_6">
      <!-- 1000 -->
      <defs>
       <path d="M 12.40625 8.296875 
L 28.515625 8.296875 
L 28.515625 63.921875 
L 10.984375 60.40625 
L 10.984375 69.390625 
L 28.421875 72.90625 
L 38.28125 72.90625 
L 38.28125 8.296875 
L 54.390625 8.296875 
L 54.390625 0 
L 12.40625 0 
z
" id="DejaVuSans-49"/>
      </defs>
      <g transform="translate(635.275 392.598437)scale(0.1 -0.1)">
       <use xlink:href="#DejaVuSans-49"/>
       <use x="63.623047" xlink:href="#DejaVuSans-48"/>
       <use x="127.246094" xlink:href="#DejaVuSans-48"/>
       <use x="190.869141" xlink:href="#DejaVuSans-48"/>
      </g>
     </g>
    </g>
    <g id="text_7">
     <!-- distance along straightened profile [m] -->
     <defs>
      <path d="M 45.40625 46.390625 
L 45.40625 75.984375 
L 54.390625 75.984375 
L 54.390625 0 
L 45.40625 0 
L 45.40625 8.203125 
Q 42.578125 3.328125 38.25 0.953125 
Q 33.9375 -1.421875 27.875 -1.421875 
Q 17.96875 -1.421875 11.734375 6.484375 
Q 5.515625 14.40625 5.515625 27.296875 
Q 5.515625 40.1875 11.734375 48.09375 
Q 17.96875 56 27.875 56 
Q 33.9375 56 38.25 53.625 
Q 42.578125 51.265625 45.40625 46.390625 
z
M 14.796875 27.296875 
Q 14.796875 17.390625 18.875 11.75 
Q 22.953125 6.109375 30.078125 6.109375 
Q 37.203125 6.109375 41.296875 11.75 
Q 45.40625 17.390625 45.40625 27.296875 
Q 45.40625 37.203125 41.296875 42.84375 
Q 37.203125 48.484375 30.078125 48.484375 
Q 22.953125 48.484375 18.875 42.84375 
Q 14.796875 37.203125 14.796875 27.296875 
z
" id="DejaVuSans-100"/>
      <path d="M 9.421875 54.6875 
L 18.40625 54.6875 
L 18.40625 0 
L 9.421875 0 
z
M 9.421875 75.984375 
L 18.40625 75.984375 
L 18.40625 64.59375 
L 9.421875 64.59375 
z
" id="DejaVuSans-105"/>
      <path d="M 44.28125 53.078125 
L 44.28125 44.578125 
Q 40.484375 46.53125 36.375 47.5 
Q 32.28125 48.484375 27.875 48.484375 
Q 21.1875 48.484375 17.84375 46.4375 
Q 14.5 44.390625 14.5 40.28125 
Q 14.5 37.15625 16.890625 35.375 
Q 19.28125 33.59375 26.515625 31.984375 
L 29.59375 31.296875 
Q 39.15625 29.25 43.1875 25.515625 
Q 47.21875 21.78125 47.21875 15.09375 
Q 47.21875 7.46875 41.1875 3.015625 
Q 35.15625 -1.421875 24.609375 -1.421875 
Q 20.21875 -1.421875 15.453125 -0.5625 
Q 10.6875 0.296875 5.421875 2 
L 5.421875 11.28125 
Q 10.40625 8.6875 15.234375 7.390625 
Q 20.0625 6.109375 24.8125 6.109375 
Q 31.15625 6.109375 34.5625 8.28125 
Q 37.984375 10.453125 37.984375 14.40625 
Q 37.984375 18.0625 35.515625 20.015625 
Q 33.0625 21.96875 24.703125 23.78125 
L 21.578125 24.515625 
Q 13.234375 26.265625 9.515625 29.90625 
Q 5.8125 33.546875 5.8125 39.890625 
Q 5.8125 47.609375 11.28125 51.796875 
Q 16.75 56 26.8125 56 
Q 31.78125 56 36.171875 55.265625 
Q 40.578125 54.546875 44.28125 53.078125 
z
" id="DejaVuSans-115"/>
      <path d="M 18.3125 70.21875 
L 18.3125 54.6875 
L 36.8125 54.6875 
L 36.8125 47.703125 
L 18.3125 47.703125 
L 18.3125 18.015625 
Q 18.3125 11.328125 20.140625 9.421875 
Q 21.96875 7.515625 27.59375 7.515625 
L 36.8125 7.515625 
L 36.8125 0 
L 27.59375 0 
Q 17.1875 0 13.234375 3.875 
Q 9.28125 7.765625 9.28125 18.015625 
L 9.28125 47.703125 
L 2.6875 47.703125 
L 2.6875 54.6875 
L 9.28125 54.6875 
L 9.28125 70.21875 
z
" id="DejaVuSans-116"/>
      <path d="M 34.28125 27.484375 
Q 23.390625 27.484375 19.1875 25 
Q 14.984375 22.515625 14.984375 16.5 
Q 14.984375 11.71875 18.140625 8.90625 
Q 21.296875 6.109375 26.703125 6.109375 
Q 34.1875 6.109375 38.703125 11.40625 
Q 43.21875 16.703125 43.21875 25.484375 
L 43.21875 27.484375 
z
M 52.203125 31.203125 
L 52.203125 0 
L 43.21875 0 
L 43.21875 8.296875 
Q 40.140625 3.328125 35.546875 0.953125 
Q 30.953125 -1.421875 24.3125 -1.421875 
Q 15.921875 -1.421875 10.953125 3.296875 
Q 6 8.015625 6 15.921875 
Q 6 25.140625 12.171875 29.828125 
Q 18.359375 34.515625 30.609375 34.515625 
L 43.21875 34.515625 
L 43.21875 35.40625 
Q 43.21875 41.609375 39.140625 45 
Q 35.0625 48.390625 27.6875 48.390625 
Q 23 48.390625 18.546875 47.265625 
Q 14.109375 46.140625 10.015625 43.890625 
L 10.015625 52.203125 
Q 14.9375 54.109375 19.578125 55.046875 
Q 24.21875 56 28.609375 56 
Q 40.484375 56 46.34375 49.84375 
Q 52.203125 43.703125 52.203125 31.203125 
z
" id="DejaVuSans-97"/>
      <path d="M 54.890625 33.015625 
L 54.890625 0 
L 45.90625 0 
L 45.90625 32.71875 
Q 45.90625 40.484375 42.875 44.328125 
Q 39.84375 48.1875 33.796875 48.1875 
Q 26.515625 48.1875 22.3125 43.546875 
Q 18.109375 38.921875 18.109375 30.90625 
L 18.109375 0 
L 9.078125 0 
L 9.078125 54.6875 
L 18.109375 54.6875 
L 18.109375 46.1875 
Q 21.34375 51.125 25.703125 53.5625 
Q 30.078125 56 35.796875 56 
Q 45.21875 56 50.046875 50.171875 
Q 54.890625 44.34375 54.890625 33.015625 
z
" id="DejaVuSans-110"/>
      <path d="M 48.78125 52.59375 
L 48.78125 44.1875 
Q 44.96875 46.296875 41.140625 47.34375 
Q 37.3125 48.390625 33.40625 48.390625 
Q 24.65625 48.390625 19.8125 42.84375 
Q 14.984375 37.3125 14.984375 27.296875 
Q 14.984375 17.28125 19.8125 11.734375 
Q 24.65625 6.203125 33.40625 6.203125 
Q 37.3125 6.203125 41.140625 7.25 
Q 44.96875 8.296875 48.78125 10.40625 
L 48.78125 2.09375 
Q 45.015625 0.34375 40.984375 -0.53125 
Q 36.96875 -1.421875 32.421875 -1.421875 
Q 20.0625 -1.421875 12.78125 6.34375 
Q 5.515625 14.109375 5.515625 27.296875 
Q 5.515625 40.671875 12.859375 48.328125 
Q 20.21875 56 33.015625 56 
Q 37.15625 56 41.109375 55.140625 
Q 45.0625 54.296875 48.78125 52.59375 
z
" id="DejaVuSans-99"/>
      <path d="M 56.203125 29.59375 
L 56.203125 25.203125 
L 14.890625 25.203125 
Q 15.484375 15.921875 20.484375 11.0625 
Q 25.484375 6.203125 34.421875 6.203125 
Q 39.59375 6.203125 44.453125 7.46875 
Q 49.3125 8.734375 54.109375 11.28125 
L 54.109375 2.78125 
Q 49.265625 0.734375 44.1875 -0.34375 
Q 39.109375 -1.421875 33.890625 -1.421875 
Q 20.796875 -1.421875 13.15625 6.1875 
Q 5.515625 13.8125 5.515625 26.8125 
Q 5.515625 40.234375 12.765625 48.109375 
Q 20.015625 56 32.328125 56 
Q 43.359375 56 49.78125 48.890625 
Q 56.203125 41.796875 56.203125 29.59375 
z
M 47.21875 32.234375 
Q 47.125 39.59375 43.09375 43.984375 
Q 39.0625 48.390625 32.421875 48.390625 
Q 24.90625 48.390625 20.390625 44.140625 
Q 15.875 39.890625 15.1875 32.171875 
z
" id="DejaVuSans-101"/>
      <path id="DejaVuSans-32"/>
      <path d="M 9.421875 75.984375 
L 18.40625 75.984375 
L 18.40625 0 
L 9.421875 0 
z
" id="DejaVuSans-108"/>
      <path d="M 30.609375 48.390625 
Q 23.390625 48.390625 19.1875 42.75 
Q 14.984375 37.109375 14.984375 27.296875 
Q 14.984375 17.484375 19.15625 11.84375 
Q 23.34375 6.203125 30.609375 6.203125 
Q 37.796875 6.203125 41.984375 11.859375 
Q 46.1875 17.53125 46.1875 27.296875 
Q 46.1875 37.015625 41.984375 42.703125 
Q 37.796875 48.390625 30.609375 48.390625 
z
M 30.609375 56 
Q 42.328125 56 49.015625 48.375 
Q 55.71875 40.765625 55.71875 27.296875 
Q 55.71875 13.875 49.015625 6.21875 
Q 42.328125 -1.421875 30.609375 -1.421875 
Q 18.84375 -1.421875 12.171875 6.21875 
Q 5.515625 13.875 5.515625 27.296875 
Q 5.515625 40.765625 12.171875 48.375 
Q 18.84375 56 30.609375 56 
z
" id="DejaVuSans-111"/>
      <path d="M 45.40625 27.984375 
Q 45.40625 37.75 41.375 43.109375 
Q 37.359375 48.484375 30.078125 48.484375 
Q 22.859375 48.484375 18.828125 43.109375 
Q 14.796875 37.75 14.796875 27.984375 
Q 14.796875 18.265625 18.828125 12.890625 
Q 22.859375 7.515625 30.078125 7.515625 
Q 37.359375 7.515625 41.375 12.890625 
Q 45.40625 18.265625 45.40625 27.984375 
z
M 54.390625 6.78125 
Q 54.390625 -7.171875 48.1875 -13.984375 
Q 42 -20.796875 29.203125 -20.796875 
Q 24.46875 -20.796875 20.265625 -20.09375 
Q 16.0625 -19.390625 12.109375 -17.921875 
L 12.109375 -9.1875 
Q 16.0625 -11.328125 19.921875 -12.34375 
Q 23.78125 -13.375 27.78125 -13.375 
Q 36.625 -13.375 41.015625 -8.765625 
Q 45.40625 -4.15625 45.40625 5.171875 
L 45.40625 9.625 
Q 42.625 4.78125 38.28125 2.390625 
Q 33.9375 0 27.875 0 
Q 17.828125 0 11.671875 7.65625 
Q 5.515625 15.328125 5.515625 27.984375 
Q 5.515625 40.671875 11.671875 48.328125 
Q 17.828125 56 27.875 56 
Q 33.9375 56 38.28125 53.609375 
Q 42.625 51.21875 45.40625 46.390625 
L 45.40625 54.6875 
L 54.390625 54.6875 
z
" id="DejaVuSans-103"/>
      <path d="M 41.109375 46.296875 
Q 39.59375 47.171875 37.8125 47.578125 
Q 36.03125 48 33.890625 48 
Q 26.265625 48 22.1875 43.046875 
Q 18.109375 38.09375 18.109375 28.8125 
L 18.109375 0 
L 9.078125 0 
L 9.078125 54.6875 
L 18.109375 54.6875 
L 18.109375 46.1875 
Q 20.953125 51.171875 25.484375 53.578125 
Q 30.03125 56 36.53125 56 
Q 37.453125 56 38.578125 55.875 
Q 39.703125 55.765625 41.0625 55.515625 
z
" id="DejaVuSans-114"/>
      <path d="M 54.890625 33.015625 
L 54.890625 0 
L 45.90625 0 
L 45.90625 32.71875 
Q 45.90625 40.484375 42.875 44.328125 
Q 39.84375 48.1875 33.796875 48.1875 
Q 26.515625 48.1875 22.3125 43.546875 
Q 18.109375 38.921875 18.109375 30.90625 
L 18.109375 0 
L 9.078125 0 
L 9.078125 75.984375 
L 18.109375 75.984375 
L 18.109375 46.1875 
Q 21.34375 51.125 25.703125 53.5625 
Q 30.078125 56 35.796875 56 
Q 45.21875 56 50.046875 50.171875 
Q 54.890625 44.34375 54.890625 33.015625 
z
" id="DejaVuSans-104"/>
      <path d="M 18.109375 8.203125 
L 18.109375 -20.796875 
L 9.078125 -20.796875 
L 9.078125 54.6875 
L 18.109375 54.6875 
L 18.109375 46.390625 
Q 20.953125 51.265625 25.265625 53.625 
Q 29.59375 56 35.59375 56 
Q 45.5625 56 51.78125 48.09375 
Q 58.015625 40.1875 58.015625 27.296875 
Q 58.015625 14.40625 51.78125 6.484375 
Q 45.5625 -1.421875 35.59375 -1.421875 
Q 29.59375 -1.421875 25.265625 0.953125 
Q 20.953125 3.328125 18.109375 8.203125 
z
M 48.6875 27.296875 
Q 48.6875 37.203125 44.609375 42.84375 
Q 40.53125 48.484375 33.40625 48.484375 
Q 26.265625 48.484375 22.1875 42.84375 
Q 18.109375 37.203125 18.109375 27.296875 
Q 18.109375 17.390625 22.1875 11.75 
Q 26.265625 6.109375 33.40625 6.109375 
Q 40.53125 6.109375 44.609375 11.75 
Q 48.6875 17.390625 48.6875 27.296875 
z
" id="DejaVuSans-112"/>
      <path d="M 37.109375 75.984375 
L 37.109375 68.5 
L 28.515625 68.5 
Q 23.6875 68.5 21.796875 66.546875 
Q 19.921875 64.59375 19.921875 59.515625 
L 19.921875 54.6875 
L 34.71875 54.6875 
L 34.71875 47.703125 
L 19.921875 47.703125 
L 19.921875 0 
L 10.890625 0 
L 10.890625 47.703125 
L 2.296875 47.703125 
L 2.296875 54.6875 
L 10.890625 54.6875 
L 10.890625 58.5 
Q 10.890625 67.625 15.140625 71.796875 
Q 19.390625 75.984375 28.609375 75.984375 
z
" id="DejaVuSans-102"/>
      <path d="M 8.59375 75.984375 
L 29.296875 75.984375 
L 29.296875 69 
L 17.578125 69 
L 17.578125 -6.203125 
L 29.296875 -6.203125 
L 29.296875 -13.1875 
L 8.59375 -13.1875 
z
" id="DejaVuSans-91"/>
      <path d="M 52 44.1875 
Q 55.375 50.25 60.0625 53.125 
Q 64.75 56 71.09375 56 
Q 79.640625 56 84.28125 50.015625 
Q 88.921875 44.046875 88.921875 33.015625 
L 88.921875 0 
L 79.890625 0 
L 79.890625 32.71875 
Q 79.890625 40.578125 77.09375 44.375 
Q 74.3125 48.1875 68.609375 48.1875 
Q 61.625 48.1875 57.5625 43.546875 
Q 53.515625 38.921875 53.515625 30.90625 
L 53.515625 0 
L 44.484375 0 
L 44.484375 32.71875 
Q 44.484375 40.625 41.703125 44.40625 
Q 38.921875 48.1875 33.109375 48.1875 
Q 26.21875 48.1875 22.15625 43.53125 
Q 18.109375 38.875 18.109375 30.90625 
L 18.109375 0 
L 9.078125 0 
L 9.078125 54.6875 
L 18.109375 54.6875 
L 18.109375 46.1875 
Q 21.1875 51.21875 25.484375 53.609375 
Q 29.78125 56 35.6875 56 
Q 41.65625 56 45.828125 52.96875 
Q 50 49.953125 52 44.1875 
z
" id="DejaVuSans-109"/>
      <path d="M 30.421875 75.984375 
L 30.421875 -13.1875 
L 9.71875 -13.1875 
L 9.71875 -6.203125 
L 21.390625 -6.203125 
L 21.390625 69 
L 9.71875 69 
L 9.71875 75.984375 
z
" id="DejaVuSans-93"/>
     </defs>
     <g transform="translate(251.465625 407.79625)scale(0.12 -0.12)">
      <use xlink:href="#DejaVuSans-100"/>
      <use x="63.476562" xlink:href="#DejaVuSans-105"/>
      <use x="91.259766" xlink:href="#DejaVuSans-115"/>
      <use x="143.359375" xlink:href="#DejaVuSans-116"/>
      <use x="182.568359" xlink:href="#DejaVuSans-97"/>
      <use x="243.847656" xlink:href="#DejaVuSans-110"/>
      <use x="307.226562" xlink:href="#DejaVuSans-99"/>
      <use x="362.207031" xlink:href="#DejaVuSans-101"/>
      <use x="423.730469" xlink:href="#DejaVuSans-32"/>
      <use x="455.517578" xlink:href="#DejaVuSans-97"/>
      <use x="516.796875" xlink:href="#DejaVuSans-108"/>
      <use x="544.580078" xlink:href="#DejaVuSans-111"/>
      <use x="605.761719" xlink:href="#DejaVuSans-110"/>
      <use x="669.140625" xlink:href="#DejaVuSans-103"/>
      <use x="732.617188" xlink:href="#DejaVuSans-32"/>
      <use x="764.404297" xlink:href="#DejaVuSans-115"/>
      <use x="816.503906" xlink:href="#DejaVuSans-116"/>
      <use x="855.712891" xlink:href="#DejaVuSans-114"/>
      <use x="896.826172" xlink:href="#DejaVuSans-97"/>
      <use x="958.105469" xlink:href="#DejaVuSans-105"/>
      <use x="985.888672" xlink:href="#DejaVuSans-103"/>
      <use x="1049.365234" xlink:href="#DejaVuSans-104"/>
      <use x="1112.744141" xlink:href="#DejaVuSans-116"/>
      <use x="1151.953125" xlink:href="#DejaVuSans-101"/>
      <use x="1213.476562" xlink:href="#DejaVuSans-110"/>
      <use x="1276.855469" xlink:href="#DejaVuSans-101"/>
      <use x="1338.378906" xlink:href="#DejaVuSans-100"/>
      <use x="1401.855469" xlink:href="#DejaVuSans-32"/>
      <use x="1433.642578" xlink:href="#DejaVuSans-112"/>
      <use x="1497.119141" xlink:href="#DejaVuSans-114"/>
      <use x="1538.201172" xlink:href="#DejaVuSans-111"/>
      <use x="1599.382812" xlink:href="#DejaVuSans-102"/>
      <use x="1634.587891" xlink:href="#DejaVuSans-105"/>
      <use x="1662.371094" xlink:href="#DejaVuSans-108"/>
      <use x="1690.154297" xlink:href="#DejaVuSans-101"/>
      <use x="1751.677734" xlink:href="#DejaVuSans-32"/>
      <use x="1783.464844" xlink:href="#DejaVuSans-91"/>
      <use x="1822.478516" xlink:href="#DejaVuSans-109"/>
      <use x="1919.890625" xlink:href="#DejaVuSans-93"/>
     </g>
    </g>
   </g>
   <g id="matplotlib.axis_2">
    <g id="ytick_1">
     <g id="line2d_7">
      <defs>
       <path d="M 0 0 
L -3.5 0 
" id="mab8348014f" style="stroke:#000000;stroke-width:0.8;"/>
      </defs>
      <g>
       <use style="stroke:#000000;stroke-width:0.8;" x="90" xlink:href="#mab8348014f" y="378"/>
      </g>
     </g>
     <g id="text_8">
      <!-- 1.0 -->
      <defs>
       <path d="M 10.6875 12.40625 
L 21 12.40625 
L 21 0 
L 10.6875 0 
z
" id="DejaVuSans-46"/>
      </defs>
      <g transform="translate(67.096875 381.799219)scale(0.1 -0.1)">
       <use xlink:href="#DejaVuSans-49"/>
       <use x="63.623047" xlink:href="#DejaVuSans-46"/>
       <use x="95.410156" xlink:href="#DejaVuSans-48"/>
      </g>
     </g>
    </g>
    <g id="ytick_2">
     <g id="line2d_8">
      <g>
       <use style="stroke:#000000;stroke-width:0.8;" x="90" xlink:href="#mab8348014f" y="323.64"/>
      </g>
     </g>
     <g id="text_9">
      <!-- 1.2 -->
      <g transform="translate(67.096875 327.439219)scale(0.1 -0.1)">
       <use xlink:href="#DejaVuSans-49"/>
       <use x="63.623047" xlink:href="#DejaVuSans-46"/>
       <use x="95.410156" xlink:href="#DejaVuSans-50"/>
      </g>
     </g>
    </g>
    <g id="ytick_3">
     <g id="line2d_9">
      <g>
       <use style="stroke:#000000;stroke-width:0.8;" x="90" xlink:href="#mab8348014f" y="269.28"/>
      </g>
     </g>
     <g id="text_10">
      <!-- 1.4 -->
      <g transform="translate(67.096875 273.079219)scale(0.1 -0.1)">
       <use xlink:href="#DejaVuSans-49"/>
       <use x="63.623047" xlink:href="#DejaVuSans-46"/>
       <use x="95.410156" xlink:href="#DejaVuSans-52"/>
      </g>
     </g>
    </g>
    <g id="ytick_4">
     <g id="line2d_10">
      <g>
       <use style="stroke:#000000;stroke-width:0.8;" x="90" xlink:href="#mab8348014f" y="214.92"/>
      </g>
     </g>
     <g id="text_11">
      <!-- 1.6 -->
      <g transform="translate(67.096875 218.719219)scale(0.1 -0.1)">
       <use xlink:href="#DejaVuSans-49"/>
       <use x="63.623047" xlink:href="#DejaVuSans-46"/>
       <use x="95.410156" xlink:href="#DejaVuSans-54"/>
      </g>
     </g>
    </g>
    <g id="ytick_5">
     <g id="line2d_11">
      <g>
       <use style="stroke:#000000;stroke-width:0.8;" x="90" xlink:href="#mab8348014f" y="160.56"/>
      </g>
     </g>
     <g id="text_12">
      <!-- 1.8 -->
      <g transform="translate(67.096875 164.359219)scale(0.1 -0.1)">
       <use xlink:href="#DejaVuSans-49"/>
       <use x="63.623047" xlink:href="#DejaVuSans-46"/>
       <use x="95.410156" xlink:href="#DejaVuSans-56"/>
      </g>
     </g>
    </g>
    <g id="ytick_6">
     <g id="line2d_12">
      <g>
       <use style="stroke:#000000;stroke-width:0.8;" x="90" xlink:href="#mab8348014f" y="106.2"/>
      </g>
     </g>
     <g id="text_13">
      <!-- 2.0 -->
      <g transform="translate(67.096875 109.999219)scale(0.1 -0.1)">
       <use xlink:href="#DejaVuSans-50"/>
       <use x="63.623047" xlink:href="#DejaVuSans-46"/>
       <use x="95.410156" xlink:href="#DejaVuSans-48"/>
      </g>
     </g>
    </g>
    <g id="ytick_7">
     <g id="line2d_13">
      <g>
       <use style="stroke:#000000;stroke-width:0.8;" x="90" xlink:href="#mab8348014f" y="51.84"/>
      </g>
     </g>
     <g id="text_14">
      <!-- 2.2 -->
      <g transform="translate(67.096875 55.639219)scale(0.1 -0.1)">
       <use xlink:href="#DejaVuSans-50"/>
       <use x="63.623047" xlink:href="#DejaVuSans-46"/>
       <use x="95.410156" xlink:href="#DejaVuSans-50"/>
      </g>
     </g>
    </g>
    <g id="text_15">
     <!-- sinuosity -->
     <defs>
      <path d="M 8.5 21.578125 
L 8.5 54.6875 
L 17.484375 54.6875 
L 17.484375 21.921875 
Q 17.484375 14.15625 20.5 10.265625 
Q 23.53125 6.390625 29.59375 6.390625 
Q 36.859375 6.390625 41.078125 11.03125 
Q 45.3125 15.671875 45.3125 23.6875 
L 45.3125 54.6875 
L 54.296875 54.6875 
L 54.296875 0 
L 45.3125 0 
L 45.3125 8.40625 
Q 42.046875 3.421875 37.71875 1 
Q 33.40625 -1.421875 27.6875 -1.421875 
Q 18.265625 -1.421875 13.375 4.4375 
Q 8.5 10.296875 8.5 21.578125 
z
M 31.109375 56 
z
" id="DejaVuSans-117"/>
      <path d="M 32.171875 -5.078125 
Q 28.375 -14.84375 24.75 -17.8125 
Q 21.140625 -20.796875 15.09375 -20.796875 
L 7.90625 -20.796875 
L 7.90625 -13.28125 
L 13.1875 -13.28125 
Q 16.890625 -13.28125 18.9375 -11.515625 
Q 21 -9.765625 23.484375 -3.21875 
L 25.09375 0.875 
L 2.984375 54.6875 
L 12.5 54.6875 
L 29.59375 11.921875 
L 46.6875 54.6875 
L 56.203125 54.6875 
z
" id="DejaVuSans-121"/>
     </defs>
     <g transform="translate(60.60125 241.684687)rotate(-90)scale(0.12 -0.12)">
      <use xlink:href="#DejaVuSans-115"/>
      <use x="52.099609" xlink:href="#DejaVuSans-105"/>
      <use x="79.882812" xlink:href="#DejaVuSans-110"/>
      <use x="143.261719" xlink:href="#DejaVuSans-117"/>
      <use x="206.640625" xlink:href="#DejaVuSans-111"/>
      <use x="267.822266" xlink:href="#DejaVuSans-115"/>
      <use x="319.921875" xlink:href="#DejaVuSans-105"/>
      <use x="347.705078" xlink:href="#DejaVuSans-116"/>
      <use x="386.914062" xlink:href="#DejaVuSans-121"/>
     </g>
    </g>
   </g>
   <g id="line2d_14">
    <path clip-path="url(#pb8a31153a6)" d="M 111.204 320.209902 
L 124.038 306.155885 
L 130.176 299.149293 
L 135.198 293.079044 
L 139.662 287.316603 
L 144.126 281.165547 
L 149.148 273.849636 
L 158.634 259.913863 
L 161.982 255.423957 
L 164.772 252.023657 
L 167.562 248.999213 
L 169.794 246.874116 
L 172.026 245.014663 
L 174.258 243.40979 
L 176.49 242.035121 
L 179.28 240.584802 
L 182.628 239.118667 
L 193.788 234.485549 
L 204.39 229.603323 
L 206.622 228.954933 
L 208.296 228.674289 
L 209.97 228.612476 
L 211.644 228.805705 
L 213.318 229.286618 
L 214.992 230.082866 
L 216.666 231.215843 
L 218.34 232.699651 
L 220.014 234.540338 
L 221.688 236.735424 
L 223.362 239.273773 
L 225.594 243.157143 
L 227.826 247.546814 
L 230.616 253.607586 
L 234.522 262.779144 
L 241.218 278.66086 
L 244.008 284.743946 
L 246.798 290.259468 
L 249.03 294.186285 
L 251.262 297.64266 
L 253.494 300.613734 
L 255.168 302.524809 
L 256.842 304.171446 
L 258.516 305.564931 
L 260.19 306.719935 
L 261.864 307.653711 
L 263.538 308.385322 
L 265.77 309.081197 
L 268.002 309.502134 
L 270.234 309.695806 
L 273.024 309.686518 
L 276.372 309.41022 
L 280.836 308.779896 
L 290.88 307.254387 
L 294.786 306.905055 
L 298.134 306.804157 
L 301.482 306.921917 
L 304.83 307.279724 
L 308.178 307.885904 
L 311.526 308.73558 
L 314.874 309.811968 
L 318.78 311.318985 
L 323.244 313.30857 
L 328.824 316.074162 
L 332.172 317.822792 
L 332.172 317.822792 
" style="fill:none;stroke:#1f77b4;stroke-linecap:square;stroke-width:1.5;"/>
   </g>
   <g id="line2d_15">
    <path clip-path="url(#pb8a31153a6)" d="M 111.204 349.15384 
L 113.994 347.493561 
L 116.784 345.586889 
L 119.574 343.399874 
L 122.364 340.896478 
L 125.154 338.039544 
L 127.944 334.792228 
L 130.734 331.119907 
L 133.524 326.992562 
L 136.314 322.38755 
L 139.104 317.292576 
L 141.894 311.708645 
L 144.684 305.65264 
L 148.032 297.812347 
L 151.938 287.999187 
L 156.96 274.665024 
L 167.004 247.793536 
L 170.91 238.062907 
L 174.258 230.282523 
L 177.606 223.077029 
L 180.954 216.442921 
L 184.302 210.327234 
L 187.65 204.644166 
L 191.556 198.437151 
L 196.02 191.780502 
L 199.926 186.351751 
L 202.716 182.792626 
L 204.948 180.22008 
L 207.18 177.973183 
L 208.854 176.553927 
L 210.528 175.406138 
L 212.202 174.569663 
L 213.318 174.204217 
L 214.434 174.005334 
L 215.55 173.983175 
L 216.666 174.146948 
L 217.782 174.504707 
L 218.898 175.063164 
L 220.014 175.827515 
L 221.13 176.801289 
L 222.246 177.986217 
L 223.92 180.158614 
L 225.594 182.796302 
L 227.268 185.88005 
L 228.942 189.380406 
L 231.174 194.626429 
L 233.406 200.424629 
L 236.754 209.842775 
L 244.566 232.28064 
L 247.356 239.42412 
L 249.588 244.498398 
L 251.262 247.859413 
L 252.936 250.800983 
L 254.61 253.299077 
L 256.284 255.339453 
L 257.958 256.917507 
L 259.074 257.714603 
L 260.19 258.311576 
L 261.306 258.713484 
L 262.422 258.926814 
L 263.538 258.95934 
L 264.654 258.819961 
L 265.77 258.518537 
L 267.444 257.786035 
L 269.118 256.751392 
L 270.792 255.454792 
L 273.024 253.388897 
L 275.814 250.397068 
L 279.162 246.429419 
L 290.322 232.869157 
L 294.228 228.58749 
L 297.576 225.222132 
L 300.924 222.182252 
L 303.714 219.944859 
L 305.946 218.390052 
L 308.178 217.087798 
L 310.41 216.087656 
L 312.084 215.569755 
L 313.758 215.279388 
L 315.432 215.242913 
L 317.106 215.486278 
L 318.78 216.03393 
L 320.454 216.907671 
L 322.128 218.125532 
L 323.802 219.700714 
L 325.476 221.640682 
L 327.15 223.946434 
L 328.824 226.612023 
L 330.498 229.624354 
L 332.73 234.144357 
L 334.962 239.178257 
L 337.752 246.064099 
L 341.1 254.940199 
L 351.702 283.568211 
L 355.05 291.705213 
L 357.84 297.911768 
L 360.63 303.551812 
L 363.42 308.619762 
L 366.21 313.137201 
L 369 317.145157 
L 371.79 320.696662 
L 374.58 323.850284 
L 377.37 326.664996 
L 380.16 329.196505 
L 380.718 329.673346 
L 380.718 329.673346 
" style="fill:none;stroke:#ff7f0e;stroke-linecap:square;stroke-width:1.5;"/>
   </g>
   <g id="line2d_16">
    <path clip-path="url(#pb8a31153a6)" d="M 111.204 347.06596 
L 115.668 343.590356 
L 120.132 339.816554 
L 124.038 336.234447 
L 127.944 332.368722 
L 131.85 328.214558 
L 136.314 323.140113 
L 141.894 316.432397 
L 151.938 304.284633 
L 155.844 299.927748 
L 159.192 296.481217 
L 162.54 293.318132 
L 166.446 289.935672 
L 176.49 281.487025 
L 179.28 278.742735 
L 181.512 276.285226 
L 183.744 273.54809 
L 185.976 270.502014 
L 188.208 267.134451 
L 190.998 262.485809 
L 193.788 257.409419 
L 197.694 249.81644 
L 203.274 238.929801 
L 206.064 233.995402 
L 208.296 230.531872 
L 209.97 228.303477 
L 211.644 226.449281 
L 213.318 225.015705 
L 214.434 224.313612 
L 215.55 223.826146 
L 216.666 223.561428 
L 217.782 223.525711 
L 218.898 223.723279 
L 220.014 224.156365 
L 221.13 224.825103 
L 222.246 225.727501 
L 223.362 226.859453 
L 225.036 228.973712 
L 226.71 231.56082 
L 228.384 234.582129 
L 230.616 239.203724 
L 232.848 244.382752 
L 235.638 251.417039 
L 245.682 277.42703 
L 247.914 282.489697 
L 250.146 287.053908 
L 252.378 291.047569 
L 254.052 293.636886 
L 255.726 295.861949 
L 257.4 297.714437 
L 259.074 299.191327 
L 260.748 300.294287 
L 262.422 301.029042 
L 263.538 301.318713 
L 264.654 301.45217 
L 265.77 301.433318 
L 267.444 301.128992 
L 269.118 300.507701 
L 270.792 299.586709 
L 272.466 298.384247 
L 274.14 296.919247 
L 276.372 294.591191 
L 278.604 291.878194 
L 280.836 288.828577 
L 283.626 284.618957 
L 286.974 279.118055 
L 291.996 270.339547 
L 298.134 259.675777 
L 300.924 255.207877 
L 303.714 251.173039 
L 305.946 248.3493 
L 307.62 246.51052 
L 309.294 244.938765 
L 310.968 243.655803 
L 312.642 242.679602 
L 314.316 242.023671 
L 315.99 241.696474 
L 317.664 241.70097 
L 319.338 242.034288 
L 321.012 242.687589 
L 322.686 243.646109 
L 324.36 244.889429 
L 326.034 246.391939 
L 328.266 248.745867 
L 330.498 251.425578 
L 333.846 255.862361 
L 343.332 268.820532 
L 346.68 272.861476 
L 349.47 275.889944 
L 352.26 278.615349 
L 355.608 281.541907 
L 359.514 284.618224 
L 377.928 298.616965 
L 385.74 304.732759 
L 389.646 307.535643 
L 392.994 309.706521 
L 396.342 311.618325 
L 396.9 311.90962 
L 396.9 311.90962 
" style="fill:none;stroke:#2ca02c;stroke-linecap:square;stroke-width:1.5;"/>
   </g>
   <g id="line2d_17">
    <path clip-path="url(#pb8a31153a6)" d="M 111.204 296.997809 
L 113.436 294.856157 
L 115.668 292.452668 
L 117.9 289.751376 
L 120.132 286.717345 
L 122.364 283.318452 
L 124.596 279.527498 
L 126.828 275.324594 
L 129.06 270.699727 
L 131.85 264.33032 
L 134.64 257.344174 
L 137.988 248.260996 
L 142.452 235.339221 
L 149.706 214.221849 
L 152.496 206.733031 
L 155.286 199.902868 
L 157.518 195.013277 
L 159.75 190.687912 
L 161.982 186.946699 
L 163.656 184.519776 
L 165.33 182.402767 
L 167.004 180.573447 
L 168.678 179.002678 
L 170.91 177.250121 
L 173.142 175.803667 
L 175.932 174.280754 
L 187.092 168.572324 
L 194.346 164.515064 
L 196.578 163.531544 
L 198.252 162.97894 
L 199.926 162.632807 
L 201.6 162.534715 
L 203.274 162.722972 
L 204.948 163.231015 
L 206.622 164.085988 
L 208.296 165.307586 
L 209.97 166.907184 
L 211.644 168.887303 
L 213.318 171.241407 
L 214.992 173.954052 
L 217.224 178.086246 
L 219.456 182.735178 
L 222.246 189.123829 
L 226.152 198.747883 
L 232.848 215.396328 
L 236.196 223.035699 
L 238.986 228.777905 
L 241.218 232.883385 
L 243.45 236.513304 
L 245.682 239.643892 
L 247.356 241.656313 
L 249.03 243.378833 
L 250.704 244.811839 
L 252.378 245.957451 
L 254.052 246.819103 
L 255.726 247.401234 
L 257.4 247.709095 
L 259.074 247.748668 
L 260.748 247.526693 
L 262.422 247.05079 
L 264.096 246.329634 
L 265.77 245.373179 
L 267.444 244.192885 
L 269.676 242.294011 
L 271.908 240.057349 
L 274.14 237.525728 
L 276.93 234.021797 
L 280.836 228.680187 
L 289.764 216.257513 
L 292.554 212.809487 
L 294.786 210.341571 
L 297.018 208.188552 
L 299.25 206.395954 
L 300.924 205.31122 
L 302.598 204.463719 
L 304.272 203.863423 
L 305.946 203.517085 
L 307.62 203.428003 
L 309.294 203.595803 
L 310.968 204.01627 
L 312.642 204.681241 
L 314.316 205.578584 
L 315.99 206.692283 
L 318.222 208.479248 
L 320.454 210.559759 
L 323.244 213.474896 
L 327.708 218.540151 
L 332.73 224.212517 
L 336.078 227.653133 
L 338.868 230.18919 
L 341.658 232.375209 
L 343.89 233.86125 
L 346.122 235.117862 
L 348.354 236.157729 
L 351.144 237.181024 
L 353.934 237.936284 
L 356.724 238.465476 
L 360.072 238.853321 
L 363.42 239.015873 
L 367.326 238.959475 
L 371.232 238.659314 
L 375.138 238.123917 
L 379.044 237.355823 
L 382.95 236.352658 
L 386.856 235.102357 
L 390.204 233.814706 
L 393.552 232.304213 
L 396.9 230.550301 
L 400.248 228.546113 
L 404.154 225.920895 
L 410.292 221.433331 
L 414.756 218.275751 
L 417.546 216.543892 
L 419.778 215.373233 
L 422.01 214.444056 
L 424.242 213.796064 
L 425.916 213.513634 
L 427.59 213.416486 
L 429.264 213.510766 
L 430.938 213.799302 
L 432.612 214.281729 
L 434.286 214.954717 
L 436.518 216.137775 
L 438.75 217.628375 
L 440.982 219.40071 
L 443.214 221.42524 
L 446.004 224.262307 
L 449.352 228.033404 
L 453.258 232.807663 
L 454.932 234.942212 
L 454.932 234.942212 
" style="fill:none;stroke:#d62728;stroke-linecap:square;stroke-width:1.5;"/>
   </g>
   <g id="line2d_18">
    <path clip-path="url(#pb8a31153a6)" d="M 111.204 354.64291 
L 115.11 350.229537 
L 119.016 345.499321 
L 123.48 339.750491 
L 129.06 332.183726 
L 152.496 299.57337 
L 156.402 293.716385 
L 159.75 288.299279 
L 163.098 282.420101 
L 166.446 276.045906 
L 170.352 268.052267 
L 181.512 244.64562 
L 183.744 240.570408 
L 185.976 236.936557 
L 187.65 234.55597 
L 189.324 232.507506 
L 190.998 230.817289 
L 192.672 229.50415 
L 194.346 228.578955 
L 195.462 228.179268 
L 196.578 227.951939 
L 197.694 227.893968 
L 198.81 228.000751 
L 199.926 228.266154 
L 201.6 228.944773 
L 203.274 229.932072 
L 204.948 231.191639 
L 207.18 233.223864 
L 209.412 235.563815 
L 212.76 239.417888 
L 218.898 246.558746 
L 221.688 249.482464 
L 224.478 252.071612 
L 226.71 253.876042 
L 228.942 255.442981 
L 231.732 257.092824 
L 234.522 258.453094 
L 237.87 259.809387 
L 244.566 262.164083 
L 249.03 263.862556 
L 252.936 265.602623 
L 256.842 267.613808 
L 261.306 270.193093 
L 276.372 279.192751 
L 280.278 281.140009 
L 284.184 282.83114 
L 288.09 284.255544 
L 291.438 285.252063 
L 294.786 286.012327 
L 297.576 286.426768 
L 300.366 286.592118 
L 302.598 286.504858 
L 304.83 286.184706 
L 307.062 285.595292 
L 308.736 284.95531 
L 310.41 284.130692 
L 312.084 283.110087 
L 313.758 281.884812 
L 315.99 279.923858 
L 318.222 277.587289 
L 320.454 274.885492 
L 322.686 271.842098 
L 325.476 267.613837 
L 328.824 262.046033 
L 333.288 254.116195 
L 340.542 241.196624 
L 344.448 234.754902 
L 347.796 229.687245 
L 351.144 225.066111 
L 354.492 220.856488 
L 358.398 216.349876 
L 370.674 202.642497 
L 373.464 199.076297 
L 376.254 195.175238 
L 379.044 190.891961 
L 381.834 186.208088 
L 385.182 180.085608 
L 389.088 172.393961 
L 398.574 153.398052 
L 401.364 148.459266 
L 403.596 144.935903 
L 405.828 141.866505 
L 407.502 139.891434 
L 409.176 138.209632 
L 410.85 136.824051 
L 412.524 135.729364 
L 414.198 134.912134 
L 415.872 134.351308 
L 417.546 134.019014 
L 419.22 133.881588 
L 421.452 133.934895 
L 424.8 134.318259 
L 429.264 134.854822 
L 431.496 134.914517 
L 433.728 134.721711 
L 435.402 134.369122 
L 437.076 133.811182 
L 438.75 133.028709 
L 440.424 132.0075 
L 442.098 130.738486 
L 443.772 129.217917 
L 445.446 127.447601 
L 447.678 124.712838 
L 449.91 121.584047 
L 452.7 117.207975 
L 456.606 110.519581 
L 461.07 102.844006 
L 463.302 99.364953 
L 464.976 97.060107 
L 466.65 95.1054 
L 468.324 93.581286 
L 469.44 92.843193 
L 470.556 92.353401 
L 471.672 92.132737 
L 472.788 92.200448 
L 473.904 92.573896 
L 475.02 93.268266 
L 476.136 94.296321 
L 477.252 95.668173 
L 478.368 97.391102 
L 479.484 99.469428 
L 480.6 101.904417 
L 482.274 106.220819 
L 483.948 111.315869 
L 485.622 117.155654 
L 487.296 123.692524 
L 489.528 133.387897 
L 491.76 144.046483 
L 494.55 158.432125 
L 498.456 179.842209 
L 507.384 229.224129 
L 510.732 246.385896 
L 513.522 259.731571 
L 516.312 272.098448 
L 519.102 283.436038 
L 521.892 293.734662 
L 522.45 295.671184 
L 522.45 295.671184 
" style="fill:none;stroke:#9467bd;stroke-linecap:square;stroke-width:1.5;"/>
   </g>
   <g id="line2d_19">
    <path clip-path="url(#pb8a31153a6)" d="M 111.204 346.416066 
L 115.668 340.048133 
L 120.132 333.295109 
L 125.712 324.425604 
L 132.408 313.351364 
L 139.662 300.949777 
L 144.684 291.992193 
L 149.148 283.565534 
L 153.054 275.669651 
L 156.402 268.43007 
L 160.308 259.415564 
L 164.772 248.50893 
L 172.026 230.640587 
L 174.816 224.324783 
L 177.048 219.750619 
L 179.28 215.745215 
L 180.954 213.191779 
L 182.628 211.080674 
L 183.744 209.941501 
L 184.86 209.030823 
L 185.976 208.358899 
L 187.092 207.934329 
L 188.208 207.763903 
L 189.324 207.852481 
L 190.44 208.202889 
L 191.556 208.815849 
L 192.672 209.689935 
L 193.788 210.821551 
L 194.904 212.204952 
L 196.578 214.734409 
L 198.252 217.777241 
L 199.926 221.288997 
L 202.158 226.608496 
L 204.39 232.523265 
L 207.738 242.161449 
L 216.666 268.460508 
L 219.456 275.798119 
L 221.688 281.120294 
L 223.92 285.891717 
L 226.152 290.081587 
L 228.384 293.683559 
L 230.058 296.007539 
L 231.732 298.021755 
L 233.406 299.743421 
L 235.08 301.192907 
L 236.754 302.392557 
L 238.428 303.365519 
L 240.102 304.134651 
L 242.334 304.880098 
L 244.566 305.346199 
L 246.798 305.568294 
L 249.03 305.570256 
L 251.262 305.363571 
L 253.494 304.947405 
L 255.726 304.309581 
L 257.958 303.428379 
L 260.19 302.275044 
L 262.422 300.816851 
L 264.654 299.02057 
L 266.886 296.856149 
L 269.118 294.300422 
L 271.35 291.340613 
L 273.582 287.97741 
L 275.814 284.227371 
L 278.604 279.049236 
L 281.952 272.260389 
L 287.532 260.25347 
L 291.438 252.032754 
L 294.228 246.604646 
L 296.46 242.66577 
L 298.692 239.165259 
L 300.924 236.155892 
L 302.598 234.240405 
L 304.272 232.623086 
L 305.946 231.300898 
L 307.62 230.263911 
L 309.294 229.495973 
L 310.968 228.975601 
L 312.642 228.677056 
L 314.316 228.571529 
L 316.548 228.677991 
L 319.338 229.104595 
L 323.244 230.007684 
L 329.94 231.611906 
L 333.288 232.195764 
L 336.636 232.556912 
L 339.984 232.671626 
L 342.774 232.566125 
L 345.564 232.262556 
L 348.354 231.738936 
L 351.144 230.965242 
L 353.376 230.141912 
L 355.608 229.115062 
L 357.84 227.864531 
L 360.072 226.371665 
L 362.304 224.620682 
L 364.536 222.599911 
L 366.768 220.302867 
L 369 217.729189 
L 371.79 214.13384 
L 374.58 210.147154 
L 377.928 204.920037 
L 381.834 198.382538 
L 390.204 184.217179 
L 392.994 179.97532 
L 395.226 176.936072 
L 397.458 174.292014 
L 399.132 172.606332 
L 400.806 171.198829 
L 402.48 170.08395 
L 404.154 169.269245 
L 405.828 168.754793 
L 407.502 168.53291 
L 409.176 168.588161 
L 410.85 168.897698 
L 412.524 169.431914 
L 414.756 170.431771 
L 417.546 172.006488 
L 424.8 176.374086 
L 427.032 177.407433 
L 428.706 177.994932 
L 430.38 178.392442 
L 432.054 178.579203 
L 433.728 178.539422 
L 435.402 178.261869 
L 437.076 177.739336 
L 438.75 176.968015 
L 440.424 175.946887 
L 442.098 174.677197 
L 443.772 173.162076 
L 445.446 171.406381 
L 447.678 168.703028 
L 449.91 165.606005 
L 452.142 162.14666 
L 454.932 157.382075 
L 458.28 151.190264 
L 464.976 138.613527 
L 467.208 134.899124 
L 468.882 132.455359 
L 470.556 130.396331 
L 471.672 129.278335 
L 472.788 128.392191 
L 473.904 127.761059 
L 475.02 127.406856 
L 476.136 127.349884 
L 477.252 127.608466 
L 478.368 128.198607 
L 479.484 129.133673 
L 480.6 130.424122 
L 481.716 132.077265 
L 482.832 134.097085 
L 483.948 136.484107 
L 485.622 140.745607 
L 487.296 145.800712 
L 488.97 151.607053 
L 490.644 158.106064 
L 492.876 167.720929 
L 495.666 180.97105 
L 499.014 198.068643 
L 507.384 241.35572 
L 510.174 254.517276 
L 512.964 266.533449 
L 515.196 275.197121 
L 517.428 282.955107 
L 519.66 289.782356 
L 521.334 294.29162 
L 523.008 298.285703 
L 524.682 301.778533 
L 526.356 304.788513 
L 528.03 307.337498 
L 529.704 309.44985 
L 531.378 311.151613 
L 533.052 312.469782 
L 534.726 313.431695 
L 535.284 313.677875 
L 535.284 313.677875 
" style="fill:none;stroke:#8c564b;stroke-linecap:square;stroke-width:1.5;"/>
   </g>
   <g id="line2d_20">
    <path clip-path="url(#pb8a31153a6)" d="M 111.204 349.456689 
L 114.552 344.100452 
L 117.9 338.276993 
L 121.248 331.986785 
L 124.596 325.24566 
L 128.502 316.855907 
L 132.966 306.677944 
L 138.546 293.320794 
L 153.612 256.827672 
L 157.518 248.055097 
L 160.866 241.037924 
L 163.656 235.657953 
L 166.446 230.809194 
L 168.678 227.386206 
L 170.91 224.432304 
L 172.584 222.560279 
L 174.258 221.009389 
L 175.932 219.802089 
L 177.606 218.958475 
L 178.722 218.606643 
L 179.838 218.428165 
L 180.954 218.426277 
L 182.07 218.603266 
L 183.186 218.9604 
L 184.302 219.497861 
L 185.418 220.214691 
L 187.092 221.621265 
L 188.766 223.414097 
L 190.44 225.574884 
L 192.114 228.07945 
L 194.346 231.901627 
L 196.578 236.197984 
L 199.368 242.088153 
L 203.274 250.935153 
L 210.528 267.456607 
L 213.876 274.444395 
L 216.666 279.75904 
L 219.456 284.559885 
L 222.246 288.845474 
L 225.036 292.651844 
L 227.826 296.041646 
L 230.616 299.090766 
L 233.964 302.404595 
L 237.87 305.916656 
L 241.776 309.102036 
L 245.124 311.523185 
L 247.914 313.235067 
L 250.146 314.333757 
L 251.82 314.960555 
L 253.494 315.388106 
L 255.168 315.588693 
L 256.842 315.535076 
L 258.516 315.201412 
L 260.19 314.564144 
L 261.864 313.602837 
L 263.538 312.300956 
L 265.212 310.646562 
L 266.886 308.632899 
L 268.56 306.258875 
L 270.234 303.529417 
L 272.466 299.357415 
L 274.698 294.617813 
L 276.93 289.373523 
L 279.72 282.232611 
L 283.626 271.48992 
L 291.996 248.176284 
L 294.786 241.100361 
L 297.576 234.67381 
L 299.808 230.083918 
L 302.04 226.029856 
L 304.272 222.533202 
L 305.946 220.279091 
L 307.62 218.335904 
L 309.294 216.694338 
L 310.968 215.341289 
L 312.642 214.260631 
L 314.316 213.433992 
L 315.99 212.841505 
L 317.664 212.462493 
L 319.338 212.276065 
L 321.57 212.291523 
L 323.802 212.565844 
L 326.034 213.055145 
L 328.824 213.907917 
L 332.172 215.191842 
L 336.636 217.168033 
L 345.006 220.936955 
L 348.354 222.201219 
L 351.144 223.040089 
L 353.934 223.618765 
L 356.166 223.85139 
L 358.398 223.842639 
L 360.63 223.558308 
L 362.304 223.143988 
L 363.978 222.542342 
L 365.652 221.741074 
L 367.326 220.729544 
L 369 219.499359 
L 370.674 218.045016 
L 372.906 215.754393 
L 375.138 213.069374 
L 377.37 210.012484 
L 380.16 205.730247 
L 383.508 200.073002 
L 393.552 182.625238 
L 395.784 179.303981 
L 398.016 176.386056 
L 399.69 174.502086 
L 401.364 172.900962 
L 403.038 171.594 
L 404.712 170.584586 
L 406.386 169.868384 
L 408.06 169.433928 
L 409.734 169.263557 
L 411.408 169.334655 
L 413.082 169.62112 
L 415.314 170.289688 
L 417.546 171.225326 
L 420.336 172.680295 
L 423.684 174.732196 
L 427.032 177.052986 
L 430.38 179.669114 
L 433.17 182.156301 
L 435.402 184.418243 
L 437.634 186.985754 
L 439.866 189.917942 
L 442.098 193.268531 
L 444.33 197.081079 
L 446.562 201.385217 
L 448.794 206.194146 
L 451.026 211.503443 
L 453.816 218.808661 
L 456.606 226.781883 
L 459.954 237.072494 
L 464.418 251.620729 
L 474.462 284.692703 
L 477.81 294.908467 
L 480.6 302.848189 
L 483.39 310.167749 
L 486.18 316.797682 
L 488.412 321.573479 
L 490.644 325.865947 
L 492.876 329.673115 
L 495.108 333.003103 
L 497.34 335.87375 
L 499.572 338.311937 
L 501.804 340.352595 
L 504.036 342.037387 
L 506.268 343.413118 
L 508.5 344.529921 
L 511.29 345.640255 
L 514.638 346.683439 
L 520.218 348.112607 
L 525.798 349.606286 
L 530.262 351.037541 
L 534.726 352.700649 
L 541.422 355.4667 
L 548.676 358.413398 
L 553.14 359.988922 
L 557.046 361.134143 
L 560.952 362.022879 
L 564.3 362.565446 
L 567.648 362.901557 
L 570.996 363.03421 
L 574.902 362.943154 
L 578.808 362.606821 
L 582.714 362.05068 
L 587.178 361.182676 
L 592.2 359.962923 
L 594.432 359.353625 
L 594.432 359.353625 
" style="fill:none;stroke:#e377c2;stroke-linecap:square;stroke-width:1.5;"/>
   </g>
   <g id="patch_3">
    <path d="M 90 378 
L 90 51.84 
" style="fill:none;stroke:#000000;stroke-linecap:square;stroke-linejoin:miter;stroke-width:0.8;"/>
   </g>
   <g id="patch_4">
    <path d="M 648 378 
L 648 51.84 
" style="fill:none;stroke:#000000;stroke-linecap:square;stroke-linejoin:miter;stroke-width:0.8;"/>
   </g>
   <g id="patch_5">
    <path d="M 90 378 
L 648 378 
" style="fill:none;stroke:#000000;stroke-linecap:square;stroke-linejoin:miter;stroke-width:0.8;"/>
   </g>
   <g id="patch_6">
    <path d="M 90 51.84 
L 648 51.84 
" style="fill:none;stroke:#000000;stroke-linecap:square;stroke-linejoin:miter;stroke-width:0.8;"/>
   </g>
   <g id="text_16">
    <!-- Windowed sinuosity along channel CM6, window length = 50m -->
    <defs>
     <path d="M 3.328125 72.90625 
L 13.28125 72.90625 
L 28.609375 11.28125 
L 43.890625 72.90625 
L 54.984375 72.90625 
L 70.3125 11.28125 
L 85.59375 72.90625 
L 95.609375 72.90625 
L 77.296875 0 
L 64.890625 0 
L 49.515625 63.28125 
L 33.984375 0 
L 21.578125 0 
z
" id="DejaVuSans-87"/>
     <path d="M 4.203125 54.6875 
L 13.1875 54.6875 
L 24.421875 12.015625 
L 35.59375 54.6875 
L 46.1875 54.6875 
L 57.421875 12.015625 
L 68.609375 54.6875 
L 77.59375 54.6875 
L 63.28125 0 
L 52.6875 0 
L 40.921875 44.828125 
L 29.109375 0 
L 18.5 0 
z
" id="DejaVuSans-119"/>
     <path d="M 64.40625 67.28125 
L 64.40625 56.890625 
Q 59.421875 61.53125 53.78125 63.8125 
Q 48.140625 66.109375 41.796875 66.109375 
Q 29.296875 66.109375 22.65625 58.46875 
Q 16.015625 50.828125 16.015625 36.375 
Q 16.015625 21.96875 22.65625 14.328125 
Q 29.296875 6.6875 41.796875 6.6875 
Q 48.140625 6.6875 53.78125 8.984375 
Q 59.421875 11.28125 64.40625 15.921875 
L 64.40625 5.609375 
Q 59.234375 2.09375 53.4375 0.328125 
Q 47.65625 -1.421875 41.21875 -1.421875 
Q 24.65625 -1.421875 15.125 8.703125 
Q 5.609375 18.84375 5.609375 36.375 
Q 5.609375 53.953125 15.125 64.078125 
Q 24.65625 74.21875 41.21875 74.21875 
Q 47.75 74.21875 53.53125 72.484375 
Q 59.328125 70.75 64.40625 67.28125 
z
" id="DejaVuSans-67"/>
     <path d="M 9.8125 72.90625 
L 24.515625 72.90625 
L 43.109375 23.296875 
L 61.8125 72.90625 
L 76.515625 72.90625 
L 76.515625 0 
L 66.890625 0 
L 66.890625 64.015625 
L 48.09375 14.015625 
L 38.1875 14.015625 
L 19.390625 64.015625 
L 19.390625 0 
L 9.8125 0 
z
" id="DejaVuSans-77"/>
     <path d="M 11.71875 12.40625 
L 22.015625 12.40625 
L 22.015625 4 
L 14.015625 -11.625 
L 7.71875 -11.625 
L 11.71875 4 
z
" id="DejaVuSans-44"/>
     <path d="M 10.59375 45.40625 
L 73.1875 45.40625 
L 73.1875 37.203125 
L 10.59375 37.203125 
z
M 10.59375 25.484375 
L 73.1875 25.484375 
L 73.1875 17.1875 
L 10.59375 17.1875 
z
" id="DejaVuSans-61"/>
     <path d="M 10.796875 72.90625 
L 49.515625 72.90625 
L 49.515625 64.59375 
L 19.828125 64.59375 
L 19.828125 46.734375 
Q 21.96875 47.46875 24.109375 47.828125 
Q 26.265625 48.1875 28.421875 48.1875 
Q 40.625 48.1875 47.75 41.5 
Q 54.890625 34.8125 54.890625 23.390625 
Q 54.890625 11.625 47.5625 5.09375 
Q 40.234375 -1.421875 26.90625 -1.421875 
Q 22.3125 -1.421875 17.546875 -0.640625 
Q 12.796875 0.140625 7.71875 1.703125 
L 7.71875 11.625 
Q 12.109375 9.234375 16.796875 8.0625 
Q 21.484375 6.890625 26.703125 6.890625 
Q 35.15625 6.890625 40.078125 11.328125 
Q 45.015625 15.765625 45.015625 23.390625 
Q 45.015625 31 40.078125 35.4375 
Q 35.15625 39.890625 26.703125 39.890625 
Q 22.75 39.890625 18.8125 39.015625 
Q 14.890625 38.140625 10.796875 36.28125 
z
" id="DejaVuSans-53"/>
    </defs>
    <g transform="translate(148.309687 45.84)scale(0.14 -0.14)">
     <use xlink:href="#DejaVuSans-87"/>
     <use x="98.845703" xlink:href="#DejaVuSans-105"/>
     <use x="126.628906" xlink:href="#DejaVuSans-110"/>
     <use x="190.007812" xlink:href="#DejaVuSans-100"/>
     <use x="253.484375" xlink:href="#DejaVuSans-111"/>
     <use x="314.666016" xlink:href="#DejaVuSans-119"/>
     <use x="396.453125" xlink:href="#DejaVuSans-101"/>
     <use x="457.976562" xlink:href="#DejaVuSans-100"/>
     <use x="521.453125" xlink:href="#DejaVuSans-32"/>
     <use x="553.240234" xlink:href="#DejaVuSans-115"/>
     <use x="605.339844" xlink:href="#DejaVuSans-105"/>
     <use x="633.123047" xlink:href="#DejaVuSans-110"/>
     <use x="696.501953" xlink:href="#DejaVuSans-117"/>
     <use x="759.880859" xlink:href="#DejaVuSans-111"/>
     <use x="821.0625" xlink:href="#DejaVuSans-115"/>
     <use x="873.162109" xlink:href="#DejaVuSans-105"/>
     <use x="900.945312" xlink:href="#DejaVuSans-116"/>
     <use x="940.154297" xlink:href="#DejaVuSans-121"/>
     <use x="999.333984" xlink:href="#DejaVuSans-32"/>
     <use x="1031.121094" xlink:href="#DejaVuSans-97"/>
     <use x="1092.400391" xlink:href="#DejaVuSans-108"/>
     <use x="1120.183594" xlink:href="#DejaVuSans-111"/>
     <use x="1181.365234" xlink:href="#DejaVuSans-110"/>
     <use x="1244.744141" xlink:href="#DejaVuSans-103"/>
     <use x="1308.220703" xlink:href="#DejaVuSans-32"/>
     <use x="1340.007812" xlink:href="#DejaVuSans-99"/>
     <use x="1394.988281" xlink:href="#DejaVuSans-104"/>
     <use x="1458.367188" xlink:href="#DejaVuSans-97"/>
     <use x="1519.646484" xlink:href="#DejaVuSans-110"/>
     <use x="1583.025391" xlink:href="#DejaVuSans-110"/>
     <use x="1646.404297" xlink:href="#DejaVuSans-101"/>
     <use x="1707.927734" xlink:href="#DejaVuSans-108"/>
     <use x="1735.710938" xlink:href="#DejaVuSans-32"/>
     <use x="1767.498047" xlink:href="#DejaVuSans-67"/>
     <use x="1837.322266" xlink:href="#DejaVuSans-77"/>
     <use x="1923.601562" xlink:href="#DejaVuSans-54"/>
     <use x="1987.224609" xlink:href="#DejaVuSans-44"/>
     <use x="2019.011719" xlink:href="#DejaVuSans-32"/>
     <use x="2050.798828" xlink:href="#DejaVuSans-119"/>
     <use x="2132.585938" xlink:href="#DejaVuSans-105"/>
     <use x="2160.369141" xlink:href="#DejaVuSans-110"/>
     <use x="2223.748047" xlink:href="#DejaVuSans-100"/>
     <use x="2287.224609" xlink:href="#DejaVuSans-111"/>
     <use x="2348.40625" xlink:href="#DejaVuSans-119"/>
     <use x="2430.193359" xlink:href="#DejaVuSans-32"/>
     <use x="2461.980469" xlink:href="#DejaVuSans-108"/>
     <use x="2489.763672" xlink:href="#DejaVuSans-101"/>
     <use x="2551.287109" xlink:href="#DejaVuSans-110"/>
     <use x="2614.666016" xlink:href="#DejaVuSans-103"/>
     <use x="2678.142578" xlink:href="#DejaVuSans-116"/>
     <use x="2717.351562" xlink:href="#DejaVuSans-104"/>
     <use x="2780.730469" xlink:href="#DejaVuSans-32"/>
     <use x="2812.517578" xlink:href="#DejaVuSans-61"/>
     <use x="2896.306641" xlink:href="#DejaVuSans-32"/>
     <use x="2928.09375" xlink:href="#DejaVuSans-53"/>
     <use x="2991.716797" xlink:href="#DejaVuSans-48"/>
     <use x="3055.339844" xlink:href="#DejaVuSans-109"/>
    </g>
   </g>
   <g id="legend_1">
    <g id="patch_7">
     <path d="M 577.46 165.996 
L 634.91 165.996 
Q 636.91 165.996 636.91 163.996 
L 636.91 62.249125 
Q 636.91 60.249125 634.91 60.249125 
L 577.46 60.249125 
Q 575.46 60.249125 575.46 62.249125 
L 575.46 163.996 
Q 575.46 165.996 577.46 165.996 
z
" style="fill:#ffffff;opacity:0.8;stroke:#cccccc;stroke-linejoin:miter;"/>
    </g>
    <g id="line2d_21">
     <path d="M 579.46 68.347562 
L 599.46 68.347562 
" style="fill:none;stroke:#1f77b4;stroke-linecap:square;stroke-width:1.5;"/>
    </g>
    <g id="line2d_22"/>
    <g id="text_17">
     <!-- 2000 -->
     <g transform="translate(607.46 71.847562)scale(0.1 -0.1)">
      <use xlink:href="#DejaVuSans-50"/>
      <use x="63.623047" xlink:href="#DejaVuSans-48"/>
      <use x="127.246094" xlink:href="#DejaVuSans-48"/>
      <use x="190.869141" xlink:href="#DejaVuSans-48"/>
     </g>
    </g>
    <g id="line2d_23">
     <path d="M 579.46 83.025688 
L 599.46 83.025688 
" style="fill:none;stroke:#ff7f0e;stroke-linecap:square;stroke-width:1.5;"/>
    </g>
    <g id="line2d_24"/>
    <g id="text_18">
     <!-- 2004 -->
     <g transform="translate(607.46 86.525688)scale(0.1 -0.1)">
      <use xlink:href="#DejaVuSans-50"/>
      <use x="63.623047" xlink:href="#DejaVuSans-48"/>
      <use x="127.246094" xlink:href="#DejaVuSans-48"/>
      <use x="190.869141" xlink:href="#DejaVuSans-52"/>
     </g>
    </g>
    <g id="line2d_25">
     <path d="M 579.46 97.703812 
L 599.46 97.703812 
" style="fill:none;stroke:#2ca02c;stroke-linecap:square;stroke-width:1.5;"/>
    </g>
    <g id="line2d_26"/>
    <g id="text_19">
     <!-- 2006 -->
     <g transform="translate(607.46 101.203812)scale(0.1 -0.1)">
      <use xlink:href="#DejaVuSans-50"/>
      <use x="63.623047" xlink:href="#DejaVuSans-48"/>
      <use x="127.246094" xlink:href="#DejaVuSans-48"/>
      <use x="190.869141" xlink:href="#DejaVuSans-54"/>
     </g>
    </g>
    <g id="line2d_27">
     <path d="M 579.46 112.381937 
L 599.46 112.381937 
" style="fill:none;stroke:#d62728;stroke-linecap:square;stroke-width:1.5;"/>
    </g>
    <g id="line2d_28"/>
    <g id="text_20">
     <!-- 2009 -->
     <defs>
      <path d="M 10.984375 1.515625 
L 10.984375 10.5 
Q 14.703125 8.734375 18.5 7.8125 
Q 22.3125 6.890625 25.984375 6.890625 
Q 35.75 6.890625 40.890625 13.453125 
Q 46.046875 20.015625 46.78125 33.40625 
Q 43.953125 29.203125 39.59375 26.953125 
Q 35.25 24.703125 29.984375 24.703125 
Q 19.046875 24.703125 12.671875 31.3125 
Q 6.296875 37.9375 6.296875 49.421875 
Q 6.296875 60.640625 12.9375 67.421875 
Q 19.578125 74.21875 30.609375 74.21875 
Q 43.265625 74.21875 49.921875 64.515625 
Q 56.59375 54.828125 56.59375 36.375 
Q 56.59375 19.140625 48.40625 8.859375 
Q 40.234375 -1.421875 26.421875 -1.421875 
Q 22.703125 -1.421875 18.890625 -0.6875 
Q 15.09375 0.046875 10.984375 1.515625 
z
M 30.609375 32.421875 
Q 37.25 32.421875 41.125 36.953125 
Q 45.015625 41.5 45.015625 49.421875 
Q 45.015625 57.28125 41.125 61.84375 
Q 37.25 66.40625 30.609375 66.40625 
Q 23.96875 66.40625 20.09375 61.84375 
Q 16.21875 57.28125 16.21875 49.421875 
Q 16.21875 41.5 20.09375 36.953125 
Q 23.96875 32.421875 30.609375 32.421875 
z
" id="DejaVuSans-57"/>
     </defs>
     <g transform="translate(607.46 115.881937)scale(0.1 -0.1)">
      <use xlink:href="#DejaVuSans-50"/>
      <use x="63.623047" xlink:href="#DejaVuSans-48"/>
      <use x="127.246094" xlink:href="#DejaVuSans-48"/>
      <use x="190.869141" xlink:href="#DejaVuSans-57"/>
     </g>
    </g>
    <g id="line2d_29">
     <path d="M 579.46 127.060062 
L 599.46 127.060062 
" style="fill:none;stroke:#9467bd;stroke-linecap:square;stroke-width:1.5;"/>
    </g>
    <g id="line2d_30"/>
    <g id="text_21">
     <!-- 2012 -->
     <g transform="translate(607.46 130.560062)scale(0.1 -0.1)">
      <use xlink:href="#DejaVuSans-50"/>
      <use x="63.623047" xlink:href="#DejaVuSans-48"/>
      <use x="127.246094" xlink:href="#DejaVuSans-49"/>
      <use x="190.869141" xlink:href="#DejaVuSans-50"/>
     </g>
    </g>
    <g id="line2d_31">
     <path d="M 579.46 141.738187 
L 599.46 141.738187 
" style="fill:none;stroke:#8c564b;stroke-linecap:square;stroke-width:1.5;"/>
    </g>
    <g id="line2d_32"/>
    <g id="text_22">
     <!-- 2014 -->
     <g transform="translate(607.46 145.238187)scale(0.1 -0.1)">
      <use xlink:href="#DejaVuSans-50"/>
      <use x="63.623047" xlink:href="#DejaVuSans-48"/>
      <use x="127.246094" xlink:href="#DejaVuSans-49"/>
      <use x="190.869141" xlink:href="#DejaVuSans-52"/>
     </g>
    </g>
    <g id="line2d_33">
     <path d="M 579.46 156.416313 
L 599.46 156.416313 
" style="fill:none;stroke:#e377c2;stroke-linecap:square;stroke-width:1.5;"/>
    </g>
    <g id="line2d_34"/>
    <g id="text_23">
     <!-- 2017 -->
     <defs>
      <path d="M 8.203125 72.90625 
L 55.078125 72.90625 
L 55.078125 68.703125 
L 28.609375 0 
L 18.3125 0 
L 43.21875 64.59375 
L 8.203125 64.59375 
z
" id="DejaVuSans-55"/>
     </defs>
     <g transform="translate(607.46 159.916313)scale(0.1 -0.1)">
      <use xlink:href="#DejaVuSans-50"/>
      <use x="63.623047" xlink:href="#DejaVuSans-48"/>
      <use x="127.246094" xlink:href="#DejaVuSans-49"/>
      <use x="190.869141" xlink:href="#DejaVuSans-55"/>
     </g>
    </g>
   </g>
  </g>
  <g id="axes_2">
   <g id="matplotlib.axis_3">
    <g id="ytick_8">
     <g id="line2d_35">
      <defs>
       <path d="M 0 0 
L 3.5 0 
" id="mab739debb9" style="stroke:#000000;stroke-width:0.8;"/>
      </defs>
      <g>
       <use style="stroke:#000000;stroke-width:0.8;" x="648" xlink:href="#mab739debb9" y="378"/>
      </g>
     </g>
     <g id="text_24">
      <!-- 430 -->
      <defs>
       <path d="M 10.59375 35.5 
L 73.1875 35.5 
L 73.1875 27.203125 
L 10.59375 27.203125 
z
" id="DejaVuSans-8722"/>
       <path d="M 40.578125 39.3125 
Q 47.65625 37.796875 51.625 33 
Q 55.609375 28.21875 55.609375 21.1875 
Q 55.609375 10.40625 48.1875 4.484375 
Q 40.765625 -1.421875 27.09375 -1.421875 
Q 22.515625 -1.421875 17.65625 -0.515625 
Q 12.796875 0.390625 7.625 2.203125 
L 7.625 11.71875 
Q 11.71875 9.328125 16.59375 8.109375 
Q 21.484375 6.890625 26.8125 6.890625 
Q 36.078125 6.890625 40.9375 10.546875 
Q 45.796875 14.203125 45.796875 21.1875 
Q 45.796875 27.640625 41.28125 31.265625 
Q 36.765625 34.90625 28.71875 34.90625 
L 20.21875 34.90625 
L 20.21875 43.015625 
L 29.109375 43.015625 
Q 36.375 43.015625 40.234375 45.921875 
Q 44.09375 48.828125 44.09375 54.296875 
Q 44.09375 59.90625 40.109375 62.90625 
Q 36.140625 65.921875 28.71875 65.921875 
Q 24.65625 65.921875 20.015625 65.03125 
Q 15.375 64.15625 9.8125 62.3125 
L 9.8125 71.09375 
Q 15.4375 72.65625 20.34375 73.4375 
Q 25.25 74.21875 29.59375 74.21875 
Q 40.828125 74.21875 47.359375 69.109375 
Q 53.90625 64.015625 53.90625 55.328125 
Q 53.90625 49.265625 50.4375 45.09375 
Q 46.96875 40.921875 40.578125 39.3125 
z
" id="DejaVuSans-51"/>
      </defs>
      <g transform="translate(655 381.799219)scale(0.1 -0.1)">
       <use xlink:href="#DejaVuSans-8722"/>
       <use x="83.789062" xlink:href="#DejaVuSans-52"/>
       <use x="147.412109" xlink:href="#DejaVuSans-51"/>
       <use x="211.035156" xlink:href="#DejaVuSans-48"/>
      </g>
     </g>
    </g>
    <g id="ytick_9">
     <g id="line2d_36">
      <g>
       <use style="stroke:#000000;stroke-width:0.8;" x="648" xlink:href="#mab739debb9" y="312.768"/>
      </g>
     </g>
     <g id="text_25">
      <!-- 425 -->
      <g transform="translate(655 316.567219)scale(0.1 -0.1)">
       <use xlink:href="#DejaVuSans-8722"/>
       <use x="83.789062" xlink:href="#DejaVuSans-52"/>
       <use x="147.412109" xlink:href="#DejaVuSans-50"/>
       <use x="211.035156" xlink:href="#DejaVuSans-53"/>
      </g>
     </g>
    </g>
    <g id="ytick_10">
     <g id="line2d_37">
      <g>
       <use style="stroke:#000000;stroke-width:0.8;" x="648" xlink:href="#mab739debb9" y="247.536"/>
      </g>
     </g>
     <g id="text_26">
      <!-- 420 -->
      <g transform="translate(655 251.335219)scale(0.1 -0.1)">
       <use xlink:href="#DejaVuSans-8722"/>
       <use x="83.789062" xlink:href="#DejaVuSans-52"/>
       <use x="147.412109" xlink:href="#DejaVuSans-50"/>
       <use x="211.035156" xlink:href="#DejaVuSans-48"/>
      </g>
     </g>
    </g>
    <g id="ytick_11">
     <g id="line2d_38">
      <g>
       <use style="stroke:#000000;stroke-width:0.8;" x="648" xlink:href="#mab739debb9" y="182.304"/>
      </g>
     </g>
     <g id="text_27">
      <!-- 415 -->
      <g transform="translate(655 186.103219)scale(0.1 -0.1)">
       <use xlink:href="#DejaVuSans-8722"/>
       <use x="83.789062" xlink:href="#DejaVuSans-52"/>
       <use x="147.412109" xlink:href="#DejaVuSans-49"/>
       <use x="211.035156" xlink:href="#DejaVuSans-53"/>
      </g>
     </g>
    </g>
    <g id="ytick_12">
     <g id="line2d_39">
      <g>
       <use style="stroke:#000000;stroke-width:0.8;" x="648" xlink:href="#mab739debb9" y="117.072"/>
      </g>
     </g>
     <g id="text_28">
      <!-- 410 -->
      <g transform="translate(655 120.871219)scale(0.1 -0.1)">
       <use xlink:href="#DejaVuSans-8722"/>
       <use x="83.789062" xlink:href="#DejaVuSans-52"/>
       <use x="147.412109" xlink:href="#DejaVuSans-49"/>
       <use x="211.035156" xlink:href="#DejaVuSans-48"/>
      </g>
     </g>
    </g>
    <g id="ytick_13">
     <g id="line2d_40">
      <g>
       <use style="stroke:#000000;stroke-width:0.8;" x="648" xlink:href="#mab739debb9" y="51.84"/>
      </g>
     </g>
     <g id="text_29">
      <!-- 405 -->
      <g transform="translate(655 55.639219)scale(0.1 -0.1)">
       <use xlink:href="#DejaVuSans-8722"/>
       <use x="83.789062" xlink:href="#DejaVuSans-52"/>
       <use x="147.412109" xlink:href="#DejaVuSans-48"/>
       <use x="211.035156" xlink:href="#DejaVuSans-53"/>
      </g>
     </g>
    </g>
    <g id="text_30">
     <!-- meander belt axis profile elevation [m] -->
     <defs>
      <path d="M 48.6875 27.296875 
Q 48.6875 37.203125 44.609375 42.84375 
Q 40.53125 48.484375 33.40625 48.484375 
Q 26.265625 48.484375 22.1875 42.84375 
Q 18.109375 37.203125 18.109375 27.296875 
Q 18.109375 17.390625 22.1875 11.75 
Q 26.265625 6.109375 33.40625 6.109375 
Q 40.53125 6.109375 44.609375 11.75 
Q 48.6875 17.390625 48.6875 27.296875 
z
M 18.109375 46.390625 
Q 20.953125 51.265625 25.265625 53.625 
Q 29.59375 56 35.59375 56 
Q 45.5625 56 51.78125 48.09375 
Q 58.015625 40.1875 58.015625 27.296875 
Q 58.015625 14.40625 51.78125 6.484375 
Q 45.5625 -1.421875 35.59375 -1.421875 
Q 29.59375 -1.421875 25.265625 0.953125 
Q 20.953125 3.328125 18.109375 8.203125 
L 18.109375 0 
L 9.078125 0 
L 9.078125 75.984375 
L 18.109375 75.984375 
z
" id="DejaVuSans-98"/>
      <path d="M 54.890625 54.6875 
L 35.109375 28.078125 
L 55.90625 0 
L 45.3125 0 
L 29.390625 21.484375 
L 13.484375 0 
L 2.875 0 
L 24.125 28.609375 
L 4.6875 54.6875 
L 15.28125 54.6875 
L 29.78125 35.203125 
L 44.28125 54.6875 
z
" id="DejaVuSans-120"/>
      <path d="M 2.984375 54.6875 
L 12.5 54.6875 
L 29.59375 8.796875 
L 46.6875 54.6875 
L 56.203125 54.6875 
L 35.6875 0 
L 23.484375 0 
z
" id="DejaVuSans-118"/>
     </defs>
     <g transform="translate(695.585312 332.35875)rotate(-90)scale(0.12 -0.12)">
      <use xlink:href="#DejaVuSans-109"/>
      <use x="97.412109" xlink:href="#DejaVuSans-101"/>
      <use x="158.935547" xlink:href="#DejaVuSans-97"/>
      <use x="220.214844" xlink:href="#DejaVuSans-110"/>
      <use x="283.59375" xlink:href="#DejaVuSans-100"/>
      <use x="347.070312" xlink:href="#DejaVuSans-101"/>
      <use x="408.59375" xlink:href="#DejaVuSans-114"/>
      <use x="449.707031" xlink:href="#DejaVuSans-32"/>
      <use x="481.494141" xlink:href="#DejaVuSans-98"/>
      <use x="544.970703" xlink:href="#DejaVuSans-101"/>
      <use x="606.494141" xlink:href="#DejaVuSans-108"/>
      <use x="634.277344" xlink:href="#DejaVuSans-116"/>
      <use x="673.486328" xlink:href="#DejaVuSans-32"/>
      <use x="705.273438" xlink:href="#DejaVuSans-97"/>
      <use x="766.552734" xlink:href="#DejaVuSans-120"/>
      <use x="825.732422" xlink:href="#DejaVuSans-105"/>
      <use x="853.515625" xlink:href="#DejaVuSans-115"/>
      <use x="905.615234" xlink:href="#DejaVuSans-32"/>
      <use x="937.402344" xlink:href="#DejaVuSans-112"/>
      <use x="1000.878906" xlink:href="#DejaVuSans-114"/>
      <use x="1041.960938" xlink:href="#DejaVuSans-111"/>
      <use x="1103.142578" xlink:href="#DejaVuSans-102"/>
      <use x="1138.347656" xlink:href="#DejaVuSans-105"/>
      <use x="1166.130859" xlink:href="#DejaVuSans-108"/>
      <use x="1193.914062" xlink:href="#DejaVuSans-101"/>
      <use x="1255.4375" xlink:href="#DejaVuSans-32"/>
      <use x="1287.224609" xlink:href="#DejaVuSans-101"/>
      <use x="1348.748047" xlink:href="#DejaVuSans-108"/>
      <use x="1376.53125" xlink:href="#DejaVuSans-101"/>
      <use x="1438.054688" xlink:href="#DejaVuSans-118"/>
      <use x="1497.234375" xlink:href="#DejaVuSans-97"/>
      <use x="1558.513672" xlink:href="#DejaVuSans-116"/>
      <use x="1597.722656" xlink:href="#DejaVuSans-105"/>
      <use x="1625.505859" xlink:href="#DejaVuSans-111"/>
      <use x="1686.6875" xlink:href="#DejaVuSans-110"/>
      <use x="1750.066406" xlink:href="#DejaVuSans-32"/>
      <use x="1781.853516" xlink:href="#DejaVuSans-91"/>
      <use x="1820.867188" xlink:href="#DejaVuSans-109"/>
      <use x="1918.279297" xlink:href="#DejaVuSans-93"/>
     </g>
    </g>
   </g>
   <g id="line2d_41">
    <path clip-path="url(#pb8a31153a6)" d="M 90 54.404472 
L 102.834 64.642137 
L 115.668 73.490275 
L 128.502 80.680954 
L 141.336 85.994631 
L 154.17 89.433281 
L 167.004 91.402168 
L 179.838 92.30774 
L 192.672 93.013476 
L 203.324828 94.869836 
L 216.158828 98.474104 
L 228.992828 103.334571 
L 241.826828 109.470869 
L 254.660828 116.675417 
L 267.494828 124.562096 
L 280.328828 132.971361 
L 290.906865 139.858984 
L 303.740865 148.570012 
L 316.574865 155.615312 
L 329.408865 160.293835 
L 342.242865 173.361825 
L 355.076865 192.249376 
L 367.910865 211.688546 
L 379.060271 228.555718 
L 391.894271 241.66719 
L 404.728271 250.993745 
L 417.562271 259.284487 
L 430.396271 266.023672 
L 440.274663 269.740199 
L 453.108663 274.201874 
L 465.942663 276.892987 
L 478.776663 283.8422 
L 491.610663 292.63285 
L 504.444663 298.634728 
L 517.278663 301.622869 
L 530.112663 304.008333 
L 542.946663 308.14761 
L 555.780663 314.099315 
L 568.614663 321.239115 
L 581.448663 328.451747 
L 594.282663 334.88617 
L 607.116663 338.102919 
L 614.502927 340.294666 
" style="fill:none;stroke:#000000;stroke-dasharray:9.6,2.4,1.5,2.4;stroke-dashoffset:0;stroke-width:1.5;"/>
   </g>
   <g id="line2d_42">
    <path clip-path="url(#pb8a31153a6)" d="M 90 117.470538 
L 102.834 121.070478 
L 115.668 123.682443 
L 128.502 125.873815 
L 141.336 129.498268 
L 154.17 131.72481 
L 167.004 129.670214 
L 179.838 141.563095 
L 192.672 157.937287 
L 203.324828 159.827395 
L 216.158828 189.002383 
L 228.992828 215.520176 
L 241.826828 226.395222 
L 254.660828 230.464834 
L 267.494828 234.395251 
L 280.328828 234.598468 
L 290.906865 220.521824 
L 303.740865 214.889034 
L 316.574865 212.748055 
L 329.408865 223.783963 
L 342.242865 234.894392 
L 355.076865 241.644625 
L 367.910865 252.362276 
L 379.060271 264.121466 
L 391.894271 274.799136 
L 404.728271 281.18294 
L 417.562271 288.120722 
L 430.396271 292.763091 
L 440.274663 296.810595 
L 453.108663 304.913531 
L 465.942663 312.834715 
L 478.776663 319.121504 
L 491.610663 324.564586 
L 504.444663 330.996486 
L 517.278663 337.585487 
L 530.112663 343.133384 
L 542.946663 346.950104 
L 555.780663 350.990543 
L 568.614663 353.885161 
L 581.448663 357.044044 
L 594.282663 360.298348 
L 607.116663 363.258485 
L 614.502927 364.698472 
" style="fill:none;stroke:#000000;stroke-dasharray:5.55,2.4;stroke-dashoffset:0;stroke-width:1.5;"/>
   </g>
   <g id="patch_8">
    <path d="M 90 378 
L 90 51.84 
" style="fill:none;stroke:#000000;stroke-linecap:square;stroke-linejoin:miter;stroke-width:0.8;"/>
   </g>
   <g id="patch_9">
    <path d="M 648 378 
L 648 51.84 
" style="fill:none;stroke:#000000;stroke-linecap:square;stroke-linejoin:miter;stroke-width:0.8;"/>
   </g>
   <g id="patch_10">
    <path d="M 90 378 
L 648 378 
" style="fill:none;stroke:#000000;stroke-linecap:square;stroke-linejoin:miter;stroke-width:0.8;"/>
   </g>
   <g id="patch_11">
    <path d="M 90 51.84 
L 648 51.84 
" style="fill:none;stroke:#000000;stroke-linecap:square;stroke-linejoin:miter;stroke-width:0.8;"/>
   </g>
   <g id="legend_2">
    <g id="patch_12">
     <path d="M 97 89.19625 
L 282.253125 89.19625 
Q 284.253125 89.19625 284.253125 87.19625 
L 284.253125 58.84 
Q 284.253125 56.84 282.253125 56.84 
L 97 56.84 
Q 95 56.84 95 58.84 
L 95 87.19625 
Q 95 89.19625 97 89.19625 
z
" style="fill:#ffffff;opacity:0.8;stroke:#cccccc;stroke-linejoin:miter;"/>
    </g>
    <g id="line2d_43">
     <path d="M 99 64.938437 
L 119 64.938437 
" style="fill:none;stroke:#000000;stroke-dasharray:9.6,2.4,1.5,2.4;stroke-dashoffset:0;stroke-width:1.5;"/>
    </g>
    <g id="line2d_44"/>
    <g id="text_31">
     <!-- meander belt axis profile, unc. -->
     <g transform="translate(127 68.438437)scale(0.1 -0.1)">
      <use xlink:href="#DejaVuSans-109"/>
      <use x="97.412109" xlink:href="#DejaVuSans-101"/>
      <use x="158.935547" xlink:href="#DejaVuSans-97"/>
      <use x="220.214844" xlink:href="#DejaVuSans-110"/>
      <use x="283.59375" xlink:href="#DejaVuSans-100"/>
      <use x="347.070312" xlink:href="#DejaVuSans-101"/>
      <use x="408.59375" xlink:href="#DejaVuSans-114"/>
      <use x="449.707031" xlink:href="#DejaVuSans-32"/>
      <use x="481.494141" xlink:href="#DejaVuSans-98"/>
      <use x="544.970703" xlink:href="#DejaVuSans-101"/>
      <use x="606.494141" xlink:href="#DejaVuSans-108"/>
      <use x="634.277344" xlink:href="#DejaVuSans-116"/>
      <use x="673.486328" xlink:href="#DejaVuSans-32"/>
      <use x="705.273438" xlink:href="#DejaVuSans-97"/>
      <use x="766.552734" xlink:href="#DejaVuSans-120"/>
      <use x="825.732422" xlink:href="#DejaVuSans-105"/>
      <use x="853.515625" xlink:href="#DejaVuSans-115"/>
      <use x="905.615234" xlink:href="#DejaVuSans-32"/>
      <use x="937.402344" xlink:href="#DejaVuSans-112"/>
      <use x="1000.878906" xlink:href="#DejaVuSans-114"/>
      <use x="1041.960938" xlink:href="#DejaVuSans-111"/>
      <use x="1103.142578" xlink:href="#DejaVuSans-102"/>
      <use x="1138.347656" xlink:href="#DejaVuSans-105"/>
      <use x="1166.130859" xlink:href="#DejaVuSans-108"/>
      <use x="1193.914062" xlink:href="#DejaVuSans-101"/>
      <use x="1255.4375" xlink:href="#DejaVuSans-44"/>
      <use x="1287.224609" xlink:href="#DejaVuSans-32"/>
      <use x="1319.011719" xlink:href="#DejaVuSans-117"/>
      <use x="1382.390625" xlink:href="#DejaVuSans-110"/>
      <use x="1445.769531" xlink:href="#DejaVuSans-99"/>
      <use x="1500.75" xlink:href="#DejaVuSans-46"/>
     </g>
    </g>
    <g id="line2d_45">
     <path d="M 99 79.616562 
L 119 79.616562 
" style="fill:none;stroke:#000000;stroke-dasharray:5.55,2.4;stroke-dashoffset:0;stroke-width:1.5;"/>
    </g>
    <g id="line2d_46"/>
    <g id="text_32">
     <!-- meander belt axis profile, c. -->
     <g transform="translate(127 83.116562)scale(0.1 -0.1)">
      <use xlink:href="#DejaVuSans-109"/>
      <use x="97.412109" xlink:href="#DejaVuSans-101"/>
      <use x="158.935547" xlink:href="#DejaVuSans-97"/>
      <use x="220.214844" xlink:href="#DejaVuSans-110"/>
      <use x="283.59375" xlink:href="#DejaVuSans-100"/>
      <use x="347.070312" xlink:href="#DejaVuSans-101"/>
      <use x="408.59375" xlink:href="#DejaVuSans-114"/>
      <use x="449.707031" xlink:href="#DejaVuSans-32"/>
      <use x="481.494141" xlink:href="#DejaVuSans-98"/>
      <use x="544.970703" xlink:href="#DejaVuSans-101"/>
      <use x="606.494141" xlink:href="#DejaVuSans-108"/>
      <use x="634.277344" xlink:href="#DejaVuSans-116"/>
      <use x="673.486328" xlink:href="#DejaVuSans-32"/>
      <use x="705.273438" xlink:href="#DejaVuSans-97"/>
      <use x="766.552734" xlink:href="#DejaVuSans-120"/>
      <use x="825.732422" xlink:href="#DejaVuSans-105"/>
      <use x="853.515625" xlink:href="#DejaVuSans-115"/>
      <use x="905.615234" xlink:href="#DejaVuSans-32"/>
      <use x="937.402344" xlink:href="#DejaVuSans-112"/>
      <use x="1000.878906" xlink:href="#DejaVuSans-114"/>
      <use x="1041.960938" xlink:href="#DejaVuSans-111"/>
      <use x="1103.142578" xlink:href="#DejaVuSans-102"/>
      <use x="1138.347656" xlink:href="#DejaVuSans-105"/>
      <use x="1166.130859" xlink:href="#DejaVuSans-108"/>
      <use x="1193.914062" xlink:href="#DejaVuSans-101"/>
      <use x="1255.4375" xlink:href="#DejaVuSans-44"/>
      <use x="1287.224609" xlink:href="#DejaVuSans-32"/>
      <use x="1319.011719" xlink:href="#DejaVuSans-99"/>
      <use x="1373.992188" xlink:href="#DejaVuSans-46"/>
     </g>
    </g>
   </g>
  </g>
 </g>
 <defs>
  <clipPath id="pb8a31153a6">
   <rect height="326.16" width="558" x="90" y="51.84"/>
  </clipPath>
 </defs>
</svg>
