<?xml version="1.0" encoding="utf-8" standalone="no"?>
<!DOCTYPE svg PUBLIC "-//W3C//DTD SVG 1.1//EN"
  "http://www.w3.org/Graphics/SVG/1.1/DTD/svg11.dtd">
<!-- Created with matplotlib (https://matplotlib.org/) -->
<svg height="432pt" version="1.1" viewBox="0 0 720 432" width="720pt" xmlns="http://www.w3.org/2000/svg" xmlns:xlink="http://www.w3.org/1999/xlink">
 <defs>
  <style type="text/css">
*{stroke-linecap:butt;stroke-linejoin:round;}
  </style>
 </defs>
 <g id="figure_1">
  <g id="patch_1">
   <path d="M 0 432 
L 720 432 
L 720 0 
L 0 0 
z
" style="fill:#ffffff;"/>
  </g>
  <g id="axes_1">
   <g id="patch_2">
    <path d="M 90 378 
L 648 378 
L 648 51.84 
L 90 51.84 
z
" style="fill:#ffffff;"/>
   </g>
   <g id="matplotlib.axis_1">
    <g id="xtick_1">
     <g id="line2d_1">
      <defs>
       <path d="M 0 0 
L 0 3.5 
" id="mff595f2cf4" style="stroke:#000000;stroke-width:0.8;"/>
      </defs>
      <g>
       <use style="stroke:#000000;stroke-width:0.8;" x="90" xlink:href="#mff595f2cf4" y="378"/>
      </g>
     </g>
     <g id="text_1">
      <!-- 0 -->
      <defs>
       <path d="M 31.78125 66.40625 
Q 24.171875 66.40625 20.328125 58.90625 
Q 16.5 51.421875 16.5 36.375 
Q 16.5 21.390625 20.328125 13.890625 
Q 24.171875 6.390625 31.78125 6.390625 
Q 39.453125 6.390625 43.28125 13.890625 
Q 47.125 21.390625 47.125 36.375 
Q 47.125 51.421875 43.28125 58.90625 
Q 39.453125 66.40625 31.78125 66.40625 
z
M 31.78125 74.21875 
Q 44.046875 74.21875 50.515625 64.515625 
Q 56.984375 54.828125 56.984375 36.375 
Q 56.984375 17.96875 50.515625 8.265625 
Q 44.046875 -1.421875 31.78125 -1.421875 
Q 19.53125 -1.421875 13.0625 8.265625 
Q 6.59375 17.96875 6.59375 36.375 
Q 6.59375 54.828125 13.0625 64.515625 
Q 19.53125 74.21875 31.78125 74.21875 
z
" id="DejaVuSans-48"/>
      </defs>
      <g transform="translate(86.81875 392.598437)scale(0.1 -0.1)">
       <use xlink:href="#DejaVuSans-48"/>
      </g>
     </g>
    </g>
    <g id="xtick_2">
     <g id="line2d_2">
      <g>
       <use style="stroke:#000000;stroke-width:0.8;" x="201.6" xlink:href="#mff595f2cf4" y="378"/>
      </g>
     </g>
     <g id="text_2">
      <!-- 100 -->
      <defs>
       <path d="M 12.40625 8.296875 
L 28.515625 8.296875 
L 28.515625 63.921875 
L 10.984375 60.40625 
L 10.984375 69.390625 
L 28.421875 72.90625 
L 38.28125 72.90625 
L 38.28125 8.296875 
L 54.390625 8.296875 
L 54.390625 0 
L 12.40625 0 
z
" id="DejaVuSans-49"/>
      </defs>
      <g transform="translate(192.05625 392.598437)scale(0.1 -0.1)">
       <use xlink:href="#DejaVuSans-49"/>
       <use x="63.623047" xlink:href="#DejaVuSans-48"/>
       <use x="127.246094" xlink:href="#DejaVuSans-48"/>
      </g>
     </g>
    </g>
    <g id="xtick_3">
     <g id="line2d_3">
      <g>
       <use style="stroke:#000000;stroke-width:0.8;" x="313.2" xlink:href="#mff595f2cf4" y="378"/>
      </g>
     </g>
     <g id="text_3">
      <!-- 200 -->
      <defs>
       <path d="M 19.1875 8.296875 
L 53.609375 8.296875 
L 53.609375 0 
L 7.328125 0 
L 7.328125 8.296875 
Q 12.9375 14.109375 22.625 23.890625 
Q 32.328125 33.6875 34.8125 36.53125 
Q 39.546875 41.84375 41.421875 45.53125 
Q 43.3125 49.21875 43.3125 52.78125 
Q 43.3125 58.59375 39.234375 62.25 
Q 35.15625 65.921875 28.609375 65.921875 
Q 23.96875 65.921875 18.8125 64.3125 
Q 13.671875 62.703125 7.8125 59.421875 
L 7.8125 69.390625 
Q 13.765625 71.78125 18.9375 73 
Q 24.125 74.21875 28.421875 74.21875 
Q 39.75 74.21875 46.484375 68.546875 
Q 53.21875 62.890625 53.21875 53.421875 
Q 53.21875 48.921875 51.53125 44.890625 
Q 49.859375 40.875 45.40625 35.40625 
Q 44.1875 33.984375 37.640625 27.21875 
Q 31.109375 20.453125 19.1875 8.296875 
z
" id="DejaVuSans-50"/>
      </defs>
      <g transform="translate(303.65625 392.598437)scale(0.1 -0.1)">
       <use xlink:href="#DejaVuSans-50"/>
       <use x="63.623047" xlink:href="#DejaVuSans-48"/>
       <use x="127.246094" xlink:href="#DejaVuSans-48"/>
      </g>
     </g>
    </g>
    <g id="xtick_4">
     <g id="line2d_4">
      <g>
       <use style="stroke:#000000;stroke-width:0.8;" x="424.8" xlink:href="#mff595f2cf4" y="378"/>
      </g>
     </g>
     <g id="text_4">
      <!-- 300 -->
      <defs>
       <path d="M 40.578125 39.3125 
Q 47.65625 37.796875 51.625 33 
Q 55.609375 28.21875 55.609375 21.1875 
Q 55.609375 10.40625 48.1875 4.484375 
Q 40.765625 -1.421875 27.09375 -1.421875 
Q 22.515625 -1.421875 17.65625 -0.515625 
Q 12.796875 0.390625 7.625 2.203125 
L 7.625 11.71875 
Q 11.71875 9.328125 16.59375 8.109375 
Q 21.484375 6.890625 26.8125 6.890625 
Q 36.078125 6.890625 40.9375 10.546875 
Q 45.796875 14.203125 45.796875 21.1875 
Q 45.796875 27.640625 41.28125 31.265625 
Q 36.765625 34.90625 28.71875 34.90625 
L 20.21875 34.90625 
L 20.21875 43.015625 
L 29.109375 43.015625 
Q 36.375 43.015625 40.234375 45.921875 
Q 44.09375 48.828125 44.09375 54.296875 
Q 44.09375 59.90625 40.109375 62.90625 
Q 36.140625 65.921875 28.71875 65.921875 
Q 24.65625 65.921875 20.015625 65.03125 
Q 15.375 64.15625 9.8125 62.3125 
L 9.8125 71.09375 
Q 15.4375 72.65625 20.34375 73.4375 
Q 25.25 74.21875 29.59375 74.21875 
Q 40.828125 74.21875 47.359375 69.109375 
Q 53.90625 64.015625 53.90625 55.328125 
Q 53.90625 49.265625 50.4375 45.09375 
Q 46.96875 40.921875 40.578125 39.3125 
z
" id="DejaVuSans-51"/>
      </defs>
      <g transform="translate(415.25625 392.598437)scale(0.1 -0.1)">
       <use xlink:href="#DejaVuSans-51"/>
       <use x="63.623047" xlink:href="#DejaVuSans-48"/>
       <use x="127.246094" xlink:href="#DejaVuSans-48"/>
      </g>
     </g>
    </g>
    <g id="xtick_5">
     <g id="line2d_5">
      <g>
       <use style="stroke:#000000;stroke-width:0.8;" x="536.4" xlink:href="#mff595f2cf4" y="378"/>
      </g>
     </g>
     <g id="text_5">
      <!-- 400 -->
      <defs>
       <path d="M 37.796875 64.3125 
L 12.890625 25.390625 
L 37.796875 25.390625 
z
M 35.203125 72.90625 
L 47.609375 72.90625 
L 47.609375 25.390625 
L 58.015625 25.390625 
L 58.015625 17.1875 
L 47.609375 17.1875 
L 47.609375 0 
L 37.796875 0 
L 37.796875 17.1875 
L 4.890625 17.1875 
L 4.890625 26.703125 
z
" id="DejaVuSans-52"/>
      </defs>
      <g transform="translate(526.85625 392.598437)scale(0.1 -0.1)">
       <use xlink:href="#DejaVuSans-52"/>
       <use x="63.623047" xlink:href="#DejaVuSans-48"/>
       <use x="127.246094" xlink:href="#DejaVuSans-48"/>
      </g>
     </g>
    </g>
    <g id="xtick_6">
     <g id="line2d_6">
      <g>
       <use style="stroke:#000000;stroke-width:0.8;" x="648" xlink:href="#mff595f2cf4" y="378"/>
      </g>
     </g>
     <g id="text_6">
      <!-- 500 -->
      <defs>
       <path d="M 10.796875 72.90625 
L 49.515625 72.90625 
L 49.515625 64.59375 
L 19.828125 64.59375 
L 19.828125 46.734375 
Q 21.96875 47.46875 24.109375 47.828125 
Q 26.265625 48.1875 28.421875 48.1875 
Q 40.625 48.1875 47.75 41.5 
Q 54.890625 34.8125 54.890625 23.390625 
Q 54.890625 11.625 47.5625 5.09375 
Q 40.234375 -1.421875 26.90625 -1.421875 
Q 22.3125 -1.421875 17.546875 -0.640625 
Q 12.796875 0.140625 7.71875 1.703125 
L 7.71875 11.625 
Q 12.109375 9.234375 16.796875 8.0625 
Q 21.484375 6.890625 26.703125 6.890625 
Q 35.15625 6.890625 40.078125 11.328125 
Q 45.015625 15.765625 45.015625 23.390625 
Q 45.015625 31 40.078125 35.4375 
Q 35.15625 39.890625 26.703125 39.890625 
Q 22.75 39.890625 18.8125 39.015625 
Q 14.890625 38.140625 10.796875 36.28125 
z
" id="DejaVuSans-53"/>
      </defs>
      <g transform="translate(638.45625 392.598437)scale(0.1 -0.1)">
       <use xlink:href="#DejaVuSans-53"/>
       <use x="63.623047" xlink:href="#DejaVuSans-48"/>
       <use x="127.246094" xlink:href="#DejaVuSans-48"/>
      </g>
     </g>
    </g>
    <g id="text_7">
     <!-- distance along straightened profile [m] -->
     <defs>
      <path d="M 45.40625 46.390625 
L 45.40625 75.984375 
L 54.390625 75.984375 
L 54.390625 0 
L 45.40625 0 
L 45.40625 8.203125 
Q 42.578125 3.328125 38.25 0.953125 
Q 33.9375 -1.421875 27.875 -1.421875 
Q 17.96875 -1.421875 11.734375 6.484375 
Q 5.515625 14.40625 5.515625 27.296875 
Q 5.515625 40.1875 11.734375 48.09375 
Q 17.96875 56 27.875 56 
Q 33.9375 56 38.25 53.625 
Q 42.578125 51.265625 45.40625 46.390625 
z
M 14.796875 27.296875 
Q 14.796875 17.390625 18.875 11.75 
Q 22.953125 6.109375 30.078125 6.109375 
Q 37.203125 6.109375 41.296875 11.75 
Q 45.40625 17.390625 45.40625 27.296875 
Q 45.40625 37.203125 41.296875 42.84375 
Q 37.203125 48.484375 30.078125 48.484375 
Q 22.953125 48.484375 18.875 42.84375 
Q 14.796875 37.203125 14.796875 27.296875 
z
" id="DejaVuSans-100"/>
      <path d="M 9.421875 54.6875 
L 18.40625 54.6875 
L 18.40625 0 
L 9.421875 0 
z
M 9.421875 75.984375 
L 18.40625 75.984375 
L 18.40625 64.59375 
L 9.421875 64.59375 
z
" id="DejaVuSans-105"/>
      <path d="M 44.28125 53.078125 
L 44.28125 44.578125 
Q 40.484375 46.53125 36.375 47.5 
Q 32.28125 48.484375 27.875 48.484375 
Q 21.1875 48.484375 17.84375 46.4375 
Q 14.5 44.390625 14.5 40.28125 
Q 14.5 37.15625 16.890625 35.375 
Q 19.28125 33.59375 26.515625 31.984375 
L 29.59375 31.296875 
Q 39.15625 29.25 43.1875 25.515625 
Q 47.21875 21.78125 47.21875 15.09375 
Q 47.21875 7.46875 41.1875 3.015625 
Q 35.15625 -1.421875 24.609375 -1.421875 
Q 20.21875 -1.421875 15.453125 -0.5625 
Q 10.6875 0.296875 5.421875 2 
L 5.421875 11.28125 
Q 10.40625 8.6875 15.234375 7.390625 
Q 20.0625 6.109375 24.8125 6.109375 
Q 31.15625 6.109375 34.5625 8.28125 
Q 37.984375 10.453125 37.984375 14.40625 
Q 37.984375 18.0625 35.515625 20.015625 
Q 33.0625 21.96875 24.703125 23.78125 
L 21.578125 24.515625 
Q 13.234375 26.265625 9.515625 29.90625 
Q 5.8125 33.546875 5.8125 39.890625 
Q 5.8125 47.609375 11.28125 51.796875 
Q 16.75 56 26.8125 56 
Q 31.78125 56 36.171875 55.265625 
Q 40.578125 54.546875 44.28125 53.078125 
z
" id="DejaVuSans-115"/>
      <path d="M 18.3125 70.21875 
L 18.3125 54.6875 
L 36.8125 54.6875 
L 36.8125 47.703125 
L 18.3125 47.703125 
L 18.3125 18.015625 
Q 18.3125 11.328125 20.140625 9.421875 
Q 21.96875 7.515625 27.59375 7.515625 
L 36.8125 7.515625 
L 36.8125 0 
L 27.59375 0 
Q 17.1875 0 13.234375 3.875 
Q 9.28125 7.765625 9.28125 18.015625 
L 9.28125 47.703125 
L 2.6875 47.703125 
L 2.6875 54.6875 
L 9.28125 54.6875 
L 9.28125 70.21875 
z
" id="DejaVuSans-116"/>
      <path d="M 34.28125 27.484375 
Q 23.390625 27.484375 19.1875 25 
Q 14.984375 22.515625 14.984375 16.5 
Q 14.984375 11.71875 18.140625 8.90625 
Q 21.296875 6.109375 26.703125 6.109375 
Q 34.1875 6.109375 38.703125 11.40625 
Q 43.21875 16.703125 43.21875 25.484375 
L 43.21875 27.484375 
z
M 52.203125 31.203125 
L 52.203125 0 
L 43.21875 0 
L 43.21875 8.296875 
Q 40.140625 3.328125 35.546875 0.953125 
Q 30.953125 -1.421875 24.3125 -1.421875 
Q 15.921875 -1.421875 10.953125 3.296875 
Q 6 8.015625 6 15.921875 
Q 6 25.140625 12.171875 29.828125 
Q 18.359375 34.515625 30.609375 34.515625 
L 43.21875 34.515625 
L 43.21875 35.40625 
Q 43.21875 41.609375 39.140625 45 
Q 35.0625 48.390625 27.6875 48.390625 
Q 23 48.390625 18.546875 47.265625 
Q 14.109375 46.140625 10.015625 43.890625 
L 10.015625 52.203125 
Q 14.9375 54.109375 19.578125 55.046875 
Q 24.21875 56 28.609375 56 
Q 40.484375 56 46.34375 49.84375 
Q 52.203125 43.703125 52.203125 31.203125 
z
" id="DejaVuSans-97"/>
      <path d="M 54.890625 33.015625 
L 54.890625 0 
L 45.90625 0 
L 45.90625 32.71875 
Q 45.90625 40.484375 42.875 44.328125 
Q 39.84375 48.1875 33.796875 48.1875 
Q 26.515625 48.1875 22.3125 43.546875 
Q 18.109375 38.921875 18.109375 30.90625 
L 18.109375 0 
L 9.078125 0 
L 9.078125 54.6875 
L 18.109375 54.6875 
L 18.109375 46.1875 
Q 21.34375 51.125 25.703125 53.5625 
Q 30.078125 56 35.796875 56 
Q 45.21875 56 50.046875 50.171875 
Q 54.890625 44.34375 54.890625 33.015625 
z
" id="DejaVuSans-110"/>
      <path d="M 48.78125 52.59375 
L 48.78125 44.1875 
Q 44.96875 46.296875 41.140625 47.34375 
Q 37.3125 48.390625 33.40625 48.390625 
Q 24.65625 48.390625 19.8125 42.84375 
Q 14.984375 37.3125 14.984375 27.296875 
Q 14.984375 17.28125 19.8125 11.734375 
Q 24.65625 6.203125 33.40625 6.203125 
Q 37.3125 6.203125 41.140625 7.25 
Q 44.96875 8.296875 48.78125 10.40625 
L 48.78125 2.09375 
Q 45.015625 0.34375 40.984375 -0.53125 
Q 36.96875 -1.421875 32.421875 -1.421875 
Q 20.0625 -1.421875 12.78125 6.34375 
Q 5.515625 14.109375 5.515625 27.296875 
Q 5.515625 40.671875 12.859375 48.328125 
Q 20.21875 56 33.015625 56 
Q 37.15625 56 41.109375 55.140625 
Q 45.0625 54.296875 48.78125 52.59375 
z
" id="DejaVuSans-99"/>
      <path d="M 56.203125 29.59375 
L 56.203125 25.203125 
L 14.890625 25.203125 
Q 15.484375 15.921875 20.484375 11.0625 
Q 25.484375 6.203125 34.421875 6.203125 
Q 39.59375 6.203125 44.453125 7.46875 
Q 49.3125 8.734375 54.109375 11.28125 
L 54.109375 2.78125 
Q 49.265625 0.734375 44.1875 -0.34375 
Q 39.109375 -1.421875 33.890625 -1.421875 
Q 20.796875 -1.421875 13.15625 6.1875 
Q 5.515625 13.8125 5.515625 26.8125 
Q 5.515625 40.234375 12.765625 48.109375 
Q 20.015625 56 32.328125 56 
Q 43.359375 56 49.78125 48.890625 
Q 56.203125 41.796875 56.203125 29.59375 
z
M 47.21875 32.234375 
Q 47.125 39.59375 43.09375 43.984375 
Q 39.0625 48.390625 32.421875 48.390625 
Q 24.90625 48.390625 20.390625 44.140625 
Q 15.875 39.890625 15.1875 32.171875 
z
" id="DejaVuSans-101"/>
      <path id="DejaVuSans-32"/>
      <path d="M 9.421875 75.984375 
L 18.40625 75.984375 
L 18.40625 0 
L 9.421875 0 
z
" id="DejaVuSans-108"/>
      <path d="M 30.609375 48.390625 
Q 23.390625 48.390625 19.1875 42.75 
Q 14.984375 37.109375 14.984375 27.296875 
Q 14.984375 17.484375 19.15625 11.84375 
Q 23.34375 6.203125 30.609375 6.203125 
Q 37.796875 6.203125 41.984375 11.859375 
Q 46.1875 17.53125 46.1875 27.296875 
Q 46.1875 37.015625 41.984375 42.703125 
Q 37.796875 48.390625 30.609375 48.390625 
z
M 30.609375 56 
Q 42.328125 56 49.015625 48.375 
Q 55.71875 40.765625 55.71875 27.296875 
Q 55.71875 13.875 49.015625 6.21875 
Q 42.328125 -1.421875 30.609375 -1.421875 
Q 18.84375 -1.421875 12.171875 6.21875 
Q 5.515625 13.875 5.515625 27.296875 
Q 5.515625 40.765625 12.171875 48.375 
Q 18.84375 56 30.609375 56 
z
" id="DejaVuSans-111"/>
      <path d="M 45.40625 27.984375 
Q 45.40625 37.75 41.375 43.109375 
Q 37.359375 48.484375 30.078125 48.484375 
Q 22.859375 48.484375 18.828125 43.109375 
Q 14.796875 37.75 14.796875 27.984375 
Q 14.796875 18.265625 18.828125 12.890625 
Q 22.859375 7.515625 30.078125 7.515625 
Q 37.359375 7.515625 41.375 12.890625 
Q 45.40625 18.265625 45.40625 27.984375 
z
M 54.390625 6.78125 
Q 54.390625 -7.171875 48.1875 -13.984375 
Q 42 -20.796875 29.203125 -20.796875 
Q 24.46875 -20.796875 20.265625 -20.09375 
Q 16.0625 -19.390625 12.109375 -17.921875 
L 12.109375 -9.1875 
Q 16.0625 -11.328125 19.921875 -12.34375 
Q 23.78125 -13.375 27.78125 -13.375 
Q 36.625 -13.375 41.015625 -8.765625 
Q 45.40625 -4.15625 45.40625 5.171875 
L 45.40625 9.625 
Q 42.625 4.78125 38.28125 2.390625 
Q 33.9375 0 27.875 0 
Q 17.828125 0 11.671875 7.65625 
Q 5.515625 15.328125 5.515625 27.984375 
Q 5.515625 40.671875 11.671875 48.328125 
Q 17.828125 56 27.875 56 
Q 33.9375 56 38.28125 53.609375 
Q 42.625 51.21875 45.40625 46.390625 
L 45.40625 54.6875 
L 54.390625 54.6875 
z
" id="DejaVuSans-103"/>
      <path d="M 41.109375 46.296875 
Q 39.59375 47.171875 37.8125 47.578125 
Q 36.03125 48 33.890625 48 
Q 26.265625 48 22.1875 43.046875 
Q 18.109375 38.09375 18.109375 28.8125 
L 18.109375 0 
L 9.078125 0 
L 9.078125 54.6875 
L 18.109375 54.6875 
L 18.109375 46.1875 
Q 20.953125 51.171875 25.484375 53.578125 
Q 30.03125 56 36.53125 56 
Q 37.453125 56 38.578125 55.875 
Q 39.703125 55.765625 41.0625 55.515625 
z
" id="DejaVuSans-114"/>
      <path d="M 54.890625 33.015625 
L 54.890625 0 
L 45.90625 0 
L 45.90625 32.71875 
Q 45.90625 40.484375 42.875 44.328125 
Q 39.84375 48.1875 33.796875 48.1875 
Q 26.515625 48.1875 22.3125 43.546875 
Q 18.109375 38.921875 18.109375 30.90625 
L 18.109375 0 
L 9.078125 0 
L 9.078125 75.984375 
L 18.109375 75.984375 
L 18.109375 46.1875 
Q 21.34375 51.125 25.703125 53.5625 
Q 30.078125 56 35.796875 56 
Q 45.21875 56 50.046875 50.171875 
Q 54.890625 44.34375 54.890625 33.015625 
z
" id="DejaVuSans-104"/>
      <path d="M 18.109375 8.203125 
L 18.109375 -20.796875 
L 9.078125 -20.796875 
L 9.078125 54.6875 
L 18.109375 54.6875 
L 18.109375 46.390625 
Q 20.953125 51.265625 25.265625 53.625 
Q 29.59375 56 35.59375 56 
Q 45.5625 56 51.78125 48.09375 
Q 58.015625 40.1875 58.015625 27.296875 
Q 58.015625 14.40625 51.78125 6.484375 
Q 45.5625 -1.421875 35.59375 -1.421875 
Q 29.59375 -1.421875 25.265625 0.953125 
Q 20.953125 3.328125 18.109375 8.203125 
z
M 48.6875 27.296875 
Q 48.6875 37.203125 44.609375 42.84375 
Q 40.53125 48.484375 33.40625 48.484375 
Q 26.265625 48.484375 22.1875 42.84375 
Q 18.109375 37.203125 18.109375 27.296875 
Q 18.109375 17.390625 22.1875 11.75 
Q 26.265625 6.109375 33.40625 6.109375 
Q 40.53125 6.109375 44.609375 11.75 
Q 48.6875 17.390625 48.6875 27.296875 
z
" id="DejaVuSans-112"/>
      <path d="M 37.109375 75.984375 
L 37.109375 68.5 
L 28.515625 68.5 
Q 23.6875 68.5 21.796875 66.546875 
Q 19.921875 64.59375 19.921875 59.515625 
L 19.921875 54.6875 
L 34.71875 54.6875 
L 34.71875 47.703125 
L 19.921875 47.703125 
L 19.921875 0 
L 10.890625 0 
L 10.890625 47.703125 
L 2.296875 47.703125 
L 2.296875 54.6875 
L 10.890625 54.6875 
L 10.890625 58.5 
Q 10.890625 67.625 15.140625 71.796875 
Q 19.390625 75.984375 28.609375 75.984375 
z
" id="DejaVuSans-102"/>
      <path d="M 8.59375 75.984375 
L 29.296875 75.984375 
L 29.296875 69 
L 17.578125 69 
L 17.578125 -6.203125 
L 29.296875 -6.203125 
L 29.296875 -13.1875 
L 8.59375 -13.1875 
z
" id="DejaVuSans-91"/>
      <path d="M 52 44.1875 
Q 55.375 50.25 60.0625 53.125 
Q 64.75 56 71.09375 56 
Q 79.640625 56 84.28125 50.015625 
Q 88.921875 44.046875 88.921875 33.015625 
L 88.921875 0 
L 79.890625 0 
L 79.890625 32.71875 
Q 79.890625 40.578125 77.09375 44.375 
Q 74.3125 48.1875 68.609375 48.1875 
Q 61.625 48.1875 57.5625 43.546875 
Q 53.515625 38.921875 53.515625 30.90625 
L 53.515625 0 
L 44.484375 0 
L 44.484375 32.71875 
Q 44.484375 40.625 41.703125 44.40625 
Q 38.921875 48.1875 33.109375 48.1875 
Q 26.21875 48.1875 22.15625 43.53125 
Q 18.109375 38.875 18.109375 30.90625 
L 18.109375 0 
L 9.078125 0 
L 9.078125 54.6875 
L 18.109375 54.6875 
L 18.109375 46.1875 
Q 21.1875 51.21875 25.484375 53.609375 
Q 29.78125 56 35.6875 56 
Q 41.65625 56 45.828125 52.96875 
Q 50 49.953125 52 44.1875 
z
" id="DejaVuSans-109"/>
      <path d="M 30.421875 75.984375 
L 30.421875 -13.1875 
L 9.71875 -13.1875 
L 9.71875 -6.203125 
L 21.390625 -6.203125 
L 21.390625 69 
L 9.71875 69 
L 9.71875 75.984375 
z
" id="DejaVuSans-93"/>
     </defs>
     <g transform="translate(251.465625 407.79625)scale(0.12 -0.12)">
      <use xlink:href="#DejaVuSans-100"/>
      <use x="63.476562" xlink:href="#DejaVuSans-105"/>
      <use x="91.259766" xlink:href="#DejaVuSans-115"/>
      <use x="143.359375" xlink:href="#DejaVuSans-116"/>
      <use x="182.568359" xlink:href="#DejaVuSans-97"/>
      <use x="243.847656" xlink:href="#DejaVuSans-110"/>
      <use x="307.226562" xlink:href="#DejaVuSans-99"/>
      <use x="362.207031" xlink:href="#DejaVuSans-101"/>
      <use x="423.730469" xlink:href="#DejaVuSans-32"/>
      <use x="455.517578" xlink:href="#DejaVuSans-97"/>
      <use x="516.796875" xlink:href="#DejaVuSans-108"/>
      <use x="544.580078" xlink:href="#DejaVuSans-111"/>
      <use x="605.761719" xlink:href="#DejaVuSans-110"/>
      <use x="669.140625" xlink:href="#DejaVuSans-103"/>
      <use x="732.617188" xlink:href="#DejaVuSans-32"/>
      <use x="764.404297" xlink:href="#DejaVuSans-115"/>
      <use x="816.503906" xlink:href="#DejaVuSans-116"/>
      <use x="855.712891" xlink:href="#DejaVuSans-114"/>
      <use x="896.826172" xlink:href="#DejaVuSans-97"/>
      <use x="958.105469" xlink:href="#DejaVuSans-105"/>
      <use x="985.888672" xlink:href="#DejaVuSans-103"/>
      <use x="1049.365234" xlink:href="#DejaVuSans-104"/>
      <use x="1112.744141" xlink:href="#DejaVuSans-116"/>
      <use x="1151.953125" xlink:href="#DejaVuSans-101"/>
      <use x="1213.476562" xlink:href="#DejaVuSans-110"/>
      <use x="1276.855469" xlink:href="#DejaVuSans-101"/>
      <use x="1338.378906" xlink:href="#DejaVuSans-100"/>
      <use x="1401.855469" xlink:href="#DejaVuSans-32"/>
      <use x="1433.642578" xlink:href="#DejaVuSans-112"/>
      <use x="1497.119141" xlink:href="#DejaVuSans-114"/>
      <use x="1538.201172" xlink:href="#DejaVuSans-111"/>
      <use x="1599.382812" xlink:href="#DejaVuSans-102"/>
      <use x="1634.587891" xlink:href="#DejaVuSans-105"/>
      <use x="1662.371094" xlink:href="#DejaVuSans-108"/>
      <use x="1690.154297" xlink:href="#DejaVuSans-101"/>
      <use x="1751.677734" xlink:href="#DejaVuSans-32"/>
      <use x="1783.464844" xlink:href="#DejaVuSans-91"/>
      <use x="1822.478516" xlink:href="#DejaVuSans-109"/>
      <use x="1919.890625" xlink:href="#DejaVuSans-93"/>
     </g>
    </g>
   </g>
   <g id="matplotlib.axis_2">
    <g id="ytick_1">
     <g id="line2d_7">
      <defs>
       <path d="M 0 0 
L -3.5 0 
" id="mfb60e71dbe" style="stroke:#000000;stroke-width:0.8;"/>
      </defs>
      <g>
       <use style="stroke:#000000;stroke-width:0.8;" x="90" xlink:href="#mfb60e71dbe" y="378"/>
      </g>
     </g>
     <g id="text_8">
      <!-- 1.0 -->
      <defs>
       <path d="M 10.6875 12.40625 
L 21 12.40625 
L 21 0 
L 10.6875 0 
z
" id="DejaVuSans-46"/>
      </defs>
      <g transform="translate(67.096875 381.799219)scale(0.1 -0.1)">
       <use xlink:href="#DejaVuSans-49"/>
       <use x="63.623047" xlink:href="#DejaVuSans-46"/>
       <use x="95.410156" xlink:href="#DejaVuSans-48"/>
      </g>
     </g>
    </g>
    <g id="ytick_2">
     <g id="line2d_8">
      <g>
       <use style="stroke:#000000;stroke-width:0.8;" x="90" xlink:href="#mfb60e71dbe" y="323.64"/>
      </g>
     </g>
     <g id="text_9">
      <!-- 1.2 -->
      <g transform="translate(67.096875 327.439219)scale(0.1 -0.1)">
       <use xlink:href="#DejaVuSans-49"/>
       <use x="63.623047" xlink:href="#DejaVuSans-46"/>
       <use x="95.410156" xlink:href="#DejaVuSans-50"/>
      </g>
     </g>
    </g>
    <g id="ytick_3">
     <g id="line2d_9">
      <g>
       <use style="stroke:#000000;stroke-width:0.8;" x="90" xlink:href="#mfb60e71dbe" y="269.28"/>
      </g>
     </g>
     <g id="text_10">
      <!-- 1.4 -->
      <g transform="translate(67.096875 273.079219)scale(0.1 -0.1)">
       <use xlink:href="#DejaVuSans-49"/>
       <use x="63.623047" xlink:href="#DejaVuSans-46"/>
       <use x="95.410156" xlink:href="#DejaVuSans-52"/>
      </g>
     </g>
    </g>
    <g id="ytick_4">
     <g id="line2d_10">
      <g>
       <use style="stroke:#000000;stroke-width:0.8;" x="90" xlink:href="#mfb60e71dbe" y="214.92"/>
      </g>
     </g>
     <g id="text_11">
      <!-- 1.6 -->
      <defs>
       <path d="M 33.015625 40.375 
Q 26.375 40.375 22.484375 35.828125 
Q 18.609375 31.296875 18.609375 23.390625 
Q 18.609375 15.53125 22.484375 10.953125 
Q 26.375 6.390625 33.015625 6.390625 
Q 39.65625 6.390625 43.53125 10.953125 
Q 47.40625 15.53125 47.40625 23.390625 
Q 47.40625 31.296875 43.53125 35.828125 
Q 39.65625 40.375 33.015625 40.375 
z
M 52.59375 71.296875 
L 52.59375 62.3125 
Q 48.875 64.0625 45.09375 64.984375 
Q 41.3125 65.921875 37.59375 65.921875 
Q 27.828125 65.921875 22.671875 59.328125 
Q 17.53125 52.734375 16.796875 39.40625 
Q 19.671875 43.65625 24.015625 45.921875 
Q 28.375 48.1875 33.59375 48.1875 
Q 44.578125 48.1875 50.953125 41.515625 
Q 57.328125 34.859375 57.328125 23.390625 
Q 57.328125 12.15625 50.6875 5.359375 
Q 44.046875 -1.421875 33.015625 -1.421875 
Q 20.359375 -1.421875 13.671875 8.265625 
Q 6.984375 17.96875 6.984375 36.375 
Q 6.984375 53.65625 15.1875 63.9375 
Q 23.390625 74.21875 37.203125 74.21875 
Q 40.921875 74.21875 44.703125 73.484375 
Q 48.484375 72.75 52.59375 71.296875 
z
" id="DejaVuSans-54"/>
      </defs>
      <g transform="translate(67.096875 218.719219)scale(0.1 -0.1)">
       <use xlink:href="#DejaVuSans-49"/>
       <use x="63.623047" xlink:href="#DejaVuSans-46"/>
       <use x="95.410156" xlink:href="#DejaVuSans-54"/>
      </g>
     </g>
    </g>
    <g id="ytick_5">
     <g id="line2d_11">
      <g>
       <use style="stroke:#000000;stroke-width:0.8;" x="90" xlink:href="#mfb60e71dbe" y="160.56"/>
      </g>
     </g>
     <g id="text_12">
      <!-- 1.8 -->
      <defs>
       <path d="M 31.78125 34.625 
Q 24.75 34.625 20.71875 30.859375 
Q 16.703125 27.09375 16.703125 20.515625 
Q 16.703125 13.921875 20.71875 10.15625 
Q 24.75 6.390625 31.78125 6.390625 
Q 38.8125 6.390625 42.859375 10.171875 
Q 46.921875 13.96875 46.921875 20.515625 
Q 46.921875 27.09375 42.890625 30.859375 
Q 38.875 34.625 31.78125 34.625 
z
M 21.921875 38.8125 
Q 15.578125 40.375 12.03125 44.71875 
Q 8.5 49.078125 8.5 55.328125 
Q 8.5 64.0625 14.71875 69.140625 
Q 20.953125 74.21875 31.78125 74.21875 
Q 42.671875 74.21875 48.875 69.140625 
Q 55.078125 64.0625 55.078125 55.328125 
Q 55.078125 49.078125 51.53125 44.71875 
Q 48 40.375 41.703125 38.8125 
Q 48.828125 37.15625 52.796875 32.3125 
Q 56.78125 27.484375 56.78125 20.515625 
Q 56.78125 9.90625 50.3125 4.234375 
Q 43.84375 -1.421875 31.78125 -1.421875 
Q 19.734375 -1.421875 13.25 4.234375 
Q 6.78125 9.90625 6.78125 20.515625 
Q 6.78125 27.484375 10.78125 32.3125 
Q 14.796875 37.15625 21.921875 38.8125 
z
M 18.3125 54.390625 
Q 18.3125 48.734375 21.84375 45.5625 
Q 25.390625 42.390625 31.78125 42.390625 
Q 38.140625 42.390625 41.71875 45.5625 
Q 45.3125 48.734375 45.3125 54.390625 
Q 45.3125 60.0625 41.71875 63.234375 
Q 38.140625 66.40625 31.78125 66.40625 
Q 25.390625 66.40625 21.84375 63.234375 
Q 18.3125 60.0625 18.3125 54.390625 
z
" id="DejaVuSans-56"/>
      </defs>
      <g transform="translate(67.096875 164.359219)scale(0.1 -0.1)">
       <use xlink:href="#DejaVuSans-49"/>
       <use x="63.623047" xlink:href="#DejaVuSans-46"/>
       <use x="95.410156" xlink:href="#DejaVuSans-56"/>
      </g>
     </g>
    </g>
    <g id="ytick_6">
     <g id="line2d_12">
      <g>
       <use style="stroke:#000000;stroke-width:0.8;" x="90" xlink:href="#mfb60e71dbe" y="106.2"/>
      </g>
     </g>
     <g id="text_13">
      <!-- 2.0 -->
      <g transform="translate(67.096875 109.999219)scale(0.1 -0.1)">
       <use xlink:href="#DejaVuSans-50"/>
       <use x="63.623047" xlink:href="#DejaVuSans-46"/>
       <use x="95.410156" xlink:href="#DejaVuSans-48"/>
      </g>
     </g>
    </g>
    <g id="ytick_7">
     <g id="line2d_13">
      <g>
       <use style="stroke:#000000;stroke-width:0.8;" x="90" xlink:href="#mfb60e71dbe" y="51.84"/>
      </g>
     </g>
     <g id="text_14">
      <!-- 2.2 -->
      <g transform="translate(67.096875 55.639219)scale(0.1 -0.1)">
       <use xlink:href="#DejaVuSans-50"/>
       <use x="63.623047" xlink:href="#DejaVuSans-46"/>
       <use x="95.410156" xlink:href="#DejaVuSans-50"/>
      </g>
     </g>
    </g>
    <g id="text_15">
     <!-- sinuosity -->
     <defs>
      <path d="M 8.5 21.578125 
L 8.5 54.6875 
L 17.484375 54.6875 
L 17.484375 21.921875 
Q 17.484375 14.15625 20.5 10.265625 
Q 23.53125 6.390625 29.59375 6.390625 
Q 36.859375 6.390625 41.078125 11.03125 
Q 45.3125 15.671875 45.3125 23.6875 
L 45.3125 54.6875 
L 54.296875 54.6875 
L 54.296875 0 
L 45.3125 0 
L 45.3125 8.40625 
Q 42.046875 3.421875 37.71875 1 
Q 33.40625 -1.421875 27.6875 -1.421875 
Q 18.265625 -1.421875 13.375 4.4375 
Q 8.5 10.296875 8.5 21.578125 
z
M 31.109375 56 
z
" id="DejaVuSans-117"/>
      <path d="M 32.171875 -5.078125 
Q 28.375 -14.84375 24.75 -17.8125 
Q 21.140625 -20.796875 15.09375 -20.796875 
L 7.90625 -20.796875 
L 7.90625 -13.28125 
L 13.1875 -13.28125 
Q 16.890625 -13.28125 18.9375 -11.515625 
Q 21 -9.765625 23.484375 -3.21875 
L 25.09375 0.875 
L 2.984375 54.6875 
L 12.5 54.6875 
L 29.59375 11.921875 
L 46.6875 54.6875 
L 56.203125 54.6875 
z
" id="DejaVuSans-121"/>
     </defs>
     <g transform="translate(60.60125 241.684687)rotate(-90)scale(0.12 -0.12)">
      <use xlink:href="#DejaVuSans-115"/>
      <use x="52.099609" xlink:href="#DejaVuSans-105"/>
      <use x="79.882812" xlink:href="#DejaVuSans-110"/>
      <use x="143.261719" xlink:href="#DejaVuSans-117"/>
      <use x="206.640625" xlink:href="#DejaVuSans-111"/>
      <use x="267.822266" xlink:href="#DejaVuSans-115"/>
      <use x="319.921875" xlink:href="#DejaVuSans-105"/>
      <use x="347.705078" xlink:href="#DejaVuSans-116"/>
      <use x="386.914062" xlink:href="#DejaVuSans-121"/>
     </g>
    </g>
   </g>
   <g id="line2d_14">
    <path clip-path="url(#pc5a6ead052)" d="M 114.552 300.673389 
L 115.668 299.352821 
L 116.784 298.019099 
L 117.9 296.672209 
L 119.016 295.312144 
L 120.132 293.938908 
L 121.248 292.552514 
L 122.364 291.152984 
L 123.48 289.740351 
L 124.596 288.314657 
L 125.712 286.875959 
L 126.828 285.424323 
L 127.944 283.959827 
L 129.06 282.482564 
L 130.176 280.992637 
L 131.292 279.490165 
L 132.408 277.975279 
L 133.524 276.448128 
L 134.64 274.908871 
L 135.756 273.357686 
L 136.872 271.794764 
L 137.988 270.220315 
L 139.104 268.634563 
L 140.22 267.037747 
L 141.336 265.430127 
L 142.452 263.811977 
L 143.568 262.183589 
L 144.684 260.545272 
L 145.8 258.897354 
L 146.916 257.240179 
L 148.032 255.574109 
L 149.148 253.899523 
L 150.264 252.216821 
L 151.38 250.526416 
L 152.496 248.82874 
L 153.612 247.124243 
L 154.728 245.413392 
L 155.844 243.696669 
L 156.96 241.974573 
L 158.076 240.24762 
L 159.192 238.51634 
L 160.308 236.781278 
L 161.424 235.042995 
L 162.54 233.302063 
L 163.656 231.559071 
L 164.772 229.814617 
L 165.888 228.069312 
L 167.004 226.323779 
L 168.12 224.578651 
L 169.236 222.834568 
L 170.352 221.092182 
L 171.468 219.35215 
L 172.584 217.615137 
L 173.7 215.881814 
L 174.816 214.152856 
L 175.932 212.428943 
L 177.048 210.710756 
L 178.164 208.99898 
L 179.28 207.294298 
L 180.396 205.597396 
L 181.512 203.908958 
L 182.628 202.229664 
L 183.744 200.560192 
L 184.86 198.901217 
L 185.976 197.253408 
L 187.092 195.617426 
L 188.208 193.993928 
L 189.324 192.383562 
L 190.44 190.786966 
L 191.556 189.204772 
L 192.672 187.637596 
L 193.788 186.086048 
L 194.904 184.550723 
L 196.02 183.032205 
L 197.136 181.531063 
L 198.252 180.047854 
L 199.368 178.583118 
L 200.484 177.137383 
L 201.6 175.711158 
L 202.716 174.304939 
L 203.832 172.919204 
L 204.948 171.554414 
L 206.064 170.211013 
L 207.18 168.889427 
L 208.296 167.590066 
L 209.412 166.31332 
L 210.528 165.059563 
L 211.644 163.829147 
L 212.76 162.622411 
L 213.876 161.439671 
L 214.992 160.281226 
L 216.108 159.147357 
L 217.224 158.038328 
L 218.34 156.954381 
" style="fill:none;stroke:#1f77b4;stroke-linecap:square;stroke-width:1.5;"/>
   </g>
   <g id="line2d_15">
    <path clip-path="url(#pc5a6ead052)" d="M 114.552 349.782676 
L 120.132 346.483089 
L 125.712 342.911279 
L 131.292 339.053735 
L 136.872 334.898707 
L 142.452 330.436679 
L 148.032 325.661017 
L 153.612 320.56892 
L 159.192 315.162805 
L 164.772 309.452246 
L 170.352 303.456501 
L 177.048 295.931229 
L 184.86 286.808559 
L 202.716 265.76232 
L 208.296 259.572699 
L 212.76 254.905656 
L 217.224 250.556622 
L 221.688 246.574785 
L 225.036 243.850486 
L 228.384 241.359437 
L 231.732 239.101743 
L 235.08 237.069767 
L 238.428 235.247782 
L 242.892 233.102796 
L 247.356 231.210143 
L 256.284 227.769084 
L 261.864 225.503265 
L 266.328 223.423613 
L 269.676 221.627869 
L 273.024 219.578123 
L 276.372 217.234261 
L 279.72 214.563488 
L 283.068 211.541309 
L 286.416 208.15217 
L 289.764 204.389745 
L 293.112 200.256874 
L 296.46 195.765172 
L 299.808 190.934348 
L 304.272 184.013084 
L 308.736 176.617374 
L 314.316 166.849558 
L 321.012 154.627849 
L 336.636 125.870146 
L 342.216 116.084391 
L 347.796 106.781132 
L 352.26 99.754786 
L 356.724 93.141313 
L 361.188 86.968902 
L 365.652 81.256018 
L 369 77.27911 
L 372.348 73.567645 
L 375.696 70.120775 
L 379.044 66.935768 
L 379.044 66.935768 
" style="fill:none;stroke:#ff7f0e;stroke-linecap:square;stroke-width:1.5;"/>
   </g>
   <g id="line2d_16">
    <path clip-path="url(#pc5a6ead052)" d="M 114.552 334.554472 
L 123.48 334.539735 
L 131.292 334.330372 
L 139.104 333.894703 
L 146.916 333.213965 
L 154.728 332.302635 
L 164.772 330.888761 
L 179.28 328.82981 
L 185.976 328.105161 
L 191.556 327.70435 
L 197.136 327.528501 
L 202.716 327.594034 
L 208.296 327.890971 
L 214.992 328.494225 
L 232.848 330.29008 
L 237.312 330.430272 
L 240.66 330.358504 
L 244.008 330.097818 
L 247.356 329.615341 
L 250.704 328.87947 
L 254.052 327.860439 
L 257.4 326.530809 
L 260.748 324.865894 
L 264.096 322.844113 
L 267.444 320.447265 
L 270.792 317.660727 
L 274.14 314.473596 
L 277.488 310.878753 
L 280.836 306.872893 
L 284.184 302.456499 
L 287.532 297.63379 
L 290.88 292.412654 
L 294.228 286.804562 
L 297.576 280.824492 
L 302.04 272.304746 
L 306.504 263.209816 
L 310.968 253.603259 
L 316.548 240.989481 
L 323.244 225.189897 
L 344.448 174.436825 
L 348.912 164.502457 
L 353.376 155.144765 
L 356.724 148.590666 
L 360.072 142.499312 
L 363.42 136.926289 
L 366.768 131.923509 
L 369 128.928674 
L 371.232 126.22104 
L 373.464 123.812021 
L 375.696 121.711696 
L 377.928 119.928708 
L 380.16 118.470176 
L 382.392 117.341622 
L 384.624 116.546915 
L 386.856 116.08822 
L 389.088 115.965971 
L 391.32 116.178852 
L 393.552 116.723796 
L 395.784 117.595996 
L 398.016 118.788928 
L 400.248 120.29439 
L 402.48 122.102545 
L 404.712 124.201978 
L 406.944 126.579764 
L 409.176 129.221531 
L 412.524 133.644375 
L 415.872 138.567038 
L 419.22 143.925227 
L 422.568 149.649466 
L 427.032 157.722771 
L 433.728 170.397082 
L 442.656 187.313934 
L 447.12 195.325704 
L 450.468 200.97486 
L 453.816 206.22516 
L 457.164 210.998909 
L 459.396 213.880418 
L 461.628 216.49743 
L 463.86 218.831132 
L 466.092 220.864222 
L 468.324 222.581078 
L 470.556 223.967899 
L 472.788 225.012855 
L 475.02 225.706208 
L 477.252 226.040429 
L 479.484 226.01029 
L 481.716 225.612931 
L 483.948 224.84791 
L 486.18 223.717222 
L 488.412 222.225287 
L 490.644 220.378922 
L 492.876 218.187266 
L 495.108 215.661694 
L 497.34 212.815695 
L 499.572 209.664726 
L 501.804 206.226045 
L 505.152 200.570238 
L 508.5 194.379286 
L 511.848 187.72808 
L 516.312 178.28009 
L 521.892 165.80765 
L 541.98 120.078064 
L 546.444 110.692146 
L 550.908 101.841288 
L 554.256 95.601259 
L 557.604 89.730544 
L 560.952 84.247666 
L 564.3 79.165366 
L 566.532 76.003583 
L 566.532 76.003583 
" style="fill:none;stroke:#2ca02c;stroke-linecap:square;stroke-width:1.5;"/>
   </g>
   <g id="line2d_17">
    <path clip-path="url(#pc5a6ead052)" d="M 114.552 338.318245 
L 131.292 337.41471 
L 149.148 336.401706 
L 161.424 335.483417 
L 187.092 333.435989 
L 193.788 333.169528 
L 200.484 333.145403 
L 206.064 333.341873 
L 211.644 333.74117 
L 218.34 334.45972 
L 227.268 335.676732 
L 236.196 336.863065 
L 241.776 337.377066 
L 246.24 337.552066 
L 249.588 337.49773 
L 252.936 337.250114 
L 256.284 336.779121 
L 259.632 336.05586 
L 262.98 335.053133 
L 266.328 333.745875 
L 269.676 332.111537 
L 273.024 330.130403 
L 276.372 327.785853 
L 279.72 325.064569 
L 283.068 321.956682 
L 286.416 318.455875 
L 289.764 314.559437 
L 293.112 310.26829 
L 296.46 305.58698 
L 299.808 300.523648 
L 303.156 295.08999 
L 306.504 289.301207 
L 310.968 281.063148 
L 315.432 272.280938 
L 319.896 263.018801 
L 325.476 250.881008 
L 332.172 235.719942 
L 351.144 192.289623 
L 355.608 182.702696 
L 360.072 173.639983 
L 363.42 167.271321 
L 366.768 161.334614 
L 370.116 155.886278 
L 373.464 150.979976 
L 375.696 148.035077 
L 377.928 145.367039 
L 380.16 142.988467 
L 382.392 140.910789 
L 384.624 139.144132 
L 386.856 137.697214 
L 389.088 136.577254 
L 391.32 135.789875 
L 393.552 135.33904 
L 395.784 135.226986 
L 398.016 135.454186 
L 400.248 136.019317 
L 402.48 136.919255 
L 404.712 138.149074 
L 406.944 139.702077 
L 409.176 141.569834 
L 411.408 143.742239 
L 413.64 146.207582 
L 415.872 148.952643 
L 418.104 151.962788 
L 421.452 156.939876 
L 424.8 162.418763 
L 428.148 168.336077 
L 432.612 176.791543 
L 437.076 185.741709 
L 443.772 199.728005 
L 456.048 225.488926 
L 461.628 236.608737 
L 466.092 245.030006 
L 470.556 252.942586 
L 473.904 258.508429 
L 477.252 263.740337 
L 480.6 268.629377 
L 483.948 273.172842 
L 487.296 277.373648 
L 490.644 281.239602 
L 493.992 284.782589 
L 497.34 288.017681 
L 500.688 290.96222 
L 504.036 293.634905 
L 507.384 296.054903 
L 510.732 298.241039 
L 514.08 300.211057 
L 517.428 301.981017 
L 521.892 304.0534 
L 526.356 305.820366 
L 530.82 307.299136 
L 535.284 308.49834 
L 539.748 309.418771 
L 544.212 310.054701 
L 547.56 310.338748 
L 550.908 310.451344 
L 554.256 310.38652 
L 557.604 310.138381 
L 560.952 309.701552 
L 564.3 309.071572 
L 567.648 308.245236 
L 570.996 307.220865 
L 574.344 305.998498 
L 577.692 304.580013 
L 581.04 302.969173 
L 585.504 300.532154 
L 589.968 297.781583 
L 594.432 294.740674 
L 598.896 291.436849 
L 604.476 286.98433 
L 610.056 282.233793 
L 616.752 276.234445 
L 625.68 267.917151 
L 646.884 248.041981 
L 649.116 246.019825 
L 649.116 246.019825 
" style="fill:none;stroke:#d62728;stroke-linecap:square;stroke-width:1.5;"/>
   </g>
   <g id="patch_3">
    <path d="M 90 378 
L 90 51.84 
" style="fill:none;stroke:#000000;stroke-linecap:square;stroke-linejoin:miter;stroke-width:0.8;"/>
   </g>
   <g id="patch_4">
    <path d="M 648 378 
L 648 51.84 
" style="fill:none;stroke:#000000;stroke-linecap:square;stroke-linejoin:miter;stroke-width:0.8;"/>
   </g>
   <g id="patch_5">
    <path d="M 90 378 
L 648 378 
" style="fill:none;stroke:#000000;stroke-linecap:square;stroke-linejoin:miter;stroke-width:0.8;"/>
   </g>
   <g id="patch_6">
    <path d="M 90 51.84 
L 648 51.84 
" style="fill:none;stroke:#000000;stroke-linecap:square;stroke-linejoin:miter;stroke-width:0.8;"/>
   </g>
   <g id="text_16">
    <!-- Windowed sinuosity along channel CM7, window length = 50m -->
    <defs>
     <path d="M 3.328125 72.90625 
L 13.28125 72.90625 
L 28.609375 11.28125 
L 43.890625 72.90625 
L 54.984375 72.90625 
L 70.3125 11.28125 
L 85.59375 72.90625 
L 95.609375 72.90625 
L 77.296875 0 
L 64.890625 0 
L 49.515625 63.28125 
L 33.984375 0 
L 21.578125 0 
z
" id="DejaVuSans-87"/>
     <path d="M 4.203125 54.6875 
L 13.1875 54.6875 
L 24.421875 12.015625 
L 35.59375 54.6875 
L 46.1875 54.6875 
L 57.421875 12.015625 
L 68.609375 54.6875 
L 77.59375 54.6875 
L 63.28125 0 
L 52.6875 0 
L 40.921875 44.828125 
L 29.109375 0 
L 18.5 0 
z
" id="DejaVuSans-119"/>
     <path d="M 64.40625 67.28125 
L 64.40625 56.890625 
Q 59.421875 61.53125 53.78125 63.8125 
Q 48.140625 66.109375 41.796875 66.109375 
Q 29.296875 66.109375 22.65625 58.46875 
Q 16.015625 50.828125 16.015625 36.375 
Q 16.015625 21.96875 22.65625 14.328125 
Q 29.296875 6.6875 41.796875 6.6875 
Q 48.140625 6.6875 53.78125 8.984375 
Q 59.421875 11.28125 64.40625 15.921875 
L 64.40625 5.609375 
Q 59.234375 2.09375 53.4375 0.328125 
Q 47.65625 -1.421875 41.21875 -1.421875 
Q 24.65625 -1.421875 15.125 8.703125 
Q 5.609375 18.84375 5.609375 36.375 
Q 5.609375 53.953125 15.125 64.078125 
Q 24.65625 74.21875 41.21875 74.21875 
Q 47.75 74.21875 53.53125 72.484375 
Q 59.328125 70.75 64.40625 67.28125 
z
" id="DejaVuSans-67"/>
     <path d="M 9.8125 72.90625 
L 24.515625 72.90625 
L 43.109375 23.296875 
L 61.8125 72.90625 
L 76.515625 72.90625 
L 76.515625 0 
L 66.890625 0 
L 66.890625 64.015625 
L 48.09375 14.015625 
L 38.1875 14.015625 
L 19.390625 64.015625 
L 19.390625 0 
L 9.8125 0 
z
" id="DejaVuSans-77"/>
     <path d="M 8.203125 72.90625 
L 55.078125 72.90625 
L 55.078125 68.703125 
L 28.609375 0 
L 18.3125 0 
L 43.21875 64.59375 
L 8.203125 64.59375 
z
" id="DejaVuSans-55"/>
     <path d="M 11.71875 12.40625 
L 22.015625 12.40625 
L 22.015625 4 
L 14.015625 -11.625 
L 7.71875 -11.625 
L 11.71875 4 
z
" id="DejaVuSans-44"/>
     <path d="M 10.59375 45.40625 
L 73.1875 45.40625 
L 73.1875 37.203125 
L 10.59375 37.203125 
z
M 10.59375 25.484375 
L 73.1875 25.484375 
L 73.1875 17.1875 
L 10.59375 17.1875 
z
" id="DejaVuSans-61"/>
    </defs>
    <g transform="translate(148.309687 45.84)scale(0.14 -0.14)">
     <use xlink:href="#DejaVuSans-87"/>
     <use x="98.845703" xlink:href="#DejaVuSans-105"/>
     <use x="126.628906" xlink:href="#DejaVuSans-110"/>
     <use x="190.007812" xlink:href="#DejaVuSans-100"/>
     <use x="253.484375" xlink:href="#DejaVuSans-111"/>
     <use x="314.666016" xlink:href="#DejaVuSans-119"/>
     <use x="396.453125" xlink:href="#DejaVuSans-101"/>
     <use x="457.976562" xlink:href="#DejaVuSans-100"/>
     <use x="521.453125" xlink:href="#DejaVuSans-32"/>
     <use x="553.240234" xlink:href="#DejaVuSans-115"/>
     <use x="605.339844" xlink:href="#DejaVuSans-105"/>
     <use x="633.123047" xlink:href="#DejaVuSans-110"/>
     <use x="696.501953" xlink:href="#DejaVuSans-117"/>
     <use x="759.880859" xlink:href="#DejaVuSans-111"/>
     <use x="821.0625" xlink:href="#DejaVuSans-115"/>
     <use x="873.162109" xlink:href="#DejaVuSans-105"/>
     <use x="900.945312" xlink:href="#DejaVuSans-116"/>
     <use x="940.154297" xlink:href="#DejaVuSans-121"/>
     <use x="999.333984" xlink:href="#DejaVuSans-32"/>
     <use x="1031.121094" xlink:href="#DejaVuSans-97"/>
     <use x="1092.400391" xlink:href="#DejaVuSans-108"/>
     <use x="1120.183594" xlink:href="#DejaVuSans-111"/>
     <use x="1181.365234" xlink:href="#DejaVuSans-110"/>
     <use x="1244.744141" xlink:href="#DejaVuSans-103"/>
     <use x="1308.220703" xlink:href="#DejaVuSans-32"/>
     <use x="1340.007812" xlink:href="#DejaVuSans-99"/>
     <use x="1394.988281" xlink:href="#DejaVuSans-104"/>
     <use x="1458.367188" xlink:href="#DejaVuSans-97"/>
     <use x="1519.646484" xlink:href="#DejaVuSans-110"/>
     <use x="1583.025391" xlink:href="#DejaVuSans-110"/>
     <use x="1646.404297" xlink:href="#DejaVuSans-101"/>
     <use x="1707.927734" xlink:href="#DejaVuSans-108"/>
     <use x="1735.710938" xlink:href="#DejaVuSans-32"/>
     <use x="1767.498047" xlink:href="#DejaVuSans-67"/>
     <use x="1837.322266" xlink:href="#DejaVuSans-77"/>
     <use x="1923.601562" xlink:href="#DejaVuSans-55"/>
     <use x="1987.224609" xlink:href="#DejaVuSans-44"/>
     <use x="2019.011719" xlink:href="#DejaVuSans-32"/>
     <use x="2050.798828" xlink:href="#DejaVuSans-119"/>
     <use x="2132.585938" xlink:href="#DejaVuSans-105"/>
     <use x="2160.369141" xlink:href="#DejaVuSans-110"/>
     <use x="2223.748047" xlink:href="#DejaVuSans-100"/>
     <use x="2287.224609" xlink:href="#DejaVuSans-111"/>
     <use x="2348.40625" xlink:href="#DejaVuSans-119"/>
     <use x="2430.193359" xlink:href="#DejaVuSans-32"/>
     <use x="2461.980469" xlink:href="#DejaVuSans-108"/>
     <use x="2489.763672" xlink:href="#DejaVuSans-101"/>
     <use x="2551.287109" xlink:href="#DejaVuSans-110"/>
     <use x="2614.666016" xlink:href="#DejaVuSans-103"/>
     <use x="2678.142578" xlink:href="#DejaVuSans-116"/>
     <use x="2717.351562" xlink:href="#DejaVuSans-104"/>
     <use x="2780.730469" xlink:href="#DejaVuSans-32"/>
     <use x="2812.517578" xlink:href="#DejaVuSans-61"/>
     <use x="2896.306641" xlink:href="#DejaVuSans-32"/>
     <use x="2928.09375" xlink:href="#DejaVuSans-53"/>
     <use x="2991.716797" xlink:href="#DejaVuSans-48"/>
     <use x="3055.339844" xlink:href="#DejaVuSans-109"/>
    </g>
   </g>
   <g id="legend_1">
    <g id="patch_7">
     <path d="M 577.46 165.996 
L 634.91 165.996 
Q 636.91 165.996 636.91 163.996 
L 636.91 106.2835 
Q 636.91 104.2835 634.91 104.2835 
L 577.46 104.2835 
Q 575.46 104.2835 575.46 106.2835 
L 575.46 163.996 
Q 575.46 165.996 577.46 165.996 
z
" style="fill:#ffffff;opacity:0.8;stroke:#cccccc;stroke-linejoin:miter;"/>
    </g>
    <g id="line2d_18">
     <path d="M 579.46 112.381937 
L 599.46 112.381937 
" style="fill:none;stroke:#1f77b4;stroke-linecap:square;stroke-width:1.5;"/>
    </g>
    <g id="line2d_19"/>
    <g id="text_17">
     <!-- 2009 -->
     <defs>
      <path d="M 10.984375 1.515625 
L 10.984375 10.5 
Q 14.703125 8.734375 18.5 7.8125 
Q 22.3125 6.890625 25.984375 6.890625 
Q 35.75 6.890625 40.890625 13.453125 
Q 46.046875 20.015625 46.78125 33.40625 
Q 43.953125 29.203125 39.59375 26.953125 
Q 35.25 24.703125 29.984375 24.703125 
Q 19.046875 24.703125 12.671875 31.3125 
Q 6.296875 37.9375 6.296875 49.421875 
Q 6.296875 60.640625 12.9375 67.421875 
Q 19.578125 74.21875 30.609375 74.21875 
Q 43.265625 74.21875 49.921875 64.515625 
Q 56.59375 54.828125 56.59375 36.375 
Q 56.59375 19.140625 48.40625 8.859375 
Q 40.234375 -1.421875 26.421875 -1.421875 
Q 22.703125 -1.421875 18.890625 -0.6875 
Q 15.09375 0.046875 10.984375 1.515625 
z
M 30.609375 32.421875 
Q 37.25 32.421875 41.125 36.953125 
Q 45.015625 41.5 45.015625 49.421875 
Q 45.015625 57.28125 41.125 61.84375 
Q 37.25 66.40625 30.609375 66.40625 
Q 23.96875 66.40625 20.09375 61.84375 
Q 16.21875 57.28125 16.21875 49.421875 
Q 16.21875 41.5 20.09375 36.953125 
Q 23.96875 32.421875 30.609375 32.421875 
z
" id="DejaVuSans-57"/>
     </defs>
     <g transform="translate(607.46 115.881937)scale(0.1 -0.1)">
      <use xlink:href="#DejaVuSans-50"/>
      <use x="63.623047" xlink:href="#DejaVuSans-48"/>
      <use x="127.246094" xlink:href="#DejaVuSans-48"/>
      <use x="190.869141" xlink:href="#DejaVuSans-57"/>
     </g>
    </g>
    <g id="line2d_20">
     <path d="M 579.46 127.060063 
L 599.46 127.060063 
" style="fill:none;stroke:#ff7f0e;stroke-linecap:square;stroke-width:1.5;"/>
    </g>
    <g id="line2d_21"/>
    <g id="text_18">
     <!-- 2012 -->
     <g transform="translate(607.46 130.560063)scale(0.1 -0.1)">
      <use xlink:href="#DejaVuSans-50"/>
      <use x="63.623047" xlink:href="#DejaVuSans-48"/>
      <use x="127.246094" xlink:href="#DejaVuSans-49"/>
      <use x="190.869141" xlink:href="#DejaVuSans-50"/>
     </g>
    </g>
    <g id="line2d_22">
     <path d="M 579.46 141.738187 
L 599.46 141.738187 
" style="fill:none;stroke:#2ca02c;stroke-linecap:square;stroke-width:1.5;"/>
    </g>
    <g id="line2d_23"/>
    <g id="text_19">
     <!-- 2014 -->
     <g transform="translate(607.46 145.238187)scale(0.1 -0.1)">
      <use xlink:href="#DejaVuSans-50"/>
      <use x="63.623047" xlink:href="#DejaVuSans-48"/>
      <use x="127.246094" xlink:href="#DejaVuSans-49"/>
      <use x="190.869141" xlink:href="#DejaVuSans-52"/>
     </g>
    </g>
    <g id="line2d_24">
     <path d="M 579.46 156.416313 
L 599.46 156.416313 
" style="fill:none;stroke:#d62728;stroke-linecap:square;stroke-width:1.5;"/>
    </g>
    <g id="line2d_25"/>
    <g id="text_20">
     <!-- 2017 -->
     <g transform="translate(607.46 159.916313)scale(0.1 -0.1)">
      <use xlink:href="#DejaVuSans-50"/>
      <use x="63.623047" xlink:href="#DejaVuSans-48"/>
      <use x="127.246094" xlink:href="#DejaVuSans-49"/>
      <use x="190.869141" xlink:href="#DejaVuSans-55"/>
     </g>
    </g>
   </g>
  </g>
  <g id="axes_2">
   <g id="matplotlib.axis_3">
    <g id="ytick_8">
     <g id="line2d_26">
      <defs>
       <path d="M 0 0 
L 3.5 0 
" id="m3cd3b3bebb" style="stroke:#000000;stroke-width:0.8;"/>
      </defs>
      <g>
       <use style="stroke:#000000;stroke-width:0.8;" x="648" xlink:href="#m3cd3b3bebb" y="378"/>
      </g>
     </g>
     <g id="text_21">
      <!-- −430 -->
      <defs>
       <path d="M 10.59375 35.5 
L 73.1875 35.5 
L 73.1875 27.203125 
L 10.59375 27.203125 
z
" id="DejaVuSans-8722"/>
      </defs>
      <g transform="translate(655 381.799219)scale(0.1 -0.1)">
       <use xlink:href="#DejaVuSans-8722"/>
       <use x="83.789062" xlink:href="#DejaVuSans-52"/>
       <use x="147.412109" xlink:href="#DejaVuSans-51"/>
       <use x="211.035156" xlink:href="#DejaVuSans-48"/>
      </g>
     </g>
    </g>
    <g id="ytick_9">
     <g id="line2d_27">
      <g>
       <use style="stroke:#000000;stroke-width:0.8;" x="648" xlink:href="#m3cd3b3bebb" y="325.8144"/>
      </g>
     </g>
     <g id="text_22">
      <!-- −428 -->
      <g transform="translate(655 329.613619)scale(0.1 -0.1)">
       <use xlink:href="#DejaVuSans-8722"/>
       <use x="83.789062" xlink:href="#DejaVuSans-52"/>
       <use x="147.412109" xlink:href="#DejaVuSans-50"/>
       <use x="211.035156" xlink:href="#DejaVuSans-56"/>
      </g>
     </g>
    </g>
    <g id="ytick_10">
     <g id="line2d_28">
      <g>
       <use style="stroke:#000000;stroke-width:0.8;" x="648" xlink:href="#m3cd3b3bebb" y="273.6288"/>
      </g>
     </g>
     <g id="text_23">
      <!-- −426 -->
      <g transform="translate(655 277.428019)scale(0.1 -0.1)">
       <use xlink:href="#DejaVuSans-8722"/>
       <use x="83.789062" xlink:href="#DejaVuSans-52"/>
       <use x="147.412109" xlink:href="#DejaVuSans-50"/>
       <use x="211.035156" xlink:href="#DejaVuSans-54"/>
      </g>
     </g>
    </g>
    <g id="ytick_11">
     <g id="line2d_29">
      <g>
       <use style="stroke:#000000;stroke-width:0.8;" x="648" xlink:href="#m3cd3b3bebb" y="221.4432"/>
      </g>
     </g>
     <g id="text_24">
      <!-- −424 -->
      <g transform="translate(655 225.242419)scale(0.1 -0.1)">
       <use xlink:href="#DejaVuSans-8722"/>
       <use x="83.789062" xlink:href="#DejaVuSans-52"/>
       <use x="147.412109" xlink:href="#DejaVuSans-50"/>
       <use x="211.035156" xlink:href="#DejaVuSans-52"/>
      </g>
     </g>
    </g>
    <g id="ytick_12">
     <g id="line2d_30">
      <g>
       <use style="stroke:#000000;stroke-width:0.8;" x="648" xlink:href="#m3cd3b3bebb" y="169.2576"/>
      </g>
     </g>
     <g id="text_25">
      <!-- −422 -->
      <g transform="translate(655 173.056819)scale(0.1 -0.1)">
       <use xlink:href="#DejaVuSans-8722"/>
       <use x="83.789062" xlink:href="#DejaVuSans-52"/>
       <use x="147.412109" xlink:href="#DejaVuSans-50"/>
       <use x="211.035156" xlink:href="#DejaVuSans-50"/>
      </g>
     </g>
    </g>
    <g id="ytick_13">
     <g id="line2d_31">
      <g>
       <use style="stroke:#000000;stroke-width:0.8;" x="648" xlink:href="#m3cd3b3bebb" y="117.072"/>
      </g>
     </g>
     <g id="text_26">
      <!-- −420 -->
      <g transform="translate(655 120.871219)scale(0.1 -0.1)">
       <use xlink:href="#DejaVuSans-8722"/>
       <use x="83.789062" xlink:href="#DejaVuSans-52"/>
       <use x="147.412109" xlink:href="#DejaVuSans-50"/>
       <use x="211.035156" xlink:href="#DejaVuSans-48"/>
      </g>
     </g>
    </g>
    <g id="ytick_14">
     <g id="line2d_32">
      <g>
       <use style="stroke:#000000;stroke-width:0.8;" x="648" xlink:href="#m3cd3b3bebb" y="64.8864"/>
      </g>
     </g>
     <g id="text_27">
      <!-- −418 -->
      <g transform="translate(655 68.685619)scale(0.1 -0.1)">
       <use xlink:href="#DejaVuSans-8722"/>
       <use x="83.789062" xlink:href="#DejaVuSans-52"/>
       <use x="147.412109" xlink:href="#DejaVuSans-49"/>
       <use x="211.035156" xlink:href="#DejaVuSans-56"/>
      </g>
     </g>
    </g>
    <g id="text_28">
     <!-- meander belt axis profile elevation [m] -->
     <defs>
      <path d="M 48.6875 27.296875 
Q 48.6875 37.203125 44.609375 42.84375 
Q 40.53125 48.484375 33.40625 48.484375 
Q 26.265625 48.484375 22.1875 42.84375 
Q 18.109375 37.203125 18.109375 27.296875 
Q 18.109375 17.390625 22.1875 11.75 
Q 26.265625 6.109375 33.40625 6.109375 
Q 40.53125 6.109375 44.609375 11.75 
Q 48.6875 17.390625 48.6875 27.296875 
z
M 18.109375 46.390625 
Q 20.953125 51.265625 25.265625 53.625 
Q 29.59375 56 35.59375 56 
Q 45.5625 56 51.78125 48.09375 
Q 58.015625 40.1875 58.015625 27.296875 
Q 58.015625 14.40625 51.78125 6.484375 
Q 45.5625 -1.421875 35.59375 -1.421875 
Q 29.59375 -1.421875 25.265625 0.953125 
Q 20.953125 3.328125 18.109375 8.203125 
L 18.109375 0 
L 9.078125 0 
L 9.078125 75.984375 
L 18.109375 75.984375 
z
" id="DejaVuSans-98"/>
      <path d="M 54.890625 54.6875 
L 35.109375 28.078125 
L 55.90625 0 
L 45.3125 0 
L 29.390625 21.484375 
L 13.484375 0 
L 2.875 0 
L 24.125 28.609375 
L 4.6875 54.6875 
L 15.28125 54.6875 
L 29.78125 35.203125 
L 44.28125 54.6875 
z
" id="DejaVuSans-120"/>
      <path d="M 2.984375 54.6875 
L 12.5 54.6875 
L 29.59375 8.796875 
L 46.6875 54.6875 
L 56.203125 54.6875 
L 35.6875 0 
L 23.484375 0 
z
" id="DejaVuSans-118"/>
     </defs>
     <g transform="translate(695.585312 332.35875)rotate(-90)scale(0.12 -0.12)">
      <use xlink:href="#DejaVuSans-109"/>
      <use x="97.412109" xlink:href="#DejaVuSans-101"/>
      <use x="158.935547" xlink:href="#DejaVuSans-97"/>
      <use x="220.214844" xlink:href="#DejaVuSans-110"/>
      <use x="283.59375" xlink:href="#DejaVuSans-100"/>
      <use x="347.070312" xlink:href="#DejaVuSans-101"/>
      <use x="408.59375" xlink:href="#DejaVuSans-114"/>
      <use x="449.707031" xlink:href="#DejaVuSans-32"/>
      <use x="481.494141" xlink:href="#DejaVuSans-98"/>
      <use x="544.970703" xlink:href="#DejaVuSans-101"/>
      <use x="606.494141" xlink:href="#DejaVuSans-108"/>
      <use x="634.277344" xlink:href="#DejaVuSans-116"/>
      <use x="673.486328" xlink:href="#DejaVuSans-32"/>
      <use x="705.273438" xlink:href="#DejaVuSans-97"/>
      <use x="766.552734" xlink:href="#DejaVuSans-120"/>
      <use x="825.732422" xlink:href="#DejaVuSans-105"/>
      <use x="853.515625" xlink:href="#DejaVuSans-115"/>
      <use x="905.615234" xlink:href="#DejaVuSans-32"/>
      <use x="937.402344" xlink:href="#DejaVuSans-112"/>
      <use x="1000.878906" xlink:href="#DejaVuSans-114"/>
      <use x="1041.960938" xlink:href="#DejaVuSans-111"/>
      <use x="1103.142578" xlink:href="#DejaVuSans-102"/>
      <use x="1138.347656" xlink:href="#DejaVuSans-105"/>
      <use x="1166.130859" xlink:href="#DejaVuSans-108"/>
      <use x="1193.914062" xlink:href="#DejaVuSans-101"/>
      <use x="1255.4375" xlink:href="#DejaVuSans-32"/>
      <use x="1287.224609" xlink:href="#DejaVuSans-101"/>
      <use x="1348.748047" xlink:href="#DejaVuSans-108"/>
      <use x="1376.53125" xlink:href="#DejaVuSans-101"/>
      <use x="1438.054688" xlink:href="#DejaVuSans-118"/>
      <use x="1497.234375" xlink:href="#DejaVuSans-97"/>
      <use x="1558.513672" xlink:href="#DejaVuSans-116"/>
      <use x="1597.722656" xlink:href="#DejaVuSans-105"/>
      <use x="1625.505859" xlink:href="#DejaVuSans-111"/>
      <use x="1686.6875" xlink:href="#DejaVuSans-110"/>
      <use x="1750.066406" xlink:href="#DejaVuSans-32"/>
      <use x="1781.853516" xlink:href="#DejaVuSans-91"/>
      <use x="1820.867188" xlink:href="#DejaVuSans-109"/>
      <use x="1918.279297" xlink:href="#DejaVuSans-93"/>
     </g>
    </g>
   </g>
   <g id="line2d_33">
    <path clip-path="url(#pc5a6ead052)" d="M 90 88.821884 
L 115.668 102.582209 
L 141.336 117.773296 
L 167.004 134.20848 
L 192.672 149.939887 
L 194.556691 151.053462 
L 220.224691 162.761296 
L 245.892691 170.580685 
L 271.560691 179.791861 
L 287.304324 189.045237 
L 312.972324 206.113594 
L 338.640324 222.069234 
L 364.308324 228.704555 
L 373.821204 231.652757 
L 399.489204 236.103267 
L 425.157204 241.059757 
L 437.825883 243.658417 
L 463.493883 258.64459 
L 489.161883 274.164715 
L 511.734287 285.511422 
L 537.402287 295.308921 
L 563.070287 302.958214 
L 567.300249 304.778695 
L 592.968249 316.793782 
L 618.636249 331.893855 
L 644.304249 348.836863 
L 669.308915 365.409945 
" style="fill:none;stroke:#000000;stroke-dasharray:9.6,2.4,1.5,2.4;stroke-dashoffset:0;stroke-width:1.5;"/>
   </g>
   <g id="line2d_34">
    <path clip-path="url(#pc5a6ead052)" d="M 90 194.640402 
L 115.668 219.073102 
L 141.336 219.878944 
L 167.004 219.744728 
L 192.672 227.264102 
L 194.556691 228.06609 
L 220.224691 240.36741 
L 245.892691 253.702736 
L 271.560691 265.779689 
L 287.304324 273.433876 
L 312.972324 281.174611 
L 338.640324 290.498296 
L 364.308324 299.383471 
L 373.821204 303.275434 
L 399.489204 310.878205 
L 425.157204 315.836062 
L 437.825883 317.18166 
L 463.493883 324.750662 
L 489.161883 331.119961 
L 511.734287 335.927142 
L 537.402287 344.028667 
L 563.070287 351.996205 
L 567.300249 352.95683 
L 592.968249 359.278087 
L 618.636249 366.286454 
L 644.304249 372.626065 
L 669.308915 378.934696 
" style="fill:none;stroke:#000000;stroke-dasharray:5.55,2.4;stroke-dashoffset:0;stroke-width:1.5;"/>
   </g>
   <g id="patch_8">
    <path d="M 90 378 
L 90 51.84 
" style="fill:none;stroke:#000000;stroke-linecap:square;stroke-linejoin:miter;stroke-width:0.8;"/>
   </g>
   <g id="patch_9">
    <path d="M 648 378 
L 648 51.84 
" style="fill:none;stroke:#000000;stroke-linecap:square;stroke-linejoin:miter;stroke-width:0.8;"/>
   </g>
   <g id="patch_10">
    <path d="M 90 378 
L 648 378 
" style="fill:none;stroke:#000000;stroke-linecap:square;stroke-linejoin:miter;stroke-width:0.8;"/>
   </g>
   <g id="patch_11">
    <path d="M 90 51.84 
L 648 51.84 
" style="fill:none;stroke:#000000;stroke-linecap:square;stroke-linejoin:miter;stroke-width:0.8;"/>
   </g>
   <g id="legend_2">
    <g id="patch_12">
     <path d="M 97 89.19625 
L 282.253125 89.19625 
Q 284.253125 89.19625 284.253125 87.19625 
L 284.253125 58.84 
Q 284.253125 56.84 282.253125 56.84 
L 97 56.84 
Q 95 56.84 95 58.84 
L 95 87.19625 
Q 95 89.19625 97 89.19625 
z
" style="fill:#ffffff;opacity:0.8;stroke:#cccccc;stroke-linejoin:miter;"/>
    </g>
    <g id="line2d_35">
     <path d="M 99 64.938437 
L 119 64.938437 
" style="fill:none;stroke:#000000;stroke-dasharray:9.6,2.4,1.5,2.4;stroke-dashoffset:0;stroke-width:1.5;"/>
    </g>
    <g id="line2d_36"/>
    <g id="text_29">
     <!-- meander belt axis profile, unc. -->
     <g transform="translate(127 68.438437)scale(0.1 -0.1)">
      <use xlink:href="#DejaVuSans-109"/>
      <use x="97.412109" xlink:href="#DejaVuSans-101"/>
      <use x="158.935547" xlink:href="#DejaVuSans-97"/>
      <use x="220.214844" xlink:href="#DejaVuSans-110"/>
      <use x="283.59375" xlink:href="#DejaVuSans-100"/>
      <use x="347.070312" xlink:href="#DejaVuSans-101"/>
      <use x="408.59375" xlink:href="#DejaVuSans-114"/>
      <use x="449.707031" xlink:href="#DejaVuSans-32"/>
      <use x="481.494141" xlink:href="#DejaVuSans-98"/>
      <use x="544.970703" xlink:href="#DejaVuSans-101"/>
      <use x="606.494141" xlink:href="#DejaVuSans-108"/>
      <use x="634.277344" xlink:href="#DejaVuSans-116"/>
      <use x="673.486328" xlink:href="#DejaVuSans-32"/>
      <use x="705.273438" xlink:href="#DejaVuSans-97"/>
      <use x="766.552734" xlink:href="#DejaVuSans-120"/>
      <use x="825.732422" xlink:href="#DejaVuSans-105"/>
      <use x="853.515625" xlink:href="#DejaVuSans-115"/>
      <use x="905.615234" xlink:href="#DejaVuSans-32"/>
      <use x="937.402344" xlink:href="#DejaVuSans-112"/>
      <use x="1000.878906" xlink:href="#DejaVuSans-114"/>
      <use x="1041.960938" xlink:href="#DejaVuSans-111"/>
      <use x="1103.142578" xlink:href="#DejaVuSans-102"/>
      <use x="1138.347656" xlink:href="#DejaVuSans-105"/>
      <use x="1166.130859" xlink:href="#DejaVuSans-108"/>
      <use x="1193.914062" xlink:href="#DejaVuSans-101"/>
      <use x="1255.4375" xlink:href="#DejaVuSans-44"/>
      <use x="1287.224609" xlink:href="#DejaVuSans-32"/>
      <use x="1319.011719" xlink:href="#DejaVuSans-117"/>
      <use x="1382.390625" xlink:href="#DejaVuSans-110"/>
      <use x="1445.769531" xlink:href="#DejaVuSans-99"/>
      <use x="1500.75" xlink:href="#DejaVuSans-46"/>
     </g>
    </g>
    <g id="line2d_37">
     <path d="M 99 79.616562 
L 119 79.616562 
" style="fill:none;stroke:#000000;stroke-dasharray:5.55,2.4;stroke-dashoffset:0;stroke-width:1.5;"/>
    </g>
    <g id="line2d_38"/>
    <g id="text_30">
     <!-- meander belt axis profile, c. -->
     <g transform="translate(127 83.116562)scale(0.1 -0.1)">
      <use xlink:href="#DejaVuSans-109"/>
      <use x="97.412109" xlink:href="#DejaVuSans-101"/>
      <use x="158.935547" xlink:href="#DejaVuSans-97"/>
      <use x="220.214844" xlink:href="#DejaVuSans-110"/>
      <use x="283.59375" xlink:href="#DejaVuSans-100"/>
      <use x="347.070312" xlink:href="#DejaVuSans-101"/>
      <use x="408.59375" xlink:href="#DejaVuSans-114"/>
      <use x="449.707031" xlink:href="#DejaVuSans-32"/>
      <use x="481.494141" xlink:href="#DejaVuSans-98"/>
      <use x="544.970703" xlink:href="#DejaVuSans-101"/>
      <use x="606.494141" xlink:href="#DejaVuSans-108"/>
      <use x="634.277344" xlink:href="#DejaVuSans-116"/>
      <use x="673.486328" xlink:href="#DejaVuSans-32"/>
      <use x="705.273438" xlink:href="#DejaVuSans-97"/>
      <use x="766.552734" xlink:href="#DejaVuSans-120"/>
      <use x="825.732422" xlink:href="#DejaVuSans-105"/>
      <use x="853.515625" xlink:href="#DejaVuSans-115"/>
      <use x="905.615234" xlink:href="#DejaVuSans-32"/>
      <use x="937.402344" xlink:href="#DejaVuSans-112"/>
      <use x="1000.878906" xlink:href="#DejaVuSans-114"/>
      <use x="1041.960938" xlink:href="#DejaVuSans-111"/>
      <use x="1103.142578" xlink:href="#DejaVuSans-102"/>
      <use x="1138.347656" xlink:href="#DejaVuSans-105"/>
      <use x="1166.130859" xlink:href="#DejaVuSans-108"/>
      <use x="1193.914062" xlink:href="#DejaVuSans-101"/>
      <use x="1255.4375" xlink:href="#DejaVuSans-44"/>
      <use x="1287.224609" xlink:href="#DejaVuSans-32"/>
      <use x="1319.011719" xlink:href="#DejaVuSans-99"/>
      <use x="1373.992188" xlink:href="#DejaVuSans-46"/>
     </g>
    </g>
   </g>
  </g>
 </g>
 <defs>
  <clipPath id="pc5a6ead052">
   <rect height="326.16" width="558" x="90" y="51.84"/>
  </clipPath>
 </defs>
</svg>
