<?xml version="1.0" encoding="utf-8" standalone="no"?>
<!DOCTYPE svg PUBLIC "-//W3C//DTD SVG 1.1//EN"
  "http://www.w3.org/Graphics/SVG/1.1/DTD/svg11.dtd">
<!-- Created with matplotlib (https://matplotlib.org/) -->
<svg height="432pt" version="1.1" viewBox="0 0 720 432" width="720pt" xmlns="http://www.w3.org/2000/svg" xmlns:xlink="http://www.w3.org/1999/xlink">
 <defs>
  <style type="text/css">
*{stroke-linecap:butt;stroke-linejoin:round;}
  </style>
 </defs>
 <g id="figure_1">
  <g id="patch_1">
   <path d="M 0 432 
L 720 432 
L 720 0 
L 0 0 
z
" style="fill:#ffffff;"/>
  </g>
  <g id="axes_1">
   <g id="patch_2">
    <path d="M 90 378 
L 648 378 
L 648 51.84 
L 90 51.84 
z
" style="fill:#ffffff;"/>
   </g>
   <g id="matplotlib.axis_1">
    <g id="xtick_1">
     <g id="line2d_1">
      <defs>
       <path d="M 0 0 
L 0 3.5 
" id="m663efbf0bd" style="stroke:#000000;stroke-width:0.8;"/>
      </defs>
      <g>
       <use style="stroke:#000000;stroke-width:0.8;" x="90" xlink:href="#m663efbf0bd" y="378"/>
      </g>
     </g>
     <g id="text_1">
      <!-- 0 -->
      <defs>
       <path d="M 31.78125 66.40625 
Q 24.171875 66.40625 20.328125 58.90625 
Q 16.5 51.421875 16.5 36.375 
Q 16.5 21.390625 20.328125 13.890625 
Q 24.171875 6.390625 31.78125 6.390625 
Q 39.453125 6.390625 43.28125 13.890625 
Q 47.125 21.390625 47.125 36.375 
Q 47.125 51.421875 43.28125 58.90625 
Q 39.453125 66.40625 31.78125 66.40625 
z
M 31.78125 74.21875 
Q 44.046875 74.21875 50.515625 64.515625 
Q 56.984375 54.828125 56.984375 36.375 
Q 56.984375 17.96875 50.515625 8.265625 
Q 44.046875 -1.421875 31.78125 -1.421875 
Q 19.53125 -1.421875 13.0625 8.265625 
Q 6.59375 17.96875 6.59375 36.375 
Q 6.59375 54.828125 13.0625 64.515625 
Q 19.53125 74.21875 31.78125 74.21875 
z
" id="DejaVuSans-48"/>
      </defs>
      <g transform="translate(86.81875 392.598437)scale(0.1 -0.1)">
       <use xlink:href="#DejaVuSans-48"/>
      </g>
     </g>
    </g>
    <g id="xtick_2">
     <g id="line2d_2">
      <g>
       <use style="stroke:#000000;stroke-width:0.8;" x="201.6" xlink:href="#m663efbf0bd" y="378"/>
      </g>
     </g>
     <g id="text_2">
      <!-- 200 -->
      <defs>
       <path d="M 19.1875 8.296875 
L 53.609375 8.296875 
L 53.609375 0 
L 7.328125 0 
L 7.328125 8.296875 
Q 12.9375 14.109375 22.625 23.890625 
Q 32.328125 33.6875 34.8125 36.53125 
Q 39.546875 41.84375 41.421875 45.53125 
Q 43.3125 49.21875 43.3125 52.78125 
Q 43.3125 58.59375 39.234375 62.25 
Q 35.15625 65.921875 28.609375 65.921875 
Q 23.96875 65.921875 18.8125 64.3125 
Q 13.671875 62.703125 7.8125 59.421875 
L 7.8125 69.390625 
Q 13.765625 71.78125 18.9375 73 
Q 24.125 74.21875 28.421875 74.21875 
Q 39.75 74.21875 46.484375 68.546875 
Q 53.21875 62.890625 53.21875 53.421875 
Q 53.21875 48.921875 51.53125 44.890625 
Q 49.859375 40.875 45.40625 35.40625 
Q 44.1875 33.984375 37.640625 27.21875 
Q 31.109375 20.453125 19.1875 8.296875 
z
" id="DejaVuSans-50"/>
      </defs>
      <g transform="translate(192.05625 392.598437)scale(0.1 -0.1)">
       <use xlink:href="#DejaVuSans-50"/>
       <use x="63.623047" xlink:href="#DejaVuSans-48"/>
       <use x="127.246094" xlink:href="#DejaVuSans-48"/>
      </g>
     </g>
    </g>
    <g id="xtick_3">
     <g id="line2d_3">
      <g>
       <use style="stroke:#000000;stroke-width:0.8;" x="313.2" xlink:href="#m663efbf0bd" y="378"/>
      </g>
     </g>
     <g id="text_3">
      <!-- 400 -->
      <defs>
       <path d="M 37.796875 64.3125 
L 12.890625 25.390625 
L 37.796875 25.390625 
z
M 35.203125 72.90625 
L 47.609375 72.90625 
L 47.609375 25.390625 
L 58.015625 25.390625 
L 58.015625 17.1875 
L 47.609375 17.1875 
L 47.609375 0 
L 37.796875 0 
L 37.796875 17.1875 
L 4.890625 17.1875 
L 4.890625 26.703125 
z
" id="DejaVuSans-52"/>
      </defs>
      <g transform="translate(303.65625 392.598437)scale(0.1 -0.1)">
       <use xlink:href="#DejaVuSans-52"/>
       <use x="63.623047" xlink:href="#DejaVuSans-48"/>
       <use x="127.246094" xlink:href="#DejaVuSans-48"/>
      </g>
     </g>
    </g>
    <g id="xtick_4">
     <g id="line2d_4">
      <g>
       <use style="stroke:#000000;stroke-width:0.8;" x="424.8" xlink:href="#m663efbf0bd" y="378"/>
      </g>
     </g>
     <g id="text_4">
      <!-- 600 -->
      <defs>
       <path d="M 33.015625 40.375 
Q 26.375 40.375 22.484375 35.828125 
Q 18.609375 31.296875 18.609375 23.390625 
Q 18.609375 15.53125 22.484375 10.953125 
Q 26.375 6.390625 33.015625 6.390625 
Q 39.65625 6.390625 43.53125 10.953125 
Q 47.40625 15.53125 47.40625 23.390625 
Q 47.40625 31.296875 43.53125 35.828125 
Q 39.65625 40.375 33.015625 40.375 
z
M 52.59375 71.296875 
L 52.59375 62.3125 
Q 48.875 64.0625 45.09375 64.984375 
Q 41.3125 65.921875 37.59375 65.921875 
Q 27.828125 65.921875 22.671875 59.328125 
Q 17.53125 52.734375 16.796875 39.40625 
Q 19.671875 43.65625 24.015625 45.921875 
Q 28.375 48.1875 33.59375 48.1875 
Q 44.578125 48.1875 50.953125 41.515625 
Q 57.328125 34.859375 57.328125 23.390625 
Q 57.328125 12.15625 50.6875 5.359375 
Q 44.046875 -1.421875 33.015625 -1.421875 
Q 20.359375 -1.421875 13.671875 8.265625 
Q 6.984375 17.96875 6.984375 36.375 
Q 6.984375 53.65625 15.1875 63.9375 
Q 23.390625 74.21875 37.203125 74.21875 
Q 40.921875 74.21875 44.703125 73.484375 
Q 48.484375 72.75 52.59375 71.296875 
z
" id="DejaVuSans-54"/>
      </defs>
      <g transform="translate(415.25625 392.598437)scale(0.1 -0.1)">
       <use xlink:href="#DejaVuSans-54"/>
       <use x="63.623047" xlink:href="#DejaVuSans-48"/>
       <use x="127.246094" xlink:href="#DejaVuSans-48"/>
      </g>
     </g>
    </g>
    <g id="xtick_5">
     <g id="line2d_5">
      <g>
       <use style="stroke:#000000;stroke-width:0.8;" x="536.4" xlink:href="#m663efbf0bd" y="378"/>
      </g>
     </g>
     <g id="text_5">
      <!-- 800 -->
      <defs>
       <path d="M 31.78125 34.625 
Q 24.75 34.625 20.71875 30.859375 
Q 16.703125 27.09375 16.703125 20.515625 
Q 16.703125 13.921875 20.71875 10.15625 
Q 24.75 6.390625 31.78125 6.390625 
Q 38.8125 6.390625 42.859375 10.171875 
Q 46.921875 13.96875 46.921875 20.515625 
Q 46.921875 27.09375 42.890625 30.859375 
Q 38.875 34.625 31.78125 34.625 
z
M 21.921875 38.8125 
Q 15.578125 40.375 12.03125 44.71875 
Q 8.5 49.078125 8.5 55.328125 
Q 8.5 64.0625 14.71875 69.140625 
Q 20.953125 74.21875 31.78125 74.21875 
Q 42.671875 74.21875 48.875 69.140625 
Q 55.078125 64.0625 55.078125 55.328125 
Q 55.078125 49.078125 51.53125 44.71875 
Q 48 40.375 41.703125 38.8125 
Q 48.828125 37.15625 52.796875 32.3125 
Q 56.78125 27.484375 56.78125 20.515625 
Q 56.78125 9.90625 50.3125 4.234375 
Q 43.84375 -1.421875 31.78125 -1.421875 
Q 19.734375 -1.421875 13.25 4.234375 
Q 6.78125 9.90625 6.78125 20.515625 
Q 6.78125 27.484375 10.78125 32.3125 
Q 14.796875 37.15625 21.921875 38.8125 
z
M 18.3125 54.390625 
Q 18.3125 48.734375 21.84375 45.5625 
Q 25.390625 42.390625 31.78125 42.390625 
Q 38.140625 42.390625 41.71875 45.5625 
Q 45.3125 48.734375 45.3125 54.390625 
Q 45.3125 60.0625 41.71875 63.234375 
Q 38.140625 66.40625 31.78125 66.40625 
Q 25.390625 66.40625 21.84375 63.234375 
Q 18.3125 60.0625 18.3125 54.390625 
z
" id="DejaVuSans-56"/>
      </defs>
      <g transform="translate(526.85625 392.598437)scale(0.1 -0.1)">
       <use xlink:href="#DejaVuSans-56"/>
       <use x="63.623047" xlink:href="#DejaVuSans-48"/>
       <use x="127.246094" xlink:href="#DejaVuSans-48"/>
      </g>
     </g>
    </g>
    <g id="xtick_6">
     <g id="line2d_6">
      <g>
       <use style="stroke:#000000;stroke-width:0.8;" x="648" xlink:href="#m663efbf0bd" y="378"/>
      </g>
     </g>
     <g id="text_6">
      <!-- 1000 -->
      <defs>
       <path d="M 12.40625 8.296875 
L 28.515625 8.296875 
L 28.515625 63.921875 
L 10.984375 60.40625 
L 10.984375 69.390625 
L 28.421875 72.90625 
L 38.28125 72.90625 
L 38.28125 8.296875 
L 54.390625 8.296875 
L 54.390625 0 
L 12.40625 0 
z
" id="DejaVuSans-49"/>
      </defs>
      <g transform="translate(635.275 392.598437)scale(0.1 -0.1)">
       <use xlink:href="#DejaVuSans-49"/>
       <use x="63.623047" xlink:href="#DejaVuSans-48"/>
       <use x="127.246094" xlink:href="#DejaVuSans-48"/>
       <use x="190.869141" xlink:href="#DejaVuSans-48"/>
      </g>
     </g>
    </g>
    <g id="text_7">
     <!-- distance along straightened profile [m] -->
     <defs>
      <path d="M 45.40625 46.390625 
L 45.40625 75.984375 
L 54.390625 75.984375 
L 54.390625 0 
L 45.40625 0 
L 45.40625 8.203125 
Q 42.578125 3.328125 38.25 0.953125 
Q 33.9375 -1.421875 27.875 -1.421875 
Q 17.96875 -1.421875 11.734375 6.484375 
Q 5.515625 14.40625 5.515625 27.296875 
Q 5.515625 40.1875 11.734375 48.09375 
Q 17.96875 56 27.875 56 
Q 33.9375 56 38.25 53.625 
Q 42.578125 51.265625 45.40625 46.390625 
z
M 14.796875 27.296875 
Q 14.796875 17.390625 18.875 11.75 
Q 22.953125 6.109375 30.078125 6.109375 
Q 37.203125 6.109375 41.296875 11.75 
Q 45.40625 17.390625 45.40625 27.296875 
Q 45.40625 37.203125 41.296875 42.84375 
Q 37.203125 48.484375 30.078125 48.484375 
Q 22.953125 48.484375 18.875 42.84375 
Q 14.796875 37.203125 14.796875 27.296875 
z
" id="DejaVuSans-100"/>
      <path d="M 9.421875 54.6875 
L 18.40625 54.6875 
L 18.40625 0 
L 9.421875 0 
z
M 9.421875 75.984375 
L 18.40625 75.984375 
L 18.40625 64.59375 
L 9.421875 64.59375 
z
" id="DejaVuSans-105"/>
      <path d="M 44.28125 53.078125 
L 44.28125 44.578125 
Q 40.484375 46.53125 36.375 47.5 
Q 32.28125 48.484375 27.875 48.484375 
Q 21.1875 48.484375 17.84375 46.4375 
Q 14.5 44.390625 14.5 40.28125 
Q 14.5 37.15625 16.890625 35.375 
Q 19.28125 33.59375 26.515625 31.984375 
L 29.59375 31.296875 
Q 39.15625 29.25 43.1875 25.515625 
Q 47.21875 21.78125 47.21875 15.09375 
Q 47.21875 7.46875 41.1875 3.015625 
Q 35.15625 -1.421875 24.609375 -1.421875 
Q 20.21875 -1.421875 15.453125 -0.5625 
Q 10.6875 0.296875 5.421875 2 
L 5.421875 11.28125 
Q 10.40625 8.6875 15.234375 7.390625 
Q 20.0625 6.109375 24.8125 6.109375 
Q 31.15625 6.109375 34.5625 8.28125 
Q 37.984375 10.453125 37.984375 14.40625 
Q 37.984375 18.0625 35.515625 20.015625 
Q 33.0625 21.96875 24.703125 23.78125 
L 21.578125 24.515625 
Q 13.234375 26.265625 9.515625 29.90625 
Q 5.8125 33.546875 5.8125 39.890625 
Q 5.8125 47.609375 11.28125 51.796875 
Q 16.75 56 26.8125 56 
Q 31.78125 56 36.171875 55.265625 
Q 40.578125 54.546875 44.28125 53.078125 
z
" id="DejaVuSans-115"/>
      <path d="M 18.3125 70.21875 
L 18.3125 54.6875 
L 36.8125 54.6875 
L 36.8125 47.703125 
L 18.3125 47.703125 
L 18.3125 18.015625 
Q 18.3125 11.328125 20.140625 9.421875 
Q 21.96875 7.515625 27.59375 7.515625 
L 36.8125 7.515625 
L 36.8125 0 
L 27.59375 0 
Q 17.1875 0 13.234375 3.875 
Q 9.28125 7.765625 9.28125 18.015625 
L 9.28125 47.703125 
L 2.6875 47.703125 
L 2.6875 54.6875 
L 9.28125 54.6875 
L 9.28125 70.21875 
z
" id="DejaVuSans-116"/>
      <path d="M 34.28125 27.484375 
Q 23.390625 27.484375 19.1875 25 
Q 14.984375 22.515625 14.984375 16.5 
Q 14.984375 11.71875 18.140625 8.90625 
Q 21.296875 6.109375 26.703125 6.109375 
Q 34.1875 6.109375 38.703125 11.40625 
Q 43.21875 16.703125 43.21875 25.484375 
L 43.21875 27.484375 
z
M 52.203125 31.203125 
L 52.203125 0 
L 43.21875 0 
L 43.21875 8.296875 
Q 40.140625 3.328125 35.546875 0.953125 
Q 30.953125 -1.421875 24.3125 -1.421875 
Q 15.921875 -1.421875 10.953125 3.296875 
Q 6 8.015625 6 15.921875 
Q 6 25.140625 12.171875 29.828125 
Q 18.359375 34.515625 30.609375 34.515625 
L 43.21875 34.515625 
L 43.21875 35.40625 
Q 43.21875 41.609375 39.140625 45 
Q 35.0625 48.390625 27.6875 48.390625 
Q 23 48.390625 18.546875 47.265625 
Q 14.109375 46.140625 10.015625 43.890625 
L 10.015625 52.203125 
Q 14.9375 54.109375 19.578125 55.046875 
Q 24.21875 56 28.609375 56 
Q 40.484375 56 46.34375 49.84375 
Q 52.203125 43.703125 52.203125 31.203125 
z
" id="DejaVuSans-97"/>
      <path d="M 54.890625 33.015625 
L 54.890625 0 
L 45.90625 0 
L 45.90625 32.71875 
Q 45.90625 40.484375 42.875 44.328125 
Q 39.84375 48.1875 33.796875 48.1875 
Q 26.515625 48.1875 22.3125 43.546875 
Q 18.109375 38.921875 18.109375 30.90625 
L 18.109375 0 
L 9.078125 0 
L 9.078125 54.6875 
L 18.109375 54.6875 
L 18.109375 46.1875 
Q 21.34375 51.125 25.703125 53.5625 
Q 30.078125 56 35.796875 56 
Q 45.21875 56 50.046875 50.171875 
Q 54.890625 44.34375 54.890625 33.015625 
z
" id="DejaVuSans-110"/>
      <path d="M 48.78125 52.59375 
L 48.78125 44.1875 
Q 44.96875 46.296875 41.140625 47.34375 
Q 37.3125 48.390625 33.40625 48.390625 
Q 24.65625 48.390625 19.8125 42.84375 
Q 14.984375 37.3125 14.984375 27.296875 
Q 14.984375 17.28125 19.8125 11.734375 
Q 24.65625 6.203125 33.40625 6.203125 
Q 37.3125 6.203125 41.140625 7.25 
Q 44.96875 8.296875 48.78125 10.40625 
L 48.78125 2.09375 
Q 45.015625 0.34375 40.984375 -0.53125 
Q 36.96875 -1.421875 32.421875 -1.421875 
Q 20.0625 -1.421875 12.78125 6.34375 
Q 5.515625 14.109375 5.515625 27.296875 
Q 5.515625 40.671875 12.859375 48.328125 
Q 20.21875 56 33.015625 56 
Q 37.15625 56 41.109375 55.140625 
Q 45.0625 54.296875 48.78125 52.59375 
z
" id="DejaVuSans-99"/>
      <path d="M 56.203125 29.59375 
L 56.203125 25.203125 
L 14.890625 25.203125 
Q 15.484375 15.921875 20.484375 11.0625 
Q 25.484375 6.203125 34.421875 6.203125 
Q 39.59375 6.203125 44.453125 7.46875 
Q 49.3125 8.734375 54.109375 11.28125 
L 54.109375 2.78125 
Q 49.265625 0.734375 44.1875 -0.34375 
Q 39.109375 -1.421875 33.890625 -1.421875 
Q 20.796875 -1.421875 13.15625 6.1875 
Q 5.515625 13.8125 5.515625 26.8125 
Q 5.515625 40.234375 12.765625 48.109375 
Q 20.015625 56 32.328125 56 
Q 43.359375 56 49.78125 48.890625 
Q 56.203125 41.796875 56.203125 29.59375 
z
M 47.21875 32.234375 
Q 47.125 39.59375 43.09375 43.984375 
Q 39.0625 48.390625 32.421875 48.390625 
Q 24.90625 48.390625 20.390625 44.140625 
Q 15.875 39.890625 15.1875 32.171875 
z
" id="DejaVuSans-101"/>
      <path id="DejaVuSans-32"/>
      <path d="M 9.421875 75.984375 
L 18.40625 75.984375 
L 18.40625 0 
L 9.421875 0 
z
" id="DejaVuSans-108"/>
      <path d="M 30.609375 48.390625 
Q 23.390625 48.390625 19.1875 42.75 
Q 14.984375 37.109375 14.984375 27.296875 
Q 14.984375 17.484375 19.15625 11.84375 
Q 23.34375 6.203125 30.609375 6.203125 
Q 37.796875 6.203125 41.984375 11.859375 
Q 46.1875 17.53125 46.1875 27.296875 
Q 46.1875 37.015625 41.984375 42.703125 
Q 37.796875 48.390625 30.609375 48.390625 
z
M 30.609375 56 
Q 42.328125 56 49.015625 48.375 
Q 55.71875 40.765625 55.71875 27.296875 
Q 55.71875 13.875 49.015625 6.21875 
Q 42.328125 -1.421875 30.609375 -1.421875 
Q 18.84375 -1.421875 12.171875 6.21875 
Q 5.515625 13.875 5.515625 27.296875 
Q 5.515625 40.765625 12.171875 48.375 
Q 18.84375 56 30.609375 56 
z
" id="DejaVuSans-111"/>
      <path d="M 45.40625 27.984375 
Q 45.40625 37.75 41.375 43.109375 
Q 37.359375 48.484375 30.078125 48.484375 
Q 22.859375 48.484375 18.828125 43.109375 
Q 14.796875 37.75 14.796875 27.984375 
Q 14.796875 18.265625 18.828125 12.890625 
Q 22.859375 7.515625 30.078125 7.515625 
Q 37.359375 7.515625 41.375 12.890625 
Q 45.40625 18.265625 45.40625 27.984375 
z
M 54.390625 6.78125 
Q 54.390625 -7.171875 48.1875 -13.984375 
Q 42 -20.796875 29.203125 -20.796875 
Q 24.46875 -20.796875 20.265625 -20.09375 
Q 16.0625 -19.390625 12.109375 -17.921875 
L 12.109375 -9.1875 
Q 16.0625 -11.328125 19.921875 -12.34375 
Q 23.78125 -13.375 27.78125 -13.375 
Q 36.625 -13.375 41.015625 -8.765625 
Q 45.40625 -4.15625 45.40625 5.171875 
L 45.40625 9.625 
Q 42.625 4.78125 38.28125 2.390625 
Q 33.9375 0 27.875 0 
Q 17.828125 0 11.671875 7.65625 
Q 5.515625 15.328125 5.515625 27.984375 
Q 5.515625 40.671875 11.671875 48.328125 
Q 17.828125 56 27.875 56 
Q 33.9375 56 38.28125 53.609375 
Q 42.625 51.21875 45.40625 46.390625 
L 45.40625 54.6875 
L 54.390625 54.6875 
z
" id="DejaVuSans-103"/>
      <path d="M 41.109375 46.296875 
Q 39.59375 47.171875 37.8125 47.578125 
Q 36.03125 48 33.890625 48 
Q 26.265625 48 22.1875 43.046875 
Q 18.109375 38.09375 18.109375 28.8125 
L 18.109375 0 
L 9.078125 0 
L 9.078125 54.6875 
L 18.109375 54.6875 
L 18.109375 46.1875 
Q 20.953125 51.171875 25.484375 53.578125 
Q 30.03125 56 36.53125 56 
Q 37.453125 56 38.578125 55.875 
Q 39.703125 55.765625 41.0625 55.515625 
z
" id="DejaVuSans-114"/>
      <path d="M 54.890625 33.015625 
L 54.890625 0 
L 45.90625 0 
L 45.90625 32.71875 
Q 45.90625 40.484375 42.875 44.328125 
Q 39.84375 48.1875 33.796875 48.1875 
Q 26.515625 48.1875 22.3125 43.546875 
Q 18.109375 38.921875 18.109375 30.90625 
L 18.109375 0 
L 9.078125 0 
L 9.078125 75.984375 
L 18.109375 75.984375 
L 18.109375 46.1875 
Q 21.34375 51.125 25.703125 53.5625 
Q 30.078125 56 35.796875 56 
Q 45.21875 56 50.046875 50.171875 
Q 54.890625 44.34375 54.890625 33.015625 
z
" id="DejaVuSans-104"/>
      <path d="M 18.109375 8.203125 
L 18.109375 -20.796875 
L 9.078125 -20.796875 
L 9.078125 54.6875 
L 18.109375 54.6875 
L 18.109375 46.390625 
Q 20.953125 51.265625 25.265625 53.625 
Q 29.59375 56 35.59375 56 
Q 45.5625 56 51.78125 48.09375 
Q 58.015625 40.1875 58.015625 27.296875 
Q 58.015625 14.40625 51.78125 6.484375 
Q 45.5625 -1.421875 35.59375 -1.421875 
Q 29.59375 -1.421875 25.265625 0.953125 
Q 20.953125 3.328125 18.109375 8.203125 
z
M 48.6875 27.296875 
Q 48.6875 37.203125 44.609375 42.84375 
Q 40.53125 48.484375 33.40625 48.484375 
Q 26.265625 48.484375 22.1875 42.84375 
Q 18.109375 37.203125 18.109375 27.296875 
Q 18.109375 17.390625 22.1875 11.75 
Q 26.265625 6.109375 33.40625 6.109375 
Q 40.53125 6.109375 44.609375 11.75 
Q 48.6875 17.390625 48.6875 27.296875 
z
" id="DejaVuSans-112"/>
      <path d="M 37.109375 75.984375 
L 37.109375 68.5 
L 28.515625 68.5 
Q 23.6875 68.5 21.796875 66.546875 
Q 19.921875 64.59375 19.921875 59.515625 
L 19.921875 54.6875 
L 34.71875 54.6875 
L 34.71875 47.703125 
L 19.921875 47.703125 
L 19.921875 0 
L 10.890625 0 
L 10.890625 47.703125 
L 2.296875 47.703125 
L 2.296875 54.6875 
L 10.890625 54.6875 
L 10.890625 58.5 
Q 10.890625 67.625 15.140625 71.796875 
Q 19.390625 75.984375 28.609375 75.984375 
z
" id="DejaVuSans-102"/>
      <path d="M 8.59375 75.984375 
L 29.296875 75.984375 
L 29.296875 69 
L 17.578125 69 
L 17.578125 -6.203125 
L 29.296875 -6.203125 
L 29.296875 -13.1875 
L 8.59375 -13.1875 
z
" id="DejaVuSans-91"/>
      <path d="M 52 44.1875 
Q 55.375 50.25 60.0625 53.125 
Q 64.75 56 71.09375 56 
Q 79.640625 56 84.28125 50.015625 
Q 88.921875 44.046875 88.921875 33.015625 
L 88.921875 0 
L 79.890625 0 
L 79.890625 32.71875 
Q 79.890625 40.578125 77.09375 44.375 
Q 74.3125 48.1875 68.609375 48.1875 
Q 61.625 48.1875 57.5625 43.546875 
Q 53.515625 38.921875 53.515625 30.90625 
L 53.515625 0 
L 44.484375 0 
L 44.484375 32.71875 
Q 44.484375 40.625 41.703125 44.40625 
Q 38.921875 48.1875 33.109375 48.1875 
Q 26.21875 48.1875 22.15625 43.53125 
Q 18.109375 38.875 18.109375 30.90625 
L 18.109375 0 
L 9.078125 0 
L 9.078125 54.6875 
L 18.109375 54.6875 
L 18.109375 46.1875 
Q 21.1875 51.21875 25.484375 53.609375 
Q 29.78125 56 35.6875 56 
Q 41.65625 56 45.828125 52.96875 
Q 50 49.953125 52 44.1875 
z
" id="DejaVuSans-109"/>
      <path d="M 30.421875 75.984375 
L 30.421875 -13.1875 
L 9.71875 -13.1875 
L 9.71875 -6.203125 
L 21.390625 -6.203125 
L 21.390625 69 
L 9.71875 69 
L 9.71875 75.984375 
z
" id="DejaVuSans-93"/>
     </defs>
     <g transform="translate(251.465625 407.79625)scale(0.12 -0.12)">
      <use xlink:href="#DejaVuSans-100"/>
      <use x="63.476562" xlink:href="#DejaVuSans-105"/>
      <use x="91.259766" xlink:href="#DejaVuSans-115"/>
      <use x="143.359375" xlink:href="#DejaVuSans-116"/>
      <use x="182.568359" xlink:href="#DejaVuSans-97"/>
      <use x="243.847656" xlink:href="#DejaVuSans-110"/>
      <use x="307.226562" xlink:href="#DejaVuSans-99"/>
      <use x="362.207031" xlink:href="#DejaVuSans-101"/>
      <use x="423.730469" xlink:href="#DejaVuSans-32"/>
      <use x="455.517578" xlink:href="#DejaVuSans-97"/>
      <use x="516.796875" xlink:href="#DejaVuSans-108"/>
      <use x="544.580078" xlink:href="#DejaVuSans-111"/>
      <use x="605.761719" xlink:href="#DejaVuSans-110"/>
      <use x="669.140625" xlink:href="#DejaVuSans-103"/>
      <use x="732.617188" xlink:href="#DejaVuSans-32"/>
      <use x="764.404297" xlink:href="#DejaVuSans-115"/>
      <use x="816.503906" xlink:href="#DejaVuSans-116"/>
      <use x="855.712891" xlink:href="#DejaVuSans-114"/>
      <use x="896.826172" xlink:href="#DejaVuSans-97"/>
      <use x="958.105469" xlink:href="#DejaVuSans-105"/>
      <use x="985.888672" xlink:href="#DejaVuSans-103"/>
      <use x="1049.365234" xlink:href="#DejaVuSans-104"/>
      <use x="1112.744141" xlink:href="#DejaVuSans-116"/>
      <use x="1151.953125" xlink:href="#DejaVuSans-101"/>
      <use x="1213.476562" xlink:href="#DejaVuSans-110"/>
      <use x="1276.855469" xlink:href="#DejaVuSans-101"/>
      <use x="1338.378906" xlink:href="#DejaVuSans-100"/>
      <use x="1401.855469" xlink:href="#DejaVuSans-32"/>
      <use x="1433.642578" xlink:href="#DejaVuSans-112"/>
      <use x="1497.119141" xlink:href="#DejaVuSans-114"/>
      <use x="1538.201172" xlink:href="#DejaVuSans-111"/>
      <use x="1599.382812" xlink:href="#DejaVuSans-102"/>
      <use x="1634.587891" xlink:href="#DejaVuSans-105"/>
      <use x="1662.371094" xlink:href="#DejaVuSans-108"/>
      <use x="1690.154297" xlink:href="#DejaVuSans-101"/>
      <use x="1751.677734" xlink:href="#DejaVuSans-32"/>
      <use x="1783.464844" xlink:href="#DejaVuSans-91"/>
      <use x="1822.478516" xlink:href="#DejaVuSans-109"/>
      <use x="1919.890625" xlink:href="#DejaVuSans-93"/>
     </g>
    </g>
   </g>
   <g id="matplotlib.axis_2">
    <g id="ytick_1">
     <g id="line2d_7">
      <defs>
       <path d="M 0 0 
L -3.5 0 
" id="mfd43bd21e9" style="stroke:#000000;stroke-width:0.8;"/>
      </defs>
      <g>
       <use style="stroke:#000000;stroke-width:0.8;" x="90" xlink:href="#mfd43bd21e9" y="378"/>
      </g>
     </g>
     <g id="text_8">
      <!-- 1.0 -->
      <defs>
       <path d="M 10.6875 12.40625 
L 21 12.40625 
L 21 0 
L 10.6875 0 
z
" id="DejaVuSans-46"/>
      </defs>
      <g transform="translate(67.096875 381.799219)scale(0.1 -0.1)">
       <use xlink:href="#DejaVuSans-49"/>
       <use x="63.623047" xlink:href="#DejaVuSans-46"/>
       <use x="95.410156" xlink:href="#DejaVuSans-48"/>
      </g>
     </g>
    </g>
    <g id="ytick_2">
     <g id="line2d_8">
      <g>
       <use style="stroke:#000000;stroke-width:0.8;" x="90" xlink:href="#mfd43bd21e9" y="323.64"/>
      </g>
     </g>
     <g id="text_9">
      <!-- 1.2 -->
      <g transform="translate(67.096875 327.439219)scale(0.1 -0.1)">
       <use xlink:href="#DejaVuSans-49"/>
       <use x="63.623047" xlink:href="#DejaVuSans-46"/>
       <use x="95.410156" xlink:href="#DejaVuSans-50"/>
      </g>
     </g>
    </g>
    <g id="ytick_3">
     <g id="line2d_9">
      <g>
       <use style="stroke:#000000;stroke-width:0.8;" x="90" xlink:href="#mfd43bd21e9" y="269.28"/>
      </g>
     </g>
     <g id="text_10">
      <!-- 1.4 -->
      <g transform="translate(67.096875 273.079219)scale(0.1 -0.1)">
       <use xlink:href="#DejaVuSans-49"/>
       <use x="63.623047" xlink:href="#DejaVuSans-46"/>
       <use x="95.410156" xlink:href="#DejaVuSans-52"/>
      </g>
     </g>
    </g>
    <g id="ytick_4">
     <g id="line2d_10">
      <g>
       <use style="stroke:#000000;stroke-width:0.8;" x="90" xlink:href="#mfd43bd21e9" y="214.92"/>
      </g>
     </g>
     <g id="text_11">
      <!-- 1.6 -->
      <g transform="translate(67.096875 218.719219)scale(0.1 -0.1)">
       <use xlink:href="#DejaVuSans-49"/>
       <use x="63.623047" xlink:href="#DejaVuSans-46"/>
       <use x="95.410156" xlink:href="#DejaVuSans-54"/>
      </g>
     </g>
    </g>
    <g id="ytick_5">
     <g id="line2d_11">
      <g>
       <use style="stroke:#000000;stroke-width:0.8;" x="90" xlink:href="#mfd43bd21e9" y="160.56"/>
      </g>
     </g>
     <g id="text_12">
      <!-- 1.8 -->
      <g transform="translate(67.096875 164.359219)scale(0.1 -0.1)">
       <use xlink:href="#DejaVuSans-49"/>
       <use x="63.623047" xlink:href="#DejaVuSans-46"/>
       <use x="95.410156" xlink:href="#DejaVuSans-56"/>
      </g>
     </g>
    </g>
    <g id="ytick_6">
     <g id="line2d_12">
      <g>
       <use style="stroke:#000000;stroke-width:0.8;" x="90" xlink:href="#mfd43bd21e9" y="106.2"/>
      </g>
     </g>
     <g id="text_13">
      <!-- 2.0 -->
      <g transform="translate(67.096875 109.999219)scale(0.1 -0.1)">
       <use xlink:href="#DejaVuSans-50"/>
       <use x="63.623047" xlink:href="#DejaVuSans-46"/>
       <use x="95.410156" xlink:href="#DejaVuSans-48"/>
      </g>
     </g>
    </g>
    <g id="ytick_7">
     <g id="line2d_13">
      <g>
       <use style="stroke:#000000;stroke-width:0.8;" x="90" xlink:href="#mfd43bd21e9" y="51.84"/>
      </g>
     </g>
     <g id="text_14">
      <!-- 2.2 -->
      <g transform="translate(67.096875 55.639219)scale(0.1 -0.1)">
       <use xlink:href="#DejaVuSans-50"/>
       <use x="63.623047" xlink:href="#DejaVuSans-46"/>
       <use x="95.410156" xlink:href="#DejaVuSans-50"/>
      </g>
     </g>
    </g>
    <g id="text_15">
     <!-- sinuosity -->
     <defs>
      <path d="M 8.5 21.578125 
L 8.5 54.6875 
L 17.484375 54.6875 
L 17.484375 21.921875 
Q 17.484375 14.15625 20.5 10.265625 
Q 23.53125 6.390625 29.59375 6.390625 
Q 36.859375 6.390625 41.078125 11.03125 
Q 45.3125 15.671875 45.3125 23.6875 
L 45.3125 54.6875 
L 54.296875 54.6875 
L 54.296875 0 
L 45.3125 0 
L 45.3125 8.40625 
Q 42.046875 3.421875 37.71875 1 
Q 33.40625 -1.421875 27.6875 -1.421875 
Q 18.265625 -1.421875 13.375 4.4375 
Q 8.5 10.296875 8.5 21.578125 
z
M 31.109375 56 
z
" id="DejaVuSans-117"/>
      <path d="M 32.171875 -5.078125 
Q 28.375 -14.84375 24.75 -17.8125 
Q 21.140625 -20.796875 15.09375 -20.796875 
L 7.90625 -20.796875 
L 7.90625 -13.28125 
L 13.1875 -13.28125 
Q 16.890625 -13.28125 18.9375 -11.515625 
Q 21 -9.765625 23.484375 -3.21875 
L 25.09375 0.875 
L 2.984375 54.6875 
L 12.5 54.6875 
L 29.59375 11.921875 
L 46.6875 54.6875 
L 56.203125 54.6875 
z
" id="DejaVuSans-121"/>
     </defs>
     <g transform="translate(60.60125 241.684687)rotate(-90)scale(0.12 -0.12)">
      <use xlink:href="#DejaVuSans-115"/>
      <use x="52.099609" xlink:href="#DejaVuSans-105"/>
      <use x="79.882812" xlink:href="#DejaVuSans-110"/>
      <use x="143.261719" xlink:href="#DejaVuSans-117"/>
      <use x="206.640625" xlink:href="#DejaVuSans-111"/>
      <use x="267.822266" xlink:href="#DejaVuSans-115"/>
      <use x="319.921875" xlink:href="#DejaVuSans-105"/>
      <use x="347.705078" xlink:href="#DejaVuSans-116"/>
      <use x="386.914062" xlink:href="#DejaVuSans-121"/>
     </g>
    </g>
   </g>
   <g id="line2d_14">
    <path clip-path="url(#p0fabd95ecc)" d="M 112.878 320.283803 
L 119.574 312.316489 
L 125.154 305.33986 
L 130.176 298.682662 
L 134.64 292.367489 
L 138.546 286.481886 
L 143.01 279.334844 
L 148.59 269.897203 
L 157.518 254.710254 
L 160.866 249.458684 
L 163.656 245.439107 
L 166.446 241.813737 
L 168.678 239.22399 
L 170.91 236.916717 
L 173.142 234.883358 
L 175.374 233.102258 
L 178.164 231.179534 
L 181.512 229.207811 
L 185.976 226.896361 
L 198.252 220.90182 
L 201.042 219.813783 
L 203.274 219.18901 
L 204.948 218.920727 
L 206.622 218.86652 
L 208.296 219.063846 
L 209.97 219.547813 
L 211.644 220.349621 
L 213.318 221.495114 
L 214.992 223.00351 
L 216.666 224.886368 
L 218.34 227.146841 
L 220.014 229.779244 
L 221.688 232.76897 
L 223.92 237.269681 
L 226.152 242.286125 
L 228.942 249.129799 
L 232.848 259.366181 
L 238.986 275.490185 
L 241.776 282.267574 
L 244.566 288.441356 
L 246.798 292.860801 
L 249.03 296.774148 
L 251.262 300.162678 
L 252.936 302.359256 
L 254.61 304.266945 
L 256.284 305.896703 
L 257.958 307.263221 
L 259.632 308.384091 
L 261.306 309.278999 
L 262.98 309.968948 
L 265.212 310.607432 
L 267.444 310.970982 
L 269.676 311.108558 
L 272.466 311.03156 
L 275.814 310.67676 
L 280.278 309.94203 
L 291.438 307.979636 
L 295.344 307.546686 
L 299.25 307.352811 
L 302.598 307.409018 
L 305.946 307.68645 
L 309.294 308.188489 
L 312.642 308.907875 
L 316.548 309.999842 
L 320.454 311.328731 
L 324.918 313.082498 
L 330.498 315.532199 
L 331.056 315.788783 
L 331.056 315.788783 
" style="fill:none;stroke:#1f77b4;stroke-linecap:square;stroke-width:1.5;"/>
   </g>
   <g id="line2d_15">
    <path clip-path="url(#p0fabd95ecc)" d="M 112.878 345.011475 
L 115.668 343.284982 
L 118.458 341.269989 
L 121.248 338.927556 
L 123.48 336.790323 
L 125.712 334.395836 
L 127.944 331.722881 
L 130.176 328.751217 
L 132.408 325.462468 
L 134.64 321.841136 
L 137.43 316.829734 
L 140.22 311.270262 
L 143.01 305.167849 
L 145.8 298.546379 
L 149.148 289.979503 
L 153.054 279.279682 
L 158.076 264.801589 
L 167.004 238.954471 
L 170.91 228.32017 
L 174.258 219.752234 
L 177.606 211.74135 
L 180.954 204.278342 
L 184.302 197.309416 
L 188.208 189.701204 
L 192.114 182.55574 
L 196.02 175.850049 
L 199.368 170.538074 
L 202.158 166.547064 
L 204.39 163.744528 
L 206.064 161.930506 
L 207.738 160.410855 
L 209.412 159.23019 
L 210.528 158.653432 
L 211.644 158.25993 
L 212.76 158.061847 
L 213.876 158.070482 
L 214.992 158.296034 
L 216.108 158.747368 
L 217.224 159.431803 
L 218.34 160.354913 
L 219.456 161.520355 
L 220.572 162.929721 
L 222.246 165.499216 
L 223.92 168.604059 
L 225.594 172.220868 
L 227.268 176.314598 
L 229.5 182.433432 
L 232.29 190.945376 
L 235.638 201.990562 
L 242.334 224.332405 
L 245.124 232.780085 
L 247.356 238.851215 
L 249.588 244.177881 
L 251.262 247.629524 
L 252.936 250.586915 
L 254.61 253.036378 
L 256.284 254.975001 
L 257.4 255.986801 
L 258.516 256.77907 
L 259.632 257.357977 
L 260.748 257.731224 
L 261.864 257.907872 
L 262.98 257.898153 
L 264.096 257.713282 
L 265.212 257.365262 
L 266.886 256.565002 
L 268.56 255.470113 
L 270.234 254.125264 
L 272.466 252.019199 
L 275.256 249.021661 
L 279.162 244.444708 
L 287.532 234.542914 
L 291.996 229.672222 
L 295.902 225.739938 
L 299.25 222.641106 
L 302.598 219.8427 
L 305.388 217.805502 
L 307.62 216.425628 
L 309.852 215.32477 
L 311.526 214.718828 
L 313.2 214.331983 
L 314.874 214.192687 
L 316.548 214.328909 
L 318.222 214.766935 
L 319.896 215.530135 
L 321.57 216.637756 
L 323.244 218.103818 
L 324.918 219.93617 
L 326.592 222.135767 
L 328.266 224.696222 
L 329.94 227.603657 
L 332.172 231.982335 
L 334.404 236.870564 
L 337.194 243.563733 
L 341.1 253.663084 
L 350.028 277.100729 
L 353.376 285.132136 
L 356.166 291.285793 
L 358.956 296.898184 
L 361.746 301.959308 
L 364.536 306.488055 
L 367.326 310.524229 
L 370.116 314.120719 
L 372.906 317.336601 
L 375.696 320.23162 
L 379.044 323.361137 
L 379.044 323.361137 
" style="fill:none;stroke:#ff7f0e;stroke-linecap:square;stroke-width:1.5;"/>
   </g>
   <g id="line2d_16">
    <path clip-path="url(#p0fabd95ecc)" d="M 112.878 341.805139 
L 117.342 338.232305 
L 121.248 334.819913 
L 125.154 331.101191 
L 129.06 327.048983 
L 132.966 322.654747 
L 136.872 317.937998 
L 141.894 311.494246 
L 154.728 294.731672 
L 158.634 290.104387 
L 162.54 285.858766 
L 166.446 281.958816 
L 177.048 271.630703 
L 179.838 268.453727 
L 182.628 264.875881 
L 184.86 261.674513 
L 187.092 258.150702 
L 189.882 253.299481 
L 192.672 248.010425 
L 197.136 238.963362 
L 202.158 228.854644 
L 204.39 224.767086 
L 206.622 221.138276 
L 208.296 218.805638 
L 209.97 216.870689 
L 211.086 215.827659 
L 212.202 214.99841 
L 213.318 214.395054 
L 214.434 214.027903 
L 215.55 213.905299 
L 216.666 214.033486 
L 217.782 214.416503 
L 218.898 215.056106 
L 220.014 215.951727 
L 221.13 217.100468 
L 222.246 218.497115 
L 223.92 221.039985 
L 225.594 224.089129 
L 227.268 227.600338 
L 229.5 232.90809 
L 231.732 238.797369 
L 235.08 248.367377 
L 243.45 272.727146 
L 246.24 279.958383 
L 248.472 285.152982 
L 250.704 289.733558 
L 252.378 292.730197 
L 254.052 295.331782 
L 255.726 297.52826 
L 257.4 299.315453 
L 259.074 300.694431 
L 260.748 301.670848 
L 261.864 302.102725 
L 262.98 302.363523 
L 264.096 302.457457 
L 265.212 302.389217 
L 266.328 302.163899 
L 268.002 301.543353 
L 269.676 300.601089 
L 271.35 299.357533 
L 273.024 297.833785 
L 274.698 296.051381 
L 276.93 293.310209 
L 279.162 290.200166 
L 281.952 285.874218 
L 285.3 280.178527 
L 289.764 272.037251 
L 297.576 257.648659 
L 300.924 252.008078 
L 303.714 247.798995 
L 305.946 244.849522 
L 307.62 242.922755 
L 309.294 241.267077 
L 310.968 239.90293 
L 312.642 238.846857 
L 314.316 238.110859 
L 315.99 237.701836 
L 317.664 237.621158 
L 319.338 237.864389 
L 321.012 238.421192 
L 322.686 239.275449 
L 324.36 240.405589 
L 326.034 241.785141 
L 328.266 243.959104 
L 330.498 246.440665 
L 333.846 250.550272 
L 343.332 262.531968 
L 346.68 266.295886 
L 350.028 269.701231 
L 353.376 272.79035 
L 357.84 276.584166 
L 367.326 284.533941 
L 372.348 289.099429 
L 379.602 296.061656 
L 385.74 301.85186 
L 389.646 305.259901 
L 392.994 307.918067 
L 394.11 308.741365 
L 394.11 308.741365 
" style="fill:none;stroke:#2ca02c;stroke-linecap:square;stroke-width:1.5;"/>
   </g>
   <g id="line2d_17">
    <path clip-path="url(#p0fabd95ecc)" d="M 112.878 286.305751 
L 115.11 283.971236 
L 117.342 281.356996 
L 119.574 278.427387 
L 121.806 275.148642 
L 124.038 271.49079 
L 126.27 267.429901 
L 128.502 262.950555 
L 130.734 258.048399 
L 133.524 251.3416 
L 136.314 244.042515 
L 139.662 234.638925 
L 144.684 219.754241 
L 150.264 203.371305 
L 153.054 195.760472 
L 155.844 188.79807 
L 158.076 183.794119 
L 160.308 179.345517 
L 162.54 175.47085 
L 164.772 172.159749 
L 166.446 170.02445 
L 168.678 167.594189 
L 170.91 165.570194 
L 173.142 163.864881 
L 175.932 162.04206 
L 180.396 159.459564 
L 193.788 152.002786 
L 196.02 151.183583 
L 197.694 150.796105 
L 199.368 150.652386 
L 201.042 150.794678 
L 202.716 151.261295 
L 203.832 151.768964 
L 204.948 152.443413 
L 206.622 153.781323 
L 208.296 155.522732 
L 209.97 157.67256 
L 211.644 160.22606 
L 213.318 163.168868 
L 215.55 167.656248 
L 217.782 172.714196 
L 220.572 179.684098 
L 223.92 188.690053 
L 232.29 211.570233 
L 235.08 218.536839 
L 237.87 224.884624 
L 240.102 229.440159 
L 242.334 233.486908 
L 244.566 236.998992 
L 246.24 239.273199 
L 247.914 241.235836 
L 249.588 242.886647 
L 251.262 244.227235 
L 252.936 245.260679 
L 254.61 245.991285 
L 256.284 246.424447 
L 257.958 246.566614 
L 259.632 246.425372 
L 261.306 246.009576 
L 262.98 245.329549 
L 264.654 244.397278 
L 266.328 243.226611 
L 268.002 241.833397 
L 270.234 239.660898 
L 272.466 237.17313 
L 275.256 233.703383 
L 278.604 229.167631 
L 288.648 215.23685 
L 291.438 211.822504 
L 293.67 209.371489 
L 295.902 207.217062 
L 298.134 205.395877 
L 299.808 204.266789 
L 301.482 203.351765 
L 303.156 202.658121 
L 304.83 202.190557 
L 306.504 201.951006 
L 308.178 201.938473 
L 309.852 202.148894 
L 311.526 202.575029 
L 313.2 203.206413 
L 315.432 204.343481 
L 317.664 205.780079 
L 319.896 207.466998 
L 322.686 209.842079 
L 327.15 213.978895 
L 332.73 219.10305 
L 336.078 221.869161 
L 338.868 223.909394 
L 341.658 225.686358 
L 344.448 227.205716 
L 347.238 228.492739 
L 350.586 229.783298 
L 354.492 231.027451 
L 358.956 232.2159 
L 363.978 233.33693 
L 368.442 234.133649 
L 372.348 234.628122 
L 375.696 234.859772 
L 379.044 234.880661 
L 382.392 234.664263 
L 385.74 234.190362 
L 388.53 233.589457 
L 391.878 232.618874 
L 395.226 231.387933 
L 399.132 229.669792 
L 404.712 226.901051 
L 409.734 224.47134 
L 412.524 223.325423 
L 415.314 222.430109 
L 417.546 221.944475 
L 419.778 221.698077 
L 422.01 221.714282 
L 424.242 222.007612 
L 426.474 222.583396 
L 428.706 223.438093 
L 430.938 224.56017 
L 433.17 225.931414 
L 435.96 227.959967 
L 438.75 230.288435 
L 442.098 233.399207 
L 446.004 237.3447 
L 451.584 243.319093 
L 452.142 243.927666 
L 452.142 243.927666 
" style="fill:none;stroke:#d62728;stroke-linecap:square;stroke-width:1.5;"/>
   </g>
   <g id="line2d_18">
    <path clip-path="url(#p0fabd95ecc)" d="M 112.878 348.057226 
L 117.342 342.856122 
L 121.806 337.299744 
L 127.386 329.960759 
L 137.43 316.249115 
L 152.496 295.459443 
L 156.402 289.546962 
L 159.75 284.037837 
L 162.54 279.059959 
L 165.888 272.583084 
L 169.236 265.587336 
L 173.7 255.683146 
L 179.838 242.024682 
L 182.628 236.313411 
L 184.86 232.179827 
L 187.092 228.549567 
L 188.766 226.214355 
L 190.44 224.248528 
L 192.114 222.678093 
L 193.788 221.521142 
L 194.904 220.984638 
L 196.02 220.63699 
L 197.136 220.477089 
L 198.252 220.502087 
L 199.368 220.707443 
L 200.484 221.086995 
L 202.158 221.965747 
L 203.832 223.187121 
L 205.506 224.713416 
L 207.738 227.148934 
L 209.97 229.941468 
L 213.318 234.550954 
L 220.572 244.706463 
L 223.362 248.196867 
L 226.152 251.29285 
L 228.384 253.454561 
L 230.616 255.331562 
L 232.848 256.935565 
L 235.08 258.290574 
L 237.87 259.685549 
L 240.66 260.821723 
L 244.566 262.136626 
L 254.61 265.337672 
L 259.074 267.082019 
L 263.538 269.071577 
L 278.604 276.028648 
L 282.51 277.435053 
L 285.858 278.401065 
L 289.206 279.108916 
L 291.996 279.471133 
L 294.786 279.591644 
L 297.018 279.48571 
L 299.25 279.171787 
L 301.482 278.620694 
L 303.714 277.801843 
L 305.946 276.685395 
L 308.178 275.244835 
L 310.41 273.459717 
L 312.642 271.3183 
L 314.874 268.819815 
L 317.106 265.976071 
L 319.338 262.812238 
L 322.128 258.466877 
L 325.476 252.81578 
L 337.752 231.52771 
L 340.542 227.291835 
L 343.332 223.455305 
L 346.122 220.040765 
L 348.912 217.035211 
L 351.702 214.3928 
L 354.492 212.039949 
L 358.398 209.049399 
L 364.536 204.392375 
L 367.326 202.019936 
L 370.116 199.351308 
L 372.906 196.314499 
L 375.696 192.865874 
L 378.486 188.996428 
L 381.276 184.736581 
L 384.624 179.214005 
L 394.668 162.235201 
L 396.9 158.943948 
L 399.132 156.017358 
L 401.364 153.522235 
L 403.038 151.962785 
L 404.712 150.683202 
L 406.386 149.685719 
L 408.06 148.963929 
L 409.734 148.502892 
L 411.408 148.279601 
L 413.082 148.263782 
L 415.314 148.501696 
L 418.104 149.073822 
L 423.684 150.323468 
L 425.916 150.567269 
L 427.59 150.566008 
L 429.264 150.370382 
L 430.938 149.952968 
L 432.612 149.29159 
L 434.286 148.369307 
L 435.96 147.174255 
L 437.634 145.699424 
L 439.308 143.942411 
L 440.982 141.905226 
L 443.214 138.764707 
L 445.446 135.164907 
L 447.678 131.147468 
L 450.468 125.628022 
L 453.816 118.483013 
L 460.512 103.984138 
L 462.744 99.641737 
L 464.418 96.729811 
L 466.092 94.202483 
L 467.766 92.13965 
L 468.882 91.060823 
L 469.998 90.244638 
L 471.114 89.711527 
L 472.23 89.480288 
L 473.346 89.567786 
L 474.462 89.98868 
L 475.578 90.755171 
L 476.694 91.876797 
L 477.81 93.360264 
L 478.926 95.209325 
L 480.042 97.424704 
L 481.716 101.428715 
L 483.39 106.230524 
L 485.064 111.795107 
L 486.738 118.074118 
L 488.97 127.452283 
L 491.202 137.824705 
L 493.992 151.899165 
L 497.898 172.970327 
L 507.942 227.934844 
L 511.29 244.814809 
L 514.638 260.453787 
L 517.428 272.431303 
L 519.102 279.139085 
L 519.102 279.139085 
" style="fill:none;stroke:#9467bd;stroke-linecap:square;stroke-width:1.5;"/>
   </g>
   <g id="line2d_19">
    <path clip-path="url(#p0fabd95ecc)" d="M 112.878 339.244349 
L 117.342 332.360935 
L 122.364 324.153412 
L 128.502 313.639436 
L 137.43 297.836343 
L 144.684 284.633734 
L 149.706 275.058669 
L 153.612 267.174512 
L 157.518 258.798836 
L 161.982 248.618817 
L 173.7 221.33481 
L 175.932 216.825539 
L 178.164 212.834133 
L 179.838 210.260003 
L 181.512 208.104518 
L 183.186 206.416392 
L 184.302 205.572033 
L 185.418 204.965438 
L 186.534 204.605825 
L 187.65 204.500585 
L 188.766 204.655138 
L 189.882 205.072819 
L 190.998 205.754791 
L 192.114 206.69999 
L 193.23 207.905096 
L 194.346 209.364542 
L 196.02 212.013003 
L 197.694 215.180579 
L 199.368 218.822153 
L 201.6 224.320602 
L 203.832 230.417457 
L 207.18 240.324051 
L 215.55 265.61513 
L 218.34 273.194922 
L 220.572 278.699726 
L 222.804 283.635596 
L 225.036 287.965342 
L 226.71 290.807148 
L 228.384 293.304902 
L 230.058 295.468605 
L 231.732 297.313381 
L 233.406 298.858283 
L 235.08 300.125059 
L 236.754 301.136921 
L 238.428 301.917386 
L 240.102 302.489196 
L 241.776 302.873375 
L 244.008 303.125282 
L 246.24 303.111111 
L 248.472 302.854182 
L 250.704 302.365431 
L 252.936 301.643643 
L 255.168 300.676612 
L 257.4 299.443106 
L 259.632 297.915523 
L 261.864 296.063092 
L 264.096 293.855451 
L 266.328 291.266404 
L 268.56 288.277671 
L 270.792 284.882365 
L 273.024 281.087971 
L 275.814 275.822129 
L 278.604 270.057836 
L 282.51 261.403344 
L 290.322 243.901657 
L 293.112 238.250821 
L 295.344 234.161178 
L 297.576 230.531787 
L 299.808 227.412009 
L 301.482 225.423329 
L 303.156 223.73892 
L 304.83 222.353795 
L 306.504 221.256179 
L 308.178 220.42829 
L 309.852 219.847358 
L 311.526 219.486794 
L 313.2 219.317456 
L 315.432 219.336572 
L 317.664 219.570039 
L 321.012 220.177732 
L 334.962 223.061651 
L 339.426 223.629203 
L 343.332 223.911539 
L 346.68 223.938034 
L 349.47 223.751855 
L 352.26 223.317682 
L 354.492 222.750964 
L 356.724 221.955621 
L 358.956 220.90323 
L 361.188 219.570053 
L 363.42 217.938975 
L 365.652 216.001179 
L 367.884 213.757542 
L 370.116 211.219726 
L 372.906 207.670319 
L 376.254 202.956711 
L 380.718 196.208246 
L 385.74 188.658042 
L 388.53 184.827887 
L 390.762 182.101758 
L 392.994 179.765988 
L 394.668 178.31379 
L 396.342 177.145894 
L 398.016 176.280319 
L 399.69 175.727864 
L 401.364 175.491373 
L 403.038 175.565262 
L 404.712 175.935351 
L 406.386 176.579035 
L 408.06 177.465797 
L 410.292 178.960423 
L 413.082 181.180443 
L 419.778 186.763054 
L 422.01 188.287581 
L 423.684 189.212182 
L 425.358 189.910901 
L 427.032 190.356109 
L 428.706 190.526709 
L 430.38 190.407975 
L 432.054 189.991097 
L 433.728 189.272509 
L 435.402 188.253067 
L 437.076 186.93717 
L 438.75 185.331901 
L 440.424 183.446287 
L 442.656 180.514212 
L 444.888 177.130079 
L 447.12 173.32526 
L 449.91 168.034517 
L 452.7 162.236705 
L 456.606 153.516891 
L 463.302 138.428769 
L 465.534 133.92259 
L 467.208 130.902889 
L 468.882 128.285112 
L 470.556 126.153965 
L 471.672 125.044435 
L 472.788 124.211188 
L 473.904 123.67608 
L 475.02 123.459169 
L 476.136 123.578355 
L 477.252 124.049027 
L 478.368 124.883758 
L 479.484 126.092031 
L 480.6 127.680015 
L 481.716 129.650398 
L 482.832 132.002271 
L 484.506 136.23442 
L 486.18 141.28322 
L 487.854 147.100441 
L 489.528 153.6216 
L 491.76 163.273606 
L 494.55 176.564906 
L 498.456 196.597259 
L 505.152 231.247005 
L 507.942 244.631816 
L 510.732 256.919981 
L 512.964 265.816998 
L 515.196 273.80792 
L 517.428 280.856175 
L 519.102 285.517495 
L 520.776 289.64812 
L 522.45 293.259247 
L 524.124 296.367135 
L 525.798 298.992039 
L 527.472 301.157229 
L 529.146 302.888104 
L 530.82 304.211411 
L 531.936 304.880723 
L 531.936 304.880723 
" style="fill:none;stroke:#8c564b;stroke-linecap:square;stroke-width:1.5;"/>
   </g>
   <g id="line2d_20">
    <path clip-path="url(#p0fabd95ecc)" d="M 112.878 342.603497 
L 116.226 336.941949 
L 119.574 330.835894 
L 122.922 324.294017 
L 126.828 316.141042 
L 130.734 307.483033 
L 135.198 297.072461 
L 140.778 283.497741 
L 158.634 239.55664 
L 161.982 232.035314 
L 164.772 226.214768 
L 167.562 220.938485 
L 169.794 217.205822 
L 171.468 214.741713 
L 173.142 212.601153 
L 174.816 210.815406 
L 176.49 209.413544 
L 177.606 208.705159 
L 178.722 208.185596 
L 179.838 207.860517 
L 180.954 207.734487 
L 182.07 207.810861 
L 183.186 208.091688 
L 184.302 208.577626 
L 185.418 209.267884 
L 186.534 210.160171 
L 188.208 211.868658 
L 189.882 214.003535 
L 191.556 216.538091 
L 193.23 219.438625 
L 195.462 223.805443 
L 198.252 229.911065 
L 201.6 237.871798 
L 210.528 259.452172 
L 213.318 265.549513 
L 216.108 271.11982 
L 218.898 276.121635 
L 221.13 279.719252 
L 223.92 283.752562 
L 226.71 287.342404 
L 229.5 290.578607 
L 232.848 294.116827 
L 236.754 297.906744 
L 240.66 301.389754 
L 244.008 304.07023 
L 246.798 305.987814 
L 249.03 307.235508 
L 250.704 307.960863 
L 252.378 308.472941 
L 254.052 308.741874 
L 255.726 308.738643 
L 257.4 308.436049 
L 259.074 307.809636 
L 260.748 306.83855 
L 262.422 305.506315 
L 264.096 303.80151 
L 265.77 301.718336 
L 267.444 299.257057 
L 269.118 296.424309 
L 271.35 292.093168 
L 273.582 287.174983 
L 275.814 281.738663 
L 278.604 274.348373 
L 282.51 263.260839 
L 290.322 240.855505 
L 293.112 233.524495 
L 295.902 226.847878 
L 298.134 222.066064 
L 300.366 217.830064 
L 302.598 214.163114 
L 304.272 211.789491 
L 305.946 209.734021 
L 307.62 207.98743 
L 309.294 206.536587 
L 310.968 205.365352 
L 312.642 204.45543 
L 314.316 203.787197 
L 315.99 203.340441 
L 317.664 203.09501 
L 319.338 203.031335 
L 321.57 203.197186 
L 323.802 203.612561 
L 326.034 204.241013 
L 328.824 205.277142 
L 331.614 206.539488 
L 334.962 208.280847 
L 339.984 211.17534 
L 347.238 215.355404 
L 350.586 217.001479 
L 353.376 218.101129 
L 355.608 218.742916 
L 357.84 219.12679 
L 359.514 219.220512 
L 361.188 219.129682 
L 362.862 218.839751 
L 364.536 218.33842 
L 366.21 217.616261 
L 367.884 216.667367 
L 369.558 215.489971 
L 371.232 214.087015 
L 373.464 211.880386 
L 375.696 209.32252 
L 378.486 205.713116 
L 381.834 200.967829 
L 388.53 191.349299 
L 391.32 187.816905 
L 393.552 185.379631 
L 395.226 183.826866 
L 396.9 182.535161 
L 398.574 181.51866 
L 400.248 180.783116 
L 401.922 180.325806 
L 403.596 180.135851 
L 405.27 180.194928 
L 406.944 180.478351 
L 408.618 180.956464 
L 410.85 181.839526 
L 413.64 183.223205 
L 418.662 186.060315 
L 425.358 189.786556 
L 430.38 192.607009 
L 433.17 194.422782 
L 435.402 196.130535 
L 437.634 198.1513 
L 439.866 200.559239 
L 441.54 202.657848 
L 443.214 205.031282 
L 445.446 208.649301 
L 447.678 212.802424 
L 449.91 217.49016 
L 452.142 222.692393 
L 454.932 229.859204 
L 457.722 237.66196 
L 461.07 247.67273 
L 466.65 265.227996 
L 473.346 286.165533 
L 477.252 297.576233 
L 480.6 306.58391 
L 483.39 313.430579 
L 486.18 319.611229 
L 488.412 324.049667 
L 490.644 328.027928 
L 492.876 331.546647 
L 495.108 334.615868 
L 497.34 337.254648 
L 499.572 339.490368 
L 501.804 341.357755 
L 504.036 342.89759 
L 506.268 344.155164 
L 508.5 345.178528 
L 511.29 346.202876 
L 514.638 347.180276 
L 529.146 351.078235 
L 534.168 352.863126 
L 542.538 356.15815 
L 548.118 358.237882 
L 552.024 359.487219 
L 555.93 360.494919 
L 559.278 361.134075 
L 562.626 361.549299 
L 565.974 361.734606 
L 569.322 361.692137 
L 572.67 361.43077 
L 576.018 360.964661 
L 579.924 360.186257 
L 583.83 359.186435 
L 588.294 357.817126 
L 592.758 356.255182 
L 592.758 356.255182 
" style="fill:none;stroke:#e377c2;stroke-linecap:square;stroke-width:1.5;"/>
   </g>
   <g id="line2d_21">
    <path clip-path="url(#p0fabd95ecc)" d="M 90 378 
L 90 51.84 
" style="fill:none;stroke:#000000;stroke-linecap:square;stroke-width:0.5;"/>
   </g>
   <g id="line2d_22">
    <path clip-path="url(#p0fabd95ecc)" d="M 142.450293 378 
L 142.450293 51.84 
" style="fill:none;stroke:#000000;stroke-linecap:square;stroke-width:0.5;"/>
   </g>
   <g id="line2d_23">
    <path clip-path="url(#p0fabd95ecc)" d="M 194.900585 378 
L 194.900585 51.84 
" style="fill:none;stroke:#000000;stroke-linecap:square;stroke-width:0.5;"/>
   </g>
   <g id="line2d_24">
    <path clip-path="url(#p0fabd95ecc)" d="M 247.350878 378 
L 247.350878 51.84 
" style="fill:none;stroke:#000000;stroke-linecap:square;stroke-width:0.5;"/>
   </g>
   <g id="line2d_25">
    <path clip-path="url(#p0fabd95ecc)" d="M 299.801171 378 
L 299.801171 51.84 
" style="fill:none;stroke:#000000;stroke-linecap:square;stroke-width:0.5;"/>
   </g>
   <g id="line2d_26">
    <path clip-path="url(#p0fabd95ecc)" d="M 352.251464 378 
L 352.251464 51.84 
" style="fill:none;stroke:#000000;stroke-linecap:square;stroke-width:0.5;"/>
   </g>
   <g id="line2d_27">
    <path clip-path="url(#p0fabd95ecc)" d="M 404.701756 378 
L 404.701756 51.84 
" style="fill:none;stroke:#000000;stroke-linecap:square;stroke-width:0.5;"/>
   </g>
   <g id="line2d_28">
    <path clip-path="url(#p0fabd95ecc)" d="M 457.152049 378 
L 457.152049 51.84 
" style="fill:none;stroke:#000000;stroke-linecap:square;stroke-width:0.5;"/>
   </g>
   <g id="line2d_29">
    <path clip-path="url(#p0fabd95ecc)" d="M 509.602342 378 
L 509.602342 51.84 
" style="fill:none;stroke:#000000;stroke-linecap:square;stroke-width:0.5;"/>
   </g>
   <g id="line2d_30">
    <path clip-path="url(#p0fabd95ecc)" d="M 562.052635 378 
L 562.052635 51.84 
" style="fill:none;stroke:#000000;stroke-linecap:square;stroke-width:0.5;"/>
   </g>
   <g id="line2d_31">
    <path clip-path="url(#p0fabd95ecc)" d="M 614.502927 378 
L 614.502927 51.84 
" style="fill:none;stroke:#000000;stroke-linecap:square;stroke-width:0.5;"/>
   </g>
   <g id="patch_3">
    <path d="M 90 378 
L 90 51.84 
" style="fill:none;stroke:#000000;stroke-linecap:square;stroke-linejoin:miter;stroke-width:0.8;"/>
   </g>
   <g id="patch_4">
    <path d="M 648 378 
L 648 51.84 
" style="fill:none;stroke:#000000;stroke-linecap:square;stroke-linejoin:miter;stroke-width:0.8;"/>
   </g>
   <g id="patch_5">
    <path d="M 90 378 
L 648 378 
" style="fill:none;stroke:#000000;stroke-linecap:square;stroke-linejoin:miter;stroke-width:0.8;"/>
   </g>
   <g id="patch_6">
    <path d="M 90 51.84 
L 648 51.84 
" style="fill:none;stroke:#000000;stroke-linecap:square;stroke-linejoin:miter;stroke-width:0.8;"/>
   </g>
   <g id="legend_1">
    <g id="patch_7">
     <path d="M 577.46 165.996 
L 634.91 165.996 
Q 636.91 165.996 636.91 163.996 
L 636.91 62.249125 
Q 636.91 60.249125 634.91 60.249125 
L 577.46 60.249125 
Q 575.46 60.249125 575.46 62.249125 
L 575.46 163.996 
Q 575.46 165.996 577.46 165.996 
z
" style="fill:#ffffff;opacity:0.8;stroke:#cccccc;stroke-linejoin:miter;"/>
    </g>
    <g id="line2d_32">
     <path d="M 579.46 68.347562 
L 599.46 68.347562 
" style="fill:none;stroke:#1f77b4;stroke-linecap:square;stroke-width:1.5;"/>
    </g>
    <g id="line2d_33"/>
    <g id="text_16">
     <!-- 2000 -->
     <g transform="translate(607.46 71.847562)scale(0.1 -0.1)">
      <use xlink:href="#DejaVuSans-50"/>
      <use x="63.623047" xlink:href="#DejaVuSans-48"/>
      <use x="127.246094" xlink:href="#DejaVuSans-48"/>
      <use x="190.869141" xlink:href="#DejaVuSans-48"/>
     </g>
    </g>
    <g id="line2d_34">
     <path d="M 579.46 83.025688 
L 599.46 83.025688 
" style="fill:none;stroke:#ff7f0e;stroke-linecap:square;stroke-width:1.5;"/>
    </g>
    <g id="line2d_35"/>
    <g id="text_17">
     <!-- 2004 -->
     <g transform="translate(607.46 86.525688)scale(0.1 -0.1)">
      <use xlink:href="#DejaVuSans-50"/>
      <use x="63.623047" xlink:href="#DejaVuSans-48"/>
      <use x="127.246094" xlink:href="#DejaVuSans-48"/>
      <use x="190.869141" xlink:href="#DejaVuSans-52"/>
     </g>
    </g>
    <g id="line2d_36">
     <path d="M 579.46 97.703812 
L 599.46 97.703812 
" style="fill:none;stroke:#2ca02c;stroke-linecap:square;stroke-width:1.5;"/>
    </g>
    <g id="line2d_37"/>
    <g id="text_18">
     <!-- 2006 -->
     <g transform="translate(607.46 101.203812)scale(0.1 -0.1)">
      <use xlink:href="#DejaVuSans-50"/>
      <use x="63.623047" xlink:href="#DejaVuSans-48"/>
      <use x="127.246094" xlink:href="#DejaVuSans-48"/>
      <use x="190.869141" xlink:href="#DejaVuSans-54"/>
     </g>
    </g>
    <g id="line2d_38">
     <path d="M 579.46 112.381937 
L 599.46 112.381937 
" style="fill:none;stroke:#d62728;stroke-linecap:square;stroke-width:1.5;"/>
    </g>
    <g id="line2d_39"/>
    <g id="text_19">
     <!-- 2009 -->
     <defs>
      <path d="M 10.984375 1.515625 
L 10.984375 10.5 
Q 14.703125 8.734375 18.5 7.8125 
Q 22.3125 6.890625 25.984375 6.890625 
Q 35.75 6.890625 40.890625 13.453125 
Q 46.046875 20.015625 46.78125 33.40625 
Q 43.953125 29.203125 39.59375 26.953125 
Q 35.25 24.703125 29.984375 24.703125 
Q 19.046875 24.703125 12.671875 31.3125 
Q 6.296875 37.9375 6.296875 49.421875 
Q 6.296875 60.640625 12.9375 67.421875 
Q 19.578125 74.21875 30.609375 74.21875 
Q 43.265625 74.21875 49.921875 64.515625 
Q 56.59375 54.828125 56.59375 36.375 
Q 56.59375 19.140625 48.40625 8.859375 
Q 40.234375 -1.421875 26.421875 -1.421875 
Q 22.703125 -1.421875 18.890625 -0.6875 
Q 15.09375 0.046875 10.984375 1.515625 
z
M 30.609375 32.421875 
Q 37.25 32.421875 41.125 36.953125 
Q 45.015625 41.5 45.015625 49.421875 
Q 45.015625 57.28125 41.125 61.84375 
Q 37.25 66.40625 30.609375 66.40625 
Q 23.96875 66.40625 20.09375 61.84375 
Q 16.21875 57.28125 16.21875 49.421875 
Q 16.21875 41.5 20.09375 36.953125 
Q 23.96875 32.421875 30.609375 32.421875 
z
" id="DejaVuSans-57"/>
     </defs>
     <g transform="translate(607.46 115.881937)scale(0.1 -0.1)">
      <use xlink:href="#DejaVuSans-50"/>
      <use x="63.623047" xlink:href="#DejaVuSans-48"/>
      <use x="127.246094" xlink:href="#DejaVuSans-48"/>
      <use x="190.869141" xlink:href="#DejaVuSans-57"/>
     </g>
    </g>
    <g id="line2d_40">
     <path d="M 579.46 127.060062 
L 599.46 127.060062 
" style="fill:none;stroke:#9467bd;stroke-linecap:square;stroke-width:1.5;"/>
    </g>
    <g id="line2d_41"/>
    <g id="text_20">
     <!-- 2012 -->
     <g transform="translate(607.46 130.560062)scale(0.1 -0.1)">
      <use xlink:href="#DejaVuSans-50"/>
      <use x="63.623047" xlink:href="#DejaVuSans-48"/>
      <use x="127.246094" xlink:href="#DejaVuSans-49"/>
      <use x="190.869141" xlink:href="#DejaVuSans-50"/>
     </g>
    </g>
    <g id="line2d_42">
     <path d="M 579.46 141.738187 
L 599.46 141.738187 
" style="fill:none;stroke:#8c564b;stroke-linecap:square;stroke-width:1.5;"/>
    </g>
    <g id="line2d_43"/>
    <g id="text_21">
     <!-- 2014 -->
     <g transform="translate(607.46 145.238187)scale(0.1 -0.1)">
      <use xlink:href="#DejaVuSans-50"/>
      <use x="63.623047" xlink:href="#DejaVuSans-48"/>
      <use x="127.246094" xlink:href="#DejaVuSans-49"/>
      <use x="190.869141" xlink:href="#DejaVuSans-52"/>
     </g>
    </g>
    <g id="line2d_44">
     <path d="M 579.46 156.416313 
L 599.46 156.416313 
" style="fill:none;stroke:#e377c2;stroke-linecap:square;stroke-width:1.5;"/>
    </g>
    <g id="line2d_45"/>
    <g id="text_22">
     <!-- 2017 -->
     <defs>
      <path d="M 8.203125 72.90625 
L 55.078125 72.90625 
L 55.078125 68.703125 
L 28.609375 0 
L 18.3125 0 
L 43.21875 64.59375 
L 8.203125 64.59375 
z
" id="DejaVuSans-55"/>
     </defs>
     <g transform="translate(607.46 159.916313)scale(0.1 -0.1)">
      <use xlink:href="#DejaVuSans-50"/>
      <use x="63.623047" xlink:href="#DejaVuSans-48"/>
      <use x="127.246094" xlink:href="#DejaVuSans-49"/>
      <use x="190.869141" xlink:href="#DejaVuSans-55"/>
     </g>
    </g>
   </g>
  </g>
  <g id="axes_2">
   <g id="matplotlib.axis_3">
    <g id="ytick_8">
     <g id="line2d_46">
      <defs>
       <path d="M 0 0 
L 3.5 0 
" id="m6a1c6f9aa3" style="stroke:#000000;stroke-width:0.8;"/>
      </defs>
      <g>
       <use style="stroke:#000000;stroke-width:0.8;" x="648" xlink:href="#m6a1c6f9aa3" y="378"/>
      </g>
     </g>
     <g id="text_23">
      <!-- 430 -->
      <defs>
       <path d="M 10.59375 35.5 
L 73.1875 35.5 
L 73.1875 27.203125 
L 10.59375 27.203125 
z
" id="DejaVuSans-8722"/>
       <path d="M 40.578125 39.3125 
Q 47.65625 37.796875 51.625 33 
Q 55.609375 28.21875 55.609375 21.1875 
Q 55.609375 10.40625 48.1875 4.484375 
Q 40.765625 -1.421875 27.09375 -1.421875 
Q 22.515625 -1.421875 17.65625 -0.515625 
Q 12.796875 0.390625 7.625 2.203125 
L 7.625 11.71875 
Q 11.71875 9.328125 16.59375 8.109375 
Q 21.484375 6.890625 26.8125 6.890625 
Q 36.078125 6.890625 40.9375 10.546875 
Q 45.796875 14.203125 45.796875 21.1875 
Q 45.796875 27.640625 41.28125 31.265625 
Q 36.765625 34.90625 28.71875 34.90625 
L 20.21875 34.90625 
L 20.21875 43.015625 
L 29.109375 43.015625 
Q 36.375 43.015625 40.234375 45.921875 
Q 44.09375 48.828125 44.09375 54.296875 
Q 44.09375 59.90625 40.109375 62.90625 
Q 36.140625 65.921875 28.71875 65.921875 
Q 24.65625 65.921875 20.015625 65.03125 
Q 15.375 64.15625 9.8125 62.3125 
L 9.8125 71.09375 
Q 15.4375 72.65625 20.34375 73.4375 
Q 25.25 74.21875 29.59375 74.21875 
Q 40.828125 74.21875 47.359375 69.109375 
Q 53.90625 64.015625 53.90625 55.328125 
Q 53.90625 49.265625 50.4375 45.09375 
Q 46.96875 40.921875 40.578125 39.3125 
z
" id="DejaVuSans-51"/>
      </defs>
      <g transform="translate(655 381.799219)scale(0.1 -0.1)">
       <use xlink:href="#DejaVuSans-8722"/>
       <use x="83.789062" xlink:href="#DejaVuSans-52"/>
       <use x="147.412109" xlink:href="#DejaVuSans-51"/>
       <use x="211.035156" xlink:href="#DejaVuSans-48"/>
      </g>
     </g>
    </g>
    <g id="ytick_9">
     <g id="line2d_47">
      <g>
       <use style="stroke:#000000;stroke-width:0.8;" x="648" xlink:href="#m6a1c6f9aa3" y="312.768"/>
      </g>
     </g>
     <g id="text_24">
      <!-- 425 -->
      <defs>
       <path d="M 10.796875 72.90625 
L 49.515625 72.90625 
L 49.515625 64.59375 
L 19.828125 64.59375 
L 19.828125 46.734375 
Q 21.96875 47.46875 24.109375 47.828125 
Q 26.265625 48.1875 28.421875 48.1875 
Q 40.625 48.1875 47.75 41.5 
Q 54.890625 34.8125 54.890625 23.390625 
Q 54.890625 11.625 47.5625 5.09375 
Q 40.234375 -1.421875 26.90625 -1.421875 
Q 22.3125 -1.421875 17.546875 -0.640625 
Q 12.796875 0.140625 7.71875 1.703125 
L 7.71875 11.625 
Q 12.109375 9.234375 16.796875 8.0625 
Q 21.484375 6.890625 26.703125 6.890625 
Q 35.15625 6.890625 40.078125 11.328125 
Q 45.015625 15.765625 45.015625 23.390625 
Q 45.015625 31 40.078125 35.4375 
Q 35.15625 39.890625 26.703125 39.890625 
Q 22.75 39.890625 18.8125 39.015625 
Q 14.890625 38.140625 10.796875 36.28125 
z
" id="DejaVuSans-53"/>
      </defs>
      <g transform="translate(655 316.567219)scale(0.1 -0.1)">
       <use xlink:href="#DejaVuSans-8722"/>
       <use x="83.789062" xlink:href="#DejaVuSans-52"/>
       <use x="147.412109" xlink:href="#DejaVuSans-50"/>
       <use x="211.035156" xlink:href="#DejaVuSans-53"/>
      </g>
     </g>
    </g>
    <g id="ytick_10">
     <g id="line2d_48">
      <g>
       <use style="stroke:#000000;stroke-width:0.8;" x="648" xlink:href="#m6a1c6f9aa3" y="247.536"/>
      </g>
     </g>
     <g id="text_25">
      <!-- 420 -->
      <g transform="translate(655 251.335219)scale(0.1 -0.1)">
       <use xlink:href="#DejaVuSans-8722"/>
       <use x="83.789062" xlink:href="#DejaVuSans-52"/>
       <use x="147.412109" xlink:href="#DejaVuSans-50"/>
       <use x="211.035156" xlink:href="#DejaVuSans-48"/>
      </g>
     </g>
    </g>
    <g id="ytick_11">
     <g id="line2d_49">
      <g>
       <use style="stroke:#000000;stroke-width:0.8;" x="648" xlink:href="#m6a1c6f9aa3" y="182.304"/>
      </g>
     </g>
     <g id="text_26">
      <!-- 415 -->
      <g transform="translate(655 186.103219)scale(0.1 -0.1)">
       <use xlink:href="#DejaVuSans-8722"/>
       <use x="83.789062" xlink:href="#DejaVuSans-52"/>
       <use x="147.412109" xlink:href="#DejaVuSans-49"/>
       <use x="211.035156" xlink:href="#DejaVuSans-53"/>
      </g>
     </g>
    </g>
    <g id="ytick_12">
     <g id="line2d_50">
      <g>
       <use style="stroke:#000000;stroke-width:0.8;" x="648" xlink:href="#m6a1c6f9aa3" y="117.072"/>
      </g>
     </g>
     <g id="text_27">
      <!-- 410 -->
      <g transform="translate(655 120.871219)scale(0.1 -0.1)">
       <use xlink:href="#DejaVuSans-8722"/>
       <use x="83.789062" xlink:href="#DejaVuSans-52"/>
       <use x="147.412109" xlink:href="#DejaVuSans-49"/>
       <use x="211.035156" xlink:href="#DejaVuSans-48"/>
      </g>
     </g>
    </g>
    <g id="ytick_13">
     <g id="line2d_51">
      <g>
       <use style="stroke:#000000;stroke-width:0.8;" x="648" xlink:href="#m6a1c6f9aa3" y="51.84"/>
      </g>
     </g>
     <g id="text_28">
      <!-- 405 -->
      <g transform="translate(655 55.639219)scale(0.1 -0.1)">
       <use xlink:href="#DejaVuSans-8722"/>
       <use x="83.789062" xlink:href="#DejaVuSans-52"/>
       <use x="147.412109" xlink:href="#DejaVuSans-48"/>
       <use x="211.035156" xlink:href="#DejaVuSans-53"/>
      </g>
     </g>
    </g>
    <g id="text_29">
     <!-- meander belt axis profile elevation [m] -->
     <defs>
      <path d="M 48.6875 27.296875 
Q 48.6875 37.203125 44.609375 42.84375 
Q 40.53125 48.484375 33.40625 48.484375 
Q 26.265625 48.484375 22.1875 42.84375 
Q 18.109375 37.203125 18.109375 27.296875 
Q 18.109375 17.390625 22.1875 11.75 
Q 26.265625 6.109375 33.40625 6.109375 
Q 40.53125 6.109375 44.609375 11.75 
Q 48.6875 17.390625 48.6875 27.296875 
z
M 18.109375 46.390625 
Q 20.953125 51.265625 25.265625 53.625 
Q 29.59375 56 35.59375 56 
Q 45.5625 56 51.78125 48.09375 
Q 58.015625 40.1875 58.015625 27.296875 
Q 58.015625 14.40625 51.78125 6.484375 
Q 45.5625 -1.421875 35.59375 -1.421875 
Q 29.59375 -1.421875 25.265625 0.953125 
Q 20.953125 3.328125 18.109375 8.203125 
L 18.109375 0 
L 9.078125 0 
L 9.078125 75.984375 
L 18.109375 75.984375 
z
" id="DejaVuSans-98"/>
      <path d="M 54.890625 54.6875 
L 35.109375 28.078125 
L 55.90625 0 
L 45.3125 0 
L 29.390625 21.484375 
L 13.484375 0 
L 2.875 0 
L 24.125 28.609375 
L 4.6875 54.6875 
L 15.28125 54.6875 
L 29.78125 35.203125 
L 44.28125 54.6875 
z
" id="DejaVuSans-120"/>
      <path d="M 2.984375 54.6875 
L 12.5 54.6875 
L 29.59375 8.796875 
L 46.6875 54.6875 
L 56.203125 54.6875 
L 35.6875 0 
L 23.484375 0 
z
" id="DejaVuSans-118"/>
     </defs>
     <g transform="translate(695.585312 332.35875)rotate(-90)scale(0.12 -0.12)">
      <use xlink:href="#DejaVuSans-109"/>
      <use x="97.412109" xlink:href="#DejaVuSans-101"/>
      <use x="158.935547" xlink:href="#DejaVuSans-97"/>
      <use x="220.214844" xlink:href="#DejaVuSans-110"/>
      <use x="283.59375" xlink:href="#DejaVuSans-100"/>
      <use x="347.070312" xlink:href="#DejaVuSans-101"/>
      <use x="408.59375" xlink:href="#DejaVuSans-114"/>
      <use x="449.707031" xlink:href="#DejaVuSans-32"/>
      <use x="481.494141" xlink:href="#DejaVuSans-98"/>
      <use x="544.970703" xlink:href="#DejaVuSans-101"/>
      <use x="606.494141" xlink:href="#DejaVuSans-108"/>
      <use x="634.277344" xlink:href="#DejaVuSans-116"/>
      <use x="673.486328" xlink:href="#DejaVuSans-32"/>
      <use x="705.273438" xlink:href="#DejaVuSans-97"/>
      <use x="766.552734" xlink:href="#DejaVuSans-120"/>
      <use x="825.732422" xlink:href="#DejaVuSans-105"/>
      <use x="853.515625" xlink:href="#DejaVuSans-115"/>
      <use x="905.615234" xlink:href="#DejaVuSans-32"/>
      <use x="937.402344" xlink:href="#DejaVuSans-112"/>
      <use x="1000.878906" xlink:href="#DejaVuSans-114"/>
      <use x="1041.960938" xlink:href="#DejaVuSans-111"/>
      <use x="1103.142578" xlink:href="#DejaVuSans-102"/>
      <use x="1138.347656" xlink:href="#DejaVuSans-105"/>
      <use x="1166.130859" xlink:href="#DejaVuSans-108"/>
      <use x="1193.914062" xlink:href="#DejaVuSans-101"/>
      <use x="1255.4375" xlink:href="#DejaVuSans-32"/>
      <use x="1287.224609" xlink:href="#DejaVuSans-101"/>
      <use x="1348.748047" xlink:href="#DejaVuSans-108"/>
      <use x="1376.53125" xlink:href="#DejaVuSans-101"/>
      <use x="1438.054688" xlink:href="#DejaVuSans-118"/>
      <use x="1497.234375" xlink:href="#DejaVuSans-97"/>
      <use x="1558.513672" xlink:href="#DejaVuSans-116"/>
      <use x="1597.722656" xlink:href="#DejaVuSans-105"/>
      <use x="1625.505859" xlink:href="#DejaVuSans-111"/>
      <use x="1686.6875" xlink:href="#DejaVuSans-110"/>
      <use x="1750.066406" xlink:href="#DejaVuSans-32"/>
      <use x="1781.853516" xlink:href="#DejaVuSans-91"/>
      <use x="1820.867188" xlink:href="#DejaVuSans-109"/>
      <use x="1918.279297" xlink:href="#DejaVuSans-93"/>
     </g>
    </g>
   </g>
   <g id="line2d_52">
    <path clip-path="url(#p0fabd95ecc)" d="M 90 54.404472 
L 102.834 64.642137 
L 115.668 73.490275 
L 128.502 80.680954 
L 141.336 85.994631 
L 154.17 89.433281 
L 167.004 91.402168 
L 179.838 92.30774 
L 192.672 93.013476 
L 203.324828 94.869836 
L 216.158828 98.474104 
L 228.992828 103.334571 
L 241.826828 109.470869 
L 254.660828 116.675417 
L 267.494828 124.562096 
L 280.328828 132.971361 
L 290.906865 139.858984 
L 303.740865 148.570012 
L 316.574865 155.615312 
L 329.408865 160.293835 
L 342.242865 173.361825 
L 355.076865 192.249376 
L 367.910865 211.688546 
L 379.060271 228.555718 
L 391.894271 241.66719 
L 404.728271 250.993745 
L 417.562271 259.284487 
L 430.396271 266.023672 
L 440.274663 269.740199 
L 453.108663 274.201874 
L 465.942663 276.892987 
L 478.776663 283.8422 
L 491.610663 292.63285 
L 504.444663 298.634728 
L 517.278663 301.622869 
L 530.112663 304.008333 
L 542.946663 308.14761 
L 555.780663 314.099315 
L 568.614663 321.239115 
L 581.448663 328.451747 
L 594.282663 334.88617 
L 607.116663 338.102919 
L 614.502927 340.294666 
" style="fill:none;stroke:#000000;stroke-dasharray:9.6,2.4,1.5,2.4;stroke-dashoffset:0;stroke-width:1.5;"/>
   </g>
   <g id="line2d_53">
    <path clip-path="url(#p0fabd95ecc)" d="M 90 117.470538 
L 102.834 121.070478 
L 115.668 123.682443 
L 128.502 125.873815 
L 141.336 129.498268 
L 154.17 131.72481 
L 167.004 129.670214 
L 179.838 141.563095 
L 192.672 157.937287 
L 203.324828 159.827395 
L 216.158828 189.002383 
L 228.992828 215.520176 
L 241.826828 226.395222 
L 254.660828 230.464834 
L 267.494828 234.395251 
L 280.328828 234.598468 
L 290.906865 220.521824 
L 303.740865 214.889034 
L 316.574865 212.748055 
L 329.408865 223.783963 
L 342.242865 234.894392 
L 355.076865 241.644625 
L 367.910865 252.362276 
L 379.060271 264.121466 
L 391.894271 274.799136 
L 404.728271 281.18294 
L 417.562271 288.120722 
L 430.396271 292.763091 
L 440.274663 296.810595 
L 453.108663 304.913531 
L 465.942663 312.834715 
L 478.776663 319.121504 
L 491.610663 324.564586 
L 504.444663 330.996486 
L 517.278663 337.585487 
L 530.112663 343.133384 
L 542.946663 346.950104 
L 555.780663 350.990543 
L 568.614663 353.885161 
L 581.448663 357.044044 
L 594.282663 360.298348 
L 607.116663 363.258485 
L 614.502927 364.698472 
" style="fill:none;stroke:#000000;stroke-dasharray:5.55,2.4;stroke-dashoffset:0;stroke-width:1.5;"/>
   </g>
   <g id="patch_8">
    <path d="M 90 378 
L 90 51.84 
" style="fill:none;stroke:#000000;stroke-linecap:square;stroke-linejoin:miter;stroke-width:0.8;"/>
   </g>
   <g id="patch_9">
    <path d="M 648 378 
L 648 51.84 
" style="fill:none;stroke:#000000;stroke-linecap:square;stroke-linejoin:miter;stroke-width:0.8;"/>
   </g>
   <g id="patch_10">
    <path d="M 90 378 
L 648 378 
" style="fill:none;stroke:#000000;stroke-linecap:square;stroke-linejoin:miter;stroke-width:0.8;"/>
   </g>
   <g id="patch_11">
    <path d="M 90 51.84 
L 648 51.84 
" style="fill:none;stroke:#000000;stroke-linecap:square;stroke-linejoin:miter;stroke-width:0.8;"/>
   </g>
   <g id="legend_2">
    <g id="patch_12">
     <path d="M 97 89.19625 
L 282.253125 89.19625 
Q 284.253125 89.19625 284.253125 87.19625 
L 284.253125 58.84 
Q 284.253125 56.84 282.253125 56.84 
L 97 56.84 
Q 95 56.84 95 58.84 
L 95 87.19625 
Q 95 89.19625 97 89.19625 
z
" style="fill:#ffffff;opacity:0.8;stroke:#cccccc;stroke-linejoin:miter;"/>
    </g>
    <g id="line2d_54">
     <path d="M 99 64.938437 
L 119 64.938437 
" style="fill:none;stroke:#000000;stroke-dasharray:9.6,2.4,1.5,2.4;stroke-dashoffset:0;stroke-width:1.5;"/>
    </g>
    <g id="line2d_55"/>
    <g id="text_30">
     <!-- meander belt axis profile, unc. -->
     <defs>
      <path d="M 11.71875 12.40625 
L 22.015625 12.40625 
L 22.015625 4 
L 14.015625 -11.625 
L 7.71875 -11.625 
L 11.71875 4 
z
" id="DejaVuSans-44"/>
     </defs>
     <g transform="translate(127 68.438437)scale(0.1 -0.1)">
      <use xlink:href="#DejaVuSans-109"/>
      <use x="97.412109" xlink:href="#DejaVuSans-101"/>
      <use x="158.935547" xlink:href="#DejaVuSans-97"/>
      <use x="220.214844" xlink:href="#DejaVuSans-110"/>
      <use x="283.59375" xlink:href="#DejaVuSans-100"/>
      <use x="347.070312" xlink:href="#DejaVuSans-101"/>
      <use x="408.59375" xlink:href="#DejaVuSans-114"/>
      <use x="449.707031" xlink:href="#DejaVuSans-32"/>
      <use x="481.494141" xlink:href="#DejaVuSans-98"/>
      <use x="544.970703" xlink:href="#DejaVuSans-101"/>
      <use x="606.494141" xlink:href="#DejaVuSans-108"/>
      <use x="634.277344" xlink:href="#DejaVuSans-116"/>
      <use x="673.486328" xlink:href="#DejaVuSans-32"/>
      <use x="705.273438" xlink:href="#DejaVuSans-97"/>
      <use x="766.552734" xlink:href="#DejaVuSans-120"/>
      <use x="825.732422" xlink:href="#DejaVuSans-105"/>
      <use x="853.515625" xlink:href="#DejaVuSans-115"/>
      <use x="905.615234" xlink:href="#DejaVuSans-32"/>
      <use x="937.402344" xlink:href="#DejaVuSans-112"/>
      <use x="1000.878906" xlink:href="#DejaVuSans-114"/>
      <use x="1041.960938" xlink:href="#DejaVuSans-111"/>
      <use x="1103.142578" xlink:href="#DejaVuSans-102"/>
      <use x="1138.347656" xlink:href="#DejaVuSans-105"/>
      <use x="1166.130859" xlink:href="#DejaVuSans-108"/>
      <use x="1193.914062" xlink:href="#DejaVuSans-101"/>
      <use x="1255.4375" xlink:href="#DejaVuSans-44"/>
      <use x="1287.224609" xlink:href="#DejaVuSans-32"/>
      <use x="1319.011719" xlink:href="#DejaVuSans-117"/>
      <use x="1382.390625" xlink:href="#DejaVuSans-110"/>
      <use x="1445.769531" xlink:href="#DejaVuSans-99"/>
      <use x="1500.75" xlink:href="#DejaVuSans-46"/>
     </g>
    </g>
    <g id="line2d_56">
     <path d="M 99 79.616562 
L 119 79.616562 
" style="fill:none;stroke:#000000;stroke-dasharray:5.55,2.4;stroke-dashoffset:0;stroke-width:1.5;"/>
    </g>
    <g id="line2d_57"/>
    <g id="text_31">
     <!-- meander belt axis profile, c. -->
     <g transform="translate(127 83.116562)scale(0.1 -0.1)">
      <use xlink:href="#DejaVuSans-109"/>
      <use x="97.412109" xlink:href="#DejaVuSans-101"/>
      <use x="158.935547" xlink:href="#DejaVuSans-97"/>
      <use x="220.214844" xlink:href="#DejaVuSans-110"/>
      <use x="283.59375" xlink:href="#DejaVuSans-100"/>
      <use x="347.070312" xlink:href="#DejaVuSans-101"/>
      <use x="408.59375" xlink:href="#DejaVuSans-114"/>
      <use x="449.707031" xlink:href="#DejaVuSans-32"/>
      <use x="481.494141" xlink:href="#DejaVuSans-98"/>
      <use x="544.970703" xlink:href="#DejaVuSans-101"/>
      <use x="606.494141" xlink:href="#DejaVuSans-108"/>
      <use x="634.277344" xlink:href="#DejaVuSans-116"/>
      <use x="673.486328" xlink:href="#DejaVuSans-32"/>
      <use x="705.273438" xlink:href="#DejaVuSans-97"/>
      <use x="766.552734" xlink:href="#DejaVuSans-120"/>
      <use x="825.732422" xlink:href="#DejaVuSans-105"/>
      <use x="853.515625" xlink:href="#DejaVuSans-115"/>
      <use x="905.615234" xlink:href="#DejaVuSans-32"/>
      <use x="937.402344" xlink:href="#DejaVuSans-112"/>
      <use x="1000.878906" xlink:href="#DejaVuSans-114"/>
      <use x="1041.960938" xlink:href="#DejaVuSans-111"/>
      <use x="1103.142578" xlink:href="#DejaVuSans-102"/>
      <use x="1138.347656" xlink:href="#DejaVuSans-105"/>
      <use x="1166.130859" xlink:href="#DejaVuSans-108"/>
      <use x="1193.914062" xlink:href="#DejaVuSans-101"/>
      <use x="1255.4375" xlink:href="#DejaVuSans-44"/>
      <use x="1287.224609" xlink:href="#DejaVuSans-32"/>
      <use x="1319.011719" xlink:href="#DejaVuSans-99"/>
      <use x="1373.992188" xlink:href="#DejaVuSans-46"/>
     </g>
    </g>
   </g>
  </g>
  <g id="axes_3">
   <g id="matplotlib.axis_4">
    <g id="xtick_7">
     <g id="line2d_58">
      <defs>
       <path d="M 0 0 
L 0 -3.5 
" id="me4a20af480" style="stroke:#000000;stroke-width:0.8;"/>
      </defs>
      <g>
       <use style="stroke:#000000;stroke-width:0.8;" x="90" xlink:href="#me4a20af480" y="51.84"/>
      </g>
     </g>
    </g>
    <g id="xtick_8">
     <g id="line2d_59">
      <g>
       <use style="stroke:#000000;stroke-width:0.8;" x="142.450293" xlink:href="#me4a20af480" y="51.84"/>
      </g>
     </g>
    </g>
    <g id="xtick_9">
     <g id="line2d_60">
      <g>
       <use style="stroke:#000000;stroke-width:0.8;" x="194.900585" xlink:href="#me4a20af480" y="51.84"/>
      </g>
     </g>
    </g>
    <g id="xtick_10">
     <g id="line2d_61">
      <g>
       <use style="stroke:#000000;stroke-width:0.8;" x="247.350878" xlink:href="#me4a20af480" y="51.84"/>
      </g>
     </g>
    </g>
    <g id="xtick_11">
     <g id="line2d_62">
      <g>
       <use style="stroke:#000000;stroke-width:0.8;" x="299.801171" xlink:href="#me4a20af480" y="51.84"/>
      </g>
     </g>
    </g>
    <g id="xtick_12">
     <g id="line2d_63">
      <g>
       <use style="stroke:#000000;stroke-width:0.8;" x="352.251464" xlink:href="#me4a20af480" y="51.84"/>
      </g>
     </g>
    </g>
    <g id="xtick_13">
     <g id="line2d_64">
      <g>
       <use style="stroke:#000000;stroke-width:0.8;" x="404.701756" xlink:href="#me4a20af480" y="51.84"/>
      </g>
     </g>
    </g>
    <g id="xtick_14">
     <g id="line2d_65">
      <g>
       <use style="stroke:#000000;stroke-width:0.8;" x="457.152049" xlink:href="#me4a20af480" y="51.84"/>
      </g>
     </g>
    </g>
    <g id="xtick_15">
     <g id="line2d_66">
      <g>
       <use style="stroke:#000000;stroke-width:0.8;" x="509.602342" xlink:href="#me4a20af480" y="51.84"/>
      </g>
     </g>
    </g>
    <g id="xtick_16">
     <g id="line2d_67">
      <g>
       <use style="stroke:#000000;stroke-width:0.8;" x="562.052635" xlink:href="#me4a20af480" y="51.84"/>
      </g>
     </g>
    </g>
    <g id="xtick_17">
     <g id="line2d_68">
      <g>
       <use style="stroke:#000000;stroke-width:0.8;" x="614.502927" xlink:href="#me4a20af480" y="51.84"/>
      </g>
     </g>
    </g>
    <g id="xtick_18">
     <g id="line2d_69"/>
     <g id="text_32">
      <!-- 1 -->
      <g transform="translate(113.043896 44.360313)scale(0.1 -0.1)">
       <use xlink:href="#DejaVuSans-49"/>
      </g>
     </g>
    </g>
    <g id="xtick_19">
     <g id="line2d_70"/>
     <g id="text_33">
      <!-- 2 -->
      <g transform="translate(165.494189 44.360313)scale(0.1 -0.1)">
       <use xlink:href="#DejaVuSans-50"/>
      </g>
     </g>
    </g>
    <g id="xtick_20">
     <g id="line2d_71"/>
     <g id="text_34">
      <!-- 3 -->
      <g transform="translate(217.944482 44.360313)scale(0.1 -0.1)">
       <use xlink:href="#DejaVuSans-51"/>
      </g>
     </g>
    </g>
    <g id="xtick_21">
     <g id="line2d_72"/>
     <g id="text_35">
      <!-- 4 -->
      <g transform="translate(270.394775 44.360313)scale(0.1 -0.1)">
       <use xlink:href="#DejaVuSans-52"/>
      </g>
     </g>
    </g>
    <g id="xtick_22">
     <g id="line2d_73"/>
     <g id="text_36">
      <!-- 5 -->
      <g transform="translate(322.845067 44.360313)scale(0.1 -0.1)">
       <use xlink:href="#DejaVuSans-53"/>
      </g>
     </g>
    </g>
    <g id="xtick_23">
     <g id="line2d_74"/>
     <g id="text_37">
      <!-- 6 -->
      <g transform="translate(375.29536 44.360313)scale(0.1 -0.1)">
       <use xlink:href="#DejaVuSans-54"/>
      </g>
     </g>
    </g>
    <g id="xtick_24">
     <g id="line2d_75"/>
     <g id="text_38">
      <!-- 7 -->
      <g transform="translate(427.745653 44.360313)scale(0.1 -0.1)">
       <use xlink:href="#DejaVuSans-55"/>
      </g>
     </g>
    </g>
    <g id="xtick_25">
     <g id="line2d_76"/>
     <g id="text_39">
      <!-- 8 -->
      <g transform="translate(480.195946 44.360313)scale(0.1 -0.1)">
       <use xlink:href="#DejaVuSans-56"/>
      </g>
     </g>
    </g>
    <g id="xtick_26">
     <g id="line2d_77"/>
     <g id="text_40">
      <!-- 9 -->
      <g transform="translate(532.646238 44.360313)scale(0.1 -0.1)">
       <use xlink:href="#DejaVuSans-57"/>
      </g>
     </g>
    </g>
    <g id="xtick_27">
     <g id="line2d_78"/>
     <g id="text_41">
      <!-- 10 -->
      <g transform="translate(581.915281 44.360313)scale(0.1 -0.1)">
       <use xlink:href="#DejaVuSans-49"/>
       <use x="63.623047" xlink:href="#DejaVuSans-48"/>
      </g>
     </g>
    </g>
    <g id="xtick_28">
     <g id="line2d_79"/>
    </g>
    <g id="text_42">
     <!-- reach -->
     <g transform="translate(352.065 32.761875)scale(0.12 -0.12)">
      <use xlink:href="#DejaVuSans-114"/>
      <use x="41.082031" xlink:href="#DejaVuSans-101"/>
      <use x="102.605469" xlink:href="#DejaVuSans-97"/>
      <use x="163.884766" xlink:href="#DejaVuSans-99"/>
      <use x="218.865234" xlink:href="#DejaVuSans-104"/>
     </g>
    </g>
   </g>
   <g id="line2d_80">
    <path clip-path="url(#p0fabd95ecc)" d="M 0 0 
" style="fill:none;stroke:#1f77b4;stroke-linecap:square;stroke-width:1.5;"/>
   </g>
   <g id="patch_13">
    <path d="M 90 378 
L 90 51.84 
" style="fill:none;stroke:#000000;stroke-linecap:square;stroke-linejoin:miter;stroke-width:0.8;"/>
   </g>
   <g id="patch_14">
    <path d="M 648 378 
L 648 51.84 
" style="fill:none;stroke:#000000;stroke-linecap:square;stroke-linejoin:miter;stroke-width:0.8;"/>
   </g>
   <g id="patch_15">
    <path d="M 90 378 
L 648 378 
" style="fill:none;stroke:#000000;stroke-linecap:square;stroke-linejoin:miter;stroke-width:0.8;"/>
   </g>
   <g id="patch_16">
    <path d="M 90 51.84 
L 648 51.84 
" style="fill:none;stroke:#000000;stroke-linecap:square;stroke-linejoin:miter;stroke-width:0.8;"/>
   </g>
  </g>
 </g>
 <defs>
  <clipPath id="p0fabd95ecc">
   <rect height="326.16" width="558" x="90" y="51.84"/>
  </clipPath>
 </defs>
</svg>
